<?xml version="1.0" encoding="UTF-8" standalone="no"?>
<!-- Generator: Adobe Illustrator 15.1.0, SVG Export Plug-In  -->

<svg
   xmlns:dc="http://purl.org/dc/elements/1.1/"
   xmlns:cc="http://creativecommons.org/ns#"
   xmlns:rdf="http://www.w3.org/1999/02/22-rdf-syntax-ns#"
   xmlns:svg="http://www.w3.org/2000/svg"
   xmlns="http://www.w3.org/2000/svg"
   xmlns:sodipodi="http://sodipodi.sourceforge.net/DTD/sodipodi-0.dtd"
   xmlns:inkscape="http://www.inkscape.org/namespaces/inkscape"
   version="1.1"
   x="0px"
   y="0px"
   width="50"
   height="50"
   viewBox="-1.987 -3.05 50 50"
   enable-background="new -1.987 -3.05 70 85"
   xml:space="preserve"
   id="svg2"
   inkscape:version="0.91 r13725"
   sodipodi:docname="bakery.svg"><metadata
     id="metadata26"><rdf:RDF><cc:Work
         rdf:about=""><dc:format>image/svg+xml</dc:format><dc:type
           rdf:resource="http://purl.org/dc/dcmitype/StillImage" /><dc:title></dc:title></cc:Work></rdf:RDF></metadata><sodipodi:namedview
     pagecolor="#ffffff"
     bordercolor="#666666"
     borderopacity="1"
     objecttolerance="10"
     gridtolerance="10"
     guidetolerance="10"
     inkscape:pageopacity="0"
     inkscape:pageshadow="2"
     inkscape:window-width="1600"
     inkscape:window-height="878"
     id="namedview24"
     showgrid="false"
     inkscape:zoom="2.7764706"
     inkscape:cx="7.5606992"
     inkscape:cy="7.7900173"
     inkscape:window-x="0"
     inkscape:window-y="22"
     inkscape:window-maximized="0"
     inkscape:current-layer="svg2" /><defs
     id="defs4" /><path
     inkscape:connector-curvature="0"
     style="fill:#f21d2f"
     d="m 28.950309,27.444158 c -4.16,-0.936 -13.869,0.154 -13.869,0.154 -2.801,0.585 -5.1679995,-0.688 -7.1269995,-0.967 l 6.1449995,13.176 c 0.48,0.86 2.391,1.563 4.243,1.563 l 9.093,0 c 1.854,0 3.764,-0.703 4.244,-1.563 l 6.463,-13.147 c -4.528,0.516 -9.192,0.784 -9.192,0.784 z m -11.899,12.696 c -0.063,0.015 -0.127,0.024 -0.188,0.024 -0.251,0 -0.482,-0.125 -0.565,-0.32 l -4.062,-9.679 c -0.103,-0.246 0.067,-0.51 0.379,-0.592 0.311,-0.083 0.647,0.053 0.75,0.296 l 4.061,9.679 c 0.106,0.245 -0.062,0.51 -0.375,0.592 z m 3.186,0.014 c -0.037,0.006 -0.07,0.009 -0.103,0.009 -0.284,0 -0.536,-0.161 -0.587,-0.387 l -2.279,-10.302 c -0.055,-0.254 0.161,-0.497 0.484,-0.541 0.33,-0.055 0.631,0.128 0.688,0.381 l 2.278,10.3 c 0.058,0.254 -0.159,0.498 -0.481,0.54 z m 3.189,0.01 c -0.01,0 -0.016,0 -0.023,0 -0.318,0 -0.581,-0.199 -0.592,-0.451 l -0.498,-10.769 c -0.01,-0.26 0.246,-0.476 0.574,-0.485 0.317,0.024 0.604,0.191 0.615,0.452 l 0.494,10.767 c 0.013,0.258 -0.242,0.475 -0.57,0.486 z m 3.338,-0.387 c -0.051,0.227 -0.301,0.387 -0.586,0.387 -0.031,0 -0.066,-0.003 -0.103,-0.009 -0.323,-0.042 -0.538,-0.287 -0.483,-0.54 l 2.279,-10.3 c 0.057,-0.253 0.36,-0.434 0.688,-0.381 0.322,0.044 0.541,0.287 0.482,0.541 l -2.277,10.302 z m 3.248,0.067 c -0.081,0.195 -0.314,0.32 -0.563,0.32 -0.063,0 -0.127,-0.009 -0.188,-0.024 -0.313,-0.082 -0.48,-0.347 -0.378,-0.592 l 4.062,-9.678 c 0.104,-0.243 0.439,-0.379 0.752,-0.296 0.312,0.082 0.481,0.346 0.377,0.592 l -4.062,9.678 z"
     id="path10219" /><path
     inkscape:connector-curvature="0"
     style="fill:#ffc200"
     d="m 37.059309,11.657158 c -0.468,-10.76799784 -10.299,-6.086998 -10.299,-6.086998 -10.3,-7.4899998 -16.384,3.748 -16.384,3.748 -9.71099949,0.809 -5.6199995,12.482998 -2.7679995,14.264998 0.891,0.551 2.072,1.082 3.5519995,1.346 1.542,0.276 3.407,0.268 5.614,-0.319 0,0 7.645,-1.094 10.922,-0.156 0,0 3.674,0.374 7.24,-0.14 1.676,-0.243 3.326,-0.682 4.563,-1.452 7.364,-6.744 -2.44,-11.205 -2.44,-11.205 z m -25.529,7.414 c -3.0059995,-2.795 1.107,-3.122 2.027,-3.109 0.919,0.018 1.547,1.959 1.547,1.959 0,0 -0.572,3.946 -3.574,1.15 z m 5.711,-6.947 c -2.964,-0.78 -0.623,-2.650998 0.155,-3.118998 0.782,-0.471 1.717,0.78 1.717,0.78 0,0 1.093,3.121998 -1.872,2.338998 z m 5.684,6.303 c -3.339,-3.219 1.239,-3.764 2.444,-3.779 1.205,-0.016 1.778,1.419 1.778,1.419 0,0 -0.885,5.574 -4.222,2.36 z m 5.307,-6.542 c -2.967,-2.860998 2.174,-3.361998 2.174,-3.361998 0,0 1.581,0.795 1.511,2.020999 -0.074,1.225999 -0.717,4.194999 -3.685,1.340999 z m 5.349,7.469 c -2.135,-0.56 0.112,-2.247 0.112,-2.247 0,0 0.948,-0.534 1.237,0.562 0.289,1.094 0.787,2.247 -1.349,1.685 z"
     id="path10221" /></svg>