<?xml version="1.0" encoding="UTF-8" standalone="no"?>
<!-- Generator: Adobe Illustrator 15.1.0, SVG Export Plug-In  -->

<svg
   xmlns:dc="http://purl.org/dc/elements/1.1/"
   xmlns:cc="http://creativecommons.org/ns#"
   xmlns:rdf="http://www.w3.org/1999/02/22-rdf-syntax-ns#"
   xmlns:svg="http://www.w3.org/2000/svg"
   xmlns="http://www.w3.org/2000/svg"
   xmlns:sodipodi="http://sodipodi.sourceforge.net/DTD/sodipodi-0.dtd"
   xmlns:inkscape="http://www.inkscape.org/namespaces/inkscape"
   version="1.1"
   x="0px"
   y="0px"
   width="50"
   height="50"
   viewBox="-1.987 -3.05 50 50"
   enable-background="new -1.987 -3.05 70 85"
   xml:space="preserve"
   id="svg2"
   inkscape:version="0.91 r13725"
   sodipodi:docname="beer.svg"><metadata
     id="metadata26"><rdf:RDF><cc:Work
         rdf:about=""><dc:format>image/svg+xml</dc:format><dc:type
           rdf:resource="http://purl.org/dc/dcmitype/StillImage" /><dc:title></dc:title></cc:Work></rdf:RDF></metadata><sodipodi:namedview
     pagecolor="#ffffff"
     bordercolor="#666666"
     borderopacity="1"
     objecttolerance="10"
     gridtolerance="10"
     guidetolerance="10"
     inkscape:pageopacity="0"
     inkscape:pageshadow="2"
     inkscape:window-width="1600"
     inkscape:window-height="878"
     id="namedview24"
     showgrid="false"
     inkscape:zoom="2.7764706"
     inkscape:cx="12.860169"
     inkscape:cy="13.686441"
     inkscape:window-x="0"
     inkscape:window-y="22"
     inkscape:window-maximized="0"
     inkscape:current-layer="svg2" /><defs
     id="defs4" /><rect
     x="16.532"
     y="15.214001"
     width="17.075001"
     height="1.507"
     id="rect10"
     style="fill:#8e4b39" /><polygon
     points="43.511,49.968 26.437,49.968 26.532,48.362 43.607,48.362 "
     id="polygon12"
     style="fill:#8e4b39"
     transform="translate(-10,-9)" /><rect
     x="17.093"
     y="18.247"
     width="3.777"
     height="19.309999"
     id="rect14"
     style="fill:#8e4b39" /><rect
     x="21.709999"
     y="18.247"
     width="5.3179998"
     height="19.309999"
     id="rect16"
     style="fill:#8e4b39" /><rect
     x="27.868"
     y="18.247"
     width="4.3410001"
     height="19.309999"
     id="rect18"
     style="fill:#8e4b39" /><path
     d="m 33.605,23.787 0.069,2.146 c 0.419,-0.105 2.256,-0.273 2.917,0.244 0.115,0.088 0.465,0.362 0.467,1.297 -10e-4,0.052 -0.151,4.676 -0.174,5.359 -0.28,0.225 -1.399,0.626 -3.21,0.425 l 0.09,2.24 c 4.017,0.447 5.117,-1.507 5.229,-1.73 l 0.109,-0.221 0.196,-6.048 0,-0.018 c 0,-1.688 -0.729,-2.606 -1.343,-3.081 -1.644,-1.271 -4.079,-0.687 -4.35,-0.613 z"
     id="path20"
     inkscape:connector-curvature="0"
     style="fill:#8e4b39" /><path
     d="m 14.294,13.982 20.711,0 -1.117,-0.496 c 0,0 3.357,-5.227 -3.36,-4.104 0,0 -0.186,-7.093 -5.224,-3.919 0,0 -3.359,-4.293 -4.854,0 0,0 -4.479,-1.68 -4.292,2.612 0,0 -3.731,0.375 -3.358,2.986 0,0 -4.291,-3.173 -4.104,2.798 0,0 -4.104,4.478 0.931,5.411 0,0 -0.931,3.546 2.612,2.801 0,0 -1.116,3.171 2.986,1.492 l 0.188,-5.039 -1.12,-0.187 0,-4.355 z m 11.66,-7.299 c 0.093,-0.23 0.541,-0.266 1.001,-0.079 0.46,0.185 0.757,0.521 0.666,0.751 C 27.526,7.586 27.079,7.623 26.617,7.437 26.158,7.25 25.861,6.912 25.954,6.683 Z M 22.785,5.734 c 0.139,-0.346 0.812,-0.399 1.504,-0.119 0.691,0.279 1.137,0.787 0.999,1.131 -0.14,0.344 -0.813,0.399 -1.506,0.118 -0.69,-0.278 -1.136,-0.784 -0.997,-1.13 z"
     id="path22"
     inkscape:connector-curvature="0"
     style="fill:#ffc200" /></svg>