<?xml version="1.0" encoding="UTF-8" standalone="no"?>
<!-- Generator: Adobe Illustrator 15.1.0, SVG Export Plug-In  -->

<svg
   xmlns:dc="http://purl.org/dc/elements/1.1/"
   xmlns:cc="http://creativecommons.org/ns#"
   xmlns:rdf="http://www.w3.org/1999/02/22-rdf-syntax-ns#"
   xmlns:svg="http://www.w3.org/2000/svg"
   xmlns="http://www.w3.org/2000/svg"
   xmlns:sodipodi="http://sodipodi.sourceforge.net/DTD/sodipodi-0.dtd"
   xmlns:inkscape="http://www.inkscape.org/namespaces/inkscape"
   version="1.1"
   x="0px"
   y="0px"
   width="50"
   height="50"
   viewBox="-1.987 -3.05 50 50"
   enable-background="new -1.987 -3.05 70 85"
   xml:space="preserve"
   id="svg2"
   inkscape:version="0.91 r13725"
   sodipodi:docname="coffee.svg"><metadata
     id="metadata26"><rdf:RDF><cc:Work
         rdf:about=""><dc:format>image/svg+xml</dc:format><dc:type
           rdf:resource="http://purl.org/dc/dcmitype/StillImage" /><dc:title></dc:title></cc:Work></rdf:RDF></metadata><sodipodi:namedview
     pagecolor="#ffffff"
     bordercolor="#666666"
     borderopacity="1"
     objecttolerance="10"
     gridtolerance="10"
     guidetolerance="10"
     inkscape:pageopacity="0"
     inkscape:pageshadow="2"
     inkscape:window-width="1600"
     inkscape:window-height="878"
     id="namedview24"
     showgrid="false"
     inkscape:zoom="2.7764706"
     inkscape:cx="12.963242"
     inkscape:cy="-7.8759923"
     inkscape:window-x="0"
     inkscape:window-y="22"
     inkscape:window-maximized="0"
     inkscape:current-layer="svg2" /><defs
     id="defs4" /><path
     inkscape:connector-curvature="0"
     d="m 14.475678,36.355217 17.011,0 c 0.439,0 0.795,-0.357 0.795,-0.795 l 0.485,-4.713 c 0.429,0.097 0.875,0.155 1.334,0.155 3.262,0 5.907,-2.644 5.907,-5.905001 0,-3.263 -2.646,-5.907 -5.907,-5.907 -0.049,0 -0.095,0.006 -0.142,0.008 -0.013,-0.428 -0.36,-0.773 -0.793,-0.773 l -20.37,0 c -0.438,0 -0.794,0.356 -0.794,0.794 l 1.68,16.340001 c 0,0.439 0.356,0.796 0.794,0.796 z m 19.263,-14.991 c 0.121,-0.014 0.238,-0.02 0.361,-0.02 2.073,0 3.752,1.679 3.752,3.752 0,2.070999 -1.679,3.752 -3.752,3.752 -0.387,0 -0.761,-0.06 -1.114,-0.167 l 0.753,-7.317001 z"
     id="path3330"
     style="fill:#f21d2f;fill-opacity:1" /><path
     inkscape:connector-curvature="0"
     d="m 41.225678,37.743217 -37.046,0 c -0.438,0 -0.795,0.355 -0.795,0.795 l 1.121,2.024 c 0,0.437 0.355,0.793 0.794,0.793 l 34.809,0 c 0.44,0 0.794,-0.356 0.794,-0.793 l 1.12,-2.024 c -10e-4,-0.439 -0.355,-0.795 -0.797,-0.795 z"
     id="path3332"
     style="fill:#f21d2f;fill-opacity:1" /><path
     inkscape:connector-curvature="0"
     d="m 14.306678,14.753217 c 0.29,0.317 0.65,0.527 1.016,0.641 0.366,0.113 0.741,0.155 1.105,0.113 -0.679,-0.23 -1.299,-0.622 -1.56,-1.153 -0.271,-0.516001 -0.184,-1.122001 0.019,-1.710001 0.211,-0.593999 0.539,-1.174999 0.902,-1.738999 0.364,-0.564 0.77,-1.1170003 1.196,-1.6590003 0.444,-0.578 0.866,-1.188 1.229,-1.8429997 0.357,-0.657 0.671,-1.357 0.822,-2.146 0.072,-0.39 0.106,-0.805 0.035,-1.226 -0.065,-0.418 -0.241,-0.84 -0.526,-1.159 -0.286,-0.316 -0.646,-0.527 -1.013,-0.64 -0.367,-0.113 -0.742,-0.153 -1.105,-0.113 0.677,0.229 1.3,0.622 1.56,1.155 0.271,0.516 0.181,1.119 -0.022,1.708 -0.211,0.595 -0.535,1.175 -0.899,1.738 -0.364,0.565 -0.771,1.117 -1.195,1.6609997 -0.444,0.58 -0.866,1.186 -1.229,1.8420003 -0.358,0.656 -0.673,1.36 -0.821,2.146 -0.074,0.39 -0.107,0.808 -0.037,1.225999 0.07,0.419001 0.243,0.840001 0.523,1.158001 z"
     id="path3334"
     style="fill:#ffc200;fill-opacity:1" /><path
     inkscape:connector-curvature="0"
     d="m 28.305678,14.753217 c 0.287,0.317 0.646,0.527 1.014,0.641 0.368,0.114 0.742,0.155 1.104,0.113 -0.677,-0.23 -1.298,-0.622 -1.56,-1.153 -0.271,-0.516001 -0.182,-1.122001 0.021,-1.710001 0.211,-0.593999 0.539,-1.174999 0.9,-1.738999 0.366,-0.564 0.77,-1.1170003 1.195,-1.6590003 0.447,-0.578 0.868,-1.188 1.229,-1.8429997 0.358,-0.657 0.677,-1.357 0.825,-2.146 0.074,-0.39 0.106,-0.805 0.036,-1.226 -0.069,-0.418 -0.244,-0.84 -0.524,-1.159 -0.288,-0.316 -0.648,-0.527 -1.016,-0.64 -0.367,-0.113 -0.743,-0.153 -1.106,-0.113 0.679,0.229 1.302,0.622 1.557,1.155 0.275,0.516 0.183,1.119 -0.019,1.708 -0.209,0.595 -0.535,1.175 -0.899,1.738 -0.366,0.565 -0.772,1.117 -1.193,1.6609997 -0.447,0.58 -0.87,1.186 -1.228,1.8420003 -0.361,0.656 -0.676,1.36 -0.826,2.146 -0.072,0.39 -0.105,0.808 -0.033,1.225999 0.066,0.419001 0.238,0.840001 0.523,1.158001 z"
     id="path3336"
     style="fill:#ffc200;fill-opacity:1" /><path
     inkscape:connector-curvature="0"
     d="m 21.305678,14.753217 c 0.287,0.317 0.646,0.527 1.014,0.641 0.368,0.114 0.742,0.155 1.104,0.113 -0.677,-0.23 -1.298,-0.622 -1.56,-1.153 -0.271,-0.516001 -0.182,-1.122001 0.021,-1.710001 0.211,-0.593999 0.539,-1.174999 0.9,-1.738999 0.366,-0.564 0.77,-1.1170003 1.195,-1.6590003 0.447,-0.578 0.868,-1.188 1.229,-1.8429997 0.358,-0.657 0.677,-1.357 0.825,-2.146 0.074,-0.39 0.106,-0.805 0.036,-1.226 -0.069,-0.418 -0.244,-0.84 -0.524,-1.159 -0.288,-0.316 -0.648,-0.527 -1.016,-0.64 -0.367,-0.113 -0.743,-0.153 -1.106,-0.113 0.679,0.229 1.302,0.622 1.557,1.155 0.275,0.516 0.183,1.119 -0.019,1.708 -0.209,0.595 -0.535,1.175 -0.899,1.738 -0.366,0.565 -0.772,1.117 -1.193,1.6609997 -0.447,0.58 -0.87,1.186 -1.228,1.8420003 -0.361,0.656 -0.676,1.36 -0.826,2.146 -0.072,0.39 -0.105,0.808 -0.033,1.225999 0.066,0.419001 0.238,0.840001 0.523,1.158001 z"
     id="path3338"
     style="fill:#ffc200;fill-opacity:1" /></svg>