<?xml version="1.0" encoding="UTF-8" standalone="no"?>
<!-- Generator: Adobe Illustrator 15.1.0, SVG Export Plug-In  -->

<svg
   xmlns:dc="http://purl.org/dc/elements/1.1/"
   xmlns:cc="http://creativecommons.org/ns#"
   xmlns:rdf="http://www.w3.org/1999/02/22-rdf-syntax-ns#"
   xmlns:svg="http://www.w3.org/2000/svg"
   xmlns="http://www.w3.org/2000/svg"
   xmlns:sodipodi="http://sodipodi.sourceforge.net/DTD/sodipodi-0.dtd"
   xmlns:inkscape="http://www.inkscape.org/namespaces/inkscape"
   version="1.1"
   x="0px"
   y="0px"
   width="50"
   height="50"
   viewBox="-1.987 -3.05 50 50"
   enable-background="new -1.987 -3.05 70 85"
   xml:space="preserve"
   id="svg2"
   inkscape:version="0.91 r13725"
   sodipodi:docname="brunch.svg"><metadata
     id="metadata26"><rdf:RDF><cc:Work
         rdf:about=""><dc:format>image/svg+xml</dc:format><dc:type
           rdf:resource="http://purl.org/dc/dcmitype/StillImage" /><dc:title></dc:title></cc:Work></rdf:RDF></metadata><sodipodi:namedview
     pagecolor="#ffffff"
     bordercolor="#666666"
     borderopacity="1"
     objecttolerance="10"
     gridtolerance="10"
     guidetolerance="10"
     inkscape:pageopacity="0"
     inkscape:pageshadow="2"
     inkscape:window-width="632"
     inkscape:window-height="431"
     id="namedview24"
     showgrid="false"
     inkscape:zoom="2.7764706"
     inkscape:cx="12.860169"
     inkscape:cy="13.686441"
     inkscape:window-x="960"
     inkscape:window-y="22"
     inkscape:window-maximized="0"
     inkscape:current-layer="svg2" /><defs
     id="defs4" /><g
     id="g4278"
     transform="matrix(1.25,0,0,-1.25,35.552849,16.33238)"
     style="fill:#ffc200;fill-opacity:1"><path
       inkscape:connector-curvature="0"
       d="m 0,0 c -0.025,-0.21 -0.218,-0.361 -0.427,-0.337 -0.211,0.026 -0.361,0.219 -0.337,0.429 0.026,0.209 0.218,0.359 0.428,0.335 C -0.125,0.4 0.025,0.21 0,0 m -1.16,-6.504 c -0.026,-0.211 -0.218,-0.36 -0.428,-0.335 -0.211,0.026 -0.361,0.217 -0.335,0.426 0.025,0.211 0.216,0.361 0.426,0.336 0.21,-0.026 0.361,-0.216 0.337,-0.427 m -0.751,-4.674 c -0.025,-0.211 -0.217,-0.36 -0.427,-0.335 -0.211,0.026 -0.361,0.216 -0.336,0.427 0.026,0.21 0.217,0.36 0.427,0.334 0.21,-0.024 0.362,-0.216 0.336,-0.426 m -0.978,8.488 c -0.047,-0.392 -0.404,-0.672 -0.795,-0.625 -0.392,0.046 -0.673,0.405 -0.627,0.795 0.047,0.393 0.405,0.673 0.797,0.626 0.392,-0.046 0.672,-0.403 0.625,-0.796 m -1.629,2.987 c -0.46,0.054 -0.786,0.473 -0.731,0.931 0.055,0.46 0.472,0.787 0.931,0.732 C -3.858,1.904 -3.53,1.488 -3.586,1.028 -3.64,0.57 -4.058,0.241 -4.518,0.297 M -5.76,-11.669 c -0.032,-0.267 -0.276,-0.458 -0.542,-0.427 -0.267,0.033 -0.457,0.277 -0.426,0.542 0.033,0.265 0.275,0.456 0.542,0.425 0.266,-0.032 0.458,-0.275 0.426,-0.54 m -1.022,3.28 c 0.032,0.267 0.273,0.457 0.54,0.425 0.266,-0.031 0.457,-0.274 0.425,-0.541 -0.033,-0.266 -0.276,-0.457 -0.541,-0.426 -0.265,0.033 -0.456,0.276 -0.424,0.542 m -1.067,4.4 c -0.526,0.063 -0.903,0.544 -0.839,1.068 0.062,0.525 0.542,0.902 1.067,0.839 0.526,-0.062 0.902,-0.541 0.839,-1.067 -0.063,-0.525 -0.542,-0.903 -1.067,-0.84 m -2.38,-6.22 c -0.018,-0.155 -0.159,-0.268 -0.314,-0.249 -0.156,0.02 -0.267,0.162 -0.248,0.316 0.019,0.156 0.159,0.268 0.315,0.249 0.157,-0.019 0.267,-0.161 0.247,-0.316 m -0.981,3.957 c 0.032,0.267 0.274,0.458 0.541,0.426 0.266,-0.032 0.456,-0.275 0.424,-0.542 -0.031,-0.265 -0.274,-0.457 -0.54,-0.424 -0.266,0.032 -0.456,0.273 -0.425,0.54 m -0.692,6.942 c -0.503,0.062 -0.865,0.519 -0.804,1.022 0.06,0.503 0.518,0.864 1.021,0.804 0.503,-0.061 0.864,-0.52 0.803,-1.023 -0.059,-0.503 -0.517,-0.862 -1.02,-0.803 m 0.006,-11.761 c -0.033,-0.266 -0.276,-0.456 -0.542,-0.424 -0.266,0.032 -0.457,0.273 -0.425,0.539 0.031,0.268 0.275,0.459 0.541,0.428 0.266,-0.033 0.458,-0.276 0.426,-0.543 m -1.342,4.026 c 0.032,0.267 0.276,0.459 0.54,0.427 0.267,-0.031 0.459,-0.277 0.427,-0.541 -0.031,-0.265 -0.275,-0.457 -0.542,-0.425 -0.265,0.032 -0.458,0.275 -0.425,0.539 m 4.894,7.908 c 0.035,0.283 0.291,0.484 0.573,0.45 0.282,-0.034 0.482,-0.29 0.449,-0.571 C -7.356,0.46 -7.613,0.259 -7.895,0.293 -8.175,0.326 -8.376,0.582 -8.344,0.863 M 3.253,2.651 c -3.471,3.744 -13.363,5.268 -18.483,2.216 -2.749,0.16 -3.221,-4.778 -0.61,-5.14 l -1.555,-12.97 c -0.062,-0.53 0.184,-1.028 0.596,-1.315 l -0.43,0.052 c -0.764,0.091 -1.311,0.789 -1.22,1.551 l 1.554,12.971 c -2.611,0.361 -2.141,5.299 0.61,5.139 2.633,1.57 6.529,1.929 10.164,1.398 -4.606,1.792 -12.616,0.892 -16.333,-2.614 -2.632,-0.425 -2.039,-5.188 0.504,-4.983 l 1.253,-12.579 c 0.074,-0.739 0.738,-1.284 1.477,-1.209 l 2.467,0.245 c 0.17,-0.108 0.365,-0.182 0.578,-0.207 l 15.61,-1.872 c 0.793,-0.095 1.516,0.475 1.611,1.269 l 1.549,12.915 c 2.695,-0.333 3.451,4.7 0.658,5.133"
       style="fill:#ffc200;fill-opacity:1;fill-rule:nonzero;stroke:none"
       id="path4280" /></g></svg>