<?xml version="1.0" encoding="UTF-8" standalone="no"?>
<!-- Generator: Adobe Illustrator 15.1.0, SVG Export Plug-In  -->

<svg
   xmlns:dc="http://purl.org/dc/elements/1.1/"
   xmlns:cc="http://creativecommons.org/ns#"
   xmlns:rdf="http://www.w3.org/1999/02/22-rdf-syntax-ns#"
   xmlns:svg="http://www.w3.org/2000/svg"
   xmlns="http://www.w3.org/2000/svg"
   xmlns:sodipodi="http://sodipodi.sourceforge.net/DTD/sodipodi-0.dtd"
   xmlns:inkscape="http://www.inkscape.org/namespaces/inkscape"
   version="1.1"
   x="0px"
   y="0px"
   width="50"
   height="50"
   viewBox="-1.987 -3.05 50 50"
   enable-background="new -1.987 -3.05 70 85"
   xml:space="preserve"
   id="svg2"
   inkscape:version="0.91 r13725"
   sodipodi:docname="dumplings.svg"><metadata
     id="metadata26"><rdf:RDF><cc:Work
         rdf:about=""><dc:format>image/svg+xml</dc:format><dc:type
           rdf:resource="http://purl.org/dc/dcmitype/StillImage" /><dc:title /></cc:Work></rdf:RDF></metadata><sodipodi:namedview
     pagecolor="#ffffff"
     bordercolor="#666666"
     borderopacity="1"
     objecttolerance="10"
     gridtolerance="10"
     guidetolerance="10"
     inkscape:pageopacity="0"
     inkscape:pageshadow="2"
     inkscape:window-width="1920"
     inkscape:window-height="1054"
     id="namedview24"
     showgrid="false"
     inkscape:zoom="31.412179"
     inkscape:cx="8.6087242"
     inkscape:cy="21.860393"
     inkscape:window-x="0"
     inkscape:window-y="26"
     inkscape:window-maximized="0"
     inkscape:current-layer="g4305" /><defs
     id="defs4" /><g
     id="g4241"
     transform="matrix(0.09521396,0,0,0.09521396,-71.347149,-1.8962343)"><g
       id="g4305"
       transform="translate(3.3221224,0)"><path
         inkscape:connector-curvature="0"
         id="SVGCleanerId_0"
         style="fill:#ffea92;fill-opacity:1"
         d="m 959.16116,180.69643 c -4.02374,-8.10866 -12.36486,-13.6947 -22.0309,-13.6947 -3.43529,0 -6.70421,0.70836 -9.67461,1.98068 -3.90507,-8.42552 -12.41502,-14.28436 -22.31473,-14.28436 -9.89971,0 -18.40967,5.85763 -22.31473,14.28436 -2.96919,-1.27232 -6.2381,-1.98068 -9.67461,-1.98068 -9.66727,0 -18.00594,5.58725 -22.03091,13.6947 -37.71606,7.00882 -66.27867,40.06376 -66.27867,79.80944 0,44.84599 36.35441,81.20163 81.20165,81.20163 l 78.19331,0 c 44.846,0 81.20044,-36.35564 81.20044,-81.20163 0,-39.74568 -28.56142,-72.79939 -66.27624,-79.80944 z" /><path
         inkscape:connector-curvature="0"
         style="opacity:0.1;enable-background:new"
         d="m 984.81209,315.24179 -78.19209,0 c -44.84601,0 -81.20166,-36.35442 -81.20166,-81.20165 0,-19.64407 6.98437,-37.64509 18.59563,-51.68235 -34.13764,9.60123 -59.16954,40.94216 -59.16954,78.14928 0,44.84601 36.35443,81.20167 81.20166,81.20167 l 78.19333,0 c 25.21541,0 47.74418,-11.49259 62.63668,-29.52544 -7.01867,1.977 -14.41294,3.05849 -22.06401,3.05849 z"
         id="path4151" /><g
         style="fill:#e6d384;fill-opacity:1"
         transform="matrix(1.2233955,0,0,1.2233955,675.80076,-150.80949)"
         id="g4153"><path
           inkscape:connector-curvature="0"
           style="fill:#e6d384;fill-opacity:1"
           d="m 166.208,291.649 c -2.037,0 -4.074,-0.777 -5.628,-2.332 l -3.623,-3.623 c -3.108,-3.109 -3.108,-8.147 0.001,-11.256 3.108,-3.108 8.147,-3.108 11.255,0.001 l 3.623,3.624 c 3.108,3.108 3.108,8.147 -0.001,11.255 -1.554,1.554 -3.59,2.331 -5.627,2.331 z"
           id="path4155" /><path
           inkscape:connector-curvature="0"
           style="fill:#e6d384;fill-opacity:1"
           d="m 209.778,291.164 c -2.037,0 -4.073,-0.777 -5.628,-2.331 -3.109,-3.108 -3.109,-8.147 0,-11.256 l 3.302,-3.302 c 3.108,-3.108 8.147,-3.108 11.255,0 3.109,3.109 3.109,8.147 0,11.256 l -3.302,3.302 c -1.554,1.555 -3.591,2.331 -5.627,2.331 z"
           id="path4157" /><path
           inkscape:connector-curvature="0"
           style="fill:#e6d384;fill-opacity:1"
           d="m 188.062,287.805 c -4.395,0 -7.959,-3.563 -7.959,-7.959 l 0,-6.15 c 0,-4.396 3.563,-7.959 7.959,-7.959 4.396,0 7.959,3.563 7.959,7.959 l 0,6.15 c 0,4.396 -3.563,7.959 -7.959,7.959 z"
           id="path4159" /></g><path
         inkscape:connector-curvature="0"
         style="fill:#f2b47c"
         d="m 1124.3465,154.72375 c -4.0239,-8.10746 -12.3637,-13.69469 -22.0309,-13.69469 -3.4353,0 -6.7042,0.70835 -9.6748,1.98068 -3.9062,-8.42676 -12.4161,-14.28316 -22.3146,-14.28316 -9.8997,0 -18.4084,5.85763 -22.3148,14.28316 -2.9678,-1.27233 -6.2381,-1.98068 -9.6733,-1.98068 -9.6673,0 -18.0058,5.58723 -22.031,13.69469 -37.71597,7.00883 -66.27981,40.06375 -66.27981,79.80942 0,44.84601 36.35445,81.20166 81.20161,81.20166 l 78.1921,0 c 44.8473,0 81.2017,-36.35565 81.2017,-81.20166 0,-39.74567 -28.5602,-72.80059 -66.2762,-79.80942 z"
         id="path4161" /><path
         inkscape:connector-curvature="0"
         style="opacity:0.1;enable-background:new"
         d="m 1149.6829,289.27889 -78.192,0 c -44.846,0 -81.2017,-36.35564 -81.2017,-81.20164 0,-19.59147 6.9489,-37.54846 18.5052,-51.56979 -33.92851,9.73699 -58.76343,40.96784 -58.76343,78.02571 0,44.84601 36.35442,81.20166 81.20163,81.20166 l 78.1921,0 c 25.2631,0 47.8287,-11.53664 62.721,-29.62943 -7.1373,2.05164 -14.666,3.17349 -22.4628,3.17349 z"
         id="path4163" /><g
         transform="matrix(1.2233955,0,0,1.2233955,675.80076,-150.80949)"
         id="g4165"><path
           inkscape:connector-curvature="0"
           style="fill:#d89b68"
           d="m 301.232,270.419 c -2.037,0 -4.073,-0.777 -5.628,-2.33 l -3.624,-3.624 c -3.109,-3.108 -3.109,-8.147 0,-11.255 3.109,-3.108 8.147,-3.108 11.255,0 l 3.624,3.624 c 3.109,3.108 3.109,8.147 0,11.255 -1.554,1.552 -3.591,2.33 -5.627,2.33 z"
           id="path4167" /><path
           inkscape:connector-curvature="0"
           style="fill:#d89b68"
           d="m 344.8,269.934 c -2.036,0 -4.073,-0.777 -5.628,-2.331 -3.109,-3.108 -3.109,-8.147 0,-11.256 l 3.301,-3.301 c 3.109,-3.108 8.147,-3.108 11.255,0 3.109,3.109 3.109,8.147 0,11.255 l -3.301,3.301 c -1.553,1.554 -3.59,2.332 -5.627,2.332 z"
           id="path4169" /><path
           inkscape:connector-curvature="0"
           style="fill:#d89b68"
           d="m 323.085,266.573 c -4.395,0 -7.959,-3.563 -7.959,-7.959 l 0,-6.149 c 0,-4.396 3.563,-7.959 7.959,-7.959 4.395,0 7.958,3.563 7.958,7.959 l 0,6.149 c -0.001,4.396 -3.564,7.959 -7.958,7.959 z"
           id="path4171" /></g><path
         inkscape:connector-curvature="0"
         style="fill:#f7eedf"
         d="m 1220.3206,280.6772 c 0,7.886 -6.3934,14.27946 -14.2806,14.27946 l -434.09993,0 c -7.88601,0 -14.2807,-6.39346 -14.2807,-14.27946 l 0,-25.70353 c 0,-7.88724 6.39469,-14.28071 14.2807,-14.28071 l 434.10103,0 c 7.8861,0 14.2808,6.39347 14.2808,14.28071 l 0,25.70353 z"
         id="path4173" /><path
         inkscape:connector-curvature="0"
         style="opacity:0.1;enable-background:new"
         d="m 811.93164,280.6772 0,-25.70353 c 0,-7.88724 6.39469,-14.28071 14.27947,-14.28071 l -54.27104,0 c -7.88601,0 -14.2807,6.39347 -14.2807,14.28071 l 0,25.70353 c 0,7.886 6.39469,14.27946 14.2807,14.27946 l 54.27226,0 c -7.886,-9.1e-4 -14.28069,-6.39346 -14.28069,-14.27946 z"
         id="path4175" /><path
         inkscape:connector-curvature="0"
         style="fill:#c69c6d"
         d="m 1248.1652,422.65753 c 0,6.21924 -6.3936,11.2614 -14.2797,11.2614 l -489.79113,0 c -7.88601,0 -14.27948,-5.04216 -14.27948,-11.2614 l 0,-132.88679 c 0,-6.21828 6.39347,-11.2614 14.27948,-11.2614 l 489.79113,0 c 7.8861,0 14.2797,5.04216 14.2797,11.2614 l 0,132.88679 0,0 z"
         id="path4185" /><path
         inkscape:connector-curvature="0"
         style="opacity:0.1;enable-background:new"
         d="m 783.87551,422.65753 0,-132.88679 c 0,-6.21828 6.39347,-11.2614 14.27947,-11.2614 l -54.06061,0 c -7.88601,0 -14.27948,5.04216 -14.27948,11.2614 l 0,132.88679 c 0,6.21924 6.39347,11.2614 14.27948,11.2614 l 54.06061,0 c -7.88722,0 -14.27947,-5.04216 -14.27947,-11.2614 z"
         id="path4187" /><g
         transform="matrix(1.2233955,0,0,1.2233955,675.80076,-150.80949)"
         id="g4189"><path
           inkscape:connector-curvature="0"
           style="fill:#a67c52"
           d="m 135.974,438.365 -91.823,0 0,15.917 91.822,0 c 4.395,0 7.959,-3.563 7.959,-7.958 0.001,-4.395 -3.564,-7.959 -7.958,-7.959 z"
           id="path4193" /><path
           inkscape:connector-curvature="0"
           style="fill:#a67c52"
           d="m 100.487,408.643 -56.336,0 0,15.917 56.336,0 c 4.395,0 7.958,-3.563 7.958,-7.959 0,-4.395 -3.563,-7.958 -7.958,-7.958 z"
           id="path4195" /><path
           inkscape:connector-curvature="0"
           style="fill:#a67c52"
           d="m 135.974,378.92 -91.823,0 0,15.917 91.822,0 c 4.395,0 7.959,-3.563 7.959,-7.959 0.001,-4.395 -3.564,-7.958 -7.958,-7.958 z"
           id="path4197" /><path
           inkscape:connector-curvature="0"
           style="fill:#a67c52"
           d="m 467.849,426.07736 -53.651,0 c -4.396,0 -7.959,3.563 -7.959,7.958 0,4.396 3.563,7.959 7.959,7.959 l 53.651,0 0,-15.917 z"
           id="path4201" /><path
           inkscape:connector-curvature="0"
           style="fill:#a67c52"
           d="m 158.87,394.837 37.153,0 c 4.395,0 7.958,-3.563 7.958,-7.959 0,-4.396 -3.563,-7.959 -7.958,-7.959 l -37.153,0 c -4.395,0 -7.959,3.563 -7.959,7.959 0,4.396 3.564,7.959 7.959,7.959 z"
           id="path4203" /></g></g><g
       id="g4205" /><g
       id="g4207" /><g
       id="g4209" /><g
       id="g4211" /><g
       id="g4213" /><g
       id="g4215" /><g
       id="g4217" /><g
       id="g4219" /><g
       id="g4221" /><g
       id="g4223" /><g
       id="g4225" /><g
       id="g4227" /><g
       id="g4229" /><g
       id="g4231" /><g
       id="g4233" /></g></svg>