<?xml version="1.0" encoding="UTF-8" standalone="no"?>
<!-- Generator: Adobe Illustrator 15.1.0, SVG Export Plug-In  -->

<svg
   xmlns:dc="http://purl.org/dc/elements/1.1/"
   xmlns:cc="http://creativecommons.org/ns#"
   xmlns:rdf="http://www.w3.org/1999/02/22-rdf-syntax-ns#"
   xmlns:svg="http://www.w3.org/2000/svg"
   xmlns="http://www.w3.org/2000/svg"
   xmlns:sodipodi="http://sodipodi.sourceforge.net/DTD/sodipodi-0.dtd"
   xmlns:inkscape="http://www.inkscape.org/namespaces/inkscape"
   version="1.1"
   x="0px"
   y="0px"
   width="50"
   height="50"
   viewBox="-1.987 -3.05 50 50"
   enable-background="new -1.987 -3.05 70 85"
   xml:space="preserve"
   id="svg2"
   inkscape:version="0.91 r13725"
   sodipodi:docname="cocktails.svg"><metadata
     id="metadata26"><rdf:RDF><cc:Work
         rdf:about=""><dc:format>image/svg+xml</dc:format><dc:type
           rdf:resource="http://purl.org/dc/dcmitype/StillImage" /><dc:title></dc:title></cc:Work></rdf:RDF></metadata><sodipodi:namedview
     pagecolor="#ffffff"
     bordercolor="#666666"
     borderopacity="1"
     objecttolerance="10"
     gridtolerance="10"
     guidetolerance="10"
     inkscape:pageopacity="0"
     inkscape:pageshadow="2"
     inkscape:window-width="632"
     inkscape:window-height="431"
     id="namedview24"
     showgrid="false"
     inkscape:zoom="2.7764706"
     inkscape:cx="12.963242"
     inkscape:cy="20.937567"
     inkscape:window-x="960"
     inkscape:window-y="22"
     inkscape:window-maximized="0"
     inkscape:current-layer="svg2" /><defs
     id="defs4" /><path
     id="path1494"
     style="fill:#f21d2f;fill-opacity:1;fill-rule:nonzero;stroke:none"
     d="m 20.74016,14.113338 c -1.925,1.28375 -6.15125,-0.2525 -6.15125,-0.2525 l 6.01875,6.95625 1.355,0 6.0175,-6.95625 c 0,0 -5.31625,-1.02875 -7.24,0.2525"
     inkscape:connector-curvature="0" /><path
     id="path1496"
     style="fill:#333333;fill-opacity:1;fill-rule:nonzero;stroke:none"
     d="m 34.73016,12.100838 c -0.7625,0 -1.50625,-0.18125 -2.18375,-0.50875 l 3.52875,-4.0800011 c 0.1225,-0.14125 0.15125,-0.3425 0.0725,-0.515 -0.0775,-0.17 -0.24875,-0.28125 -0.43625,-0.28125 l -5.98625,0 c 0.18625,-2.6 2.3575,-4.66 5.005,-4.66 2.76875,0 5.0225,2.2525 5.0225,5.02125 0,2.7687506 -2.25375,5.0237511 -5.0225,5.0237511 z m -12.3275,9.74125 -2.235,0 -12.254999,-14.1625011 26.746249,0 L 22.40266,21.842088 Z M 34.73016,1.0920869 c -3.17875,0 -5.78,2.4925 -5.96875,5.625 l -21.901249,0 c -0.1887496,0 -0.3599996,0.11 -0.4374996,0.28125 -0.0788,0.1725 -0.05,0.37375 0.0737,0.515 L 19.84261,22.935838 l 0,16.89625 c -1.4,0.11875 -2.39375,0.41375 -2.39375,0.76 l 0.03,0.09625 c -1.7375,0.2625 -2.875,0.7 -2.875,1.1925 0,0.80375 2.9925,1.4525 6.68125,1.4525 3.69,0 6.6825,-0.64875 6.6825,-1.4525 0,-0.50875 -1.205,-0.95375 -3.02625,-1.215 l 0.0162,-0.07375 c 0,-0.3325 -0.91875,-0.61625 -2.22875,-0.74375 l 0,-16.91125 9.16375,-10.59 c 0.86875,0.46875 1.8425,0.715 2.8375,0.715 3.29875,0 5.985,-2.68375 5.985,-5.9850011 0,-3.3 -2.68625,-5.985 -5.985,-5.985"
     inkscape:connector-curvature="0" /></svg>