<?xml version="1.0" encoding="UTF-8" standalone="no"?>
<!-- Generator: Adobe Illustrator 15.1.0, SVG Export Plug-In  -->

<svg
   xmlns:dc="http://purl.org/dc/elements/1.1/"
   xmlns:cc="http://creativecommons.org/ns#"
   xmlns:rdf="http://www.w3.org/1999/02/22-rdf-syntax-ns#"
   xmlns:svg="http://www.w3.org/2000/svg"
   xmlns="http://www.w3.org/2000/svg"
   xmlns:sodipodi="http://sodipodi.sourceforge.net/DTD/sodipodi-0.dtd"
   xmlns:inkscape="http://www.inkscape.org/namespaces/inkscape"
   version="1.1"
   x="0px"
   y="0px"
   width="50"
   height="50"
   viewBox="-1.987 -3.05 50 50"
   enable-background="new -1.987 -3.05 70 85"
   xml:space="preserve"
   id="svg2"
   inkscape:version="0.91 r13725"
   sodipodi:docname="food-market.svg"><metadata
     id="metadata26"><rdf:RDF><cc:Work
         rdf:about=""><dc:format>image/svg+xml</dc:format><dc:type
           rdf:resource="http://purl.org/dc/dcmitype/StillImage" /><dc:title></dc:title></cc:Work></rdf:RDF></metadata><sodipodi:namedview
     pagecolor="#ffffff"
     bordercolor="#666666"
     borderopacity="1"
     objecttolerance="10"
     gridtolerance="10"
     guidetolerance="10"
     inkscape:pageopacity="0"
     inkscape:pageshadow="2"
     inkscape:window-width="1600"
     inkscape:window-height="878"
     id="namedview24"
     showgrid="false"
     inkscape:zoom="2.7764706"
     inkscape:cx="7.5606992"
     inkscape:cy="22.196797"
     inkscape:window-x="0"
     inkscape:window-y="22"
     inkscape:window-maximized="0"
     inkscape:current-layer="Layer_5_38_"
     inkscape:object-paths="true" /><defs
     id="defs4" /><g
     transform="matrix(0.10527614,0,0,0.10527614,3.9176942,2.0708487)"
     id="g16348"><g
       id="Layer_5_38_"><path
         inkscape:connector-curvature="0"
         d="m 331.82,63.705 c 1.444,3.582 -0.534,6.512 -4.395,6.512 l -288.061,0 c -3.861,0 -5.92,-2.961 -4.575,-6.58 L 55.981,6.581 C 57.326,2.962 61.585,0 65.445,0 l 233.676,0 c 3.861,0 8.201,2.929 9.646,6.51 l 23.053,57.195 z"
         id="path16351"
         style="fill:#f21d2f;fill-opacity:1" /><path
         inkscape:connector-curvature="0"
         d="m 32.344,106.039 c 0,14.053 11.392,25.444 25.445,25.444 10.579,0 19.647,-6.455 23.484,-15.642 0.761,-1.821 2.52,-1.795 3.288,0.038 3.846,9.167 12.906,15.604 23.469,15.604 10.609,0 19.701,-6.494 23.52,-15.724 0.742,-1.796 2.419,-1.94 3.12,-0.203 3.768,9.337 12.915,15.927 23.603,15.927 10.687,0 19.832,-6.588 23.6,-15.926 0.701,-1.737 2.341,-1.737 3.042,0 3.769,9.338 12.915,15.926 23.601,15.926 10.687,0 19.833,-6.588 23.6,-15.926 0.703,-1.737 2.34,-1.737 3.039,0 3.769,9.337 12.916,15.927 23.604,15.927 10.688,0 19.834,-6.588 23.602,-15.926 0.699,-1.737 2.339,-1.737 3.038,0 3.769,9.337 12.914,15.927 23.603,15.927 14.053,0 25.445,-11.392 25.445,-25.444 l 0,-10.756 c 0,0 0,-5.021 -5.302,-5.021 -72.441,0 -215.995,0 -289.76,0 -7.04,0 -7.04,5.219 -7.04,5.219 l -10e-4,10.556 z"
         id="path16353"
         style="fill:#f21d2f;fill-opacity:1" /><path
         inkscape:connector-curvature="0"
         d="m 327.065,342.699 c 0,-0.005 10e-4,-0.009 10e-4,-0.013 l 0,-100.894 c 0,-6.12 -5.009,-11.128 -11.127,-11.128 l -265.088,0 c -6.12,0 -11.128,5.008 -11.128,11.128 l 0,100.894 0,4.445 c 0,10.858 8.802,19.659 19.659,19.659 7.443,0 13.904,-4.144 17.237,-10.247 0.476,-0.873 0.818,-7.00548 5.548,-7.00548 l 202.764,0 c 4.451,0 5.272,6.10948 5.74,6.96948 3.327,6.122 9.799,10.283 17.256,10.283 10.857,0 19.14,-8.801 19.14,-19.659 0,-1.526 -0.002,-1.914 -0.002,-4.432 z"
         id="path16355"
         style="fill:#c8c8c8;fill-opacity:1"
         sodipodi:nodetypes="sssssscsscsscsss" /><path
         inkscape:connector-curvature="0"
         d="m 91.226,148.782 c -0.133,-1.813 -1.642,-3.258 -3.485,-3.258 l -10.139,0 c -1.931,0 -3.51,1.579 -3.51,3.51 l 0,0.046 0,58.106 0,0.046 c 0,1.932 1.58,3.51 3.51,3.51 l 10.139,0 c 1.844,0 3.353,-1.445 3.485,-3.258 0.009,-0.03 0.025,-0.06 0.025,-0.091 l 0,-0.161 0,-58.199 0,-0.161 c 0,-0.031 -0.016,-0.06 -0.025,-0.09 z"
         id="path16357"
         style="fill:#ffc200;fill-opacity:1" /><path
         inkscape:connector-curvature="0"
         d="m 293.63,148.782 c -0.133,-1.813 -1.642,-3.258 -3.485,-3.258 l -10.139,0 c -1.932,0 -3.511,1.579 -3.511,3.51 l 0,0.046 0,58.106 0,0.046 c 0,1.932 1.579,3.51 3.511,3.51 l 10.139,0 c 1.844,0 3.353,-1.445 3.485,-3.258 0.009,-0.03 0.025,-0.06 0.025,-0.091 l 0,-0.161 0,-58.199 0,-0.161 c 0.001,-0.031 -0.017,-0.06 -0.025,-0.09 z"
         id="path16359"
         style="fill:#ffc200;fill-opacity:1" /></g></g></svg>