<?xml version="1.0" encoding="UTF-8" standalone="no"?>
<!-- Generator: Adobe Illustrator 15.1.0, SVG Export Plug-In  -->

<svg
   xmlns:dc="http://purl.org/dc/elements/1.1/"
   xmlns:cc="http://creativecommons.org/ns#"
   xmlns:rdf="http://www.w3.org/1999/02/22-rdf-syntax-ns#"
   xmlns:svg="http://www.w3.org/2000/svg"
   xmlns="http://www.w3.org/2000/svg"
   xmlns:sodipodi="http://sodipodi.sourceforge.net/DTD/sodipodi-0.dtd"
   xmlns:inkscape="http://www.inkscape.org/namespaces/inkscape"
   version="1.1"
   x="0px"
   y="0px"
   width="50"
   height="50"
   viewBox="-1.987 -3.05 50 50"
   enable-background="new -1.987 -3.05 70 85"
   xml:space="preserve"
   id="svg2"
   inkscape:version="0.91 r13725"
   sodipodi:docname="food-truck.svg"><metadata
     id="metadata26"><rdf:RDF><cc:Work
         rdf:about=""><dc:format>image/svg+xml</dc:format><dc:type
           rdf:resource="http://purl.org/dc/dcmitype/StillImage" /><dc:title></dc:title></cc:Work></rdf:RDF></metadata><sodipodi:namedview
     pagecolor="#ffffff"
     bordercolor="#666666"
     borderopacity="1"
     objecttolerance="10"
     gridtolerance="10"
     guidetolerance="10"
     inkscape:pageopacity="0"
     inkscape:pageshadow="2"
     inkscape:window-width="632"
     inkscape:window-height="431"
     id="namedview24"
     showgrid="false"
     inkscape:zoom="2.7764706"
     inkscape:cx="12.963242"
     inkscape:cy="22.196797"
     inkscape:window-x="960"
     inkscape:window-y="22"
     inkscape:window-maximized="0"
     inkscape:current-layer="svg2" /><defs
     id="defs4" /><path
     inkscape:connector-curvature="0"
     d="m 16.905478,35.852656 c -0.67135,0 -1.2158,-0.544023 -1.2158,-1.21515 0,-0.67199 0.54445,-1.216445 1.2158,-1.216445 0.67155,0 1.21601,0.544455 1.21601,1.216445 0,0.671127 -0.54446,1.21515 -1.21601,1.21515 z m 0,-4.055248 c -1.56841,0 -2.839669,1.271689 -2.839669,2.840098 0,1.567762 1.271259,2.839451 2.839669,2.839451 1.56819,0 2.83966,-1.271689 2.83966,-2.839451 0,-1.568409 -1.27147,-2.840098 -2.83966,-2.840098 z m 21.70287,4.055248 c -0.67135,0 -1.2158,-0.544023 -1.2158,-1.21515 0,-0.67199 0.54445,-1.216445 1.2158,-1.216445 0.67156,0 1.21601,0.544455 1.21601,1.216445 0,0.671127 -0.54445,1.21515 -1.21601,1.21515 z m 0,-4.055248 c -1.56841,0 -2.83945,1.271689 -2.83945,2.840098 0,1.567762 1.27104,2.839451 2.83945,2.839451 1.56819,0 2.83966,-1.271689 2.83966,-2.839451 0,-1.568409 -1.27147,-2.840098 -2.83966,-2.840098"
     style="fill:#ffc200;fill-opacity:1;fill-rule:nonzero;stroke:none"
     id="path132" /><path
     d="m 11.994162,32.849632 c 0,0.406561 -0.28204,0.736082 -0.629689,0.736082 l -5.8741687,0 -5.53455983,0 c -0.34764999,0 -0.62947998,-0.329521 -0.62947998,-0.736082 0,-0.406129 0.28182999,-0.73565 0.62947998,-0.73565 l 11.40872853,0 c 0.347649,0 0.629689,0.329521 0.629689,0.73565"
     style="fill:#ffc200;fill-opacity:1;fill-rule:nonzero;stroke:none"
     id="path134"
     inkscape:connector-curvature="0"
     sodipodi:nodetypes="cscssssc" /><path
     inkscape:connector-curvature="0"
     d="m 44.962258,20.802791 c 0,1.676307 -1.35887,3.034747 -3.03475,3.034747 -1.67609,0 -3.03474,-1.35844 -3.03474,-3.034747 l 0,-4.414118 c 0,-1.675876 1.35865,-3.034531 3.03474,-3.034531 1.67588,0 3.03475,1.358655 3.03475,3.034531 l 0,4.414118 z m -14.09324,3.034747 -6.52892,0 c -2.89556,0 -5.24213,-2.346788 -5.24213,-5.241698 0,-2.89491 2.34657,-5.241698 5.24213,-5.241698 l 6.52892,0 c 2.89534,0 5.24213,2.346788 5.24213,5.241698 0,2.89491 -2.34679,5.241698 -5.24213,5.241698 z m -14.32285,-3.034747 c 0,1.676307 -1.35887,3.034747 -3.034958,3.034747 -1.675868,0 -3.034526,-1.35844 -3.034526,-3.034747 l 0,-4.414118 c 0,-1.675876 1.358658,-3.034531 3.034526,-3.034531 1.676088,0 3.034958,1.358655 3.034958,3.034531 l 0,4.414118 z m 25.05938,-9.70178 -28.002189,0 c -3.047255,0 -5.5179147,2.470223 -5.5179147,5.517485 l 0,12.500877 c 0,2.799313 2.0850297,5.110062 4.7863667,5.468284 0.0268,-2.206088 1.821967,-3.985977 4.033667,-3.985977 2.22831,0 4.03474,1.806864 4.03474,4.035826 l 13.63316,0 c 0,-2.228962 1.80665,-4.035826 4.03497,-4.035826 2.19573,0 3.98036,1.754209 4.0328,3.936991 2.5518,-0.484894 4.48231,-2.725941 4.48231,-5.419298 l 0,-12.500877 c 0,-3.047262 -2.47044,-5.517485 -5.51791,-5.517485"
     style="fill:#ffc200;fill-opacity:1;fill-rule:nonzero;stroke:none"
     id="path136" /></svg>