<?xml version="1.0" encoding="UTF-8" standalone="no"?>
<!-- Generator: Adobe Illustrator 15.1.0, SVG Export Plug-In  -->

<svg
   xmlns:dc="http://purl.org/dc/elements/1.1/"
   xmlns:cc="http://creativecommons.org/ns#"
   xmlns:rdf="http://www.w3.org/1999/02/22-rdf-syntax-ns#"
   xmlns:svg="http://www.w3.org/2000/svg"
   xmlns="http://www.w3.org/2000/svg"
   xmlns:sodipodi="http://sodipodi.sourceforge.net/DTD/sodipodi-0.dtd"
   xmlns:inkscape="http://www.inkscape.org/namespaces/inkscape"
   version="1.1"
   x="0px"
   y="0px"
   width="50"
   height="50"
   viewBox="-1.987 -3.05 50 50"
   enable-background="new -1.987 -3.05 70 85"
   xml:space="preserve"
   id="svg2"
   inkscape:version="0.91 r13725"
   sodipodi:docname="french.svg"><metadata
     id="metadata26"><rdf:RDF><cc:Work
         rdf:about=""><dc:format>image/svg+xml</dc:format><dc:type
           rdf:resource="http://purl.org/dc/dcmitype/StillImage" /><dc:title></dc:title></cc:Work></rdf:RDF></metadata><sodipodi:namedview
     pagecolor="#ffffff"
     bordercolor="#666666"
     borderopacity="1"
     objecttolerance="10"
     gridtolerance="10"
     guidetolerance="10"
     inkscape:pageopacity="0"
     inkscape:pageshadow="2"
     inkscape:window-width="632"
     inkscape:window-height="431"
     id="namedview24"
     showgrid="false"
     inkscape:zoom="2.7764706"
     inkscape:cx="12.963242"
     inkscape:cy="7.7900173"
     inkscape:window-x="960"
     inkscape:window-y="22"
     inkscape:window-maximized="0"
     inkscape:current-layer="svg2" /><defs
     id="defs4" /><g
     transform="translate(-9.599254,-11.157669)"
     id="Shape_1_copy_36_2_"><g
       id="g7603"><path
         style="clip-rule:evenodd;fill:#8e4b39;fill-rule:evenodd"
         inkscape:connector-curvature="0"
         d="m 53.94,17.892 c -0.66,-0.853 -1.797,-1.156 -2.789,-0.837 0.593,-0.825 0.609,-1.965 -0.053,-2.813 -0.825,-1.057 -2.386,-1.271 -3.481,-0.477 -1.095,0.792 -1.336,2.316 -0.5,3.359 0.569,0.699 0.914,0.809 0.177,1.406 l 0,0.004 c -1.071,0.874 -4.764,3.543 -8.559,5.809 0.3,0.285 0.569,0.591 0.833,0.906 0.413,0.498 0.796,1.028 1.124,1.577 4.544,-3.442 8.863,-6.654 9.271,-6.055 0.821,1.055 2.382,1.271 3.483,0.48 1.095,-0.795 1.319,-2.301 0.494,-3.359 z M 21.25,26.6 c 0,0 0.001,0 0.001,0 -0.001,0 -0.003,-0.001 -0.005,-0.001 L 21.25,26.6 Z m 9.186,-1.247 c -3.324,-0.485 -5.96,-0.137 -9.185,1.247 9.321,2.275 11.984,16.736 7.361,23.806 5.845,-2.823 10.704,-7.188 10.628,-17.853 4.854,-1.43 -4.938,-14.515 -8.804,-7.2 z m -1.351,13.802 c -1.104,-6.88 -5.877,-11.909 -10.629,-11.196 -4.752,0.712 -7.721,6.896 -6.617,13.776 1.1,6.875 5.879,11.906 10.63,11.196 4.745,-0.712 7.721,-6.9 6.616,-13.776 z m -7.377,-8.577 c 0.941,-0.249 2.023,0.665 2.406,2.026 0.384,1.364 -0.064,2.675 -1.011,2.924 -0.94,0.248 -2.015,-0.663 -2.406,-2.027 -0.383,-1.362 0.071,-2.672 1.011,-2.923 z m -8.266,4.723 c 0.24,-2.659 1.932,-4.704 3.771,-4.557 1.838,0.156 3.144,2.451 2.904,5.115 -0.24,2.658 -1.93,4.702 -3.776,4.549 -1.833,-0.154 -3.135,-2.449 -2.899,-5.107 z m 3.69,12.636 c -1.224,0.422 -2.761,-0.684 -3.417,-2.456 -0.656,-1.775 -0.191,-3.563 1.034,-3.992 1.224,-0.422 2.759,0.682 3.417,2.454 0.656,1.775 0.191,3.566 -1.034,3.994 z m 4.594,3.274 C 21.043,51.58 20.015,51.076 19.44,50.086 18.861,49.1 18.949,47.989 19.631,47.62 c 0.684,-0.369 1.708,0.134 2.283,1.121 0.579,0.992 0.491,2.098 -0.188,2.47 z m -0.209,-5.415 c -0.962,0.144 -1.93,-0.875 -2.156,-2.271 -0.224,-1.395 0.379,-2.651 1.342,-2.794 0.962,-0.145 1.932,0.874 2.157,2.272 0.223,1.399 -0.383,2.649 -1.343,2.793 z m 5.414,0.531 c -0.164,1.401 -1.088,2.459 -2.055,2.354 -0.969,-0.111 -1.624,-1.34 -1.459,-2.743 0.167,-1.403 1.089,-2.459 2.06,-2.354 0.967,0.105 1.623,1.337 1.454,2.743 z M 25.837,42.83 c -1.285,0.191 -2.576,-1.169 -2.875,-3.028 -0.297,-1.863 0.507,-3.541 1.797,-3.731 1.285,-0.191 2.582,1.169 2.873,3.028 0.299,1.865 -0.506,3.54 -1.795,3.731 z"
         id="path7605" /></g></g></svg>