<?xml version="1.0" encoding="UTF-8" standalone="no"?>
<!-- Generator: Adobe Illustrator 15.1.0, SVG Export Plug-In  -->

<svg
   xmlns:dc="http://purl.org/dc/elements/1.1/"
   xmlns:cc="http://creativecommons.org/ns#"
   xmlns:rdf="http://www.w3.org/1999/02/22-rdf-syntax-ns#"
   xmlns:svg="http://www.w3.org/2000/svg"
   xmlns="http://www.w3.org/2000/svg"
   xmlns:sodipodi="http://sodipodi.sourceforge.net/DTD/sodipodi-0.dtd"
   xmlns:inkscape="http://www.inkscape.org/namespaces/inkscape"
   version="1.1"
   x="0px"
   y="0px"
   width="50"
   height="50"
   viewBox="-1.987 -3.05 50 50"
   enable-background="new -1.987 -3.05 70 85"
   xml:space="preserve"
   id="svg2"
   inkscape:version="0.91 r13725"
   sodipodi:docname="german.svg"><metadata
     id="metadata26"><rdf:RDF><cc:Work
         rdf:about=""><dc:format>image/svg+xml</dc:format><dc:type
           rdf:resource="http://purl.org/dc/dcmitype/StillImage" /><dc:title></dc:title></cc:Work></rdf:RDF></metadata><sodipodi:namedview
     pagecolor="#ffffff"
     bordercolor="#666666"
     borderopacity="1"
     objecttolerance="10"
     gridtolerance="10"
     guidetolerance="10"
     inkscape:pageopacity="0"
     inkscape:pageshadow="2"
     inkscape:window-width="632"
     inkscape:window-height="431"
     id="namedview24"
     showgrid="false"
     inkscape:zoom="2.7764706"
     inkscape:cx="12.963242"
     inkscape:cy="7.7900173"
     inkscape:window-x="960"
     inkscape:window-y="22"
     inkscape:window-maximized="0"
     inkscape:current-layer="svg2" /><defs
     id="defs4" /><path
     inkscape:connector-curvature="0"
     style="fill:#ffc200"
     d="m 13.440671,4.9122289 c 0.091,0.192 0.202,0.354 0.307,0.521 -1.099,0.533 -1.931999,1.562 -2.151999,2.857 -1.196,7.0089991 1.226999,14.0519991 6.476999,18.8349991 4.964,4.523 11.851,6.365 18.419,4.929 1.688,-0.371 2.863,-1.783 3.039,-3.412 0.104,0.105 0.216,0.209 0.334,0.311 0.967,0.825 2.039,1.159 2.388,0.748 0.348,-0.414 -0.152,-1.414 -1.12,-2.238 -0.071,-0.063 -0.144,-0.112 -0.214,-0.168 0.899,-0.618 1.412,-1.384 1.165,-1.801 -0.276,-0.465 -1.385,-0.319 -2.482,0.325 -0.218,0.132 -0.417,0.274 -0.598,0.418 -0.839,-1.408 -2.496,-2.201 -4.186,-1.831 -4.093,0.895 -8.38,-0.251 -11.473,-3.068 -3.269,-2.978 -4.777,-7.365 -4.033,-11.7339991 0.233,-1.363 -0.273,-2.685 -1.226,-3.552 -0.482,-0.439 -1.089,-0.74 -1.762,-0.893 0.088,-0.077 0.177,-0.152 0.26,-0.239 0.904,-0.894 1.33,-1.931 0.949,-2.313 -0.381,-0.386 -1.421,0.029 -2.328,0.922 -0.066,0.068 -0.128,0.138 -0.192,0.209 -0.54,-0.943 -1.248,-1.536 -1.686,-1.328 -0.485,0.235 -0.435,1.355 0.114,2.502 z"
     id="path8917" /><path
     inkscape:connector-curvature="0"
     style="fill:#05c7f2"
     d="m 42.918671,31.316228 m -1.909,2.347 m -20.09,-14.312 -12.250001,12.247 2.332002,2.333 -6.6740025,6.675 1.838,1.837 6.6730015,-6.675 2.404,2.405 12.346,-12.345 m -14.367,-18.3419991 m 3.489,-5.182 m 2.765,3.149 m -6.286,24.0279991 8.841,-8.84 c 0.243,0.268 0.492,0.54 0.744,0.809 l -8.807,8.81 -0.778,-0.779 z m 1.804,1.803 8.798,-8.801 c 0.26,0.256 0.525,0.51 0.796,0.759 l -8.818,8.82 -0.776,-0.778 z m 2.368,2.367 -0.779,-0.777 8.858,-8.859 c 0.275,0.245 0.555,0.485 0.832,0.722 l -8.911,8.914 z"
     id="path8919" /></svg>