<?xml version="1.0" encoding="UTF-8" standalone="no"?>
<!-- Generator: Adobe Illustrator 15.1.0, SVG Export Plug-In  -->

<svg
   xmlns:dc="http://purl.org/dc/elements/1.1/"
   xmlns:cc="http://creativecommons.org/ns#"
   xmlns:rdf="http://www.w3.org/1999/02/22-rdf-syntax-ns#"
   xmlns:svg="http://www.w3.org/2000/svg"
   xmlns="http://www.w3.org/2000/svg"
   xmlns:sodipodi="http://sodipodi.sourceforge.net/DTD/sodipodi-0.dtd"
   xmlns:inkscape="http://www.inkscape.org/namespaces/inkscape"
   version="1.1"
   x="0px"
   y="0px"
   width="50"
   height="50"
   viewBox="-1.987 -3.05 50 50"
   enable-background="new -1.987 -3.05 70 85"
   xml:space="preserve"
   id="svg2"
   inkscape:version="0.91 r13725"
   sodipodi:docname="hotdogs.svg"><metadata
     id="metadata26"><rdf:RDF><cc:Work
         rdf:about=""><dc:format>image/svg+xml</dc:format><dc:type
           rdf:resource="http://purl.org/dc/dcmitype/StillImage" /><dc:title></dc:title></cc:Work></rdf:RDF></metadata><sodipodi:namedview
     pagecolor="#ffffff"
     bordercolor="#666666"
     borderopacity="1"
     objecttolerance="10"
     gridtolerance="10"
     guidetolerance="10"
     inkscape:pageopacity="0"
     inkscape:pageshadow="2"
     inkscape:window-width="632"
     inkscape:window-height="431"
     id="namedview24"
     showgrid="false"
     inkscape:zoom="2.7764706"
     inkscape:cx="14.385257"
     inkscape:cy="6.2853748"
     inkscape:window-x="960"
     inkscape:window-y="22"
     inkscape:window-maximized="0"
     inkscape:current-layer="svg2" /><defs
     id="defs4" /><path
     inkscape:connector-curvature="0"
     style="clip-rule:evenodd;fill:#fbb03b;fill-rule:evenodd"
     d="m 28.3645,37.872634 c -2.435,4.268 -7.491,5.967 -11.645,3.597 l -7.522,-4.292 c -4.1529999,-2.371 -5.5469999,-7.751 -3.113,-12.019 l 11.023,-19.315 c 2.436,-4.267 7.53,-5.371 11.685,-3.001 l 7.522,4.293 c 4.153,2.371 5.509,7.157 3.074,11.424 l -11.024,19.313 z"
     id="path10" /><g
     transform="translate(-12.3195,-11.786366)"
     id="Shape_1_copy_21_2_"><g
       id="g13"><path
         style="clip-rule:evenodd;fill:#d15d36;fill-rule:evenodd"
         inkscape:connector-curvature="0"
         d="m 23.649,49.556 1.652,0.279 1.677,0.286 c 0.481,0.101 1.15,0.072 1.262,-0.116 0.112,-0.188 -0.185,-0.79 -0.52,-1.182 L 26.681,47.507 25.66,46.214 c -0.132,-0.153 -1.267,-1.515 -0.631,-2.587 0.636,-1.074 2.376,-0.731 2.547,-0.693 l 3.328,0.566 c 0.48,0.101 1.15,0.071 1.262,-0.116 0.111,-0.188 -0.183,-0.79 -0.521,-1.181 l -2.059,-2.608 c -0.132,-0.151 -1.267,-1.516 -0.63,-2.588 0.635,-1.072 2.376,-0.731 2.545,-0.693 l 1.651,0.28 1.678,0.285 c 0.48,0.102 1.149,0.073 1.261,-0.115 0.112,-0.188 -0.184,-0.79 -0.52,-1.182 l -1.038,-1.314 -1.021,-1.294 c -0.132,-0.15 -1.266,-1.514 -0.63,-2.586 0.637,-1.074 2.378,-0.731 2.545,-0.693 l 1.653,0.279 1.677,0.286 c 0.479,0.103 1.15,0.073 1.261,-0.115 0.11,-0.188 -0.185,-0.79 -0.521,-1.182 l -1.039,-1.315 -1.02,-1.293 c -0.131,-0.151 -1.268,-1.514 -0.631,-2.587 0.636,-1.074 2.376,-0.731 2.545,-0.693 l 3.33,0.565 c 0.48,0.102 1.148,0.073 1.261,-0.115 0.111,-0.188 -0.185,-0.79 -0.521,-1.182 l -2.059,-2.609 c -0.132,-0.152 -1.267,-1.514 -0.63,-2.587 0.635,-1.072 2.376,-0.731 2.545,-0.692 l 3.328,0.565 c 0.481,0.101 1.151,0.072 1.262,-0.116 0.041,-0.07 0.026,-0.196 -0.026,-0.346 -0.444,-0.581 -1.002,-1.091 -1.672,-1.487 -2.803,-1.662 -6.421,-0.738 -8.083,2.065 L 21.857,44.51 c -0.995,1.678 -1.056,3.647 -0.348,5.314 0.778,-0.539 2,-0.3 2.14,-0.268 z"
         id="path15" /></g></g><path
     inkscape:connector-curvature="0"
     style="fill:#8e4b39"
     d="m 36.2885,6.098634 c -0.766,0.622 -2.084,0.365 -2.23,0.331 l -1.651,-0.28 -1.678,-0.284 c -0.479,-0.102 -1.148,-0.073 -1.26,0.116 -0.112,0.188 0.184,0.789 0.52,1.181 l 1.039,1.315 1.021,1.294 c 0.13,0.151 1.266,1.514 0.629,2.586 -0.635,1.072 -2.376,0.732 -2.545,0.693 l -1.651,-0.279 -1.679,-0.286 c -0.48,-0.101 -1.149,-0.072 -1.261,0.116 -0.111,0.188 0.184,0.79 0.521,1.181 l 2.059,2.609 c 0.132,0.152 1.267,1.514 0.631,2.587 -0.636,1.073 -2.376,0.731 -2.546,0.695 l -3.329,-0.566 c -0.48,-0.103 -1.149,-0.073 -1.262,0.115 -0.11,0.188 0.185,0.79 0.521,1.181 l 2.061,2.609 c 0.131,0.151 1.265,1.515 0.629,2.587 -0.636,1.072 -2.375,0.73 -2.545,0.693 l -3.329,-0.564 c -0.481,-0.102 -1.149,-0.073 -1.26,0.115 -0.113,0.188 0.183,0.79 0.521,1.183 l 1.037,1.314 1.021,1.293 c 0.133,0.152 1.267,1.515 0.632,2.587 -0.636,1.073 -2.377,0.731 -2.547,0.694 l -3.328,-0.564 c -0.48,-0.104 -1.15,-0.074 -1.261,0.114 -0.112,0.188 0.185,0.789 0.521,1.182 l 2.06,2.608 c 0.13,0.151 1.265,1.514 0.629,2.588 -0.636,1.073 -2.376,0.73 -2.545,0.693 l -3.33,-0.566 c -0.48,-0.1 -1.15,-0.073 -1.262,0.115 -0.009,0.018 -0.023,0.032 -0.035,0.049 0.464,0.655 1.067,1.229 1.803,1.665 2.801,1.662 6.422,0.737 8.083,-2.066 l 16.229,-27.373 c 0.984,-1.658 1.054,-3.604 0.367,-5.261 z"
     id="path17" /></svg>