<?xml version="1.0" encoding="UTF-8" standalone="no"?>
<!-- Generator: Adobe Illustrator 15.1.0, SVG Export Plug-In  -->

<svg
   xmlns:dc="http://purl.org/dc/elements/1.1/"
   xmlns:cc="http://creativecommons.org/ns#"
   xmlns:rdf="http://www.w3.org/1999/02/22-rdf-syntax-ns#"
   xmlns:svg="http://www.w3.org/2000/svg"
   xmlns="http://www.w3.org/2000/svg"
   xmlns:sodipodi="http://sodipodi.sourceforge.net/DTD/sodipodi-0.dtd"
   xmlns:inkscape="http://www.inkscape.org/namespaces/inkscape"
   version="1.1"
   x="0px"
   y="0px"
   width="50"
   height="50"
   viewBox="-1.987 -3.05 50 50"
   enable-background="new -1.987 -3.05 70 85"
   xml:space="preserve"
   id="svg2"
   inkscape:version="0.91 r13725"
   sodipodi:docname="icecream.svg"><metadata
     id="metadata26"><rdf:RDF><cc:Work
         rdf:about=""><dc:format>image/svg+xml</dc:format><dc:type
           rdf:resource="http://purl.org/dc/dcmitype/StillImage" /><dc:title></dc:title></cc:Work></rdf:RDF></metadata><sodipodi:namedview
     pagecolor="#ffffff"
     bordercolor="#666666"
     borderopacity="1"
     objecttolerance="10"
     gridtolerance="10"
     guidetolerance="10"
     inkscape:pageopacity="0"
     inkscape:pageshadow="2"
     inkscape:window-width="632"
     inkscape:window-height="431"
     id="namedview24"
     showgrid="false"
     inkscape:zoom="2.7764706"
     inkscape:cx="12.963242"
     inkscape:cy="7.7900173"
     inkscape:window-x="960"
     inkscape:window-y="22"
     inkscape:window-maximized="0"
     inkscape:current-layer="svg2" /><defs
     id="defs4" /><path
     inkscape:connector-curvature="0"
     d="m 23.601925,8.0474745 c 1.226,-1.761 3.263,-2.917 5.567,-2.917 0.066,0 0.133,0.008 0.201,0.009 -0.372,-2.819 -2.782,-4.99899997 -5.704,-4.99899997 -2.922,0 -5.328,2.17699997 -5.702,4.99299997 0.024,0 0.046,-0.003 0.071,-0.003 2.304,0 4.343,1.156 5.567,2.917 z m -0.802,-6.795 0.055,-10e-4 c 0.314,0 0.578,0.23 0.614,0.535 0.016,0.157 -0.029,0.311 -0.129,0.433 -0.103,0.127 -0.253,0.205 -0.42,0.221 -0.057,0.006 -1.428,0.149 -1.468,1.514 -0.011,0.321 -0.277,0.573 -0.607,0.573 l -0.028,-0.001 c -0.283,-0.01 -0.523,-0.207 -0.58,-0.48 -0.008,-0.048 -0.015,-0.09 -0.013,-0.137 0.056,-1.929 1.709,-2.582 2.576,-2.657 z"
     id="path10"
     style="fill:#5ebf64;fill-opacity:1" /><path
     inkscape:connector-curvature="0"
     d="m 35.439925,12.933476 c 0,-3.456001 -2.812,-6.2680015 -6.27,-6.2680015 -1.731,0 -3.298,0.71 -4.432,1.849 -0.277,0.318 -2.154,2.6180015 -1.543,5.6160015 -0.446,1.042 -1.044,0.518 -1.308,0.203 -0.351,-2.105 0.247,-4.019 0.858,-5.1940015 -1.15,-1.53 -2.815,-2.386 -4.877,-2.386 -3.488,0 -6.312999,2.8270005 -6.312999,6.3100015 0,2.365 1.301999,4.421 3.225999,5.502 l -0.017,0.013 c 0.077,0.036 0.154,0.068 0.232,0.102 0.27,0.138 0.55,0.256 0.841,0.355 0.368,0.146 0.734,0.274 1.103,0.393 0.844,0.042 3.328,0.025 4.073,-1.516 0.141,-0.289 0.488,-0.412 0.779,-0.272 0.291,0.141 0.411,0.489 0.27,0.78 -0.429,0.887 -1.191,1.417 -2.016,1.734 6.383,0.952 11.617,-1.431 11.617,-1.431 l -0.038,-0.021 c 2.24,-0.959 3.815,-3.183 3.815,-5.769 z m -19.075,-2.726 c -0.067,0.018 -1.672,0.477 -1.477,2.149 0.043,0.359 -0.221,0.691 -0.59,0.74 -0.029,0.005 -0.061,0.006 -0.091,0.006 -0.281,0 -0.532,-0.171 -0.625,-0.431 -0.02,-0.056 -0.027,-0.105 -0.034,-0.15 -0.263,-2.255 1.507,-3.3380015 2.48,-3.5970015 0.353,-0.094 0.729,0.122 0.823,0.4680005 0.089,0.3540005 -0.128,0.719001 -0.486,0.815001 z m 11.56,-0.3660005 c -0.067,0.018 -1.673,0.4770005 -1.478,2.1490005 0.042,0.361 -0.224,0.694 -0.591,0.742 -0.028,0.004 -0.06,0.008 -0.09,0.008 -0.28,0 -0.531,-0.174 -0.627,-0.436 -0.017,-0.053 -0.028,-0.099 -0.034,-0.147 -0.262,-2.2550005 1.51,-3.3390015 2.482,-3.5970015 0.349,-0.092 0.73,0.122 0.821,0.467 0.091,0.3520005 -0.127,0.718001 -0.483,0.814001 z"
     id="path12"
     style="fill:#f21d2f" /><path
     inkscape:connector-curvature="0"
     d="m 20.465924,35.544476 c 1.865,1.049 3.862001,1.993 5.923001,2.824 l -0.623,1.656 c -1.957,-1.369 -3.751,-2.872 -5.300001,-4.478 l 0,-0.002 z m -4.263999,-13.368 c 4.314999,2.354 9.185,4.075 14.329,5.026 l 1.853,-4.971 c -5.352,0.69 -10.743,0.671 -16.182,-0.055 z m 8.079,21.842 0.684,-1.858 c -0.833,-0.544 -1.639,-1.114 -2.423,-1.707 l 1.742,3.563 -0.003,0.002 z m -6.141001,-12.583 c 2.654,1.948 5.698001,3.625 8.968001,4.976 l 0.745,-2 c -3.793,-1.198 -7.385,-2.801 -10.576,-4.742 l 0.861,1.764 0.002,0.002 z m -2.837,-5.815 c 3.75,2.905 8.270001,5.257 13.271001,6.864 l 1.248,-3.361 c -5.59,-1.053 -10.86,-2.951 -15.512,-5.536 l 0.993,2.033 z"
     id="path14"
     style="fill:#ffc200;fill-opacity:1" /></svg>