<?xml version="1.0" encoding="UTF-8" standalone="no"?>
<!-- Generator: Adobe Illustrator 15.1.0, SVG Export Plug-In  -->

<svg
   xmlns:dc="http://purl.org/dc/elements/1.1/"
   xmlns:cc="http://creativecommons.org/ns#"
   xmlns:rdf="http://www.w3.org/1999/02/22-rdf-syntax-ns#"
   xmlns:svg="http://www.w3.org/2000/svg"
   xmlns="http://www.w3.org/2000/svg"
   xmlns:sodipodi="http://sodipodi.sourceforge.net/DTD/sodipodi-0.dtd"
   xmlns:inkscape="http://www.inkscape.org/namespaces/inkscape"
   version="1.1"
   x="0px"
   y="0px"
   width="50"
   height="50"
   viewBox="-1.987 -3.05 50 50"
   enable-background="new -1.987 -3.05 70 85"
   xml:space="preserve"
   id="svg2"
   inkscape:version="0.91 r13725"
   sodipodi:docname="pizza.svg"><metadata
     id="metadata26"><rdf:RDF><cc:Work
         rdf:about=""><dc:format>image/svg+xml</dc:format><dc:type
           rdf:resource="http://purl.org/dc/dcmitype/StillImage" /><dc:title></dc:title></cc:Work></rdf:RDF></metadata><sodipodi:namedview
     pagecolor="#ffffff"
     bordercolor="#666666"
     borderopacity="1"
     objecttolerance="10"
     gridtolerance="10"
     guidetolerance="10"
     inkscape:pageopacity="0"
     inkscape:pageshadow="2"
     inkscape:window-width="632"
     inkscape:window-height="431"
     id="namedview24"
     showgrid="false"
     inkscape:zoom="2.7764706"
     inkscape:cx="7.5606992"
     inkscape:cy="7.7900173"
     inkscape:window-x="960"
     inkscape:window-y="22"
     inkscape:window-maximized="0"
     inkscape:current-layer="svg2" /><defs
     id="defs4" /><path
     inkscape:connector-curvature="0"
     d="m 8.6912395,23.123969 c -0.406,7.145 5.0549995,13.267 12.2000005,13.674 7.146,0.407 13.267,-5.056 13.674,-12.2 0.046,-0.828 0.012,-1.641 -0.09,-2.434 l -12.847,1.697 5.489,-11.738 c -1.452,-0.679 -3.054,-1.103 -4.752,-1.199 -7.145,-0.407 -13.2660005,5.055 -13.6740005,12.2 z m 2.2299995,-1.458 c 0.074,-1.31 1.196,-2.311 2.504,-2.235 1.310001,0.074 2.312001,1.196 2.237001,2.505 -0.075,1.309 -1.197,2.31 -2.506001,2.236 -1.31,-0.075 -2.31,-1.196 -2.235,-2.506 z m 3.764001,8.14 c -0.874001,-0.05 -1.542001,-0.796 -1.492001,-1.67 0.05,-0.872 0.798,-1.539 1.671001,-1.489 0.873,0.049 1.541,0.796 1.491,1.669 -0.049,0.874 -0.798,1.54 -1.67,1.49 z m 13.718,-4.239 c 0.873,0.05 1.539,0.799 1.489,1.671 -0.049,0.872 -0.796,1.539 -1.669,1.489 -0.874,-0.049 -1.541,-0.797 -1.491,-1.669 0.049,-0.872 0.797,-1.541 1.671,-1.491 z m -4.794,5.277 c -0.075,1.31 -1.196,2.311 -2.506,2.236 -1.308,-0.074 -2.31,-1.196 -2.234,-2.506 0.075,-1.309 1.197,-2.311 2.504,-2.236 1.31,0.075 2.31,1.197 2.236,2.506 z m -4.065,-12.122 c -1.309,-0.075 -2.312,-1.196 -2.237,-2.504 0.075,-1.31 1.197,-2.31 2.507,-2.236 1.308,0.075 2.31,1.195 2.235,2.506 -0.075,1.307 -1.197,2.309 -2.505,2.234 z"
     id="path10"
     style="fill:#ffc200" /><path
     inkscape:connector-curvature="0"
     d="m 20.63924,41.244969 c 9.585,0.546 17.828,-6.809 18.374,-16.394 0.063,-1.111 0.015,-2.203 -0.126,-3.27 l -2.092,0.275 c 0.125,0.938 0.165,1.897 0.108,2.875 -0.479,8.422 -7.721,14.885 -16.145,14.405 -8.421001,-0.479 -14.8840005,-7.723 -14.4050005,-16.145 0.48,-8.425 7.7239995,-14.8870005 16.1460005,-14.4080005 2.003,0.114 3.895,0.615 5.608,1.4190005 l 0.896,-1.9100005 c -1.953,-0.916 -4.104,-1.487 -6.384,-1.616 -9.585001,-0.546 -17.8260005,6.8080005 -18.3720005,16.3940005 -0.546,9.586 6.8059995,17.829 16.3920005,18.375 z"
     id="path12"
     style="fill:#8e4b39" /><path
     inkscape:connector-curvature="0"
     d="m 42.07024,17.899969 2.093,-0.277 c -0.782,-5.936 -4.586,-11.0010005 -9.887,-13.4880005 l -0.892,1.911 c 4.656,2.186 7.999,6.6380005 8.686,11.8540005 z"
     id="path14"
     style="fill:#8e4b39" /><path
     inkscape:connector-curvature="0"
     d="m 39.75024,18.205969 c -0.579,-4.423 -3.408,-8.192 -7.357,-10.0410005 l -5.489,11.7380005 12.846,-1.697 z m -5.141,-3.677 c 0.874,0.05 1.54,0.797 1.49,1.671 -0.05,0.872 -0.796,1.538 -1.67,1.488 -0.872,-0.05 -1.538,-0.796 -1.489,-1.668 0.05,-0.874 0.797,-1.541 1.669,-1.491 z"
     id="path16"
     style="fill:#ffc200" /></svg>