<?xml version="1.0" encoding="UTF-8" standalone="no"?>
<!-- Generator: Adobe Illustrator 15.1.0, SVG Export Plug-In  -->

<svg
   xmlns:dc="http://purl.org/dc/elements/1.1/"
   xmlns:cc="http://creativecommons.org/ns#"
   xmlns:rdf="http://www.w3.org/1999/02/22-rdf-syntax-ns#"
   xmlns:svg="http://www.w3.org/2000/svg"
   xmlns="http://www.w3.org/2000/svg"
   xmlns:sodipodi="http://sodipodi.sourceforge.net/DTD/sodipodi-0.dtd"
   xmlns:inkscape="http://www.inkscape.org/namespaces/inkscape"
   version="1.1"
   x="0px"
   y="0px"
   width="50"
   height="50"
   viewBox="-1.987 -3.05 50 50"
   enable-background="new -1.987 -3.05 70 85"
   xml:space="preserve"
   id="svg2"
   inkscape:version="0.91 r13725"
   sodipodi:docname="sushi.svg"><metadata
     id="metadata26"><rdf:RDF><cc:Work
         rdf:about=""><dc:format>image/svg+xml</dc:format><dc:type
           rdf:resource="http://purl.org/dc/dcmitype/StillImage" /><dc:title></dc:title></cc:Work></rdf:RDF></metadata><sodipodi:namedview
     pagecolor="#ffffff"
     bordercolor="#666666"
     borderopacity="1"
     objecttolerance="10"
     gridtolerance="10"
     guidetolerance="10"
     inkscape:pageopacity="0"
     inkscape:pageshadow="2"
     inkscape:window-width="1600"
     inkscape:window-height="878"
     id="namedview24"
     showgrid="false"
     inkscape:zoom="2.7764706"
     inkscape:cx="7.5606992"
     inkscape:cy="-6.6167624"
     inkscape:window-x="0"
     inkscape:window-y="22"
     inkscape:window-maximized="0"
     inkscape:current-layer="svg2" /><defs
     id="defs4" /><path
     inkscape:connector-curvature="0"
     d="m 20.311047,25.280952 c -7.377,-0.871 -15.0720035,-0.549 -15.1480035,-0.545 l -0.037,10e-4 -0.038,-0.003 c -0.22,-0.011 -0.432,-0.035 -0.64,-0.064 2.433,8.222 17.9850035,6.536 20.7990035,5.596 4.435,-1.478 5.062,-5.086 5.062,-5.086 -0.006,-0.006 -0.011,-0.01 -0.018,-0.015 -2.631,0.533 -6.02,0.585 -9.98,0.116 z"
     id="path8"
     style="fill:#ffeeaa" /><path
     inkscape:connector-curvature="0"
     d="m 0.75004351,17.458952 c 1.70299999,-0.423 3.41099999,-0.739 5.10299999,-0.967 l 4.3370035,-4.188 c -0.4640005,0.045 -0.9280015,0.096 -1.396002,0.148 -4.8590015,0.546 -7.4300015,2.809 -8.04400149,5.007 z"
     id="path10"
     style="fill:#ffc200" /><path
     inkscape:connector-curvature="0"
     d="m 34.919047,19.398952 c -0.028,-0.368 -0.114,-0.739 -0.261,-1.104 -0.403,-0.997 -1.541,-2.611 -4.749,-3.867 -1.205,0.842 -2.944,2.055 -3.959,2.765 4.052,0.74 7.212,1.648 8.969,2.206 z"
     id="path12"
     style="fill:#ffc200" /><path
     inkscape:connector-curvature="0"
     d="m 23.833047,16.835952 4.297,-3.001 c -0.597,-0.169 -1.247,-0.326 -1.957,-0.469 -1.942,-0.387 -3.66,-0.671 -5.211,-0.875 -1.003,0.921 -2.818,2.585 -3.95,3.625 2.488,0.14 4.795,0.409 6.821,0.72 z"
     id="path14"
     style="fill:#ffc200" /><path
     inkscape:connector-curvature="0"
     d="m 25.857047,18.708952 c 0.846,1.521 2.273,4.087 2.888,5.193 0.427,-0.058 0.84,-0.124 1.233,-0.204 2.171,-0.437 3.697,-1.216 4.415,-2.253 0.117,-0.167 0.214,-0.349 0.294,-0.538 -1.638,-0.526 -4.793,-1.449 -8.83,-2.198 z"
     id="path16"
     style="fill:#ffc200" /><path
     inkscape:connector-curvature="0"
     d="m 8.2990445,16.224952 c 2.2600025,-0.198 4.4720025,-0.249 6.5790025,-0.196 l 4.103,-3.764 c -2.483,-0.237 -4.527,-0.25 -6.434,-0.145 -0.276,0.266 -2.8730005,2.773 -4.2480025,4.105 z"
     id="path18"
     style="fill:#ffc200" /><path
     inkscape:connector-curvature="0"
     d="m 14.717047,17.530952 c -2.098,-0.047 -4.297,0.007 -6.543003,0.212 1.147002,1.581 3.383003,4.656 3.976003,5.472 1.97,0.054 4.192,0.165 6.449,0.374 l -3.882,-6.058 z"
     id="path20"
     style="fill:#ffc200" /><path
     inkscape:connector-curvature="0"
     d="m 10.262047,23.177952 -3.8130035,-5.247 c -1.924,0.244 -3.872,0.603 -5.80899999,1.109 0.011,0.071 0.022,0.142 0.035,0.213 0.307,1.686 1.62199999,3.806 4.47099999,3.976 0.326,-0.012 2.317,-0.084 5.1160035,-0.051 z"
     id="path22"
     style="fill:#ffc200" /><path
     inkscape:connector-curvature="0"
     d="m 23.952047,18.379952 c -2.165,-0.344 -4.676,-0.642 -7.403,-0.782 1.021,1.595 3.307,5.165 3.967,6.192 2.457,0.291 4.661,0.377 6.591,0.264 l -3.155,-5.674 z"
     id="path24"
     style="fill:#ffc200" /><path
     inkscape:connector-curvature="0"
     d="m 36.698047,19.903952 c 0.894,-0.14 2.608,-0.511 4.612,-0.394 2.118,0.125 4.392,0.586 4.135,2.242 -0.26,1.694 -2.057,1.548 -3.271,1.214 0,0 2.675,1.148 1.635,2.921 -0.625,1.068 -2.431,0.955 -4.541,-0.729 -2.266,-1.81 -3.213,-3.433 -3.213,-3.433 0,0 0.463,-0.725 0.643,-1.821 z"
     id="path26"
     style="fill:#ffc200" /></svg>