<?xml version="1.0" encoding="UTF-8" standalone="no"?>
<!-- Generator: Adobe Illustrator 15.1.0, SVG Export Plug-In  -->

<svg
   xmlns:dc="http://purl.org/dc/elements/1.1/"
   xmlns:cc="http://creativecommons.org/ns#"
   xmlns:rdf="http://www.w3.org/1999/02/22-rdf-syntax-ns#"
   xmlns:svg="http://www.w3.org/2000/svg"
   xmlns="http://www.w3.org/2000/svg"
   xmlns:sodipodi="http://sodipodi.sourceforge.net/DTD/sodipodi-0.dtd"
   xmlns:inkscape="http://www.inkscape.org/namespaces/inkscape"
   version="1.1"
   x="0px"
   y="0px"
   width="50"
   height="50"
   viewBox="-1.987 -3.05 50 50"
   enable-background="new -1.987 -3.05 70 85"
   xml:space="preserve"
   id="svg2"
   inkscape:version="0.91 r13725"
   sodipodi:docname="mexican.svg"><metadata
     id="metadata26"><rdf:RDF><cc:Work
         rdf:about=""><dc:format>image/svg+xml</dc:format><dc:type
           rdf:resource="http://purl.org/dc/dcmitype/StillImage" /><dc:title></dc:title></cc:Work></rdf:RDF></metadata><sodipodi:namedview
     pagecolor="#ffffff"
     bordercolor="#666666"
     borderopacity="1"
     objecttolerance="10"
     gridtolerance="10"
     guidetolerance="10"
     inkscape:pageopacity="0"
     inkscape:pageshadow="2"
     inkscape:window-width="632"
     inkscape:window-height="431"
     id="namedview24"
     showgrid="false"
     inkscape:zoom="2.7764706"
     inkscape:cx="12.963242"
     inkscape:cy="7.7900173"
     inkscape:window-x="960"
     inkscape:window-y="22"
     inkscape:window-maximized="0"
     inkscape:current-layer="svg2" /><defs
     id="defs4" /><path
     inkscape:connector-curvature="0"
     d="m 45.068612,26.478927 c 0,-1.8575 -3.845,-3.49375 -9.687504,-4.455 l -1.48,1.11375 c 3.69125,0.60625 6.045004,1.5225 6.045004,2.54625 0,0.4225 -0.40125,0.82375 -1.1275,1.195 -2.422504,1.2375 -8.487504,2.115 -15.592504,2.115 -7.105,0 -13.172496,-0.8775 -15.5937455,-2.115 -0.725,-0.37125 -1.1275,-0.7725 -1.1275,-1.195 0,-0.8475 1.6175,-1.6225 4.2712485,-2.20875 l -1.167499,-1.1875 c -5.0124995,0.9825 -8.2274996,2.49375 -8.2274996,4.19125 0,0.13375 0.02625,0.2675 0.0675,0.4 l -0.0675,0 0.10375,0.12 c 0.16125,0.4125 0.51625,0.81 1.0362501,1.19 l 6.4325,7.38 -0.3025,0 c -0.94875,0 -1.71875,0.76875 -1.71875,1.72 l 0,0.18125 c 0,0.95 0.77,1.72 1.71875,1.72 l 29.8712495,0 c 0.95,0 1.72,-0.77 1.72,-1.72 l 0,-0.18125 c 0,-0.95125 -0.77,-1.72 -1.72,-1.72 l -1.025004,0 6.431254,-7.38 c 0.52,-0.38 0.87375,-0.7775 1.03625,-1.19 l 0.10375,-0.12 -0.0663,0 c 0.04,-0.1325 0.0663,-0.26625 0.0663,-0.4"
     style="fill:#5ebf64;fill-opacity:1;fill-rule:nonzero;stroke:none"
     id="path1588" /><path
     inkscape:connector-curvature="0"
     d="m 36.622358,15.293927 c 0.79875,0 1.447504,0.6475 1.447504,1.4475 0,0.8 -0.648754,1.44875 -1.447504,1.44875 -0.80125,0 -1.45,-0.64875 -1.45,-1.44875 0,-0.8 0.64875,-1.4475 1.45,-1.4475 z m 1.808754,-3.621249 c 0.6,0 1.0875,0.48625 1.0875,1.084999 0,0.60125 -0.4875,1.0875 -1.0875,1.0875 -0.59875,0 -1.085004,-0.48625 -1.085004,-1.0875 0,-0.598749 0.486254,-1.084999 1.085004,-1.084999 z m -9.471254,10.901249 0.1925,2.325 2.72125,-2.04875 1.49,-1.12125 10.857504,-8.175 -16.726254,-8.5474968 0.28625,3.4225 7.13625,1.6262498 c 0.24875,0.05625 0.45,0.24125 0.5275,0.48375 0.07875,0.241249 0.025,0.507499 -0.14375,0.698749 l -6.6525,7.606248 0.205,2.455 0.10625,1.275"
     style="fill:#ffc200;fill-opacity:1;fill-rule:nonzero;stroke:none"
     id="path1590" /><path
     inkscape:connector-curvature="0"
     d="m 22.487358,12.637677 c 0.44125,-0.4075 1.12875,-0.37875 1.535,0.06125 0.4075,0.44125 0.38,1.12875 -0.06,1.53625 -0.4425,0.40625 -1.12875,0.37875 -1.53625,-0.0625 -0.4075,-0.44125 -0.38,-1.1275 0.06125,-1.535 z m 3.90875,-1.636248 0.1375,-0.1025 c 0.21375,-0.15375 0.455,-0.243749 0.70375,-0.268749 0.25,-0.02375 0.505,0.01125 0.7375,0.116249 0.17125,0.0775 0.3325,0.19 0.46875,0.3375 0.5425,0.588749 0.505,1.503748 -0.0825,2.047498 l -0.17625,0.13375 c -0.21625,0.145 -0.45875,0.2225 -0.7075,0.24 -0.2525,0.0175 -0.50625,-0.02875 -0.73875,-0.1425 -0.15375,-0.0775 -0.3,-0.17875 -0.425,-0.315 -0.5425,-0.5875 -0.505,-1.503749 0.0825,-2.046248 z m -7.30375,11.474998 1.31375,3.59 3.2275,-3.69 1.09,-1.245 2.43,-2.77875 0.66375,-0.75875 0.66375,-0.7575 4.93125,-5.637498 -5.50625,-1.2549988 -0.74,-0.17 -0.74125,-0.1675 -6.02375,-1.37375 -2.84875,10.0449968 1.08375,2.95875 0.45625,1.24"
     style="fill:#ffc200;fill-opacity:1;fill-rule:nonzero;stroke:none"
     id="path1592" /><path
     inkscape:connector-curvature="0"
     d="m 10.844861,17.056427 c -0.717499,0 -1.299999,-0.58125 -1.299999,-1.29875 0,-0.7175 0.5825,-1.3 1.299999,-1.3 0.717499,0 1.299999,0.5825 1.299999,1.3 0,0.7175 -0.5825,1.29875 -1.299999,1.29875 z m -2.9249985,-3.24875 c -0.54,0 -0.975,-0.4375 -0.975,-0.975 0,-0.53875 0.43625,-0.973749 0.975,-0.973749 0.53875,0 0.975,0.434999 0.975,0.973749 0,0.5375 -0.4375,0.975 -0.975,0.975 z m 10.4262455,-6.0424968 -4.19,1.23 -0.69625,0.20625 -0.696249,0.20375 -10.6949966,3.1449968 9.2699986,9.43125 1.146248,1.1675 1.693749,1.7225 0.57875,-2.04 0.37875,-1.3325 0.89625,-3.16375 0.3375,-1.1875 0.33625,-1.18625 2.28375,-8.0499968 0.1025,-0.365 -0.74625,0.21875"
     style="fill:#ffc200;fill-opacity:1;fill-rule:nonzero;stroke:none"
     id="path1594" /></svg>