<?xml version="1.0" encoding="UTF-8" standalone="no"?>
<!-- Generator: Adobe Illustrator 15.1.0, SVG Export Plug-In  -->

<svg
   xmlns:dc="http://purl.org/dc/elements/1.1/"
   xmlns:cc="http://creativecommons.org/ns#"
   xmlns:rdf="http://www.w3.org/1999/02/22-rdf-syntax-ns#"
   xmlns:svg="http://www.w3.org/2000/svg"
   xmlns="http://www.w3.org/2000/svg"
   xmlns:sodipodi="http://sodipodi.sourceforge.net/DTD/sodipodi-0.dtd"
   xmlns:inkscape="http://www.inkscape.org/namespaces/inkscape"
   version="1.1"
   x="0px"
   y="0px"
   width="50"
   height="50"
   viewBox="-1.987 -3.05 50 50"
   enable-background="new -1.987 -3.05 70 85"
   xml:space="preserve"
   id="svg2"
   inkscape:version="0.91 r13725"
   sodipodi:docname="sandwitch.svg"><metadata
     id="metadata26"><rdf:RDF><cc:Work
         rdf:about=""><dc:format>image/svg+xml</dc:format><dc:type
           rdf:resource="http://purl.org/dc/dcmitype/StillImage" /><dc:title></dc:title></cc:Work></rdf:RDF></metadata><sodipodi:namedview
     pagecolor="#ffffff"
     bordercolor="#666666"
     borderopacity="1"
     objecttolerance="10"
     gridtolerance="10"
     guidetolerance="10"
     inkscape:pageopacity="0"
     inkscape:pageshadow="2"
     inkscape:window-width="632"
     inkscape:window-height="431"
     id="namedview24"
     showgrid="false"
     inkscape:zoom="2.7764706"
     inkscape:cx="7.5606992"
     inkscape:cy="22.196797"
     inkscape:window-x="960"
     inkscape:window-y="22"
     inkscape:window-maximized="0"
     inkscape:current-layer="svg2" /><defs
     id="defs4" /><path
     inkscape:connector-curvature="0"
     style="fill:#ffc200"
     d="m 37.569076,10.027805 -29.424,0 c -1.289,0 -2.334,0.927999 -2.334,2.070999 0,1.145 1.045,2.07 2.334,2.07 l 29.425,0 c 1.29,0 2.336,-0.926 2.336,-2.07 -10e-4,-1.143 -1.047,-2.070999 -2.337,-2.070999 z"
     id="path12733" /><path
     inkscape:connector-curvature="0"
     style="fill:#ffc200"
     d="m 37.569076,30.027804 -29.424,0 c -1.289,0 -2.334,0.928 -2.334,2.071 0,1.145 1.045,2.07 2.334,2.07 l 29.425,0 c 1.29,0 2.336,-0.926 2.336,-2.07 -10e-4,-1.143 -1.047,-2.071 -2.337,-2.071 z"
     id="path12735" /><path
     inkscape:connector-curvature="0"
     style="fill:#f2906b"
     d="m 42.116076,22.137804 c 0,0.894 -2.237,1.626 -4.972,1.626 l -27.683,0 c -2.733,0 -4.971,-0.732 -4.971,-1.626 0,-0.895 2.237,-1.626 4.971,-1.626 l 27.684,0 c 2.734,0 4.971,0.732 4.971,1.626 z"
     id="path12737" /><path
     inkscape:connector-curvature="0"
     style="fill:#5ebf64"
     d="m 42.059076,28.427804 c -1.331,0 -2.312,-0.54 -2.407,-1.042 l 0.003,-0.049 c 0,-1.375 -1.79,-2.451 -4.077,-2.451 -2.049,0 -3.7,0.865 -4.019,2.064 l -0.036,0.177 -0.023,0.225 c -0.019,0.524 -1.016,1.108 -2.419,1.108 -1.402,0 -2.399,-0.584 -2.419,-1.108 l -0.024,-0.196 -0.044,-0.205 c -0.308,-1.18 -1.967,-2.055 -4.028,-2.055 -2.049,0 -3.699,0.867 -4.019,2.065 l -0.004,0.166 -0.056,0.235 c -0.018,0.523 -1.015,1.108 -2.418,1.108 -1.327,0 -2.307,-0.538 -2.405,-1.04 l 0.002,-0.053 c 0,-1.374 -1.791,-2.449 -4.077,-2.449 -2.049,0 -3.7,0.864 -4.018,2.064 l -0.008,0.161 -0.054,0.239 c -0.018,0.523 -1.016,1.108 -2.4179997,1.108 l 0,0.414 0,0.499 0,0.415 c 2.0209997,0 3.6699997,-0.854 4.0109997,-2.008 l 0.051,-0.191 0.013,-0.287 c 0.044,-0.521 1.067,-1.088 2.423,-1.088 1.307,0 2.252,0.496 2.402,0.987 l 0.003,0.143 c 0.034,1.353 1.824,2.411 4.075,2.411 2.021,0 3.671,-0.854 4.011,-2.006 l 0.053,-0.218 0.012,-0.262 c 0.043,-0.521 1.025,-1.088 2.421,-1.088 1.395,0 2.378,0.564 2.423,1.086 l 0.06,0.292 0.025,0.189 c 0.35,1.146 1.997,1.997 4.007,1.997 2.021,0 3.669,-0.854 4.012,-2.009 l 0.05,-0.206 0.018,-0.208 -0.004,-0.071 c 0.054,-0.519 1.072,-1.08 2.422,-1.08 1.308,0 2.254,0.497 2.402,0.987 l 0.004,0.141 c 0.033,1.354 1.823,2.413 4.075,2.413 0.283,0 0.558,-0.021 0.824,-0.053 l 0,-0.419 0,-0.515 0,-0.418 c -0.256,0.051 -0.529,0.081 -0.825,0.081 z"
     id="path12739" /><path
     inkscape:connector-curvature="0"
     style="fill:#5ebf64"
     d="m 42.059076,18.427804 c -1.331,0 -2.312,-0.54 -2.407,-1.042 l 0.003,-0.049 c 0,-1.375 -1.79,-2.451 -4.077,-2.451 -2.049,0 -3.7,0.865 -4.019,2.064 l -0.036,0.177 -0.023,0.225 c -0.019,0.524 -1.016,1.108 -2.419,1.108 -1.402,0 -2.399,-0.584 -2.419,-1.108 l -0.024,-0.196 -0.044,-0.205 c -0.308,-1.18 -1.967,-2.055 -4.028,-2.055 -2.049,0 -3.699,0.867 -4.019,2.065 l -0.004,0.166 -0.056,0.235 c -0.018,0.523 -1.015,1.108 -2.418,1.108 -1.327,0 -2.307,-0.538 -2.405,-1.04 l 0.002,-0.053 c 0,-1.374 -1.791,-2.449 -4.077,-2.449 -2.049,0 -3.7,0.864 -4.018,2.064 l -0.008,0.161 -0.054,0.239 c -0.018,0.523 -1.016,1.108 -2.4179997,1.108 l 0,0.414 0,0.499 0,0.415 c 2.0209997,0 3.6699997,-0.854 4.0109997,-2.008 l 0.051,-0.191 0.013,-0.287 c 0.044,-0.521 1.067,-1.088 2.423,-1.088 1.307,0 2.252,0.496 2.402,0.987 l 0.003,0.143 c 0.034,1.353 1.824,2.411 4.075,2.411 2.021,0 3.671,-0.854 4.011,-2.006 l 0.053,-0.218 0.012,-0.262 c 0.043,-0.521 1.025,-1.088 2.421,-1.088 1.395,0 2.378,0.564 2.423,1.086 l 0.06,0.292 0.025,0.189 c 0.35,1.146 1.997,1.997 4.007,1.997 2.021,0 3.669,-0.854 4.012,-2.009 l 0.05,-0.206 0.018,-0.208 -0.004,-0.071 c 0.054,-0.519 1.072,-1.08 2.422,-1.08 1.308,0 2.254,0.497 2.402,0.987 l 0.004,0.141 c 0.033,1.354 1.823,2.413 4.075,2.413 0.283,0 0.558,-0.021 0.824,-0.053 l 0,-0.419 0,-0.515 0,-0.418 c -0.256,0.051 -0.529,0.081 -0.825,0.081 z"
     id="path12741" /></svg>