<?xml version="1.0" encoding="UTF-8" standalone="no"?>
<!-- Generator: Adobe Illustrator 15.1.0, SVG Export Plug-In  -->

<svg
   xmlns:dc="http://purl.org/dc/elements/1.1/"
   xmlns:cc="http://creativecommons.org/ns#"
   xmlns:rdf="http://www.w3.org/1999/02/22-rdf-syntax-ns#"
   xmlns:svg="http://www.w3.org/2000/svg"
   xmlns="http://www.w3.org/2000/svg"
   xmlns:sodipodi="http://sodipodi.sourceforge.net/DTD/sodipodi-0.dtd"
   xmlns:inkscape="http://www.inkscape.org/namespaces/inkscape"
   version="1.1"
   x="0px"
   y="0px"
   width="50"
   height="50"
   viewBox="-1.987 -3.05 50 50"
   enable-background="new -1.987 -3.05 70 85"
   xml:space="preserve"
   id="svg2"
   inkscape:version="0.91 r13725"
   sodipodi:docname="spanish.svg"><metadata
     id="metadata26"><rdf:RDF><cc:Work
         rdf:about=""><dc:format>image/svg+xml</dc:format><dc:type
           rdf:resource="http://purl.org/dc/dcmitype/StillImage" /><dc:title></dc:title></cc:Work></rdf:RDF></metadata><sodipodi:namedview
     pagecolor="#ffffff"
     bordercolor="#666666"
     borderopacity="1"
     objecttolerance="10"
     gridtolerance="10"
     guidetolerance="10"
     inkscape:pageopacity="0"
     inkscape:pageshadow="2"
     inkscape:window-width="1600"
     inkscape:window-height="878"
     id="namedview24"
     showgrid="false"
     inkscape:zoom="2.7764706"
     inkscape:cx="7.5606992"
     inkscape:cy="22.196797"
     inkscape:window-x="0"
     inkscape:window-y="22"
     inkscape:window-maximized="0"
     inkscape:current-layer="svg2" /><defs
     id="defs4" /><g
     transform="matrix(0.86841041,0,0,0.86841041,-6.55135,-8.6345665)"
     id="g15"><path
       style="fill:#333333"
       inkscape:connector-curvature="0"
       d="m 34.556,14.874 c -9.134,0 -16.875,5.965 -19.538,14.213 -0.643,1.989 -0.99,4.112 -0.99,6.315 0,11.337 9.19,20.528 20.528,20.528 11.338,0 20.529,-9.191 20.529,-20.528 0,-11.338 -9.191,-20.528 -20.529,-20.528 z m 0,37.288 c -1.267,0 -1.071,0.201 -2.885,-0.211 l -0.789,-0.08 c 0,0 -0.56,-0.156 -0.976,-0.313 -7.641,-1.961 -13.274,-8.421 -13.274,-16.348 0,-1.84 0.303,-3.516 0.864,-5.178 0.882,-2.614 2.406,-4.903 4.389,-6.8 1,-1.087 3.373,-3.11 8.015,-4.492 0,0 0.355,-0.053 0.919,-0.107 1.207,-0.245 2.453,-0.381 3.736,-0.381 9.9,0 17.925,7.486 17.925,16.955 0,9.469 -8.024,16.955 -17.924,16.955 z"
       id="path17" /><path
       style="fill:#333333"
       inkscape:connector-curvature="0"
       d="m 14.941,28.797 -2.896,-1.047 -2.153,0 c 0,0 -1.938,1.04 -2.938,5.884 l 0,1.769 c 0,0 1.216,4.603 2.392,4.613 0.922,0.008 1.273,0.008 1.273,0.008 0,0 3.911,-0.7 3.696,-1.238 -0.214,-0.538 -0.207,-1.461 -0.207,-1.461 0,0 -1.785,1.692 -3.08,1.077 -1.295,-0.615 -1.445,-0.461 -1.983,-2.999 -0.538,-2.538 10e-4,-3.459 0.308,-4.228 0.308,-0.769 0.923,-1 2,-1 1.076,0 1.636,-0.141 3.163,0.549 l 0.425,-1.927 z"
       id="path19" /><path
       style="fill:#333333"
       inkscape:connector-curvature="0"
       d="m 54.177,28.797 2.897,-1.047 2.153,0 c 0,0 1.727,1.04 2.727,5.884 l 0,1.769 c 0,0 -1.111,4.605 -2.286,4.613 -1.198,0.008 -1.22,0.008 -1.22,0.008 0,0 -3.867,-0.568 -3.652,-1.106 0.215,-0.538 0.292,-1.593 0.292,-1.593 0,0 1.62,1.471 2.997,1.077 1.208,-0.346 1.449,-0.461 1.987,-2.999 0.538,-2.538 0,-3.459 -0.308,-4.228 -0.308,-0.769 -0.923,-1 -1.999,-1 -1.076,0 -1.636,-0.141 -3.162,0.549 l -0.426,-1.927 z"
       id="path21" /><g
       id="g23"><path
         style="fill:#6c5f69"
         inkscape:connector-curvature="0"
         d="m 43.338,33.396 c 0,0 0.181,0.015 0.35,0.108 0.943,0.45 3.389,2.028 -1.171,3.638 -0.346,0.066 -0.611,0.1 -0.935,0.057 -4.68,-0.368 -3.059,-4.335 1.756,-3.803 z"
         id="path25" /><path
         style="fill:#ff7d29"
         inkscape:connector-curvature="0"
         d="m 42.08,34.479 c 0.486,0.157 2.134,1.176 -0.133,1.816 -1.183,0.134 -1.394,0.059 -1.727,-0.238 -0.564,-0.697 -0.275,-0.997 -0.157,-1.147 0.166,-0.213 1.209,-0.692 2.017,-0.431 z"
         id="path27" /></g><g
       id="g29"><path
         style="fill:#6c5f69"
         inkscape:connector-curvature="0"
         d="m 36.854,41.694 c 0,0 -0.003,0.183 -0.085,0.356 -0.387,0.97 -1.803,3.514 -3.706,-0.932 -0.087,-0.341 -0.139,-0.604 -0.118,-0.93 0.063,-4.692 4.127,-3.333 3.909,1.506 z"
         id="path31" /><path
         style="fill:#ff7d29"
         inkscape:connector-curvature="0"
         d="m 35.692,40.51 c -0.125,0.495 -1.035,2.207 -1.821,-0.015 -0.211,-1.172 -0.149,-1.387 0.125,-1.739 0.659,-0.608 0.977,-0.339 1.135,-0.231 0.223,0.152 0.769,1.161 0.561,1.985 z"
         id="path33" /></g><g
       id="g35"><path
         style="fill:#6c5f69"
         inkscape:connector-curvature="0"
         d="m 27.338,37.335 c 0,0 -0.182,-0.023 -0.345,-0.125 -0.92,-0.495 -3.287,-2.19 1.347,-3.576 0.349,-0.048 0.616,-0.07 0.938,-0.011 4.655,0.595 2.843,4.478 -1.94,3.712 z"
         id="path37" /><path
         style="fill:#ff7d29"
         inkscape:connector-curvature="0"
         d="m 28.646,36.314 c -0.478,-0.18 -2.074,-1.278 0.222,-1.807 1.188,-0.076 1.395,0.01 1.713,0.323 0.529,0.724 0.226,1.008 0.102,1.153 -0.177,0.205 -1.242,0.632 -2.037,0.331 z"
         id="path39" /></g><g
       id="g41"><path
         style="fill:#f21d2f"
         inkscape:connector-curvature="0"
         d="m 28.515,23.875 c 0.275,-0.33 0.621,-0.65 1.052,-0.946 L 28.57,22.267 c 0,0 -0.629,0.316 -1.375,0.953 l 1.32,0.655 z"
         id="path43" /><path
         style="fill:#f21d2f"
         inkscape:connector-curvature="0"
         d="m 27.054,23.315 c -0.631,0.583 -1.307,1.383 -1.747,2.402 l 2.309,0.09 c 0.114,-0.551 0.346,-1.185 0.799,-1.805 l -1.361,-0.687 z"
         id="path45" /><path
         style="fill:#f21d2f"
         inkscape:connector-curvature="0"
         d="m 27.633,27.288 c 0,0 -0.118,-0.561 -0.002,-1.341 L 25.26,25.884 c -0.35,0.953 -0.481,2.086 -0.182,3.401 0,0 1.399,-1.043 2.706,-1.411 l 2.775,-1.347 c 0,0 0.363,-0.408 -0.083,-0.534 l -2.843,1.295 z"
         id="path47" /><path
         style="fill:#f21d2f"
         inkscape:connector-curvature="0"
         d="m 25.154,29.444 c 0.469,1.051 1.213,1.869 2.061,2.35 0,0 0.191,-1.589 1.323,-2.727 0.137,-0.138 2.703,-1.612 2.746,-1.718 0.1,-0.241 -0.044,-0.371 -0.206,-0.41 L 28.3,28.653 27.871,28.007 c -1.62,0.495 -2.717,1.437 -2.717,1.437 z"
         id="path49" /><path
         style="fill:#f21d2f"
         inkscape:connector-curvature="0"
         d="m 30.743,31.773 0.851,-0.664 c 0,0 -1.973,-0.241 -3.002,-1.861 -0.994,0.992 -1.252,2.601 -1.252,2.601 2.215,1.136 4.94,0.803 4.94,0.803 l -1.537,-0.879 z m -1.356,-0.188 c -0.174,0.262 -0.567,0.308 -0.877,0.102 -0.311,-0.206 -0.421,-0.585 -0.247,-0.848 0.174,-0.262 0.566,-0.308 0.877,-0.102 0.31,0.206 0.421,0.586 0.247,0.848 z"
         id="path51" /><path
         style="fill:#f21d2f"
         inkscape:connector-curvature="0"
         d="m 28.645,22.326 c 0,0 0.362,-1.371 1.125,-1.868 0.763,-0.498 1.026,0.137 0.731,0.443 -0.294,0.307 -0.79,0.846 -0.79,0.846 0,0 1.799,-0.443 2.011,0.062 0.212,0.506 -2.2,1.099 -2.2,1.099 l -0.877,-0.582 z"
         id="path53" /><circle
         style="fill:#333333"
         cx="28.848"
         cy="31.16"
         r="0.19"
         id="circle55" /></g><g
       id="g57"><path
         style="fill:#f21d2f"
         inkscape:connector-curvature="0"
         d="m 38.721,47.074 c -0.382,0.197 -0.824,0.359 -1.337,0.465 l 0.663,0.996 c 0,0 0.703,-0.048 1.636,-0.346 l -0.962,-1.115 z"
         id="path59" /><path
         style="fill:#f21d2f"
         inkscape:connector-curvature="0"
         d="m 39.851,48.157 c 0.808,-0.293 1.742,-0.769 2.542,-1.538 l -2.094,-0.978 c -0.318,0.463 -0.778,0.958 -1.435,1.354 l 0.987,1.162 z"
         id="path61" /><path
         style="fill:#f21d2f"
         inkscape:connector-curvature="0"
         d="m 40.856,44.271 c 0,0 -0.109,0.562 -0.517,1.237 l 2.161,0.977 c 0.692,-0.743 1.252,-1.736 1.485,-3.065 0,0 -1.693,0.42 -3.041,0.252 l -3.08,0.167 c 0,0 -0.493,0.236 -0.13,0.524 l 3.122,-0.092 z"
         id="path63" /><path
         style="fill:#f21d2f"
         inkscape:connector-curvature="0"
         d="m 43.977,43.243 c -0.025,-1.151 -0.394,-2.193 -0.99,-2.965 0,0 -0.792,1.39 -2.275,2.001 -0.179,0.074 -3.117,0.439 -3.197,0.52 -0.185,0.183 -0.103,0.359 0.031,0.458 l 3.225,-0.503 0.145,0.762 c 1.684,0.17 3.061,-0.273 3.061,-0.273 z"
         id="path65" /><path
         style="fill:#f21d2f"
         inkscape:connector-curvature="0"
         d="m 38.65,37.524 1.076,1.405 -1.042,0.283 c 0,0 1.726,0.987 2.046,2.878 1.301,-0.529 2.163,-1.913 2.163,-1.913 -1.601,-1.904 -4.243,-2.653 -4.243,-2.653 z m 3.001,3.228 c -0.262,0.174 -0.641,0.064 -0.848,-0.246 -0.207,-0.31 -0.161,-0.703 0.101,-0.877 0.262,-0.174 0.642,-0.064 0.848,0.246 0.206,0.31 0.162,0.702 -0.101,0.877 z"
         id="path67" /><path
         style="fill:#f21d2f"
         inkscape:connector-curvature="0"
         d="m 38.001,48.453 c 0,0 -0.865,1.124 -1.761,1.286 -0.896,0.163 -0.893,-0.524 -0.503,-0.692 0.39,-0.168 1.056,-0.473 1.056,-0.473 0,0 -1.831,-0.289 -1.83,-0.836 0,-0.549 2.455,-0.16 2.455,-0.16 l 0.583,0.875 z"
         id="path69" /><circle
         style="fill:#333333"
         cx="41.236"
         cy="40.23"
         r="0.19"
         id="circle71" /></g><g
       id="g73"><path
         style="fill:#f21d2f"
         inkscape:connector-curvature="0"
         d="m 22.674,40.167 c -0.28,-0.326 -0.541,-0.719 -0.763,-1.192 l -0.815,0.876 c 0,0 0.21,0.672 0.716,1.51 l 0.862,-1.194 z"
         id="path75" /><path
         style="fill:#f21d2f"
         inkscape:connector-curvature="0"
         d="m 21.883,41.516 c 0.472,0.718 1.152,1.516 2.085,2.115 l 0.465,-2.263 c -0.525,-0.202 -1.113,-0.535 -1.65,-1.082 l -0.9,1.23 z"
         id="path77" /><path
         style="fill:#f21d2f"
         inkscape:connector-curvature="0"
         d="m 25.897,41.591 c 0,0 -0.572,0.025 -1.324,-0.215 l -0.448,2.329 c 0.883,0.501 1.98,0.815 3.327,0.734 0,0 -0.802,-1.55 -0.952,-2.899 l -0.877,-2.958 c 0,0 -0.344,-0.425 -0.541,-0.005 l 0.815,3.014 z"
         id="path79" /><path
         style="fill:#f21d2f"
         inkscape:connector-curvature="0"
         d="m 27.622,44.389 c 1.113,-0.292 2.041,-0.892 2.653,-1.651 0,0 -1.535,-0.447 -2.474,-1.749 C 27.687,40.832 26.65,38.06 26.553,38 26.332,37.862 26.18,37.983 26.115,38.137 l 1.239,3.02 -0.708,0.318 c 0.224,1.677 0.976,2.914 0.976,2.914 z"
         id="path81" /><path
         style="fill:#f21d2f"
         inkscape:connector-curvature="0"
         d="m 30.83,39.253 -0.517,-0.947 c 0,0 -0.559,1.907 -2.324,2.658 0.816,1.143 2.362,1.66 2.362,1.66 1.481,-2 1.596,-4.744 1.596,-4.744 l -1.117,1.373 z m -0.449,2.19 c -0.254,0.272 -0.646,0.319 -0.876,0.105 -0.23,-0.215 -0.212,-0.609 0.042,-0.882 0.254,-0.273 0.646,-0.32 0.877,-0.105 0.229,0.214 0.21,0.609 -0.043,0.882 z"
         id="path83" /><path
         style="fill:#f21d2f"
         inkscape:connector-curvature="0"
         d="m 21.167,39.786 c 0,0 -1.294,-0.581 -1.66,-1.414 -0.366,-0.834 0.303,-0.99 0.556,-0.65 0.254,0.34 0.706,0.917 0.706,0.917 0,0 -0.144,-1.847 0.39,-1.974 0.532,-0.127 0.725,2.35 0.725,2.35 l -0.717,0.771 z"
         id="path85" /><circle
         style="fill:#333333"
         cx="29.916"
         cy="41.022999"
         r="0.189"
         id="circle87" /></g><g
       id="g89"><path
         style="fill:#f21d2f"
         inkscape:connector-curvature="0"
         d="m 47.746,30.606 c 0.266,0.338 0.509,0.742 0.71,1.225 l 0.853,-0.84 c 0,0 -0.181,-0.68 -0.649,-1.541 l -0.914,1.156 z"
         id="path91" /><path
         style="fill:#f21d2f"
         inkscape:connector-curvature="0"
         d="m 48.595,29.293 c -0.44,-0.738 -1.084,-1.565 -1.99,-2.205 l -0.563,2.242 c 0.516,0.224 1.088,0.583 1.601,1.152 l 0.952,-1.189 z"
         id="path93" /><path
         style="fill:#f21d2f"
         inkscape:connector-curvature="0"
         d="m 44.589,29.041 c 0,0 0.572,0.001 1.313,0.274 l 0.55,-2.308 c -0.86,-0.539 -1.942,-0.901 -3.292,-0.878 0,0 0.733,1.584 0.824,2.938 l 0.747,2.993 c 0,0 0.325,0.44 0.539,0.029 l -0.681,-3.048 z"
         id="path95" /><path
         style="fill:#f21d2f"
         inkscape:connector-curvature="0"
         d="m 42.988,26.172 c -1.125,0.243 -2.078,0.802 -2.724,1.533 0,0 1.515,0.515 2.396,1.856 0.107,0.162 1.022,2.976 1.115,3.04 0.215,0.148 0.373,0.033 0.445,-0.117 l -1.105,-3.071 0.721,-0.287 C 43.685,27.44 42.988,26.172 42.988,26.172 Z"
         id="path97" /><path
         style="fill:#f21d2f"
         inkscape:connector-curvature="0"
         d="m 40.185,27.815 c -1.568,1.934 -1.802,4.669 -1.802,4.669 l 1.176,-1.323 0.475,0.969 c 0,0 0.642,-1.881 2.438,-2.554 -0.765,-1.177 -2.287,-1.761 -2.287,-1.761 z m 0.718,1.991 c -0.266,0.261 -0.659,0.291 -0.88,0.067 -0.221,-0.225 -0.185,-0.618 0.08,-0.879 0.265,-0.261 0.66,-0.291 0.88,-0.067 0.221,0.224 0.185,0.617 -0.08,0.879 z"
         id="path99" /><path
         style="fill:#f21d2f"
         inkscape:connector-curvature="0"
         d="m 49.235,31.053 c 0,0 1.268,0.637 1.597,1.486 0.329,0.849 -0.346,0.975 -0.585,0.625 -0.238,-0.351 -0.665,-0.947 -0.665,-0.947 0,0 0.063,1.851 -0.475,1.955 -0.538,0.104 -0.622,-2.38 -0.622,-2.38 l 0.75,-0.739 z"
         id="path101" /><circle
         style="fill:#333333"
         cx="40.549999"
         cy="29.433001"
         r="0.19"
         id="circle103" /></g><g
       id="g105"><path
         style="fill:#6c5f69"
         inkscape:connector-curvature="0"
         d="m 32.929,27.974 c 0,0 -0.007,-0.183 0.067,-0.36 0.338,-0.989 1.625,-3.601 3.749,0.745 0.104,0.335 0.169,0.596 0.164,0.922 0.172,4.689 -3.955,3.536 -3.98,-1.307 z"
         id="path107" /><path
         style="fill:#ff7d29"
         inkscape:connector-curvature="0"
         d="m 34.149,29.098 c 0.1,-0.5 0.922,-2.255 1.819,-0.077 0.27,1.16 0.218,1.377 -0.038,1.743 -0.628,0.64 -0.958,0.388 -1.122,0.288 -0.229,-0.141 -0.826,-1.121 -0.659,-1.954 z"
         id="path109" /></g><g
       id="g111"><path
         style="fill:#ffe73f"
         inkscape:connector-curvature="0"
         d="m 38.632,26.621 0.047,-0.043 c 0.484,-0.457 0.797,-1.047 0.905,-1.708 l 0.01,-0.063 -2.668,-0.255 1.706,2.069 z"
         id="path113" /><path
         style="fill:#ffe73f"
         inkscape:connector-curvature="0"
         d="m 39.056,22.63 -0.037,-0.051 -2.066,1.708 2.667,0.255 0.002,-0.064 c 0.02,-0.669 -0.177,-1.307 -0.566,-1.848 z"
         id="path115" /><path
         style="fill:#ffe73f"
         inkscape:connector-curvature="0"
         d="m 38.806,22.328 c -0.457,-0.486 -1.047,-0.799 -1.708,-0.906 l -0.063,-0.01 -0.255,2.671 2.069,-1.709 -0.043,-0.046 z"
         id="path117" /><path
         style="fill:#ffe73f"
         inkscape:connector-curvature="0"
         d="m 36.769,21.387 -0.063,-0.002 c -0.669,-0.02 -1.309,0.175 -1.849,0.565 l -0.051,0.037 1.708,2.067 0.255,-2.667 z"
         id="path119" /></g><g
       id="g121"><path
         style="fill:#ffe73f"
         inkscape:connector-curvature="0"
         d="M 25.457,33.387 25.434,33.328 C 25.186,32.71 24.751,32.203 24.175,31.861 l -0.055,-0.031 -1.212,2.39 2.549,-0.833 z"
         id="path123" /><path
         style="fill:#ffe73f"
         inkscape:connector-curvature="0"
         d="m 21.897,31.534 -0.061,0.016 0.834,2.547 1.211,-2.388 -0.059,-0.025 c -0.614,-0.264 -1.28,-0.315 -1.925,-0.15 z"
         id="path125" /><path
         style="fill:#ffe73f"
         inkscape:connector-curvature="0"
         d="m 21.523,31.656 c -0.619,0.247 -1.126,0.683 -1.467,1.259 l -0.033,0.054 2.393,1.214 -0.834,-2.551 -0.059,0.024 z"
         id="path127" /><path
         style="fill:#ffe73f"
         inkscape:connector-curvature="0"
         d="m 19.903,33.208 -0.025,0.058 c -0.264,0.615 -0.315,1.282 -0.15,1.927 l 0.017,0.062 2.548,-0.833 -2.39,-1.214 z"
         id="path129" /></g><g
       id="g131"><path
         style="fill:#ffe73f"
         inkscape:connector-curvature="0"
         d="m 32.24,43.94 -0.061,0.016 c -0.642,0.181 -1.192,0.56 -1.593,1.096 l -0.038,0.05 2.247,1.461 -0.555,-2.623 z"
         id="path133" /><path
         style="fill:#ffe73f"
         inkscape:connector-curvature="0"
         d="m 30.017,47.28 0.009,0.063 2.622,-0.557 -2.246,-1.459 -0.031,0.056 c -0.328,0.582 -0.45,1.239 -0.354,1.897 z"
         id="path135" /><path
         style="fill:#ffe73f"
         inkscape:connector-curvature="0"
         d="m 30.098,47.665 c 0.18,0.642 0.559,1.193 1.095,1.593 l 0.051,0.039 1.462,-2.25 -2.625,0.558 0.017,0.06 z"
         id="path137" /><path
         style="fill:#ffe73f"
         inkscape:connector-curvature="0"
         d="m 31.467,49.442 0.056,0.031 c 0.583,0.328 1.24,0.45 1.9,0.355 l 0.063,-0.01 -0.557,-2.623 -1.462,2.247 z"
         id="path139" /></g><g
       id="g141"><path
         style="fill:#ffe73f"
         inkscape:connector-curvature="0"
         d="m 44.989,39.559 0.036,0.052 c 0.379,0.547 0.916,0.945 1.554,1.149 l 0.06,0.02 0.65,-2.6 -2.3,1.379 z"
         id="path143" /><path
         style="fill:#ffe73f"
         inkscape:connector-curvature="0"
         d="m 48.872,40.573 0.056,-0.029 -1.38,-2.297 -0.649,2.598 0.062,0.011 c 0.658,0.12 1.319,0.022 1.911,-0.283 z"
         id="path145" /><path
         style="fill:#ffe73f"
         inkscape:connector-curvature="0"
         d="m 49.208,40.371 c 0.548,-0.379 0.946,-0.917 1.15,-1.554 l 0.02,-0.061 -2.603,-0.651 1.381,2.301 0.052,-0.035 z"
         id="path147" /><path
         style="fill:#ffe73f"
         inkscape:connector-curvature="0"
         d="m 50.443,38.498 0.011,-0.062 c 0.12,-0.659 0.021,-1.32 -0.284,-1.912 l -0.029,-0.056 -2.299,1.38 2.601,0.65 z"
         id="path149" /></g></g></svg>