<?xml version="1.0" encoding="UTF-8" standalone="no"?>
<!-- Generator: Adobe Illustrator 15.1.0, SVG Export Plug-In  -->

<svg
   xmlns:dc="http://purl.org/dc/elements/1.1/"
   xmlns:cc="http://creativecommons.org/ns#"
   xmlns:rdf="http://www.w3.org/1999/02/22-rdf-syntax-ns#"
   xmlns:svg="http://www.w3.org/2000/svg"
   xmlns="http://www.w3.org/2000/svg"
   xmlns:sodipodi="http://sodipodi.sourceforge.net/DTD/sodipodi-0.dtd"
   xmlns:inkscape="http://www.inkscape.org/namespaces/inkscape"
   version="1.1"
   x="0px"
   y="0px"
   width="50"
   height="50"
   viewBox="-1.987 -3.05 50 50"
   enable-background="new -1.987 -3.05 70 85"
   xml:space="preserve"
   id="svg2"
   inkscape:version="0.91 r13725"
   sodipodi:docname="viet.svg"><metadata
     id="metadata26"><rdf:RDF><cc:Work
         rdf:about=""><dc:format>image/svg+xml</dc:format><dc:type
           rdf:resource="http://purl.org/dc/dcmitype/StillImage" /><dc:title></dc:title></cc:Work></rdf:RDF></metadata><sodipodi:namedview
     pagecolor="#ffffff"
     bordercolor="#666666"
     borderopacity="1"
     objecttolerance="10"
     gridtolerance="10"
     guidetolerance="10"
     inkscape:pageopacity="0"
     inkscape:pageshadow="2"
     inkscape:window-width="1600"
     inkscape:window-height="878"
     id="namedview24"
     showgrid="false"
     inkscape:zoom="2.7764706"
     inkscape:cx="7.5606992"
     inkscape:cy="-6.6167624"
     inkscape:window-x="0"
     inkscape:window-y="22"
     inkscape:window-maximized="0"
     inkscape:current-layer="svg2" /><defs
     id="defs4" /><rect
     width="13.236"
     height="1.987"
     x="12.513443"
     y="39.782326"
     id="rect10"
     style="fill:#f21d2f;fill-opacity:1" /><path
     inkscape:connector-curvature="0"
     d="m 41.557443,8.1823255 -0.157,-0.68 c -0.085,-0.363 -0.487,-0.594 -0.898,-0.508 l -32.017,6.4840005 c -0.407,0.083 -0.676,0.445 -0.593,0.804 0.082,0.36 0.486,0.591 0.897,0.517 l 4.988,-0.903 c 0.214,0.162 0.409,0.398 0.496,0.765 0.179,0.721 -0.068,1.539 -0.731,2.435 -2.422,3.269 -1.172,4.482 0.414,6.014 0.153,0.147 0.311,0.3 0.47,0.461 0.72,0.719 0.99,2.057 0.701,3.49 -0.3,1.499 -1.152,2.703 -2.217,3.138 -0.241,0.1 -0.36,0.379 -0.262,0.624 0.076,0.185 0.256,0.298 0.443,0.298 0.06,0 0.123,-0.014 0.181,-0.038 1.379,-0.564 2.423,-1.996 2.793,-3.833 0.351,-1.742 -0.02,-3.408 -0.964,-4.354 -0.164,-0.164 -0.324,-0.322 -0.481,-0.47 -1.53,-1.487 -2.231,-2.165 -0.308,-4.762 0.84,-1.134 1.141,-2.222 0.891,-3.232 -0.072,-0.291 -0.186,-0.533 -0.323,-0.734 l 2.213,-0.399 c 0.353,0.263 0.826,0.721 0.984,1.363 0.179,0.721 -0.068,1.539 -0.732,2.435 -2.419,3.269 -1.17,4.482 0.414,6.014 0.151,0.147 0.308,0.3 0.468,0.461 0.722,0.719 0.991,2.057 0.704,3.49 -0.301,1.499 -1.152,2.703 -2.217,3.138 -0.243,0.1 -0.361,0.379 -0.262,0.624 0.079,0.185 0.255,0.298 0.443,0.298 0.06,0 0.121,-0.014 0.182,-0.038 1.379,-0.564 2.42,-1.996 2.791,-3.833 0.351,-1.742 -0.019,-3.408 -0.964,-4.354 -0.163,-0.164 -0.324,-0.322 -0.481,-0.47 -1.531,-1.487 -2.231,-2.165 -0.306,-4.762 0.841,-1.134 1.141,-2.222 0.889,-3.232 -0.136,-0.555 -0.424,-1.002 -0.729,-1.348 l 1.827,-0.33 c 0.667,0.412 1.611,1.1 1.778,1.774 0.177,0.72 -0.066,1.54 -0.729,2.435 -2.424,3.267 -1.173,4.48 0.411,6.016 0.151,0.146 0.308,0.299 0.468,0.459 0.723,0.723 0.991,2.059 0.703,3.491 -0.303,1.501 -1.151,2.703 -2.219,3.139 -0.242,0.098 -0.359,0.375 -0.26,0.623 0.076,0.186 0.254,0.296 0.443,0.296 0.061,0 0.121,-0.012 0.182,-0.036 1.376,-0.564 2.423,-1.997 2.791,-3.834 0.349,-1.74 -0.017,-3.408 -0.963,-4.353 -0.163,-0.165 -0.324,-0.319 -0.479,-0.472 -1.535,-1.486 -2.233,-2.164 -0.309,-4.761 0.84,-1.136 1.139,-2.222 0.889,-3.232 -0.208,-0.848 -0.767,-1.446 -1.223,-1.815 l 19.375,-3.5030005 c 0.41,-0.075 0.679,-0.435 0.595,-0.8 z"
     id="path12"
     style="fill:#ffc200" /><path
     inkscape:connector-curvature="0"
     d="m 40.219443,2.8483255 c 0.118,0.356 -0.118,0.732 -0.521,0.834 l -31.571,8.0930005 c -0.406,0.102 -0.828,-0.1 -0.943,-0.453 -0.114,-0.35 0.118,-0.731 0.52,-0.843 l 31.357,-8.7420004 c 0.401,-0.11 0.826,0.088 0.944,0.444 l 0.214,0.6669999 z"
     id="path14"
     style="fill:#313140" /><path
     inkscape:connector-curvature="0"
     d="m 41.465443,8.1843255 c 0.09,0.365 -0.172,0.723 -0.582,0.794 l -32.087,5.7250005 c -0.412,0.071 -0.817,-0.162 -0.906,-0.522 -0.088,-0.357 0.171,-0.72 0.58,-0.802 l 31.921,-6.3870005 c 0.408,-0.08 0.817,0.149 0.909,0.513 l 0.165,0.679 z"
     id="path16"
     style="fill:#313140" /><path
     inkscape:connector-curvature="0"
     d="m 5.368443,28.098326 c 0.062,4.38 2.562,8.218 6.306,10.42 l 14.649,0 c 3.747,-2.203 6.249,-6.04 6.309,-10.42 l -27.264,0 z"
     id="path18"
     style="fill:#f21d2f;fill-opacity:1" /></svg>