<?xml version="1.0" encoding="utf-8"?>
<!-- Generator: Adobe Illustrator 15.1.0, SVG Export Plug-In  -->
<!DOCTYPE svg PUBLIC "-//W3C//DTD SVG 1.1//EN" "http://www.w3.org/Graphics/SVG/1.1/DTD/svg11.dtd" [
	<!ENTITY ns_flows "http://ns.adobe.com/Flows/1.0/">
]>
<svg version="1.1"
	 xmlns="http://www.w3.org/2000/svg" xmlns:xlink="http://www.w3.org/1999/xlink" xmlns:a="http://ns.adobe.com/AdobeSVGViewerExtensions/3.0/"
	 x="0px" y="0px" width="70px" height="85px" viewBox="-1.987 -3.05 70 85" enable-background="new -1.987 -3.05 70 85"
	 xml:space="preserve">
<defs>
</defs>
<circle fill="#05C7F2" stroke="#05C7F2" stroke-width="9" stroke-miterlimit="10" cx="32.9" cy="32.9" r="28.4"/>
<path fill="#05C7F2" d="M4.5,32.9l28.8,48.8l28-48.8c0,0-3,27-28,28.4S4.5,32.9,4.5,32.9z"/>
<rect x="26.532" y="24.214" fill="#8E4B39" width="17.075" height="1.507"/>
<polygon fill="#8E4B39" points="43.511,49.968 26.437,49.968 26.532,48.362 43.607,48.362 "/>
<rect x="27.093" y="27.247" fill="#8E4B39" width="3.777" height="19.31"/>
<rect x="31.71" y="27.247" fill="#8E4B39" width="5.318" height="19.31"/>
<rect x="37.868" y="27.247" fill="#8E4B39" width="4.341" height="19.31"/>
<path fill="#8E4B39" d="M43.605,32.787l0.069,2.146c0.419-0.105,2.256-0.273,2.917,0.244c0.115,0.088,0.465,0.362,0.467,1.297
	c-0.001,0.052-0.151,4.676-0.174,5.359c-0.28,0.225-1.399,0.626-3.21,0.425l0.09,2.24c4.017,0.447,5.117-1.507,5.229-1.73
	l0.109-0.221l0.196-6.048v-0.018c0-1.688-0.729-2.606-1.343-3.081C46.311,32.129,43.876,32.713,43.605,32.787z"/>
<path fill="#FFC200" d="M24.294,22.982h20.711l-1.117-0.496c0,0,3.357-5.227-3.36-4.104c0,0-0.186-7.093-5.224-3.919
	c0,0-3.359-4.293-4.854,0c0,0-4.479-1.68-4.292,2.612c0,0-3.731,0.375-3.358,2.986c0,0-4.291-3.173-4.104,2.798
	c0,0-4.104,4.478,0.931,5.411c0,0-0.931,3.546,2.612,2.801c0,0-1.116,3.171,2.986,1.492l0.188-5.039l-1.12-0.187V22.982z
	 M35.954,15.683c0.093-0.23,0.541-0.266,1.001-0.079c0.46,0.185,0.757,0.521,0.666,0.751c-0.095,0.231-0.542,0.268-1.004,0.082
	C36.158,16.25,35.861,15.912,35.954,15.683z M32.785,14.734c0.139-0.346,0.812-0.399,1.504-0.119
	c0.691,0.279,1.137,0.787,0.999,1.131c-0.14,0.344-0.813,0.399-1.506,0.118C33.092,15.586,32.646,15.08,32.785,14.734z"/>
</svg>
