<?xml version="1.0" encoding="UTF-8" standalone="no"?>
<!-- Created with Inkscape (http://www.inkscape.org/) -->

<svg
   xmlns:dc="http://purl.org/dc/elements/1.1/"
   xmlns:cc="http://creativecommons.org/ns#"
   xmlns:rdf="http://www.w3.org/1999/02/22-rdf-syntax-ns#"
   xmlns:svg="http://www.w3.org/2000/svg"
   xmlns="http://www.w3.org/2000/svg"
   version="1.1"
   width="70"
   height="85"
   viewBox="-2.042 -2.05 70 85"
   id="svg2"
   xml:space="preserve"><metadata
     id="metadata20"><rdf:RDF><cc:Work
         rdf:about=""><dc:format>image/svg+xml</dc:format><dc:type
           rdf:resource="http://purl.org/dc/dcmitype/StillImage" /><dc:title></dc:title></cc:Work></rdf:RDF></metadata><defs
     id="defs4" /><circle
     cx="32.900002"
     cy="32.900002"
     r="28.4"
     id="circle6"
     style="fill:#805ba6;stroke:#805ba6;stroke-width:9;stroke-miterlimit:10" /><path
     d="m 4.5,32.9 28.799,48.8 28,-48.8 c 0,0 -3,27 -28,28.4 C 8.3,62.7 4.5,32.9 4.5,32.9 z"
     id="path8"
     style="fill:#805ba6" /><path
     d="m 16.767,42.889 c 0,1.269 1.216,2.305 2.703,2.305 h 27.491 c 1.486,0 2.702,-1.036 2.702,-2.305 V 40.347 H 16.767 v 2.542 z"
     id="path10"
     style="fill:#ffc200" /><path
     d="m 52.029,35.339 c 0,0.894 -2.237,1.626 -4.972,1.626 H 19.374 c -2.733,0 -4.971,-0.732 -4.971,-1.626 0,-0.895 2.237,-1.626 4.971,-1.626 h 27.684 c 2.734,0 4.971,0.731 4.971,1.626 z"
     id="path12"
     style="fill:#f21d2f" /><path
     d="m 49.784,22.041 c 0,-3.593 -7.417,-6.506 -16.569,-6.506 -9.149,0 -16.567,2.913 -16.567,6.506 0,0.16 0.02,0.317 0.049,0.475 h -0.009 v 2.643 h 33.058 v -2.643 h -0.01 c 0.029,-0.158 0.048,-0.315 0.048,-0.475 z"
     id="path14"
     style="fill:#ffc200" /><path
     d="m 51.971,30.629 c -1.331,0 -2.312,-0.54 -2.407,-1.042 l 0.003,-0.049 c 0,-1.375 -1.79,-2.451 -4.077,-2.451 -2.049,0 -3.7,0.865 -4.019,2.064 l -0.036,0.177 -0.023,0.225 c -0.019,0.524 -1.016,1.108 -2.419,1.108 -1.402,0 -2.399,-0.584 -2.419,-1.108 L 36.55,29.357 36.506,29.152 c -0.307,-1.18 -1.966,-2.055 -4.027,-2.055 -2.049,0 -3.699,0.867 -4.019,2.065 l -0.004,0.166 -0.056,0.235 c -0.018,0.523 -1.015,1.108 -2.418,1.108 -1.327,0 -2.307,-0.538 -2.405,-1.04 l 0.002,-0.053 c 0,-1.374 -1.791,-2.449 -4.077,-2.449 -2.049,0 -3.7,0.864 -4.018,2.064 l -0.008,0.161 -0.054,0.239 c -0.018,0.523 -1.016,1.108 -2.418,1.108 v 0.414 0.499 0.415 c 2.021,0 3.67,-0.854 4.011,-2.008 l 0.051,-0.191 0.013,-0.287 c 0.044,-0.521 1.067,-1.088 2.423,-1.088 1.307,0 2.252,0.496 2.402,0.987 l 0.003,0.143 c 0.034,1.353 1.824,2.411 4.075,2.411 2.021,0 3.671,-0.854 4.011,-2.006 l 0.053,-0.218 0.012,-0.262 c 0.043,-0.521 1.025,-1.088 2.421,-1.088 1.395,0 2.378,0.564 2.423,1.086 l 0.06,0.292 0.025,0.189 c 0.35,1.146 1.997,1.997 4.007,1.997 2.021,0 3.669,-0.854 4.012,-2.009 l 0.05,-0.206 0.018,-0.208 -0.004,-0.071 c 0.054,-0.519 1.072,-1.08 2.422,-1.08 1.308,0 2.254,0.497 2.402,0.987 l 0.004,0.141 c 0.033,1.354 1.823,2.413 4.075,2.413 0.283,0 0.558,-0.021 0.824,-0.053 V 31.481 30.97 30.552 c -0.256,0.047 -0.53,0.077 -0.826,0.077 z"
     id="path16"
     style="fill:#5ebf64" /></svg>