<?xml version="1.0" encoding="UTF-8" standalone="no"?>
<!-- Generator: Adobe Illustrator 15.1.0, SVG Export Plug-In  -->

<svg
   xmlns:dc="http://purl.org/dc/elements/1.1/"
   xmlns:cc="http://creativecommons.org/ns#"
   xmlns:rdf="http://www.w3.org/1999/02/22-rdf-syntax-ns#"
   xmlns:svg="http://www.w3.org/2000/svg"
   xmlns="http://www.w3.org/2000/svg"
   xmlns:sodipodi="http://sodipodi.sourceforge.net/DTD/sodipodi-0.dtd"
   xmlns:inkscape="http://www.inkscape.org/namespaces/inkscape"
   version="1.1"
   x="0px"
   y="0px"
   width="70px"
   height="85px"
   viewBox="-2.153 -1.55 70 85"
   enable-background="new -2.153 -1.55 70 85"
   xml:space="preserve"
   id="svg5356"
   inkscape:version="0.48.4 r9939"
   sodipodi:docname="cocktails.svg"><metadata
     id="metadata5376"><rdf:RDF><cc:Work
         rdf:about=""><dc:format>image/svg+xml</dc:format><dc:type
           rdf:resource="http://purl.org/dc/dcmitype/StillImage" /><dc:title /></cc:Work></rdf:RDF></metadata><sodipodi:namedview
     pagecolor="#ffffff"
     bordercolor="#666666"
     borderopacity="1"
     objecttolerance="10"
     gridtolerance="10"
     guidetolerance="10"
     inkscape:pageopacity="0"
     inkscape:pageshadow="2"
     inkscape:window-width="956"
     inkscape:window-height="848"
     id="namedview5374"
     showgrid="false"
     inkscape:zoom="3.9265224"
     inkscape:cx="57.261721"
     inkscape:cy="44.220797"
     inkscape:window-x="0"
     inkscape:window-y="24"
     inkscape:window-maximized="0"
     inkscape:current-layer="svg5356" /><defs
     id="defs5358" /><path
     display="none"
     fill="#313140"
     d="M25.458,44.817l-3.876,6.194l1.345,0.846l3.876-6.301c-0.164-0.063-0.753-0.352-0.909-0.44  C25.739,45.027,25.594,44.927,25.458,44.817z"
     id="path5364" /><path
     display="none"
     fill="#313140"
     d="M25.719,42.456l1.271,0.215l1.29,0.22c0.37,0.078,0.885,0.056,0.971-0.089  s-0.142-0.607-0.4-0.909l-0.799-1.012l-0.785-0.995c-0.102-0.117-0.975-1.165-0.485-1.99c0.489-0.826,1.828-0.563,1.959-0.533  l2.561,0.435c0.369,0.078,0.885,0.056,0.971-0.089c0.085-0.145-0.142-0.607-0.4-0.909l-1.584-2.007  c-0.102-0.116-0.975-1.165-0.485-1.99s1.828-0.563,1.958-0.533l1.271,0.215l1.291,0.22c0.369,0.078,0.884,0.056,0.97-0.089  s-0.142-0.607-0.4-0.909l-0.799-1.012l-0.785-0.995c-0.102-0.116-0.975-1.165-0.485-1.99c0.49-0.826,1.829-0.563,1.958-0.533  l1.271,0.215l1.29,0.22c0.369,0.078,0.885,0.056,0.971-0.089c0.085-0.145-0.143-0.607-0.4-0.909L37.112,25.6l-0.785-0.995  c-0.101-0.116-0.975-1.165-0.485-1.99c0.489-0.826,1.828-0.563,1.958-0.534l2.562,0.436c0.369,0.078,0.884,0.056,0.97-0.089  s-0.142-0.607-0.4-0.909l-1.584-2.007c-0.102-0.116-0.975-1.165-0.484-1.99c0.488-0.825,1.828-0.563,1.958-0.533l2.561,0.435  c0.37,0.078,0.885,0.056,0.971-0.089c0.031-0.054,0.021-0.15-0.02-0.266c-0.342-0.447-0.771-0.84-1.286-1.145  c-2.156-1.278-4.94-0.567-6.219,1.589L24.342,38.57c-0.766,1.291-0.813,2.806-0.268,4.089  C24.671,42.248,25.611,42.432,25.719,42.456z"
     id="path5366" /><path
     display="none"
     fill="#313140"
     d="M44.92,18.092c-0.59,0.479-1.604,0.28-1.716,0.255l-1.271-0.215l-1.291-0.22  c-0.369-0.078-0.884-0.056-0.97,0.089s0.142,0.607,0.4,0.909l0.799,1.012l0.785,0.995c0.101,0.116,0.975,1.165,0.484,1.99  c-0.488,0.825-1.828,0.563-1.958,0.533l-1.271-0.215l-1.291-0.22c-0.369-0.078-0.884-0.056-0.97,0.089s0.142,0.607,0.4,0.909  l1.584,2.007c0.102,0.116,0.975,1.165,0.485,1.99s-1.828,0.563-1.959,0.534l-2.561-0.435c-0.369-0.079-0.884-0.057-0.971,0.088  c-0.085,0.145,0.143,0.607,0.401,0.909l1.584,2.007c0.101,0.116,0.974,1.165,0.484,1.99s-1.828,0.563-1.958,0.533l-2.562-0.434  c-0.369-0.078-0.884-0.057-0.97,0.088s0.142,0.607,0.4,0.909l0.799,1.012l0.785,0.995c0.102,0.117,0.975,1.165,0.485,1.99  s-1.828,0.563-1.959,0.534l-2.561-0.435c-0.369-0.079-0.885-0.057-0.971,0.088s0.143,0.607,0.401,0.909l1.584,2.007  c0.101,0.116,0.974,1.165,0.484,1.991c-0.489,0.825-1.828,0.562-1.958,0.533l-2.562-0.436c-0.369-0.077-0.885-0.056-0.971,0.089  c-0.007,0.014-0.018,0.024-0.026,0.037c0.356,0.505,0.82,0.946,1.387,1.281c2.155,1.278,4.94,0.567,6.219-1.589l12.485-21.058  C45.394,20.863,45.447,19.366,44.92,18.092z"
     id="path5368" /><g
     id="g2988"><circle
       id="circle5360"
       r="28.4"
       cy="32.9"
       cx="32.9"
       stroke-miterlimit="10"
       stroke-width="9"
       stroke="#313140"
       fill="#313140" /><path
       id="path5362"
       d="M4.5,32.9l28.8,48.8l28-48.8c0,0-3,27-28,28.4S4.5,32.9,4.5,32.9z"
       fill="#313140" /><path
       id="path1494"
       style="fill:#f21d2f;fill-opacity:1;fill-rule:nonzero;stroke:none"
       d="m 32.497827,25.647235 c -1.925,1.28375 -6.15125,-0.2525 -6.15125,-0.2525 l 6.01875,6.95625 1.355,0 6.0175,-6.95625 c 0,0 -5.31625,-1.02875 -7.24,0.2525"
       inkscape:connector-curvature="0" /><path
       id="path1496"
       style="fill:#fdf0e6;fill-opacity:1;fill-rule:nonzero;stroke:none"
       d="m 46.487827,23.634735 c -0.7625,0 -1.50625,-0.18125 -2.18375,-0.50875 l 3.52875,-4.08 c 0.1225,-0.14125 0.15125,-0.3425 0.0725,-0.515 -0.0775,-0.17 -0.24875,-0.28125 -0.43625,-0.28125 l -5.98625,0 c 0.18625,-2.6 2.3575,-4.66 5.005,-4.66 2.76875,0 5.0225,2.2525 5.0225,5.02125 0,2.76875 -2.25375,5.02375 -5.0225,5.02375 z m -12.3275,9.74125 -2.235,0 -12.255,-14.1625 26.74625,0 -12.25625,14.1625 z m 12.3275,-20.75 c -3.17875,0 -5.78,2.4925 -5.96875,5.625 l -21.90125,0 c -0.18875,0 -0.36,0.11 -0.4375,0.28125 -0.0788,0.1725 -0.05,0.37375 0.0737,0.515 l 13.34625,15.4225 0,16.89625 c -1.4,0.11875 -2.39375,0.41375 -2.39375,0.76 l 0.03,0.09625 c -1.7375,0.2625 -2.875,0.7 -2.875,1.1925 0,0.80375 2.9925,1.4525 6.68125,1.4525 3.69,0 6.6825,-0.64875 6.6825,-1.4525 0,-0.50875 -1.205,-0.95375 -3.02625,-1.215 l 0.0162,-0.07375 c 0,-0.3325 -0.91875,-0.61625 -2.22875,-0.74375 l 0,-16.91125 9.16375,-10.59 c 0.86875,0.46875 1.8425,0.715 2.8375,0.715 3.29875,0 5.985,-2.68375 5.985,-5.985 0,-3.3 -2.68625,-5.985 -5.985,-5.985"
       inkscape:connector-curvature="0" /></g></svg>