<?xml version="1.0" encoding="UTF-8" standalone="no"?>
<!-- Generator: Adobe Illustrator 15.1.0, SVG Export Plug-In  -->

<svg
   xmlns:dc="http://purl.org/dc/elements/1.1/"
   xmlns:cc="http://creativecommons.org/ns#"
   xmlns:rdf="http://www.w3.org/1999/02/22-rdf-syntax-ns#"
   xmlns:svg="http://www.w3.org/2000/svg"
   xmlns="http://www.w3.org/2000/svg"
   xmlns:sodipodi="http://sodipodi.sourceforge.net/DTD/sodipodi-0.dtd"
   xmlns:inkscape="http://www.inkscape.org/namespaces/inkscape"
   version="1.1"
   x="0px"
   y="0px"
   width="70px"
   height="85px"
   viewBox="-1.987 -2.55 70 85"
   enable-background="new -1.987 -2.55 70 85"
   xml:space="preserve"
   id="svg3322"
   inkscape:version="0.48.4 r9939"
   sodipodi:docname="coffee.svg"><metadata
     id="metadata3342"><rdf:RDF><cc:Work
         rdf:about=""><dc:format>image/svg+xml</dc:format><dc:type
           rdf:resource="http://purl.org/dc/dcmitype/StillImage" /></cc:Work></rdf:RDF></metadata><sodipodi:namedview
     pagecolor="#ffffff"
     bordercolor="#666666"
     borderopacity="1"
     objecttolerance="10"
     gridtolerance="10"
     guidetolerance="10"
     inkscape:pageopacity="0"
     inkscape:pageshadow="2"
     inkscape:window-width="1535"
     inkscape:window-height="876"
     id="namedview3340"
     showgrid="false"
     inkscape:zoom="2.7764706"
     inkscape:cx="35"
     inkscape:cy="42.5"
     inkscape:window-x="65"
     inkscape:window-y="24"
     inkscape:window-maximized="1"
     inkscape:current-layer="svg3322" /><defs
     id="defs3324" /><circle
     fill="#05C7F2"
     stroke="#05C7F2"
     stroke-width="9"
     stroke-miterlimit="10"
     cx="32.9"
     cy="32.9"
     r="28.4"
     id="circle3326" /><path
     fill="#05C7F2"
     d="M4.5,32.9l28.8,48.8l28-48.8c0,0-3,27-28,28.4S4.5,32.9,4.5,32.9z"
     id="path3328" /><path
     fill="#FFC200"
     d="M24.449,44.099h17.011c0.439,0,0.795-0.357,0.795-0.795l0.485-4.713c0.429,0.097,0.875,0.155,1.334,0.155  c3.262,0,5.907-2.644,5.907-5.905c0-3.263-2.646-5.907-5.907-5.907c-0.049,0-0.095,0.006-0.142,0.008  c-0.013-0.428-0.36-0.773-0.793-0.773h-20.37c-0.438,0-0.794,0.356-0.794,0.794l1.68,16.34  C23.655,43.742,24.011,44.099,24.449,44.099z M43.712,29.108c0.121-0.014,0.238-0.02,0.361-0.02c2.073,0,3.752,1.679,3.752,3.752  c0,2.071-1.679,3.752-3.752,3.752c-0.387,0-0.761-0.06-1.114-0.167L43.712,29.108z"
     id="path3330"
     style="fill:#ffffff" /><path
     fill="#FFC200"
     d="M51.199,45.487H14.153c-0.438,0-0.795,0.355-0.795,0.795l1.121,2.024c0,0.437,0.355,0.793,0.794,0.793  h34.809c0.44,0,0.794-0.356,0.794-0.793l1.12-2.024C51.995,45.843,51.641,45.487,51.199,45.487z"
     id="path3332"
     style="fill:#ffffff" /><path
     fill="#F5F5F5"
     d="M24.28,22.497c0.29,0.317,0.65,0.527,1.016,0.641c0.366,0.113,0.741,0.155,1.105,0.113  c-0.679-0.23-1.299-0.622-1.56-1.153c-0.271-0.516-0.184-1.122,0.019-1.71c0.211-0.594,0.539-1.175,0.902-1.739  c0.364-0.564,0.77-1.117,1.196-1.659c0.444-0.578,0.866-1.188,1.229-1.843c0.357-0.657,0.671-1.357,0.822-2.146  c0.072-0.39,0.106-0.805,0.035-1.226c-0.065-0.418-0.241-0.84-0.526-1.159c-0.286-0.316-0.646-0.527-1.013-0.64  c-0.367-0.113-0.742-0.153-1.105-0.113c0.677,0.229,1.3,0.622,1.56,1.155c0.271,0.516,0.181,1.119-0.022,1.708  c-0.211,0.595-0.535,1.175-0.899,1.738c-0.364,0.565-0.771,1.117-1.195,1.661c-0.444,0.58-0.866,1.186-1.229,1.842  c-0.358,0.656-0.673,1.36-0.821,2.146c-0.074,0.39-0.107,0.808-0.037,1.226C23.827,21.758,24,22.179,24.28,22.497z"
     id="path3334"
     style="fill:#ffc200;fill-opacity:1" /><path
     fill="#F5F5F5"
     d="M38.279,22.497c0.287,0.317,0.646,0.527,1.014,0.641s0.742,0.155,1.104,0.113  c-0.677-0.23-1.298-0.622-1.56-1.153c-0.271-0.516-0.182-1.122,0.021-1.71c0.211-0.594,0.539-1.175,0.9-1.739  c0.366-0.564,0.77-1.117,1.195-1.659c0.447-0.578,0.868-1.188,1.229-1.843c0.358-0.657,0.677-1.357,0.825-2.146  c0.074-0.39,0.106-0.805,0.036-1.226c-0.069-0.418-0.244-0.84-0.524-1.159c-0.288-0.316-0.648-0.527-1.016-0.64  c-0.367-0.113-0.743-0.153-1.106-0.113c0.679,0.229,1.302,0.622,1.557,1.155c0.275,0.516,0.183,1.119-0.019,1.708  c-0.209,0.595-0.535,1.175-0.899,1.738c-0.366,0.565-0.772,1.117-1.193,1.661c-0.447,0.58-0.87,1.186-1.228,1.842  c-0.361,0.656-0.676,1.36-0.826,2.146c-0.072,0.39-0.105,0.808-0.033,1.226C37.822,21.758,37.994,22.179,38.279,22.497z"
     id="path3336"
     style="fill:#ffc200;fill-opacity:1" /><path
     fill="#F5F5F5"
     d="M31.279,22.497c0.287,0.317,0.646,0.527,1.014,0.641s0.742,0.155,1.104,0.113  c-0.677-0.23-1.298-0.622-1.56-1.153c-0.271-0.516-0.182-1.122,0.021-1.71c0.211-0.594,0.539-1.175,0.9-1.739  c0.366-0.564,0.77-1.117,1.195-1.659c0.447-0.578,0.868-1.188,1.229-1.843c0.358-0.657,0.677-1.357,0.825-2.146  c0.074-0.39,0.106-0.805,0.036-1.226c-0.069-0.418-0.244-0.84-0.524-1.159c-0.288-0.316-0.648-0.527-1.016-0.64  c-0.367-0.113-0.743-0.153-1.106-0.113c0.679,0.229,1.302,0.622,1.557,1.155c0.275,0.516,0.183,1.119-0.019,1.708  c-0.209,0.595-0.535,1.175-0.899,1.738c-0.366,0.565-0.772,1.117-1.193,1.661c-0.447,0.58-0.87,1.186-1.228,1.842  c-0.361,0.656-0.676,1.36-0.826,2.146c-0.072,0.39-0.105,0.808-0.033,1.226C30.822,21.758,30.994,22.179,31.279,22.497z"
     id="path3338"
     style="fill:#ffc200;fill-opacity:1" /></svg>