<?xml version="1.0" encoding="UTF-8" standalone="no"?>
<!-- Created with Inkscape (http://www.inkscape.org/) -->

<svg
   xmlns:dc="http://purl.org/dc/elements/1.1/"
   xmlns:cc="http://creativecommons.org/ns#"
   xmlns:rdf="http://www.w3.org/1999/02/22-rdf-syntax-ns#"
   xmlns:svg="http://www.w3.org/2000/svg"
   xmlns="http://www.w3.org/2000/svg"
   version="1.1"
   width="70"
   height="85"
   viewBox="-1.987 -2.55 70 85"
   id="svg3322"
   xml:space="preserve"><metadata
     id="metadata3342"><rdf:RDF><cc:Work
         rdf:about=""><dc:format>image/svg+xml</dc:format><dc:type
           rdf:resource="http://purl.org/dc/dcmitype/StillImage" /><dc:title></dc:title></cc:Work></rdf:RDF></metadata><defs
     id="defs3324" /><circle
     cx="32.900002"
     cy="32.900002"
     r="28.4"
     id="circle3326"
     style="fill:#05c7f2;stroke:#05c7f2;stroke-width:9;stroke-miterlimit:10" /><path
     d="m 4.5,32.9 28.8,48.8 28,-48.8 c 0,0 -3,27 -28,28.4 C 8.3,62.7 4.5,32.9 4.5,32.9 z"
     id="path3328"
     style="fill:#05c7f2" /><path
     d="M 24.449,44.099 H 41.46 c 0.439,0 0.795,-0.357 0.795,-0.795 l 0.485,-4.713 c 0.429,0.097 0.875,0.155 1.334,0.155 3.262,0 5.907,-2.644 5.907,-5.905 0,-3.263 -2.646,-5.907 -5.907,-5.907 -0.049,0 -0.095,0.006 -0.142,0.008 -0.013,-0.428 -0.36,-0.773 -0.793,-0.773 h -20.37 c -0.438,0 -0.794,0.356 -0.794,0.794 l 1.68,16.34 c 0,0.439 0.356,0.796 0.794,0.796 z M 43.712,29.108 c 0.121,-0.014 0.238,-0.02 0.361,-0.02 2.073,0 3.752,1.679 3.752,3.752 0,2.071 -1.679,3.752 -3.752,3.752 -0.387,0 -0.761,-0.06 -1.114,-0.167 l 0.753,-7.317 z"
     id="path3330"
     style="fill:#ffffff" /><path
     d="M 51.199,45.487 H 14.153 c -0.438,0 -0.795,0.355 -0.795,0.795 l 1.121,2.024 c 0,0.437 0.355,0.793 0.794,0.793 h 34.809 c 0.44,0 0.794,-0.356 0.794,-0.793 l 1.12,-2.024 c -0.001,-0.439 -0.355,-0.795 -0.797,-0.795 z"
     id="path3332"
     style="fill:#ffffff" /><path
     d="m 24.28,22.497 c 0.29,0.317 0.65,0.527 1.016,0.641 0.366,0.113 0.741,0.155 1.105,0.113 -0.679,-0.23 -1.299,-0.622 -1.56,-1.153 -0.271,-0.516 -0.184,-1.122 0.019,-1.71 0.211,-0.594 0.539,-1.175 0.902,-1.739 0.364,-0.564 0.77,-1.117 1.196,-1.659 0.444,-0.578 0.866,-1.188 1.229,-1.843 0.357,-0.657 0.671,-1.357 0.822,-2.146 0.072,-0.39 0.106,-0.805 0.035,-1.226 -0.065,-0.418 -0.241,-0.84 -0.526,-1.159 C 28.232,10.3 27.872,10.089 27.505,9.976 27.138,9.863 26.763,9.823 26.4,9.863 c 0.677,0.229 1.3,0.622 1.56,1.155 0.271,0.516 0.181,1.119 -0.022,1.708 -0.211,0.595 -0.535,1.175 -0.899,1.738 -0.364,0.565 -0.771,1.117 -1.195,1.661 -0.444,0.58 -0.866,1.186 -1.229,1.842 -0.358,0.656 -0.673,1.36 -0.821,2.146 -0.074,0.39 -0.107,0.808 -0.037,1.226 0.07,0.419 0.243,0.84 0.523,1.158 z"
     id="path3334"
     style="fill:#ffc200;fill-opacity:1" /><path
     d="m 38.279,22.497 c 0.287,0.317 0.646,0.527 1.014,0.641 0.368,0.114 0.742,0.155 1.104,0.113 -0.677,-0.23 -1.298,-0.622 -1.56,-1.153 -0.271,-0.516 -0.182,-1.122 0.021,-1.71 0.211,-0.594 0.539,-1.175 0.9,-1.739 0.366,-0.564 0.77,-1.117 1.195,-1.659 0.447,-0.578 0.868,-1.188 1.229,-1.843 0.358,-0.657 0.677,-1.357 0.825,-2.146 0.074,-0.39 0.106,-0.805 0.036,-1.226 -0.069,-0.418 -0.244,-0.84 -0.524,-1.159 C 42.231,10.3 41.871,10.089 41.503,9.976 41.136,9.863 40.76,9.823 40.397,9.863 c 0.679,0.229 1.302,0.622 1.557,1.155 0.275,0.516 0.183,1.119 -0.019,1.708 -0.209,0.595 -0.535,1.175 -0.899,1.738 -0.366,0.565 -0.772,1.117 -1.193,1.661 -0.447,0.58 -0.87,1.186 -1.228,1.842 -0.361,0.656 -0.676,1.36 -0.826,2.146 -0.072,0.39 -0.105,0.808 -0.033,1.226 0.066,0.419 0.238,0.84 0.523,1.158 z"
     id="path3336"
     style="fill:#ffc200;fill-opacity:1" /><path
     d="m 31.279,22.497 c 0.287,0.317 0.646,0.527 1.014,0.641 0.368,0.114 0.742,0.155 1.104,0.113 -0.677,-0.23 -1.298,-0.622 -1.56,-1.153 -0.271,-0.516 -0.182,-1.122 0.021,-1.71 0.211,-0.594 0.539,-1.175 0.9,-1.739 0.366,-0.564 0.77,-1.117 1.195,-1.659 0.447,-0.578 0.868,-1.188 1.229,-1.843 0.358,-0.657 0.677,-1.357 0.825,-2.146 0.074,-0.39 0.106,-0.805 0.036,-1.226 -0.069,-0.418 -0.244,-0.84 -0.524,-1.159 C 35.231,10.3 34.871,10.089 34.503,9.976 34.136,9.863 33.76,9.823 33.397,9.863 c 0.679,0.229 1.302,0.622 1.557,1.155 0.275,0.516 0.183,1.119 -0.019,1.708 -0.209,0.595 -0.535,1.175 -0.899,1.738 -0.366,0.565 -0.772,1.117 -1.193,1.661 -0.447,0.58 -0.87,1.186 -1.228,1.842 -0.361,0.656 -0.676,1.36 -0.826,2.146 -0.072,0.39 -0.105,0.808 -0.033,1.226 0.066,0.419 0.238,0.84 0.523,1.158 z"
     id="path3338"
     style="fill:#ffc200;fill-opacity:1" /></svg>