<?xml version="1.0" encoding="utf-8"?>
<!-- Generator: Adobe Illustrator 15.1.0, SVG Export Plug-In  -->
<!DOCTYPE svg PUBLIC "-//W3C//DTD SVG 1.1//EN" "http://www.w3.org/Graphics/SVG/1.1/DTD/svg11.dtd" [
	<!ENTITY ns_flows "http://ns.adobe.com/Flows/1.0/">
]>
<svg version="1.1"
	 xmlns="http://www.w3.org/2000/svg" xmlns:xlink="http://www.w3.org/1999/xlink" xmlns:a="http://ns.adobe.com/AdobeSVGViewerExtensions/3.0/"
	 x="0px" y="0px" width="70px" height="85px" viewBox="-1.987 -2.55 70 85" enable-background="new -1.987 -2.55 70 85"
	 xml:space="preserve">
<defs>
</defs>
<circle fill="#F2906B" stroke="#F2906B" stroke-width="9" stroke-miterlimit="10" cx="32.9" cy="32.9" r="28.4"/>
<path fill="#F2906B" d="M4.5,32.9l28.8,48.8l28-48.8c0,0-3,27-28,28.4C8.3,62.7,4.5,32.9,4.5,32.9z"/>
<ellipse fill="#FFC200" cx="32.746" cy="33.117" rx="11.72" ry="11.417"/>
<path fill="#FFFFFF" d="M44.333,25.148l-0.112-0.047c-2.774-0.977-3.539-2.4-4.28-3.777c-0.604-1.129-1.233-2.294-2.811-2.983
	c-2.355-1.031-6.016-0.799-9.551,0.604c-4.057,1.609-6.923,4.342-7.67,7.302c-0.011,0.047-1.137,4.588-1.712,8.355
	c-0.53,3.498,0.059,8.263,3.305,11.147c1.907,1.693,5.51,3.344,11.867,1.596c4.296-1.184,6.47-0.946,8.056-0.772
	c1.074,0.118,2.002,0.219,3.071-0.205c0.823-0.328,1.662-0.934,2.724-1.967c1.806-1.76,4.431-6.255,3.786-10.824
	C50.51,30.088,48.267,27.253,44.333,25.148z M39.652,35.167c-0.699,2.017-2.149,3.674-4.082,4.663
	c-0.241,0.123-0.491,0.236-0.742,0.337c-3.926,1.558-8.298-0.018-10.165-3.664c-0.971-1.896-1.116-4.068-0.41-6.117
	c0.7-2.027,2.15-3.691,4.085-4.682c0.241-0.124,0.491-0.238,0.741-0.336c3.929-1.56,8.301,0.017,10.169,3.664
	C40.222,30.936,40.366,33.113,39.652,35.167z"/>
<path fill="#FFFFFF" d="M31.321,29.1c-0.033,0.021-3.282,1.885-2.772,4.918c0.05,0.292-0.068,0.624-0.42,0.789
	c-0.018,0.009-0.034,0.017-0.052,0.022c-0.275,0.111-0.558,0.059-0.703-0.13c-0.031-0.042-0.053-0.078-0.064-0.122
	c-0.913-3.563,1.943-5.602,2.93-6.19c0.333-0.198,0.978-0.246,1.128,0.005C31.519,28.654,31.647,28.904,31.321,29.1z"/>
</svg>
