<?xml version="1.0" encoding="UTF-8" standalone="no"?>
<!-- Generator: Adobe Illustrator 15.1.0, SVG Export Plug-In  -->

<svg
   xmlns:dc="http://purl.org/dc/elements/1.1/"
   xmlns:cc="http://creativecommons.org/ns#"
   xmlns:rdf="http://www.w3.org/1999/02/22-rdf-syntax-ns#"
   xmlns:svg="http://www.w3.org/2000/svg"
   xmlns="http://www.w3.org/2000/svg"
   xmlns:sodipodi="http://sodipodi.sourceforge.net/DTD/sodipodi-0.dtd"
   xmlns:inkscape="http://www.inkscape.org/namespaces/inkscape"
   version="1.1"
   x="0px"
   y="0px"
   width="70px"
   height="85px"
   viewBox="-1.987 -1.55 70 85"
   enable-background="new -1.987 -1.55 70 85"
   xml:space="preserve"
   id="svg4048"
   inkscape:version="0.48.5 r10040"
   sodipodi:docname="chips.svg"><metadata
     id="metadata4080"><rdf:RDF><cc:Work
         rdf:about=""><dc:format>image/svg+xml</dc:format><dc:type
           rdf:resource="http://purl.org/dc/dcmitype/StillImage" /><dc:title></dc:title></cc:Work></rdf:RDF></metadata><sodipodi:namedview
     pagecolor="#ffffff"
     bordercolor="#666666"
     borderopacity="1"
     objecttolerance="10"
     gridtolerance="10"
     guidetolerance="10"
     inkscape:pageopacity="0"
     inkscape:pageshadow="2"
     inkscape:window-width="1600"
     inkscape:window-height="877"
     id="namedview4078"
     showgrid="false"
     inkscape:zoom="2.7764706"
     inkscape:cx="-10.741525"
     inkscape:cy="85.720339"
     inkscape:window-x="0"
     inkscape:window-y="23"
     inkscape:window-maximized="0"
     inkscape:current-layer="svg4048" /><defs
     id="defs4050" /><circle
     fill="#77CC28"
     stroke="#77CC28"
     stroke-width="9"
     stroke-miterlimit="10"
     cx="32.9"
     cy="32.9"
     r="28.4"
     id="circle4052"
     style="fill:#5ebf64;fill-opacity:1;stroke:#5ebf64;stroke-opacity:1" /><path
     fill="#77CC28"
     d="M4.5,32.9l28.8,48.8l28-48.8c0,0-3,27-28,28.4C8.3,62.7,4.5,32.9,4.5,32.9z"
     id="path4054"
     style="fill:#5ebf64;fill-opacity:1" /><path
     inkscape:connector-curvature="0"
     d="m 24.829212,45.857005 c -0.67135,0 -1.2158,-0.544023 -1.2158,-1.21515 0,-0.67199 0.54445,-1.216445 1.2158,-1.216445 0.67155,0 1.21601,0.544455 1.21601,1.216445 0,0.671127 -0.54446,1.21515 -1.21601,1.21515 z m 0,-4.055248 c -1.56841,0 -2.83967,1.271689 -2.83967,2.840098 0,1.567762 1.27126,2.839451 2.83967,2.839451 1.56819,0 2.83966,-1.271689 2.83966,-2.839451 0,-1.568409 -1.27147,-2.840098 -2.83966,-2.840098 z m 21.70287,4.055248 c -0.67135,0 -1.2158,-0.544023 -1.2158,-1.21515 0,-0.67199 0.54445,-1.216445 1.2158,-1.216445 0.67156,0 1.21601,0.544455 1.21601,1.216445 0,0.671127 -0.54445,1.21515 -1.21601,1.21515 z m 0,-4.055248 c -1.56841,0 -2.83945,1.271689 -2.83945,2.840098 0,1.567762 1.27104,2.839451 2.83945,2.839451 1.56819,0 2.83966,-1.271689 2.83966,-2.839451 0,-1.568409 -1.27147,-2.840098 -2.83966,-2.840098"
     style="fill:#ffc200;fill-opacity:1;fill-rule:nonzero;stroke:none"
     id="path132" /><path
     d="m 19.917892,42.853981 c 0,0.406561 -0.28204,0.736082 -0.62969,0.736082 l -5.87417,0 -5.5345598,0 c -0.34765,0 -0.62948,-0.329521 -0.62948,-0.736082 0,-0.406129 0.28183,-0.73565 0.62948,-0.73565 l 11.4087298,0 c 0.34765,0 0.62969,0.329521 0.62969,0.73565"
     style="fill:#ffc200;fill-opacity:1;fill-rule:nonzero;stroke:none"
     id="path134"
     inkscape:connector-curvature="0"
     sodipodi:nodetypes="cscssssc" /><path
     inkscape:connector-curvature="0"
     d="m 52.885992,30.80714 c 0,1.676307 -1.35887,3.034747 -3.03475,3.034747 -1.67609,0 -3.03474,-1.35844 -3.03474,-3.034747 l 0,-4.414118 c 0,-1.675876 1.35865,-3.034531 3.03474,-3.034531 1.67588,0 3.03475,1.358655 3.03475,3.034531 l 0,4.414118 z m -14.09324,3.034747 -6.52892,0 c -2.89556,0 -5.24213,-2.346788 -5.24213,-5.241698 0,-2.89491 2.34657,-5.241698 5.24213,-5.241698 l 6.52892,0 c 2.89534,0 5.24213,2.346788 5.24213,5.241698 0,2.89491 -2.34679,5.241698 -5.24213,5.241698 z M 24.469902,30.80714 c 0,1.676307 -1.35887,3.034747 -3.03496,3.034747 -1.67587,0 -3.03453,-1.35844 -3.03453,-3.034747 l 0,-4.414118 c 0,-1.675876 1.35866,-3.034531 3.03453,-3.034531 1.67609,0 3.03496,1.358655 3.03496,3.034531 l 0,4.414118 z m 25.05938,-9.70178 -28.00219,0 c -3.04726,0 -5.51792,2.470223 -5.51792,5.517485 l 0,12.500877 c 0,2.799313 2.08503,5.110062 4.78637,5.468284 0.0268,-2.206088 1.82197,-3.985977 4.03367,-3.985977 2.22831,0 4.03474,1.806864 4.03474,4.035826 l 13.63316,0 c 0,-2.228962 1.80665,-4.035826 4.03497,-4.035826 2.19573,0 3.98036,1.754209 4.0328,3.936991 2.5518,-0.484894 4.48231,-2.725941 4.48231,-5.419298 l 0,-12.500877 c 0,-3.047262 -2.47044,-5.517485 -5.51791,-5.517485"
     style="fill:#ffc200;fill-opacity:1;fill-rule:nonzero;stroke:none"
     id="path136" /></svg>