<?xml version="1.0" encoding="utf-8"?>
<!-- Generator: Adobe Illustrator 15.1.0, SVG Export Plug-In  -->
<!DOCTYPE svg PUBLIC "-//W3C//DTD SVG 1.1//EN" "http://www.w3.org/Graphics/SVG/1.1/DTD/svg11.dtd" [
	<!ENTITY ns_flows "http://ns.adobe.com/Flows/1.0/">
]>
<svg version="1.1"
	 xmlns="http://www.w3.org/2000/svg" xmlns:xlink="http://www.w3.org/1999/xlink" xmlns:a="http://ns.adobe.com/AdobeSVGViewerExtensions/3.0/"
	 x="0px" y="0px" width="70px" height="85px" viewBox="-1.986 -1.55 70 85" enable-background="new -1.986 -1.55 70 85"
	 xml:space="preserve">
<defs>
</defs>
<circle fill="#BAF0F4" stroke="#BAF0F4" stroke-width="9" stroke-miterlimit="10" cx="32.9" cy="32.9" r="28.4"/>
<path fill="#BAF0F4" d="M4.5,32.9l28.801,48.8l28-48.8c0,0-3,27-28,28.4S4.5,32.9,4.5,32.9z"/>
<g id="Shape_1_copy_36_2_">
	<g>
		<path fill-rule="evenodd" clip-rule="evenodd" fill="#8E4B39" d="M53.94,17.892c-0.66-0.853-1.797-1.156-2.789-0.837
			c0.593-0.825,0.609-1.965-0.053-2.813c-0.825-1.057-2.386-1.271-3.481-0.477c-1.095,0.792-1.336,2.316-0.5,3.359
			c0.569,0.699,0.914,0.809,0.177,1.406v0.004c-1.071,0.874-4.764,3.543-8.559,5.809c0.3,0.285,0.569,0.591,0.833,0.906
			c0.413,0.498,0.796,1.028,1.124,1.577c4.544-3.442,8.863-6.654,9.271-6.055c0.821,1.055,2.382,1.271,3.483,0.48
			C54.541,20.456,54.765,18.95,53.94,17.892z M21.25,26.6c0,0,0.001,0,0.001,0c-0.001,0-0.003-0.001-0.005-0.001L21.25,26.6z
			 M30.436,25.353c-3.324-0.485-5.96-0.137-9.185,1.247c9.321,2.275,11.984,16.736,7.361,23.806
			c5.845-2.823,10.704-7.188,10.628-17.853C44.094,31.123,34.302,18.038,30.436,25.353z M29.085,39.155
			c-1.104-6.88-5.877-11.909-10.629-11.196c-4.752,0.712-7.721,6.896-6.617,13.776c1.1,6.875,5.879,11.906,10.63,11.196
			C27.214,52.219,30.19,46.031,29.085,39.155z M21.708,30.578c0.941-0.249,2.023,0.665,2.406,2.026
			c0.384,1.364-0.064,2.675-1.011,2.924c-0.94,0.248-2.015-0.663-2.406-2.027C20.314,32.139,20.768,30.829,21.708,30.578z
			 M13.442,35.301c0.24-2.659,1.932-4.704,3.771-4.557c1.838,0.156,3.144,2.451,2.904,5.115c-0.24,2.658-1.93,4.702-3.776,4.549
			C14.508,40.254,13.206,37.959,13.442,35.301z M17.132,47.937c-1.224,0.422-2.761-0.684-3.417-2.456
			c-0.656-1.775-0.191-3.563,1.034-3.992c1.224-0.422,2.759,0.682,3.417,2.454C18.822,45.718,18.357,47.509,17.132,47.937z
			 M21.726,51.211c-0.683,0.369-1.711-0.135-2.286-1.125c-0.579-0.986-0.491-2.097,0.191-2.466c0.684-0.369,1.708,0.134,2.283,1.121
			C22.493,49.733,22.405,50.839,21.726,51.211z M21.517,45.796c-0.962,0.144-1.93-0.875-2.156-2.271
			c-0.224-1.395,0.379-2.651,1.342-2.794c0.962-0.145,1.932,0.874,2.157,2.272C23.083,44.402,22.477,45.652,21.517,45.796z
			 M26.931,46.327c-0.164,1.401-1.088,2.459-2.055,2.354c-0.969-0.111-1.624-1.34-1.459-2.743c0.167-1.403,1.089-2.459,2.06-2.354
			C26.444,43.689,27.1,44.921,26.931,46.327z M25.837,42.83c-1.285,0.191-2.576-1.169-2.875-3.028
			c-0.297-1.863,0.507-3.541,1.797-3.731c1.285-0.191,2.582,1.169,2.873,3.028C27.931,40.964,27.126,42.639,25.837,42.83z"/>
	</g>
</g>
</svg>
