<?xml version="1.0" encoding="utf-8"?>
<!-- Generator: Adobe Illustrator 15.1.0, SVG Export Plug-In  -->
<!DOCTYPE svg PUBLIC "-//W3C//DTD SVG 1.1//EN" "http://www.w3.org/Graphics/SVG/1.1/DTD/svg11.dtd" [
	<!ENTITY ns_flows "http://ns.adobe.com/Flows/1.0/">
]>
<svg version="1.1"
	 xmlns="http://www.w3.org/2000/svg" xmlns:xlink="http://www.w3.org/1999/xlink" xmlns:a="http://ns.adobe.com/AdobeSVGViewerExtensions/3.0/"
	 x="0px" y="0px" width="70px" height="85px" viewBox="-2.153 -1.55 70 85" enable-background="new -2.153 -1.55 70 85"
	 xml:space="preserve">
<defs>
</defs>
<circle fill="#313140" stroke="#313140" stroke-width="9" stroke-miterlimit="10" cx="32.9" cy="32.9" r="28.4"/>
<path fill="#313140" d="M4.5,32.9l28.8,48.8l28-48.8c0,0-3,27-28,28.4S4.5,32.9,4.5,32.9z"/>
<path display="none" fill="#313140" d="M25.458,44.817l-3.876,6.194l1.345,0.846l3.876-6.301c-0.164-0.063-0.753-0.352-0.909-0.44
	C25.739,45.027,25.594,44.927,25.458,44.817z"/>
<path display="none" fill="#313140" d="M25.719,42.456l1.271,0.215l1.29,0.22c0.37,0.078,0.885,0.056,0.971-0.089
	s-0.142-0.607-0.4-0.909l-0.799-1.012l-0.785-0.995c-0.102-0.117-0.975-1.165-0.485-1.99c0.489-0.826,1.828-0.563,1.959-0.533
	l2.561,0.435c0.369,0.078,0.885,0.056,0.971-0.089c0.085-0.145-0.142-0.607-0.4-0.909l-1.584-2.007
	c-0.102-0.116-0.975-1.165-0.485-1.99s1.828-0.563,1.958-0.533l1.271,0.215l1.291,0.22c0.369,0.078,0.884,0.056,0.97-0.089
	s-0.142-0.607-0.4-0.909l-0.799-1.012l-0.785-0.995c-0.102-0.116-0.975-1.165-0.485-1.99c0.49-0.826,1.829-0.563,1.958-0.533
	l1.271,0.215l1.29,0.22c0.369,0.078,0.885,0.056,0.971-0.089c0.085-0.145-0.143-0.607-0.4-0.909L37.112,25.6l-0.785-0.995
	c-0.101-0.116-0.975-1.165-0.485-1.99c0.489-0.826,1.828-0.563,1.958-0.534l2.562,0.436c0.369,0.078,0.884,0.056,0.97-0.089
	s-0.142-0.607-0.4-0.909l-1.584-2.007c-0.102-0.116-0.975-1.165-0.484-1.99c0.488-0.825,1.828-0.563,1.958-0.533l2.561,0.435
	c0.37,0.078,0.885,0.056,0.971-0.089c0.031-0.054,0.021-0.15-0.02-0.266c-0.342-0.447-0.771-0.84-1.286-1.145
	c-2.156-1.278-4.94-0.567-6.219,1.589L24.342,38.57c-0.766,1.291-0.813,2.806-0.268,4.089
	C24.671,42.248,25.611,42.432,25.719,42.456z"/>
<path display="none" fill="#313140" d="M44.92,18.092c-0.59,0.479-1.604,0.28-1.716,0.255l-1.271-0.215l-1.291-0.22
	c-0.369-0.078-0.884-0.056-0.97,0.089s0.142,0.607,0.4,0.909l0.799,1.012l0.785,0.995c0.101,0.116,0.975,1.165,0.484,1.99
	c-0.488,0.825-1.828,0.563-1.958,0.533l-1.271-0.215l-1.291-0.22c-0.369-0.078-0.884-0.056-0.97,0.089s0.142,0.607,0.4,0.909
	l1.584,2.007c0.102,0.116,0.975,1.165,0.485,1.99s-1.828,0.563-1.959,0.534l-2.561-0.435c-0.369-0.079-0.884-0.057-0.971,0.088
	c-0.085,0.145,0.143,0.607,0.401,0.909l1.584,2.007c0.101,0.116,0.974,1.165,0.484,1.99s-1.828,0.563-1.958,0.533l-2.562-0.434
	c-0.369-0.078-0.884-0.057-0.97,0.088s0.142,0.607,0.4,0.909l0.799,1.012l0.785,0.995c0.102,0.117,0.975,1.165,0.485,1.99
	s-1.828,0.563-1.959,0.534l-2.561-0.435c-0.369-0.079-0.885-0.057-0.971,0.088s0.143,0.607,0.401,0.909l1.584,2.007
	c0.101,0.116,0.974,1.165,0.484,1.991c-0.489,0.825-1.828,0.562-1.958,0.533l-2.562-0.436c-0.369-0.077-0.885-0.056-0.971,0.089
	c-0.007,0.014-0.018,0.024-0.026,0.037c0.356,0.505,0.82,0.946,1.387,1.281c2.155,1.278,4.94,0.567,6.219-1.589l12.485-21.058
	C45.394,20.863,45.447,19.366,44.92,18.092z"/>
<path fill="#FFC200" d="M25.918,12.536c0.091,0.192,0.202,0.354,0.307,0.521c-1.099,0.533-1.932,1.562-2.152,2.857
	c-1.196,7.009,1.227,14.052,6.477,18.835c4.964,4.523,11.851,6.365,18.419,4.929c1.688-0.371,2.863-1.783,3.039-3.412
	c0.104,0.105,0.216,0.209,0.334,0.311c0.967,0.825,2.039,1.159,2.388,0.748c0.348-0.414-0.152-1.414-1.12-2.238
	c-0.071-0.063-0.144-0.112-0.214-0.168c0.899-0.618,1.412-1.384,1.165-1.801c-0.276-0.465-1.385-0.319-2.482,0.325
	c-0.218,0.132-0.417,0.274-0.598,0.418c-0.839-1.408-2.496-2.201-4.186-1.831c-4.093,0.895-8.38-0.251-11.473-3.068
	c-3.269-2.978-4.777-7.365-4.033-11.734c0.233-1.363-0.273-2.685-1.226-3.552c-0.482-0.439-1.089-0.74-1.762-0.893
	c0.088-0.077,0.177-0.152,0.26-0.239c0.904-0.894,1.33-1.931,0.949-2.313c-0.381-0.386-1.421,0.029-2.328,0.922
	c-0.066,0.068-0.128,0.138-0.192,0.209c-0.54-0.943-1.248-1.536-1.686-1.328C25.319,10.269,25.369,11.389,25.918,12.536z"/>
<path fill="#05C7F2" d="M55.396,38.94 M53.487,41.287 M33.397,26.975l-12.25,12.247l2.332,2.333l-6.674,6.675l1.838,1.837
	l6.673-6.675l2.404,2.405l12.346-12.345 M25.699,15.11 M29.188,9.928 M31.953,13.077 M25.667,37.105l8.841-8.84
	c0.243,0.268,0.492,0.54,0.744,0.809l-8.807,8.81L25.667,37.105z M27.471,38.908l8.798-8.801c0.26,0.256,0.525,0.51,0.796,0.759
	l-8.818,8.82L27.471,38.908z M29.839,41.275l-0.779-0.777l8.858-8.859c0.275,0.245,0.555,0.485,0.832,0.722L29.839,41.275z"/>
</svg>
