<?xml version="1.0" encoding="utf-8"?>
<!-- Generator: Adobe Illustrator 15.1.0, SVG Export Plug-In  -->
<!DOCTYPE svg PUBLIC "-//W3C//DTD SVG 1.1//EN" "http://www.w3.org/Graphics/SVG/1.1/DTD/svg11.dtd" [
	<!ENTITY ns_flows "http://ns.adobe.com/Flows/1.0/">
]>
<svg version="1.1"
	 xmlns="http://www.w3.org/2000/svg" xmlns:xlink="http://www.w3.org/1999/xlink" xmlns:a="http://ns.adobe.com/AdobeSVGViewerExtensions/3.0/"
	 x="0px" y="0px" width="70px" height="85px" viewBox="-1.986 -2.55 70 85" enable-background="new -1.986 -2.55 70 85"
	 xml:space="preserve">
<defs>
</defs>
<circle fill="#BAF0F4" stroke="#BAF0F4" stroke-width="9" stroke-miterlimit="10" cx="32.9" cy="32.9" r="28.4"/>
<path fill="#BAF0F4" d="M4.5,32.9l28.801,48.8l28-48.8c0,0-3,27-28,28.4S4.5,32.9,4.5,32.9z"/>
<path fill-rule="evenodd" clip-rule="evenodd" fill="#FBB03B" d="M40.684,49.659c-2.435,4.268-7.491,5.967-11.645,3.597
	l-7.522-4.292c-4.153-2.371-5.547-7.751-3.113-12.019l11.023-19.315c2.436-4.267,7.53-5.371,11.685-3.001l7.522,4.293
	c4.153,2.371,5.509,7.157,3.074,11.424L40.684,49.659z"/>
<g id="Shape_1_copy_21_2_">
	<g>
		<path fill-rule="evenodd" clip-rule="evenodd" fill="#D15D36" d="M23.649,49.556l1.652,0.279l1.677,0.286
			c0.481,0.101,1.15,0.072,1.262-0.116c0.112-0.188-0.185-0.79-0.52-1.182l-1.039-1.316l-1.021-1.293
			c-0.132-0.153-1.267-1.515-0.631-2.587c0.636-1.074,2.376-0.731,2.547-0.693l3.328,0.566c0.48,0.101,1.15,0.071,1.262-0.116
			c0.111-0.188-0.183-0.79-0.521-1.181l-2.059-2.608c-0.132-0.151-1.267-1.516-0.63-2.588c0.635-1.072,2.376-0.731,2.545-0.693
			l1.651,0.28l1.678,0.285c0.48,0.102,1.149,0.073,1.261-0.115c0.112-0.188-0.184-0.79-0.52-1.182l-1.038-1.314l-1.021-1.294
			c-0.132-0.15-1.266-1.514-0.63-2.586c0.637-1.074,2.378-0.731,2.545-0.693l1.653,0.279l1.677,0.286
			c0.479,0.103,1.15,0.073,1.261-0.115c0.11-0.188-0.185-0.79-0.521-1.182l-1.039-1.315l-1.02-1.293
			c-0.131-0.151-1.268-1.514-0.631-2.587c0.636-1.074,2.376-0.731,2.545-0.693l3.33,0.565c0.48,0.102,1.148,0.073,1.261-0.115
			c0.111-0.188-0.185-0.79-0.521-1.182l-2.059-2.609c-0.132-0.152-1.267-1.514-0.63-2.587c0.635-1.072,2.376-0.731,2.545-0.692
			l3.328,0.565c0.481,0.101,1.151,0.072,1.262-0.116c0.041-0.07,0.026-0.196-0.026-0.346c-0.444-0.581-1.002-1.091-1.672-1.487
			c-2.803-1.662-6.421-0.738-8.083,2.065l-16.23,27.374c-0.995,1.678-1.056,3.647-0.348,5.314
			C22.287,49.285,23.509,49.524,23.649,49.556z"/>
	</g>
</g>
<path fill="#8E4B39" d="M48.608,17.885c-0.766,0.622-2.084,0.365-2.23,0.331l-1.651-0.28l-1.678-0.284
	c-0.479-0.102-1.148-0.073-1.26,0.116c-0.112,0.188,0.184,0.789,0.52,1.181l1.039,1.315l1.021,1.294
	c0.13,0.151,1.266,1.514,0.629,2.586c-0.635,1.072-2.376,0.732-2.545,0.693l-1.651-0.279l-1.679-0.286
	c-0.48-0.101-1.149-0.072-1.261,0.116c-0.111,0.188,0.184,0.79,0.521,1.181l2.059,2.609c0.132,0.152,1.267,1.514,0.631,2.587
	c-0.636,1.073-2.376,0.731-2.546,0.695l-3.329-0.566c-0.48-0.103-1.149-0.073-1.262,0.115c-0.11,0.188,0.185,0.79,0.521,1.181
	l2.061,2.609c0.131,0.151,1.265,1.515,0.629,2.587s-2.375,0.73-2.545,0.693l-3.329-0.564c-0.481-0.102-1.149-0.073-1.26,0.115
	c-0.113,0.188,0.183,0.79,0.521,1.183l1.037,1.314l1.021,1.293c0.133,0.152,1.267,1.515,0.632,2.587
	c-0.636,1.073-2.377,0.731-2.547,0.694l-3.328-0.564c-0.48-0.104-1.15-0.074-1.261,0.114c-0.112,0.188,0.185,0.789,0.521,1.182
	l2.06,2.608c0.13,0.151,1.265,1.514,0.629,2.588c-0.636,1.073-2.376,0.73-2.545,0.693l-3.33-0.566c-0.48-0.1-1.15-0.073-1.262,0.115
	c-0.009,0.018-0.023,0.032-0.035,0.049c0.464,0.655,1.067,1.229,1.803,1.665c2.801,1.662,6.422,0.737,8.083-2.066l16.229-27.373
	C49.225,21.488,49.295,19.542,48.608,17.885z"/>
</svg>
