<?xml version="1.0" encoding="utf-8"?>
<!-- Generator: Adobe Illustrator 15.1.0, SVG Export Plug-In  -->
<!DOCTYPE svg PUBLIC "-//W3C//DTD SVG 1.1//EN" "http://www.w3.org/Graphics/SVG/1.1/DTD/svg11.dtd" [
	<!ENTITY ns_flows "http://ns.adobe.com/Flows/1.0/">
]>
<svg version="1.1"
	 xmlns="http://www.w3.org/2000/svg" xmlns:xlink="http://www.w3.org/1999/xlink" xmlns:a="http://ns.adobe.com/AdobeSVGViewerExtensions/3.0/"
	 x="0px" y="0px" width="70px" height="85px" viewBox="-1.987 -1.55 70 85" enable-background="new -1.987 -1.55 70 85"
	 xml:space="preserve">
<defs>
</defs>
<circle fill="#FFC200" stroke="#FFC200" stroke-width="9" stroke-miterlimit="10" cx="32.9" cy="32.9" r="28.4"/>
<path fill="#FFC200" d="M4.5,32.9l28.8,48.8l28-48.8c0,0-3,27-28,28.4C8.3,62.7,4.5,32.9,4.5,32.9z"/>
<path fill="#805BA6" d="M33.544,20.718c1.226-1.761,3.263-2.917,5.567-2.917c0.066,0,0.133,0.008,0.201,0.009
	c-0.372-2.819-2.782-4.999-5.704-4.999s-5.328,2.177-5.702,4.993c0.024,0,0.046-0.003,0.071-0.003
	C30.281,17.801,32.32,18.957,33.544,20.718z M32.742,13.923l0.055-0.001c0.314,0,0.578,0.23,0.614,0.535
	c0.016,0.157-0.029,0.311-0.129,0.433c-0.103,0.127-0.253,0.205-0.42,0.221c-0.057,0.006-1.428,0.149-1.468,1.514
	c-0.011,0.321-0.277,0.573-0.607,0.573l-0.028-0.001c-0.283-0.01-0.523-0.207-0.58-0.48c-0.008-0.048-0.015-0.09-0.013-0.137
	C30.222,14.651,31.875,13.998,32.742,13.923z"/>
<path fill="#F21D2F" d="M45.382,25.604c0-3.456-2.812-6.268-6.27-6.268c-1.731,0-3.298,0.71-4.432,1.849
	c-0.277,0.318-2.154,2.618-1.543,5.616c-0.446,1.042-1.044,0.518-1.308,0.203c-0.351-2.105,0.247-4.019,0.858-5.194
	c-1.15-1.53-2.815-2.386-4.877-2.386c-3.488,0-6.313,2.827-6.313,6.31c0,2.365,1.302,4.421,3.226,5.502l-0.017,0.013
	c0.077,0.036,0.154,0.068,0.232,0.102c0.27,0.138,0.55,0.256,0.841,0.355c0.368,0.146,0.734,0.274,1.103,0.393
	c0.844,0.042,3.328,0.025,4.073-1.516c0.141-0.289,0.488-0.412,0.779-0.272c0.291,0.141,0.411,0.489,0.27,0.78
	c-0.429,0.887-1.191,1.417-2.016,1.734c6.383,0.952,11.617-1.431,11.617-1.431l-0.038-0.021
	C43.807,30.414,45.382,28.19,45.382,25.604z M26.307,22.878c-0.067,0.018-1.672,0.477-1.477,2.149
	c0.043,0.359-0.221,0.691-0.59,0.74c-0.029,0.005-0.061,0.006-0.091,0.006c-0.281,0-0.532-0.171-0.625-0.431
	c-0.02-0.056-0.027-0.105-0.034-0.15c-0.263-2.255,1.507-3.338,2.48-3.597c0.353-0.094,0.729,0.122,0.823,0.468
	C26.882,22.417,26.665,22.782,26.307,22.878z M37.867,22.512c-0.067,0.018-1.673,0.477-1.478,2.149
	c0.042,0.361-0.224,0.694-0.591,0.742c-0.028,0.004-0.06,0.008-0.09,0.008c-0.28,0-0.531-0.174-0.627-0.436
	c-0.017-0.053-0.028-0.099-0.034-0.147c-0.262-2.255,1.51-3.339,2.482-3.597c0.349-0.092,0.73,0.122,0.821,0.467
	C38.441,22.05,38.223,22.416,37.867,22.512z"/>
<path fill="#8E4B39" d="M30.408,48.215c1.865,1.049,3.862,1.993,5.923,2.824l-0.623,1.656c-1.957-1.369-3.751-2.872-5.3-4.478
	V48.215z M26.144,34.847c4.315,2.354,9.185,4.075,14.329,5.026l1.853-4.971C36.974,35.592,31.583,35.573,26.144,34.847z
	 M34.223,56.689l0.684-1.858c-0.833-0.544-1.639-1.114-2.423-1.707l1.742,3.563L34.223,56.689z M28.082,44.106
	c2.654,1.948,5.698,3.625,8.968,4.976l0.745-2c-3.793-1.198-7.385-2.801-10.576-4.742l0.861,1.764L28.082,44.106z M25.245,38.291
	c3.75,2.905,8.27,5.257,13.271,6.864l1.248-3.361c-5.59-1.053-10.86-2.951-15.512-5.536L25.245,38.291z"/>
</svg>
