<?xml version="1.0" encoding="UTF-8" standalone="no"?>
<!-- Generator: Adobe Illustrator 15.1.0, SVG Export Plug-In  -->

<svg
   xmlns:dc="http://purl.org/dc/elements/1.1/"
   xmlns:cc="http://creativecommons.org/ns#"
   xmlns:rdf="http://www.w3.org/1999/02/22-rdf-syntax-ns#"
   xmlns:svg="http://www.w3.org/2000/svg"
   xmlns="http://www.w3.org/2000/svg"
   xmlns:sodipodi="http://sodipodi.sourceforge.net/DTD/sodipodi-0.dtd"
   xmlns:inkscape="http://www.inkscape.org/namespaces/inkscape"
   version="1.1"
   x="0px"
   y="0px"
   width="70px"
   height="85px"
   viewBox="-2.098 -2.05 70 85"
   enable-background="new -2.098 -2.05 70 85"
   xml:space="preserve"
   id="svg2"
   inkscape:version="0.48.4 r9939"
   sodipodi:docname="sandwich.svg"><metadata
     id="metadata22"><rdf:RDF><cc:Work
         rdf:about=""><dc:format>image/svg+xml</dc:format><dc:type
           rdf:resource="http://purl.org/dc/dcmitype/StillImage" /><dc:title></dc:title></cc:Work></rdf:RDF></metadata><sodipodi:namedview
     pagecolor="#ffffff"
     bordercolor="#666666"
     borderopacity="1"
     objecttolerance="10"
     gridtolerance="10"
     guidetolerance="10"
     inkscape:pageopacity="0"
     inkscape:pageshadow="2"
     inkscape:window-width="1127"
     inkscape:window-height="598"
     id="namedview20"
     showgrid="false"
     inkscape:zoom="2.7764706"
     inkscape:cx="11.769068"
     inkscape:cy="71.313559"
     inkscape:window-x="234"
     inkscape:window-y="149"
     inkscape:window-maximized="0"
     inkscape:current-layer="svg2" /><defs
     id="defs4" /><circle
     fill="#8E4B39"
     stroke="#8E4B39"
     stroke-width="9"
     stroke-miterlimit="10"
     cx="32.9"
     cy="32.9"
     r="28.4"
     id="circle6" /><path
     fill="#8E4B39"
     d="M4.5,32.9l28.8,48.8l28-48.8c0,0-3,27-28,28.4S4.5,32.9,4.5,32.9z"
     id="path8" /><path
     inkscape:connector-curvature="0"
     d="m 55.402533,36.186557 c 0,-1.8575 -3.845,-3.49375 -9.687504,-4.455 l -1.48,1.11375 c 3.69125,0.60625 6.045004,1.5225 6.045004,2.54625 0,0.4225 -0.40125,0.82375 -1.1275,1.195 -2.422504,1.2375 -8.487504,2.115 -15.592504,2.115 -7.105,0 -13.1725,-0.8775 -15.59375,-2.115 -0.725,-0.37125 -1.1275,-0.7725 -1.1275,-1.195 0,-0.8475 1.6175,-1.6225 4.27125,-2.20875 l -1.1675,-1.1875 c -5.0125,0.9825 -8.2275,2.49375 -8.2275,4.19125 0,0.13375 0.02625,0.2675 0.0675,0.4 l -0.0675,0 0.10375,0.12 c 0.16125,0.4125 0.51625,0.81 1.03625,1.19 l 6.4325,7.38 -0.3025,0 c -0.94875,0 -1.71875,0.76875 -1.71875,1.72 l 0,0.18125 c 0,0.95 0.77,1.72 1.71875,1.72 l 29.871254,0 c 0.95,0 1.72,-0.77 1.72,-1.72 l 0,-0.18125 c 0,-0.95125 -0.77,-1.72 -1.72,-1.72 l -1.025004,0 6.431254,-7.38 c 0.52,-0.38 0.87375,-0.7775 1.03625,-1.19 l 0.10375,-0.12 -0.0663,0 c 0.04,-0.1325 0.0663,-0.26625 0.0663,-0.4"
     style="fill:#5ebf64;fill-opacity:1;fill-rule:nonzero;stroke:none"
     id="path1588" /><path
     inkscape:connector-curvature="0"
     d="m 46.956279,25.001557 c 0.79875,0 1.447504,0.6475 1.447504,1.4475 0,0.8 -0.648754,1.44875 -1.447504,1.44875 -0.80125,0 -1.45,-0.64875 -1.45,-1.44875 0,-0.8 0.64875,-1.4475 1.45,-1.4475 z m 1.808754,-3.62125 c 0.6,0 1.0875,0.48625 1.0875,1.085 0,0.60125 -0.4875,1.0875 -1.0875,1.0875 -0.59875,0 -1.085004,-0.48625 -1.085004,-1.0875 0,-0.59875 0.486254,-1.085 1.085004,-1.085 z m -9.471254,10.90125 0.1925,2.325 2.72125,-2.04875 1.49,-1.12125 10.857504,-8.175 -16.726254,-8.5475 0.28625,3.4225 7.13625,1.62625 c 0.24875,0.05625 0.45,0.24125 0.5275,0.48375 0.07875,0.24125 0.025,0.5075 -0.14375,0.69875 l -6.6525,7.60625 0.205,2.455 0.10625,1.275"
     style="fill:#ffc200;fill-opacity:1;fill-rule:nonzero;stroke:none"
     id="path1590" /><path
     inkscape:connector-curvature="0"
     d="m 32.821279,22.345307 c 0.44125,-0.4075 1.12875,-0.37875 1.535,0.06125 0.4075,0.44125 0.38,1.12875 -0.06,1.53625 -0.4425,0.40625 -1.12875,0.37875 -1.53625,-0.0625 -0.4075,-0.44125 -0.38,-1.1275 0.06125,-1.535 z m 3.90875,-1.63625 0.1375,-0.1025 c 0.21375,-0.15375 0.455,-0.24375 0.70375,-0.26875 0.25,-0.02375 0.505,0.01125 0.7375,0.11625 0.17125,0.0775 0.3325,0.19 0.46875,0.3375 0.5425,0.58875 0.505,1.50375 -0.0825,2.0475 l -0.17625,0.13375 c -0.21625,0.145 -0.45875,0.2225 -0.7075,0.24 -0.2525,0.0175 -0.50625,-0.02875 -0.73875,-0.1425 -0.15375,-0.0775 -0.3,-0.17875 -0.425,-0.315 -0.5425,-0.5875 -0.505,-1.50375 0.0825,-2.04625 z m -7.30375,11.475 1.31375,3.59 3.2275,-3.69 1.09,-1.245 2.43,-2.77875 0.66375,-0.75875 0.66375,-0.7575 4.93125,-5.6375 -5.50625,-1.255 -0.74,-0.17 -0.74125,-0.1675 -6.02375,-1.37375 -2.84875,10.045 1.08375,2.95875 0.45625,1.24"
     style="fill:#ffc200;fill-opacity:1;fill-rule:nonzero;stroke:none"
     id="path1592" /><path
     inkscape:connector-curvature="0"
     d="m 21.178779,26.764057 c -0.7175,0 -1.3,-0.58125 -1.3,-1.29875 0,-0.7175 0.5825,-1.3 1.3,-1.3 0.7175,0 1.3,0.5825 1.3,1.3 0,0.7175 -0.5825,1.29875 -1.3,1.29875 z m -2.925,-3.24875 c -0.54,0 -0.975,-0.4375 -0.975,-0.975 0,-0.53875 0.43625,-0.97375 0.975,-0.97375 0.53875,0 0.975,0.435 0.975,0.97375 0,0.5375 -0.4375,0.975 -0.975,0.975 z m 10.42625,-6.0425 -4.19,1.23 -0.69625,0.20625 -0.69625,0.20375 -10.695,3.145 9.27,9.43125 1.14625,1.1675 1.69375,1.7225 0.57875,-2.04 0.37875,-1.3325 0.89625,-3.16375 0.3375,-1.1875 0.33625,-1.18625 2.28375,-8.05 0.1025,-0.365 -0.74625,0.21875"
     style="fill:#ffc200;fill-opacity:1;fill-rule:nonzero;stroke:none"
     id="path1594" /></svg>