<?xml version="1.0" encoding="UTF-8" standalone="no"?>
<!-- Created with Inkscape (http://www.inkscape.org/) -->

<svg
   xmlns:dc="http://purl.org/dc/elements/1.1/"
   xmlns:cc="http://creativecommons.org/ns#"
   xmlns:rdf="http://www.w3.org/1999/02/22-rdf-syntax-ns#"
   xmlns:svg="http://www.w3.org/2000/svg"
   xmlns="http://www.w3.org/2000/svg"
   version="1.1"
   width="70"
   height="85"
   viewBox="-2.042 -1.55 70 85"
   id="svg2"
   xml:space="preserve"><metadata
     id="metadata20"><rdf:RDF><cc:Work
         rdf:about=""><dc:format>image/svg+xml</dc:format><dc:type
           rdf:resource="http://purl.org/dc/dcmitype/StillImage" /><dc:title></dc:title></cc:Work></rdf:RDF></metadata><defs
     id="defs4" /><circle
     cx="32.900002"
     cy="32.900002"
     r="28.4"
     id="circle6"
     style="fill:#5ebf64;stroke:#5ebf64;stroke-width:9;stroke-miterlimit:10" /><path
     d="m 4.5,32.9 28.8,48.8 28,-48.8 c 0,0 -3,27 -28,28.4 C 8.3,62.7 4.5,32.9 4.5,32.9 z"
     id="path8"
     style="fill:#5ebf64" /><path
     d="m 19.923,32.982 c -0.406,7.145 5.055,13.267 12.2,13.674 7.146,0.407 13.267,-5.056 13.674,-12.2 0.046,-0.828 0.012,-1.641 -0.09,-2.434 L 32.86,33.719 38.349,21.981 c -1.452,-0.679 -3.054,-1.103 -4.752,-1.199 -7.145,-0.407 -13.266,5.055 -13.674,12.2 z m 2.23,-1.458 c 0.074,-1.31 1.196,-2.311 2.504,-2.235 1.31,0.074 2.312,1.196 2.237,2.505 -0.075,1.309 -1.197,2.31 -2.506,2.236 -1.31,-0.075 -2.31,-1.196 -2.235,-2.506 z m 3.764,8.14 c -0.874,-0.05 -1.542,-0.796 -1.492,-1.67 0.05,-0.872 0.798,-1.539 1.671,-1.489 0.873,0.049 1.541,0.796 1.491,1.669 -0.049,0.874 -0.798,1.54 -1.67,1.49 z m 13.718,-4.239 c 0.873,0.05 1.539,0.799 1.489,1.671 -0.049,0.872 -0.796,1.539 -1.669,1.489 -0.874,-0.049 -1.541,-0.797 -1.491,-1.669 0.049,-0.872 0.797,-1.541 1.671,-1.491 z m -4.794,5.277 c -0.075,1.31 -1.196,2.311 -2.506,2.236 -1.308,-0.074 -2.31,-1.196 -2.234,-2.506 0.075,-1.309 1.197,-2.311 2.504,-2.236 1.31,0.075 2.31,1.197 2.236,2.506 z M 30.776,28.58 c -1.309,-0.075 -2.312,-1.196 -2.237,-2.504 0.075,-1.31 1.197,-2.31 2.507,-2.236 1.308,0.075 2.31,1.195 2.235,2.506 -0.075,1.307 -1.197,2.309 -2.505,2.234 z"
     id="path10"
     style="fill:#ffc200" /><path
     d="m 31.871,51.103 c 9.585,0.546 17.828,-6.809 18.374,-16.394 0.063,-1.111 0.015,-2.203 -0.126,-3.27 l -2.092,0.275 c 0.125,0.938 0.165,1.897 0.108,2.875 -0.479,8.422 -7.721,14.885 -16.145,14.405 -8.421,-0.479 -14.884,-7.723 -14.405,-16.145 0.48,-8.425 7.724,-14.887 16.146,-14.408 2.003,0.114 3.895,0.615 5.608,1.419 l 0.896,-1.91 c -1.953,-0.916 -4.104,-1.487 -6.384,-1.616 -9.585,-0.546 -17.826,6.808 -18.372,16.394 -0.546,9.586 6.806,17.829 16.392,18.375 z"
     id="path12"
     style="fill:#8e4b39" /><path
     d="m 53.302,27.758 2.093,-0.277 C 54.613,21.545 50.809,16.48 45.508,13.993 l -0.892,1.911 c 4.656,2.186 7.999,6.638 8.686,11.854 z"
     id="path14"
     style="fill:#8e4b39" /><path
     d="M 50.982,28.064 C 50.403,23.641 47.574,19.872 43.625,18.023 l -5.489,11.738 12.846,-1.697 z m -5.141,-3.677 c 0.874,0.05 1.54,0.797 1.49,1.671 -0.05,0.872 -0.796,1.538 -1.67,1.488 -0.872,-0.05 -1.538,-0.796 -1.489,-1.668 0.05,-0.874 0.797,-1.541 1.669,-1.491 z"
     id="path16"
     style="fill:#ffc200" /></svg>