<?xml version="1.0" encoding="utf-8"?>
<!-- Generator: Adobe Illustrator 15.1.0, SVG Export Plug-In  -->
<!DOCTYPE svg PUBLIC "-//W3C//DTD SVG 1.1//EN" "http://www.w3.org/Graphics/SVG/1.1/DTD/svg11.dtd" [
	<!ENTITY ns_flows "http://ns.adobe.com/Flows/1.0/">
]>
<svg version="1.1"
	 xmlns="http://www.w3.org/2000/svg" xmlns:xlink="http://www.w3.org/1999/xlink" xmlns:a="http://ns.adobe.com/AdobeSVGViewerExtensions/3.0/"
	 x="0px" y="0px" width="70px" height="85px" viewBox="-2.042 -1.55 70 85" enable-background="new -2.042 -1.55 70 85"
	 xml:space="preserve">
<defs>
</defs>
<circle fill="#5EBF64" stroke="#5EBF64" stroke-width="9" stroke-miterlimit="10" cx="32.9" cy="32.9" r="28.4"/>
<path fill="#5EBF64" d="M4.5,32.9l28.8,48.8l28-48.8c0,0-3,27-28,28.4S4.5,32.9,4.5,32.9z"/>
<path fill="#FFC200" d="M19.923,32.982c-0.406,7.145,5.055,13.267,12.2,13.674c7.146,0.407,13.267-5.056,13.674-12.2
	c0.046-0.828,0.012-1.641-0.09-2.434l-12.847,1.697l5.489-11.738c-1.452-0.679-3.054-1.103-4.752-1.199
	C26.452,20.375,20.331,25.837,19.923,32.982z M22.153,31.524c0.074-1.31,1.196-2.311,2.504-2.235
	c1.31,0.074,2.312,1.196,2.237,2.505c-0.075,1.309-1.197,2.31-2.506,2.236C23.078,33.955,22.078,32.834,22.153,31.524z
	 M25.917,39.664c-0.874-0.05-1.542-0.796-1.492-1.67c0.05-0.872,0.798-1.539,1.671-1.489c0.873,0.049,1.541,0.796,1.491,1.669
	C27.538,39.048,26.789,39.714,25.917,39.664z M39.635,35.425c0.873,0.05,1.539,0.799,1.489,1.671
	c-0.049,0.872-0.796,1.539-1.669,1.489c-0.874-0.049-1.541-0.797-1.491-1.669C38.013,36.044,38.761,35.375,39.635,35.425z
	 M34.841,40.702c-0.075,1.31-1.196,2.311-2.506,2.236c-1.308-0.074-2.31-1.196-2.234-2.506c0.075-1.309,1.197-2.311,2.504-2.236
	C33.915,38.271,34.915,39.393,34.841,40.702z M30.776,28.58c-1.309-0.075-2.312-1.196-2.237-2.504
	c0.075-1.31,1.197-2.31,2.507-2.236c1.308,0.075,2.31,1.195,2.235,2.506C33.206,27.653,32.084,28.655,30.776,28.58z"/>
<path fill="#8E4B39" d="M31.871,51.103c9.585,0.546,17.828-6.809,18.374-16.394c0.063-1.111,0.015-2.203-0.126-3.27l-2.092,0.275
	c0.125,0.938,0.165,1.897,0.108,2.875c-0.479,8.422-7.721,14.885-16.145,14.405c-8.421-0.479-14.884-7.723-14.405-16.145
	c0.48-8.425,7.724-14.887,16.146-14.408c2.003,0.114,3.895,0.615,5.608,1.419l0.896-1.91c-1.953-0.916-4.104-1.487-6.384-1.616
	c-9.585-0.546-17.826,6.808-18.372,16.394C14.933,42.314,22.285,50.557,31.871,51.103z"/>
<path fill="#8E4B39" d="M53.302,27.758l2.093-0.277c-0.782-5.936-4.586-11.001-9.887-13.488l-0.892,1.911
	C49.272,18.09,52.615,22.542,53.302,27.758z"/>
<path fill="#FFC200" d="M50.982,28.064c-0.579-4.423-3.408-8.192-7.357-10.041l-5.489,11.738L50.982,28.064z M45.841,24.387
	c0.874,0.05,1.54,0.797,1.49,1.671c-0.05,0.872-0.796,1.538-1.67,1.488c-0.872-0.05-1.538-0.796-1.489-1.668
	C44.222,25.004,44.969,24.337,45.841,24.387z"/>
</svg>
