<?xml version="1.0" encoding="utf-8"?>
<!-- Generator: Adobe Illustrator 15.1.0, SVG Export Plug-In  -->
<!DOCTYPE svg PUBLIC "-//W3C//DTD SVG 1.1//EN" "http://www.w3.org/Graphics/SVG/1.1/DTD/svg11.dtd" [
	<!ENTITY ns_flows "http://ns.adobe.com/Flows/1.0/">
]>
<svg version="1.1"
	 xmlns="http://www.w3.org/2000/svg" xmlns:xlink="http://www.w3.org/1999/xlink" xmlns:a="http://ns.adobe.com/AdobeSVGViewerExtensions/3.0/"
	 x="0px" y="0px" width="70px" height="85px" viewBox="-2.098 -1.55 70 85" enable-background="new -2.098 -1.55 70 85"
	 xml:space="preserve">
<defs>
</defs>
<circle fill="#F21D2F" stroke="#F21D2F" stroke-width="9" stroke-miterlimit="10" cx="32.9" cy="32.9" r="28.4"/>
<path fill="#F21D2F" d="M4.5,32.9l28.8,48.8l28-48.8c0,0-3,27-28,28.4S4.5,32.9,4.5,32.9z"/>
<rect x="22.857" y="50.577" fill="#F5F5F5" width="13.236" height="1.987"/>
<path fill="#FFC200" d="M51.901,18.977l-0.157-0.68c-0.085-0.363-0.487-0.594-0.898-0.508l-32.017,6.484
	c-0.407,0.083-0.676,0.445-0.593,0.804c0.082,0.36,0.486,0.591,0.897,0.517l4.988-0.903c0.214,0.162,0.409,0.398,0.496,0.765
	c0.179,0.721-0.068,1.539-0.731,2.435c-2.422,3.269-1.172,4.482,0.414,6.014c0.153,0.147,0.311,0.3,0.47,0.461
	c0.72,0.719,0.99,2.057,0.701,3.49c-0.3,1.499-1.152,2.703-2.217,3.138c-0.241,0.1-0.36,0.379-0.262,0.624
	c0.076,0.185,0.256,0.298,0.443,0.298c0.06,0,0.123-0.014,0.181-0.038c1.379-0.564,2.423-1.996,2.793-3.833
	c0.351-1.742-0.02-3.408-0.964-4.354c-0.164-0.164-0.324-0.322-0.481-0.47c-1.53-1.487-2.231-2.165-0.308-4.762
	c0.84-1.134,1.141-2.222,0.891-3.232c-0.072-0.291-0.186-0.533-0.323-0.734l2.213-0.399c0.353,0.263,0.826,0.721,0.984,1.363
	c0.179,0.721-0.068,1.539-0.732,2.435c-2.419,3.269-1.17,4.482,0.414,6.014c0.151,0.147,0.308,0.3,0.468,0.461
	c0.722,0.719,0.991,2.057,0.704,3.49c-0.301,1.499-1.152,2.703-2.217,3.138c-0.243,0.1-0.361,0.379-0.262,0.624
	c0.079,0.185,0.255,0.298,0.443,0.298c0.06,0,0.121-0.014,0.182-0.038c1.379-0.564,2.42-1.996,2.791-3.833
	c0.351-1.742-0.019-3.408-0.964-4.354c-0.163-0.164-0.324-0.322-0.481-0.47c-1.531-1.487-2.231-2.165-0.306-4.762
	c0.841-1.134,1.141-2.222,0.889-3.232c-0.136-0.555-0.424-1.002-0.729-1.348l1.827-0.33c0.667,0.412,1.611,1.1,1.778,1.774
	c0.177,0.72-0.066,1.54-0.729,2.435c-2.424,3.267-1.173,4.48,0.411,6.016c0.151,0.146,0.308,0.299,0.468,0.459
	c0.723,0.723,0.991,2.059,0.703,3.491c-0.303,1.501-1.151,2.703-2.219,3.139c-0.242,0.098-0.359,0.375-0.26,0.623
	c0.076,0.186,0.254,0.296,0.443,0.296c0.061,0,0.121-0.012,0.182-0.036c1.376-0.564,2.423-1.997,2.791-3.834
	c0.349-1.74-0.017-3.408-0.963-4.353c-0.163-0.165-0.324-0.319-0.479-0.472c-1.535-1.486-2.233-2.164-0.309-4.761
	c0.84-1.136,1.139-2.222,0.889-3.232c-0.208-0.848-0.767-1.446-1.223-1.815l19.375-3.503C51.716,19.702,51.985,19.342,51.901,18.977
	z"/>
<path fill="#313140" d="M50.563,13.643c0.118,0.356-0.118,0.732-0.521,0.834L18.471,22.57c-0.406,0.102-0.828-0.1-0.943-0.453
	c-0.114-0.35,0.118-0.731,0.52-0.843l31.357-8.742c0.401-0.11,0.826,0.088,0.944,0.444L50.563,13.643z"/>
<path fill="#313140" d="M51.809,18.979c0.09,0.365-0.172,0.723-0.582,0.794L19.14,25.498c-0.412,0.071-0.817-0.162-0.906-0.522
	c-0.088-0.357,0.171-0.72,0.58-0.802l31.921-6.387c0.408-0.08,0.817,0.149,0.909,0.513L51.809,18.979z"/>
<path fill="#F5F5F5" d="M15.712,38.893c0.062,4.38,2.562,8.218,6.306,10.42h14.649c3.747-2.203,6.249-6.04,6.309-10.42H15.712z"/>
</svg>
