<?xml version="1.0" encoding="utf-8"?>
<!-- Generator: Adobe Illustrator 15.1.0, SVG Export Plug-In  -->
<!DOCTYPE svg PUBLIC "-//W3C//DTD SVG 1.1//EN" "http://www.w3.org/Graphics/SVG/1.1/DTD/svg11.dtd" [
	<!ENTITY ns_flows "http://ns.adobe.com/Flows/1.0/">
]>
<svg version="1.1"
	 xmlns="http://www.w3.org/2000/svg" xmlns:xlink="http://www.w3.org/1999/xlink" xmlns:a="http://ns.adobe.com/AdobeSVGViewerExtensions/3.0/"
	 x="0px" y="0px" width="70px" height="85px" viewBox="-1.986 -2.55 70 85" enable-background="new -1.986 -2.55 70 85"
	 xml:space="preserve">
<defs>
</defs>
<circle fill="#BAF0F4" stroke="#BAF0F4" stroke-width="9" stroke-miterlimit="10" cx="32.9" cy="32.9" r="28.4"/>
<path fill="#BAF0F4" d="M4.5,32.9l28.801,48.8l28-48.8c0,0-3,27-28,28.4S4.5,32.9,4.5,32.9z"/>
<path fill="#8E4B39" d="M48.538,20.729H19.113c-1.289,0-2.334,0.928-2.334,2.071c0,1.145,1.045,2.07,2.334,2.07h29.425
	c1.29,0,2.336-0.926,2.336-2.07C50.874,21.657,49.828,20.729,48.538,20.729z"/>
<path fill="#8E4B39" d="M48.538,40.729H19.113c-1.289,0-2.334,0.928-2.334,2.071c0,1.145,1.045,2.07,2.334,2.07h29.425
	c1.29,0,2.336-0.926,2.336-2.07C50.874,41.657,49.828,40.729,48.538,40.729z"/>
<path fill="#FFC200" d="M53.085,32.839c0,0.894-2.237,1.626-4.972,1.626H20.43c-2.733,0-4.971-0.732-4.971-1.626
	c0-0.895,2.237-1.626,4.971-1.626h27.684C50.848,31.213,53.085,31.944,53.085,32.839z"/>
<path fill="#5EBF64" d="M53.027,39.129c-1.331,0-2.312-0.54-2.407-1.042l0.003-0.049c0-1.375-1.79-2.451-4.077-2.451
	c-2.049,0-3.7,0.865-4.019,2.064l-0.036,0.177l-0.023,0.225c-0.019,0.524-1.016,1.108-2.419,1.108c-1.402,0-2.399-0.584-2.419-1.108
	l-0.024-0.196l-0.044-0.205c-0.307-1.18-1.966-2.055-4.027-2.055c-2.049,0-3.699,0.867-4.019,2.065l-0.004,0.166l-0.056,0.235
	c-0.018,0.523-1.015,1.108-2.418,1.108c-1.327,0-2.307-0.538-2.405-1.04l0.002-0.053c0-1.374-1.791-2.449-4.077-2.449
	c-2.049,0-3.7,0.864-4.018,2.064l-0.008,0.161l-0.054,0.239c-0.018,0.523-1.016,1.108-2.418,1.108v0.414v0.499v0.415
	c2.021,0,3.67-0.854,4.011-2.008l0.051-0.191l0.013-0.287c0.044-0.521,1.067-1.088,2.423-1.088c1.307,0,2.252,0.496,2.402,0.987
	l0.003,0.143c0.034,1.353,1.824,2.411,4.075,2.411c2.021,0,3.671-0.854,4.011-2.006l0.053-0.218l0.012-0.262
	c0.043-0.521,1.025-1.088,2.421-1.088c1.395,0,2.378,0.564,2.423,1.086l0.06,0.292l0.025,0.189c0.35,1.146,1.997,1.997,4.007,1.997
	c2.021,0,3.669-0.854,4.012-2.009l0.05-0.206l0.018-0.208l-0.004-0.071c0.054-0.519,1.072-1.08,2.422-1.08
	c1.308,0,2.254,0.497,2.402,0.987l0.004,0.141c0.033,1.354,1.823,2.413,4.075,2.413c0.283,0,0.558-0.021,0.824-0.053v-0.419V39.47
	v-0.418C53.597,39.099,53.323,39.129,53.027,39.129z"/>
<path fill="#5EBF64" d="M53.027,29.129c-1.331,0-2.312-0.54-2.407-1.042l0.003-0.049c0-1.375-1.79-2.451-4.077-2.451
	c-2.049,0-3.7,0.865-4.019,2.064l-0.036,0.177l-0.023,0.225c-0.019,0.524-1.016,1.108-2.419,1.108c-1.402,0-2.399-0.584-2.419-1.108
	l-0.024-0.196l-0.044-0.205c-0.307-1.18-1.966-2.055-4.027-2.055c-2.049,0-3.699,0.867-4.019,2.065l-0.004,0.166l-0.056,0.235
	c-0.018,0.523-1.015,1.108-2.418,1.108c-1.327,0-2.307-0.538-2.405-1.04l0.002-0.053c0-1.374-1.791-2.449-4.077-2.449
	c-2.049,0-3.7,0.864-4.018,2.064l-0.008,0.161l-0.054,0.239c-0.018,0.523-1.016,1.108-2.418,1.108v0.414v0.499v0.415
	c2.021,0,3.67-0.854,4.011-2.008l0.051-0.191l0.013-0.287c0.044-0.521,1.067-1.088,2.423-1.088c1.307,0,2.252,0.496,2.402,0.987
	l0.003,0.143c0.034,1.353,1.824,2.411,4.075,2.411c2.021,0,3.671-0.854,4.011-2.006l0.053-0.218l0.012-0.262
	c0.043-0.521,1.025-1.088,2.421-1.088c1.395,0,2.378,0.564,2.423,1.086l0.06,0.292l0.025,0.189c0.35,1.146,1.997,1.997,4.007,1.997
	c2.021,0,3.669-0.854,4.012-2.009l0.05-0.206l0.018-0.208l-0.004-0.071c0.054-0.519,1.072-1.08,2.422-1.08
	c1.308,0,2.254,0.497,2.402,0.987l0.004,0.141c0.033,1.354,1.823,2.413,4.075,2.413c0.283,0,0.558-0.021,0.824-0.053v-0.419V29.47
	v-0.418C53.597,29.099,53.323,29.129,53.027,29.129z"/>
</svg>
