<?xml version="1.0" encoding="utf-8"?>
<!-- Generator: Adobe Illustrator 15.1.0, SVG Export Plug-In  -->
<!DOCTYPE svg PUBLIC "-//W3C//DTD SVG 1.1//EN" "http://www.w3.org/Graphics/SVG/1.1/DTD/svg11.dtd" [
	<!ENTITY ns_flows "http://ns.adobe.com/Flows/1.0/">
]>
<svg version="1.1"
	 xmlns="http://www.w3.org/2000/svg" xmlns:xlink="http://www.w3.org/1999/xlink" xmlns:a="http://ns.adobe.com/AdobeSVGViewerExtensions/3.0/"
	 x="0px" y="0px" width="70px" height="85px" viewBox="-1.987 -1.55 70 85" enable-background="new -1.987 -1.55 70 85"
	 xml:space="preserve">
<defs>
</defs>
<circle fill="#F21D2F" stroke="#F21D2F" stroke-width="9" stroke-miterlimit="10" cx="32.9" cy="32.9" r="28.4"/>
<path fill="#FFFFFF" d="M32.06,36.147c-7.377-0.871-15.072-0.549-15.148-0.545l-0.037,0.001l-0.038-0.003
	c-0.22-0.011-0.432-0.035-0.64-0.064c2.433,8.222,17.985,6.536,20.799,5.596c4.435-1.478,5.062-5.086,5.062-5.086
	c-0.006-0.006-0.011-0.01-0.018-0.015C39.409,36.564,36.02,36.616,32.06,36.147z"/>
<path fill="#FFC200" d="M12.499,28.325c1.703-0.423,3.411-0.739,5.103-0.967l4.337-4.188c-0.464,0.045-0.928,0.096-1.396,0.148
	C15.684,23.864,13.113,26.127,12.499,28.325z"/>
<path fill="#FFC200" d="M46.668,30.265c-0.028-0.368-0.114-0.739-0.261-1.104c-0.403-0.997-1.541-2.611-4.749-3.867
	c-1.205,0.842-2.944,2.055-3.959,2.765C41.751,28.799,44.911,29.707,46.668,30.265z"/>
<path fill="#FFC200" d="M35.582,27.702l4.297-3.001c-0.597-0.169-1.247-0.326-1.957-0.469c-1.942-0.387-3.66-0.671-5.211-0.875
	c-1.003,0.921-2.818,2.585-3.95,3.625C31.249,27.122,33.556,27.391,35.582,27.702z"/>
<path fill="#FFC200" d="M37.606,29.575c0.846,1.521,2.273,4.087,2.888,5.193c0.427-0.058,0.84-0.124,1.233-0.204
	c2.171-0.437,3.697-1.216,4.415-2.253c0.117-0.167,0.214-0.349,0.294-0.538C44.798,31.247,41.643,30.324,37.606,29.575z"/>
<path fill="#FFC200" d="M20.048,27.091c2.26-0.198,4.472-0.249,6.579-0.196l4.103-3.764c-2.483-0.237-4.527-0.25-6.434-0.145
	C24.02,23.252,21.423,25.759,20.048,27.091z"/>
<path fill="#FFC200" d="M26.466,28.397c-2.098-0.047-4.297,0.007-6.543,0.212c1.147,1.581,3.383,4.656,3.976,5.472
	c1.97,0.054,4.192,0.165,6.449,0.374L26.466,28.397z"/>
<path fill="#FFC200" d="M22.011,34.044l-3.813-5.247c-1.924,0.244-3.872,0.603-5.809,1.109c0.011,0.071,0.022,0.142,0.035,0.213
	c0.307,1.686,1.622,3.806,4.471,3.976C17.221,34.083,19.212,34.011,22.011,34.044z"/>
<path fill="#FFC200" d="M35.701,29.246c-2.165-0.344-4.676-0.642-7.403-0.782c1.021,1.595,3.307,5.165,3.967,6.192
	c2.457,0.291,4.661,0.377,6.591,0.264L35.701,29.246z"/>
<path fill="#FFC200" d="M48.447,30.77c0.894-0.14,2.608-0.511,4.612-0.394c2.118,0.125,4.392,0.586,4.135,2.242
	c-0.26,1.694-2.057,1.548-3.271,1.214c0,0,2.675,1.148,1.635,2.921c-0.625,1.068-2.431,0.955-4.541-0.729
	c-2.266-1.81-3.213-3.433-3.213-3.433S48.267,31.866,48.447,30.77z"/>
<path fill="#F21D2F" d="M4.5,32.9l28.8,48.8l28-48.8c0,0-3,27-28,28.4S4.5,32.9,4.5,32.9z"/>
</svg>
