<?xml version="1.0" encoding="UTF-8" standalone="no"?>
<!-- Created with Inkscape (http://www.inkscape.org/) -->

<svg
   xmlns:dc="http://purl.org/dc/elements/1.1/"
   xmlns:cc="http://creativecommons.org/ns#"
   xmlns:rdf="http://www.w3.org/1999/02/22-rdf-syntax-ns#"
   xmlns:svg="http://www.w3.org/2000/svg"
   xmlns="http://www.w3.org/2000/svg"
   version="1.1"
   width="70"
   height="85"
   viewBox="-1.987 -1.55 70 85"
   id="svg2"
   xml:space="preserve"><metadata
     id="metadata32"><rdf:RDF><cc:Work
         rdf:about=""><dc:format>image/svg+xml</dc:format><dc:type
           rdf:resource="http://purl.org/dc/dcmitype/StillImage" /><dc:title></dc:title></cc:Work></rdf:RDF></metadata><defs
     id="defs4" /><circle
     cx="32.900002"
     cy="32.900002"
     r="28.4"
     id="circle6"
     style="fill:#f21d2f;stroke:#f21d2f;stroke-width:9;stroke-miterlimit:10" /><path
     d="M 32.06,36.147 C 24.683,35.276 16.988,35.598 16.912,35.602 L 16.875,35.603 16.837,35.6 c -0.22,-0.011 -0.432,-0.035 -0.64,-0.064 2.433,8.222 17.985,6.536 20.799,5.596 4.435,-1.478 5.062,-5.086 5.062,-5.086 -0.006,-0.006 -0.011,-0.01 -0.018,-0.015 -2.631,0.533 -6.02,0.585 -9.98,0.116 z"
     id="path8"
     style="fill:#ffffff" /><path
     d="m 12.499,28.325 c 1.703,-0.423 3.411,-0.739 5.103,-0.967 l 4.337,-4.188 c -0.464,0.045 -0.928,0.096 -1.396,0.148 -4.859,0.546 -7.43,2.809 -8.044,5.007 z"
     id="path10"
     style="fill:#ffc200" /><path
     d="m 46.668,30.265 c -0.028,-0.368 -0.114,-0.739 -0.261,-1.104 -0.403,-0.997 -1.541,-2.611 -4.749,-3.867 -1.205,0.842 -2.944,2.055 -3.959,2.765 4.052,0.74 7.212,1.648 8.969,2.206 z"
     id="path12"
     style="fill:#ffc200" /><path
     d="m 35.582,27.702 4.297,-3.001 c -0.597,-0.169 -1.247,-0.326 -1.957,-0.469 -1.942,-0.387 -3.66,-0.671 -5.211,-0.875 -1.003,0.921 -2.818,2.585 -3.95,3.625 2.488,0.14 4.795,0.409 6.821,0.72 z"
     id="path14"
     style="fill:#ffc200" /><path
     d="m 37.606,29.575 c 0.846,1.521 2.273,4.087 2.888,5.193 0.427,-0.058 0.84,-0.124 1.233,-0.204 2.171,-0.437 3.697,-1.216 4.415,-2.253 0.117,-0.167 0.214,-0.349 0.294,-0.538 -1.638,-0.526 -4.793,-1.449 -8.83,-2.198 z"
     id="path16"
     style="fill:#ffc200" /><path
     d="m 20.048,27.091 c 2.26,-0.198 4.472,-0.249 6.579,-0.196 l 4.103,-3.764 c -2.483,-0.237 -4.527,-0.25 -6.434,-0.145 -0.276,0.266 -2.873,2.773 -4.248,4.105 z"
     id="path18"
     style="fill:#ffc200" /><path
     d="m 26.466,28.397 c -2.098,-0.047 -4.297,0.007 -6.543,0.212 1.147,1.581 3.383,4.656 3.976,5.472 1.97,0.054 4.192,0.165 6.449,0.374 l -3.882,-6.058 z"
     id="path20"
     style="fill:#ffc200" /><path
     d="m 22.011,34.044 -3.813,-5.247 c -1.924,0.244 -3.872,0.603 -5.809,1.109 0.011,0.071 0.022,0.142 0.035,0.213 0.307,1.686 1.622,3.806 4.471,3.976 0.326,-0.012 2.317,-0.084 5.116,-0.051 z"
     id="path22"
     style="fill:#ffc200" /><path
     d="m 35.701,29.246 c -2.165,-0.344 -4.676,-0.642 -7.403,-0.782 1.021,1.595 3.307,5.165 3.967,6.192 2.457,0.291 4.661,0.377 6.591,0.264 l -3.155,-5.674 z"
     id="path24"
     style="fill:#ffc200" /><path
     d="m 48.447,30.77 c 0.894,-0.14 2.608,-0.511 4.612,-0.394 2.118,0.125 4.392,0.586 4.135,2.242 -0.26,1.694 -2.057,1.548 -3.271,1.214 0,0 2.675,1.148 1.635,2.921 -0.625,1.068 -2.431,0.955 -4.541,-0.729 -2.266,-1.81 -3.213,-3.433 -3.213,-3.433 0,0 0.463,-0.725 0.643,-1.821 z"
     id="path26"
     style="fill:#ffc200" /><path
     d="m 4.5,32.9 28.8,48.8 28,-48.8 c 0,0 -3,27 -28,28.4 C 8.3,62.7 4.5,32.9 4.5,32.9 z"
     id="path28"
     style="fill:#f21d2f" /></svg>