<?xml version="1.0" encoding="utf-8"?>
<!-- Generator: Adobe Illustrator 16.0.4, SVG Export Plug-In . SVG Version: 6.00 Build 0)  -->
<!DOCTYPE svg PUBLIC "-//W3C//DTD SVG 1.1//EN" "http://www.w3.org/Graphics/SVG/1.1/DTD/svg11.dtd">
<svg version="1.1" id="Layer_1" xmlns="http://www.w3.org/2000/svg" xmlns:xlink="http://www.w3.org/1999/xlink" x="0px" y="0px"
	 width="64px" height="64px" viewBox="0 0 64 64" enable-background="new 0 0 64 64" xml:space="preserve">
<g>
	<path fill="#9ECEF8" d="M23.406,48.082l-5.715,5.316c-0.721,0.621-1.184,1.52-1.184,2.531c0,1.867,1.545,3.385,3.449,3.385
		c1.906,0,3.45-1.518,3.45-3.385C23.406,55.917,23.406,48.082,23.406,48.082z"/>
</g>
<path fill="#FFFFFF" d="M40.669,47.548c-0.034-0.063-0.101-0.103-0.173-0.103h-0.001l-4.774,0.014l4.461-8.723
	c0.031-0.061,0.028-0.129-0.008-0.188c-0.035-0.057-0.098-0.09-0.166-0.09h-8.287c-0.081,0-0.156,0.049-0.183,0.123l-5.065,13.266
	c-0.023,0.059-0.015,0.125,0.021,0.176c0.037,0.052,0.096,0.082,0.16,0.082h5.738l-2.703,10.658
	c-0.024,0.09,0.022,0.182,0.108,0.219C29.824,62.995,29.85,63,29.877,63c0.062,0,0.124-0.029,0.161-0.082l10.619-15.174
	C40.698,47.686,40.703,47.609,40.669,47.548z"/>
<path fill="#FFFFFF" d="M56.592,35.749c-0.152-2.787-1.146-5.105-2.951-6.891c-2.123-2.097-4.72-2.739-5.578-2.9
	c-0.021-2.672-1.071-5.208-3.035-7.34c-2.688-2.925-6.774-4.672-10.928-4.672c-3.853,0-7.778,1.818-10.5,4.862
	c-2.108,2.358-3.261,5.163-3.253,7.907c-4.999,0.696-8.758,4.664-8.758,9.262c0,2.344,0.701,4.771,1.923,6.652
	c1.157,1.783,2.627,2.848,3.932,2.85h0.001l4.068-0.004l2.714-2.336l-6.78,0.004c-1.008-0.002-3.477-3.104-3.477-7.168
	c0-3.681,3.5-6.898,7.641-7.03h1.356l-0.177-1.317c-0.324-2.419,0.624-5.073,2.601-7.282c2.276-2.546,5.534-4.067,8.71-4.067
	c3.489,0,6.916,1.459,9.162,3.901c1.783,1.942,2.627,4.323,2.375,6.707l-0.072,1.281h1.312c0.705,0,3.146,0.43,5.073,2.333
	c1.534,1.521,2.303,3.586,2.28,6.138l-0.012,1.178l1.047-0.002l0.178,0.037c1.261,0.26,2.174,1.36,2.174,2.612
	c0,1.111-0.408,2.127-0.669,2.664l-9.537,0.005l-2.806,2.336l13.69-0.007l0.354-0.528c0.138-0.209,1.346-2.109,1.346-4.47
	C60,38.348,58.634,36.461,56.592,35.749z"/>
</svg>
