<?xml version="1.0" encoding="UTF-8" standalone="no"?>
<!-- Generator: Adobe Illustrator 16.0.0, SVG Export Plug-In . SVG Version: 6.00 Build 0)  -->

<svg
   xmlns:dc="http://purl.org/dc/elements/1.1/"
   xmlns:cc="http://creativecommons.org/ns#"
   xmlns:rdf="http://www.w3.org/1999/02/22-rdf-syntax-ns#"
   xmlns:svg="http://www.w3.org/2000/svg"
   xmlns="http://www.w3.org/2000/svg"
   xmlns:sodipodi="http://sodipodi.sourceforge.net/DTD/sodipodi-0.dtd"
   xmlns:inkscape="http://www.inkscape.org/namespaces/inkscape"
   version="1.1"
   id="Layer_1"
   x="0px"
   y="0px"
   width="64px"
   height="64px"
   viewBox="0 0 64 64"
   enable-background="new 0 0 64 64"
   xml:space="preserve"
   inkscape:version="0.48.4 r9939"
   sodipodi:docname="light-rain.svg"><metadata
     id="metadata21"><rdf:RDF><cc:Work
         rdf:about=""><dc:format>image/svg+xml</dc:format><dc:type
           rdf:resource="http://purl.org/dc/dcmitype/StillImage" /></cc:Work></rdf:RDF></metadata><defs
     id="defs19" /><sodipodi:namedview
     pagecolor="#ffffff"
     bordercolor="#666666"
     borderopacity="1"
     objecttolerance="10"
     gridtolerance="10"
     guidetolerance="10"
     inkscape:pageopacity="0"
     inkscape:pageshadow="2"
     inkscape:window-width="1600"
     inkscape:window-height="852"
     id="namedview17"
     showgrid="false"
     inkscape:zoom="3.9179687"
     inkscape:cx="2.0099701"
     inkscape:cy="32"
     inkscape:window-x="0"
     inkscape:window-y="24"
     inkscape:window-maximized="0"
     inkscape:current-layer="Layer_1" /><g
     id="g3"><path
       fill="#9ECEF8"
       d="M30.185,29.642l-6.613,6.217c-0.834,0.724-1.371,1.774-1.371,2.957c0,2.186,1.787,3.955,3.993,3.955   c2.203,0,3.991-1.771,3.991-3.955C30.185,38.801,30.185,29.642,30.185,29.642z"
       id="path5" /></g><g
     id="g7"><path
       fill="#9ECEF8"
       d="M40.165,34.311l-6.613,6.217c-0.835,0.725-1.371,1.775-1.371,2.957c0,2.187,1.788,3.957,3.991,3.957   c2.205,0,3.993-1.771,3.993-3.957C40.165,43.471,40.165,34.311,40.165,34.311z"
       id="path9" /></g><g
     id="g11"><path
       fill="#9ECEF8"
       d="M29.335,45.039l-6.613,6.219c-0.834,0.725-1.371,1.775-1.371,2.958c0,2.187,1.787,3.955,3.993,3.955   c2.203,0,3.991-1.769,3.991-3.955C29.335,54.199,29.335,45.039,29.335,45.039z"
       id="path13" /></g><path
     fill="#FFFFFF"
     d="M56.169,31.465c-0.179-3.272-1.332-5.991-3.427-8.084c-2.461-2.46-5.48-3.213-6.479-3.403  c-0.027-3.132-1.244-6.108-3.521-8.61c-3.124-3.432-7.867-5.482-12.689-5.482c-4.473,0-9.031,2.132-12.193,5.704  c-2.447,2.764-3.786,6.054-3.777,9.275c-5.804,0.816-10.17,5.472-10.17,10.867c0,5.999,3.738,11.143,6.799,11.146h0.002l3.869-0.003  l3.15-2.739l-7.021,0.007c-1.171-0.002-4.038-3.644-4.038-8.41c0-4.32,4.065-8.097,8.873-8.248h1.575l-0.205-1.546  c-0.376-2.837,0.724-5.951,3.019-8.543c2.645-2.988,6.427-4.772,10.116-4.772c4.054,0,8.031,1.711,10.64,4.577  c2.07,2.277,3.052,5.069,2.759,7.867l-0.083,1.504h1.525c0.817,0,3.653,0.503,5.889,2.737c1.783,1.784,2.676,4.206,2.65,7.202  l-0.013,1.38l1.214-0.002l0.207,0.043c1.461,0.308,2.523,1.596,2.523,3.065c0,1.299-0.475,2.494-0.778,3.126l-8.524,0.004  l-3.256,2.739l13.35-0.007l0.408-0.619c0.063-0.098,1.563-2.397,1.563-5.243C60.126,34.514,58.538,32.3,56.169,31.465z"
     id="path15"
     style="fill:#1f2022;fill-opacity:1" /></svg>