<?xml version="1.0" encoding="UTF-8" standalone="no"?>
<!-- Generator: Adobe Illustrator 16.0.0, SVG Export Plug-In . SVG Version: 6.00 Build 0)  -->

<svg
   xmlns:dc="http://purl.org/dc/elements/1.1/"
   xmlns:cc="http://creativecommons.org/ns#"
   xmlns:rdf="http://www.w3.org/1999/02/22-rdf-syntax-ns#"
   xmlns:svg="http://www.w3.org/2000/svg"
   xmlns="http://www.w3.org/2000/svg"
   xmlns:sodipodi="http://sodipodi.sourceforge.net/DTD/sodipodi-0.dtd"
   xmlns:inkscape="http://www.inkscape.org/namespaces/inkscape"
   version="1.1"
   id="Layer_1"
   x="0px"
   y="0px"
   width="64px"
   height="64px"
   viewBox="0 0 64 64"
   enable-background="new 0 0 64 64"
   xml:space="preserve"
   inkscape:version="0.48.4 r9939"
   sodipodi:docname="mostly-cloudy-n.svg"><metadata
     id="metadata9"><rdf:RDF><cc:Work
         rdf:about=""><dc:format>image/svg+xml</dc:format><dc:type
           rdf:resource="http://purl.org/dc/dcmitype/StillImage" /></cc:Work></rdf:RDF></metadata><defs
     id="defs7" /><sodipodi:namedview
     pagecolor="#ffffff"
     bordercolor="#666666"
     borderopacity="1"
     objecttolerance="10"
     gridtolerance="10"
     guidetolerance="10"
     inkscape:pageopacity="0"
     inkscape:pageshadow="2"
     inkscape:window-width="1600"
     inkscape:window-height="852"
     id="namedview5"
     showgrid="false"
     inkscape:zoom="3.6875"
     inkscape:cx="-15.728814"
     inkscape:cy="32"
     inkscape:window-x="0"
     inkscape:window-y="24"
     inkscape:window-maximized="0"
     inkscape:current-layer="Layer_1" /><path
     fill="#FFFFFF"
     d="M57.311,35.829c-0.175-2.009-0.942-3.736-2.229-5.005c-1.199-1.184-2.548-1.702-3.356-1.92  c-0.113-1.916-0.89-3.722-2.259-5.233c-1.866-2.065-4.651-3.296-7.452-3.296c-1.536,0-3.097,0.439-4.511,1.247  c-0.214-0.28-0.441-0.555-0.683-0.823c-2.674-2.972-6.734-4.744-10.862-4.744c-3.833,0-7.738,1.846-10.446,4.937  c-2.06,2.35-3.203,5.144-3.238,7.89c-4.92,0.769-8.602,4.79-8.602,9.438c0,5.226,3.261,9.703,5.931,9.703l40.215-0.018l0.397-0.609  c0.052-0.076,1.104-1.727,1.308-3.879h6.691l0.396-0.637c0.1-0.158,0.959-1.6,0.959-3.398C59.57,37.914,58.688,36.496,57.311,35.829  z M15.026,29.932c-0.311-2.373,0.603-4.983,2.51-7.158c2.204-2.514,5.352-4.016,8.42-4.016c3.376,0,6.688,1.44,8.862,3.852  c1.718,1.908,2.529,4.244,2.285,6.593l-0.076,1.474h1.479c0.675,0,3.003,0.42,4.853,2.285c1.475,1.489,2.209,3.517,2.188,6.026  l-0.01,1.359l1.18-0.006l0.166,0.034c1.154,0.246,1.99,1.272,1.99,2.446c0,1.008-0.344,1.945-0.592,2.488L9.602,45.324  c-0.781,0-3.235-2.903-3.235-7.002c0-3.596,3.356-6.739,7.329-6.867l1.53,0.003L15.026,29.932z M38.88,23.938  c0.998-0.562,2.08-0.867,3.134-0.867c2.051,0,4.092,0.902,5.457,2.41c1.151,1.275,1.702,2.852,1.545,4.437l-0.148,1.516l1.578-0.035  c0.434,0,1.725,0.34,2.746,1.348c0.983,0.97,1.476,2.333,1.463,4.053l-0.014,1.363l1.176-0.01l0.072,0.018  c0.57,0.126,0.984,0.68,0.984,1.312c0,0.508-0.127,0.982-0.26,1.334L51.15,40.82c-0.541-1.287-1.579-2.339-2.938-2.856  c-0.171-2.787-1.16-5.11-2.939-6.906c-2.01-2.03-4.453-2.722-5.432-2.929C39.812,26.677,39.479,25.268,38.88,23.938z"
     id="path3"
     style="fill:#1f2022;fill-opacity:1" /></svg>