<?xml version="1.0" encoding="UTF-8" standalone="no"?>
<!-- Generator: Adobe Illustrator 16.0.0, SVG Export Plug-In . SVG Version: 6.00 Build 0)  -->

<svg
   xmlns:dc="http://purl.org/dc/elements/1.1/"
   xmlns:cc="http://creativecommons.org/ns#"
   xmlns:rdf="http://www.w3.org/1999/02/22-rdf-syntax-ns#"
   xmlns:svg="http://www.w3.org/2000/svg"
   xmlns="http://www.w3.org/2000/svg"
   xmlns:sodipodi="http://sodipodi.sourceforge.net/DTD/sodipodi-0.dtd"
   xmlns:inkscape="http://www.inkscape.org/namespaces/inkscape"
   version="1.1"
   id="Layer_1"
   x="0px"
   y="0px"
   width="64px"
   height="64px"
   viewBox="0 0 64 64"
   enable-background="new 0 0 64 64"
   xml:space="preserve"
   inkscape:version="0.48.4 r9939"
   sodipodi:docname="partly-cloudy.svg"><metadata
     id="metadata31"><rdf:RDF><cc:Work
         rdf:about=""><dc:format>image/svg+xml</dc:format><dc:type
           rdf:resource="http://purl.org/dc/dcmitype/StillImage" /></cc:Work></rdf:RDF></metadata><defs
     id="defs29" /><sodipodi:namedview
     pagecolor="#ffffff"
     bordercolor="#666666"
     borderopacity="1"
     objecttolerance="10"
     gridtolerance="10"
     guidetolerance="10"
     inkscape:pageopacity="0"
     inkscape:pageshadow="2"
     inkscape:window-width="1600"
     inkscape:window-height="852"
     id="namedview27"
     showgrid="false"
     inkscape:zoom="6.453125"
     inkscape:cx="6.6464863"
     inkscape:cy="32"
     inkscape:window-x="0"
     inkscape:window-y="24"
     inkscape:window-maximized="0"
     inkscape:current-layer="Layer_1" /><g
     id="g3"
     style="fill:#1f2022;fill-opacity:1"><path
       fill="#FFFFFF"
       d="M35.046,52.014h-0.003c-2.016-0.002-3.916-2.945-3.916-6.059c0-2.807,2.169-5.221,5.035-5.83   c0.111-1.562,0.806-3.143,1.986-4.479c1.662-1.879,4.069-3.004,6.436-3.004c2.535,0,5.033,1.08,6.68,2.891   c1.106,1.217,1.748,2.671,1.863,4.181c0.928,0.242,2.076,0.757,3.05,1.729c1.042,1.041,1.665,2.412,1.823,3.998   c1.186,0.565,1.982,1.771,1.982,3.113c0,1.537-0.775,2.758-0.863,2.894l-0.369,0.557L35.046,52.014z M37.43,42.443   c-2.062,0.064-3.816,1.675-3.816,3.512c0,1.965,1.082,3.398,1.496,3.593l22.192-0.011c0.104-0.271,0.194-0.618,0.194-0.98   c0-0.466-0.338-0.873-0.799-0.972l-0.037-0.008h-1.115l0.012-1.243c0.012-1.323-0.375-2.389-1.146-3.157   c-0.978-0.975-2.244-1.187-2.509-1.187h-1.377l0.108-1.358c0.128-1.219-0.308-2.442-1.223-3.448   c-1.181-1.301-2.987-2.076-4.83-2.076c-1.659,0-3.367,0.812-4.565,2.166c-1.025,1.158-1.521,2.535-1.355,3.778l0.184,1.392H37.43   L37.43,42.443z"
       id="path5"
       style="fill:#1f2022;fill-opacity:1" /></g><g
     id="g7"
     style="fill:#ffc200;fill-opacity:1"><path
       fill="#EECF37"
       d="M27.855,10.138c0-0.731-0.597-1.327-1.332-1.327c-0.628,0-1.154,0.432-1.293,1.021h-0.045v7.153h2.665   L27.855,10.138z M27.585,10.174L27.585,10.174L27.585,10.174L27.585,10.174z"
       id="path9"
       style="fill:#ffc200;fill-opacity:1" /><path
       fill="#EECF37"
       d="M12.147,14.88l4.249,5.795l2.156-1.553l-4.019-5.481l-0.035-0.06c-0.419-0.57-1.291-0.711-1.866-0.298   c-0.506,0.364-0.677,1.015-0.445,1.571L12.147,14.88z M14.298,13.765C14.298,13.765,14.298,13.765,14.298,13.765L14.298,13.765   L14.298,13.765z"
       id="path11"
       style="fill:#ffc200;fill-opacity:1" /><path
       fill="#EECF37"
       d="M4.647,26.385l-0.012,0.042l6.855,2.207l0.822-2.513l-6.5-2.093L5.746,24   c-0.691-0.224-1.464,0.168-1.686,0.845C3.864,25.441,4.12,26.074,4.647,26.385z"
       id="path13"
       style="fill:#ffc200;fill-opacity:1" /><path
       fill="#EECF37"
       d="M11.7,35.461l-6.491,2.094l0.031,0.263h0l-0.11-0.244C4.426,37.8,4.039,38.549,4.266,39.24   c0.179,0.544,0.688,0.908,1.269,0.908c0.048,0,0.096-0.002,0.144-0.008l0.017,0.032l6.828-2.198L11.7,35.461z"
       id="path15"
       style="fill:#ffc200;fill-opacity:1" /><path
       fill="#EECF37"
       d="M12.386,49.105l0.186,0.185l0,0l-0.235-0.133c-0.211,0.288-0.296,0.639-0.24,0.991   c0.056,0.347,0.244,0.651,0.532,0.86c0.226,0.162,0.495,0.248,0.776,0.248c0.342,0,0.665-0.125,0.911-0.353l0.033,0.014l4.21-5.742   l-2.157-1.555L12.386,49.105z"
       id="path17"
       style="fill:#ffc200;fill-opacity:1" /><path
       fill="#EECF37"
       d="M25.083,54.049c0,0.73,0.598,1.329,1.334,1.329c0.638,0,1.17-0.444,1.299-1.047l0.039-0.006v-7.122H25.09   L25.083,54.049z"
       id="path19"
       style="fill:#ffc200;fill-opacity:1" /><path
       fill="#EECF37"
       d="M48.674,24.952c-0.195-0.593-0.801-0.966-1.424-0.902l-0.02-0.031l-6.815,2.196l0.823,2.511l6.492-2.092   l-0.028-0.263l0.108,0.246C48.512,26.391,48.9,25.644,48.674,24.952z M47.699,26.371L47.699,26.371L47.699,26.371L47.699,26.371z"
       id="path21"
       style="fill:#ffc200;fill-opacity:1" /><path
       fill="#EECF37"
       d="M40.553,15.083l0.047-0.052c0.211-0.286,0.297-0.637,0.244-0.986c-0.056-0.349-0.244-0.657-0.533-0.864   c-0.5-0.361-1.227-0.312-1.676,0.091l-0.033-0.018l-4.222,5.759l2.157,1.552L40.553,15.083z"
       id="path23"
       style="fill:#ffc200;fill-opacity:1" /><path
       fill="#EECF37"
       d="M26.398,20.414c-6.531,0-11.844,5.267-11.844,11.741c0,6.474,5.314,11.74,11.844,11.74   c0.914,0,1.857-0.115,2.805-0.344l0.164-0.039l0.035-0.162c0.206-0.983,0.706-1.901,1.451-2.664l-0.312-0.418   c-1.305,0.657-2.699,0.989-4.145,0.989c-5.06,0-9.179-4.083-9.179-9.101c0-5.018,4.118-9.1,9.179-9.1   c5.063,0,9.182,4.082,9.182,9.1c0,0.914-0.137,1.82-0.408,2.688l0.473,0.229c0.205-0.289,0.385-0.517,0.562-0.72   c0.539-0.609,1.175-1.146,1.896-1.596l0.116-0.074l0.017-0.291c0.004-0.079,0.01-0.158,0.01-0.238   C38.244,25.682,32.932,20.414,26.398,20.414z"
       id="path25"
       style="fill:#ffc200;fill-opacity:1" /></g></svg>