<?xml version="1.0" encoding="UTF-8" standalone="no"?>
<!-- Generator: Adobe Illustrator 16.0.0, SVG Export Plug-In . SVG Version: 6.00 Build 0)  -->

<svg
   xmlns:dc="http://purl.org/dc/elements/1.1/"
   xmlns:cc="http://creativecommons.org/ns#"
   xmlns:rdf="http://www.w3.org/1999/02/22-rdf-syntax-ns#"
   xmlns:svg="http://www.w3.org/2000/svg"
   xmlns="http://www.w3.org/2000/svg"
   xmlns:sodipodi="http://sodipodi.sourceforge.net/DTD/sodipodi-0.dtd"
   xmlns:inkscape="http://www.inkscape.org/namespaces/inkscape"
   version="1.1"
   id="Layer_1"
   x="0px"
   y="0px"
   width="64px"
   height="64px"
   viewBox="0 0 64 64"
   enable-background="new 0 0 64 64"
   xml:space="preserve"
   inkscape:version="0.48.4 r9939"
   sodipodi:docname="scattered-thunderstorms.svg"><metadata
     id="metadata29"><rdf:RDF><cc:Work
         rdf:about=""><dc:format>image/svg+xml</dc:format><dc:type
           rdf:resource="http://purl.org/dc/dcmitype/StillImage" /></cc:Work></rdf:RDF></metadata><defs
     id="defs27" /><sodipodi:namedview
     pagecolor="#ffffff"
     bordercolor="#666666"
     borderopacity="1"
     objecttolerance="10"
     gridtolerance="10"
     guidetolerance="10"
     inkscape:pageopacity="0"
     inkscape:pageshadow="2"
     inkscape:window-width="956"
     inkscape:window-height="848"
     id="namedview25"
     showgrid="false"
     inkscape:zoom="10.054199"
     inkscape:cx="12.75431"
     inkscape:cy="24.043126"
     inkscape:window-x="0"
     inkscape:window-y="24"
     inkscape:window-maximized="0"
     inkscape:current-layer="Layer_1" /><g
     id="g3"
     style="fill:#ffc200;fill-opacity:1"><path
       fill="#EECF37"
       d="M21.767,2.308c0.001,0.031,0.005,0.061,0.013,0.106l0.117,5.208l2.814-0.06l-0.12-5.43l-0.049-0.178h-0.027   c-0.15-0.607-0.706-1.046-1.382-1.046c-0.669,0.015-1.219,0.486-1.337,1.121l-0.03,0.003l0.006,0.185   C21.769,2.246,21.766,2.277,21.767,2.308z"
       id="path5"
       style="fill:#ffc200;fill-opacity:1" /><path
       fill="#EECF37"
       d="M10.929,6.667l0.096,0.124c0.016,0.027,0.03,0.055,0.05,0.08c0.021,0.026,0.043,0.048,0.078,0.081   l3.211,4.144l2.242-1.673L13.255,5.1L13.11,4.981l-0.022,0.017c-0.483-0.403-1.236-0.429-1.746-0.049   c-0.539,0.403-0.699,1.116-0.399,1.7L10.929,6.667z"
       id="path7"
       style="fill:#ffc200;fill-opacity:1" /><path
       fill="#EECF37"
       d="M4.882,16.605v0.025l0.156,0.045c0.026,0.011,0.054,0.023,0.083,0.032c0.03,0.008,0.057,0.013,0.1,0.019   l5.092,1.502l0.811-2.648l-5.3-1.563l-0.188-0.01l-0.008,0.024c-0.657-0.053-1.254,0.352-1.443,0.967   C3.99,15.635,4.288,16.304,4.882,16.605z"
       id="path9"
       style="fill:#ffc200;fill-opacity:1" /><path
       fill="#EECF37"
       d="M5.304,25.463l-0.158,0.1l0.009,0.024c-0.556,0.335-0.806,1.001-0.587,1.615   c0.194,0.548,0.722,0.915,1.315,0.915c0.112,0,0.224-0.013,0.369-0.049c0.032-0.006,0.064-0.013,0.095-0.025   c0.032-0.01,0.061-0.024,0.103-0.046l5.006-1.716l-0.928-2.609L5.304,25.463z"
       id="path11"
       style="fill:#ffc200;fill-opacity:1" /><path
       fill="#EECF37"
       d="M35.084,4.48c-0.232-0.161-0.511-0.245-0.795-0.245c-0.46,0-0.889,0.22-1.15,0.591   c-0.021,0.028-0.037,0.059-0.059,0.105l-3.018,4.268l2.313,1.576l3.157-4.462l0.065-0.174l-0.021-0.016   C35.825,5.533,35.629,4.85,35.084,4.48z"
       id="path13"
       style="fill:#ffc200;fill-opacity:1" /><path
       fill="#EECF37"
       d="M28.383,11.561c-2.121-1.037-4.63-1.302-6.922-0.733c-2.593,0.645-4.777,2.245-6.15,4.507   c-1.372,2.261-1.766,4.908-1.109,7.453c0.242,0.936,0.74,2.024,1.367,2.984l0.081,0.125l1.012-0.394l1.216-0.364l-0.126-0.199   c-0.436-0.683-0.838-1.879-1.068-2.77c-0.49-1.895-0.197-3.865,0.826-5.55c1.022-1.684,2.648-2.876,4.58-3.356   c1.325-0.329,3.08-0.232,4.48,0.239l0.06,0.021l3.272-1.159l-1.007-0.553L28.383,11.561z"
       id="path15"
       style="fill:#ffc200;fill-opacity:1" /></g><path
     fill="#FFFFFF"
     d="M56.533,35.814c-0.164-2.785-1.166-5.104-2.975-6.891c-2.076-2.058-4.615-2.727-5.549-2.912  c-0.042-2.666-1.097-5.196-3.055-7.327c-2.705-2.945-6.812-4.703-10.989-4.703c-3.875,0-7.823,1.83-10.562,4.893  c-2.101,2.351-3.26,5.147-3.273,7.89c-5.001,0.732-8.753,4.72-8.753,9.34c0,5.162,3.268,9.588,5.944,9.59h0.001l4.798-0.002  l2.065-2.514l-6.862,0.004c-0.819-0.002-3.385-2.938-3.385-7.078c0-3.637,3.459-6.813,7.545-6.94h1.46l-0.191-1.42  c-0.32-2.392,0.619-5.021,2.576-7.211c2.26-2.529,5.489-4.038,8.637-4.038c3.464,0,6.86,1.448,9.089,3.872  c1.766,1.922,2.603,4.278,2.35,6.642l-0.075,1.377h1.413c0.691,0,3.098,0.423,5.002,2.307c1.52,1.502,2.275,3.546,2.254,6.076  l-0.014,1.269l1.121-0.004l0.18,0.034c1.216,0.255,2.097,1.315,2.097,2.525c0,1.057-0.378,2.031-0.638,2.574l-9.514,0.004  l-3.021,2.516l13.994-0.006l0.379-0.567c0.056-0.082,1.358-2.068,1.358-4.521C59.941,38.461,58.579,36.555,56.533,35.814z   M17.323,45.518L17.323,45.518L17.323,45.518L17.323,45.518z"
     id="path17"
     style="fill:#1f2022;fill-opacity:1" /><g
     id="g19"><path
       fill="#9ECEF8"
       d="M23.324,48.096l-5.691,5.299c-0.719,0.616-1.18,1.516-1.18,2.521c0,1.863,1.538,3.371,3.435,3.371   c1.896,0,3.436-1.508,3.436-3.371C23.324,55.904,23.324,48.096,23.324,48.096z"
       id="path21" /></g><path
     fill="#FFFFFF"
     d="M40.514,47.562c-0.035-0.064-0.102-0.104-0.173-0.104l-4.756,0.016l4.44-8.695  c0.033-0.059,0.029-0.129-0.006-0.187c-0.035-0.057-0.101-0.091-0.166-0.091h-8.254c-0.08,0-0.151,0.053-0.179,0.125l-5.044,13.219  c-0.022,0.059-0.014,0.122,0.021,0.176c0.037,0.052,0.097,0.082,0.161,0.082h5.711l-2.69,10.623  c-0.022,0.09,0.024,0.183,0.109,0.219c0.027,0.013,0.053,0.017,0.08,0.017c0.061,0,0.122-0.028,0.159-0.082l10.574-15.123  C40.543,47.7,40.547,47.624,40.514,47.562z"
     id="path23"
     style="fill:#1f2022;fill-opacity:1" /></svg>