<?xml version="1.0" encoding="utf-8"?>
<!-- Generator: Adobe Illustrator 16.0.0, SVG Export Plug-In . SVG Version: 6.00 Build 0)  -->
<!DOCTYPE svg PUBLIC "-//W3C//DTD SVG 1.1//EN" "http://www.w3.org/Graphics/SVG/1.1/DTD/svg11.dtd">
<svg version="1.1" id="Layer_1" xmlns="http://www.w3.org/2000/svg" xmlns:xlink="http://www.w3.org/1999/xlink" x="0px" y="0px"
	 width="64px" height="64px" viewBox="0 0 64 64" enable-background="new 0 0 64 64" xml:space="preserve">
<polygon fill="#9ECEF8" points="33.443,33.389 29.874,47.169 40.585,33.389 "/>
<polygon fill="#9ECEF8" points="38.493,42.207 34.924,55.986 45.634,42.207 "/>
<polygon fill="#9ECEF8" points="21.046,42.207 17.476,55.986 28.186,42.207 "/>
<path fill="#FFFFFF" d="M56.018,33.674c-0.177-3.251-1.322-5.953-3.401-8.032c-2.445-2.444-5.444-3.193-6.435-3.381
	c-0.027-3.113-1.234-6.069-3.498-8.556c-3.103-3.41-7.813-5.446-12.603-5.446c-4.441,0-8.968,2.118-12.108,5.668
	c-2.43,2.745-3.76,6.015-3.75,9.216c-5.765,0.81-10.101,5.436-10.101,10.794c0,5.963,3.712,11.073,6.752,11.076h0.001l2.999-0.004
	l3.128-2.723l-6.128,0.006c-1.162-0.001-4.01-3.62-4.01-8.355c0-4.291,4.036-8.042,8.812-8.192h1.563l-0.204-1.537
	c-0.373-2.819,0.72-5.912,2.999-8.487c2.628-2.97,6.382-4.742,10.046-4.742c4.025,0,7.975,1.7,10.566,4.548
	c2.057,2.261,3.03,5.035,2.74,7.816l-0.085,1.495h1.517c0.812,0,3.629,0.5,5.849,2.72c1.772,1.771,2.658,4.179,2.633,7.155
	l-0.013,1.372l1.205-0.004l0.207,0.045c1.449,0.304,2.505,1.584,2.505,3.044c0,1.294-0.47,2.48-0.772,3.105l-5.933,0.007
	l-3.233,2.722l10.725-0.008l0.406-0.616c0.063-0.096,1.553-2.382,1.553-5.21C59.949,36.705,58.372,34.503,56.018,33.674z"/>
</svg>
