<?xml version="1.0" encoding="utf-8"?>
<!-- Generator: Adobe Illustrator 16.0.0, SVG Export Plug-In . SVG Version: 6.00 Build 0)  -->
<!DOCTYPE svg PUBLIC "-//W3C//DTD SVG 1.1//EN" "http://www.w3.org/Graphics/SVG/1.1/DTD/svg11.dtd">
<svg version="1.1" id="Layer_1" xmlns="http://www.w3.org/2000/svg" xmlns:xlink="http://www.w3.org/1999/xlink" x="0px" y="0px"
	 width="64px" height="64px" viewBox="0 0 64 64" enable-background="new 0 0 64 64" xml:space="preserve">
<path fill="#FFFFFF" d="M25.969,52.8l-2.597-1.47l2.597-1.471c0.562-0.319,0.755-1.023,0.431-1.574
	c-0.327-0.551-1.046-0.739-1.605-0.422l-2.594,1.471v-2.941c0-0.638-0.526-1.151-1.176-1.151s-1.174,0.515-1.174,1.151v2.941
	l-2.597-1.468c-0.563-0.319-1.278-0.128-1.603,0.422c-0.328,0.548-0.131,1.256,0.43,1.573l2.594,1.469l-2.594,1.47
	c-0.561,0.319-0.758,1.023-0.43,1.575c0.217,0.369,0.61,0.575,1.018,0.575c0.199,0,0.402-0.05,0.585-0.155l2.597-1.471v2.939
	c0,0.637,0.525,1.153,1.174,1.153s1.176-0.519,1.176-1.153v-2.938l2.594,1.469c0.188,0.105,0.389,0.155,0.585,0.155
	c0.41,0,0.803-0.206,1.021-0.575C26.725,53.823,26.532,53.119,25.969,52.8"/>
<path fill="#FFFFFF" d="M36.923,42.58l-2.596-1.471l2.596-1.471c0.562-0.318,0.757-1.022,0.431-1.574
	c-0.326-0.551-1.043-0.741-1.604-0.424l-2.596,1.475v-2.944c0-0.634-0.525-1.149-1.177-1.149c-0.646,0-1.169,0.517-1.169,1.149
	v2.944l-2.598-1.471c-0.565-0.316-1.28-0.127-1.603,0.42c-0.328,0.552-0.131,1.259,0.428,1.576l2.596,1.469l-2.596,1.471
	c-0.559,0.318-0.756,1.023-0.428,1.574c0.216,0.369,0.612,0.574,1.017,0.574c0.199,0,0.402-0.049,0.586-0.152l2.598-1.473v2.94
	c0,0.636,0.524,1.151,1.169,1.151c0.652,0,1.177-0.516,1.177-1.151v-2.938l2.596,1.471c0.188,0.104,0.387,0.152,0.584,0.152
	c0.409,0,0.803-0.205,1.021-0.574C37.68,43.604,37.484,42.898,36.923,42.58"/>
<path fill="#FFFFFF" d="M47.816,52.8l-2.598-1.47l2.598-1.471c0.562-0.319,0.756-1.023,0.431-1.574s-1.045-0.739-1.603-0.422
	l-2.599,1.471v-2.941c0-0.638-0.524-1.151-1.174-1.151c-0.647,0-1.173,0.515-1.173,1.151v2.941l-2.598-1.468
	c-0.564-0.319-1.279-0.128-1.602,0.422c-0.33,0.548-0.131,1.256,0.427,1.573l2.599,1.469l-2.599,1.47
	c-0.558,0.319-0.757,1.023-0.427,1.575c0.214,0.369,0.609,0.575,1.016,0.575c0.198,0,0.401-0.05,0.586-0.155l2.598-1.471v2.939
	c0,0.637,0.523,1.153,1.173,1.153s1.174-0.519,1.174-1.153v-2.938l2.599,1.469c0.186,0.105,0.387,0.155,0.584,0.155
	c0.408,0,0.803-0.206,1.019-0.575C48.572,53.823,48.379,53.119,47.816,52.8"/>
<path fill="#FFFFFF" d="M56.046,31.694c-0.179-3.227-1.325-5.912-3.415-7.976c-2.451-2.427-5.461-3.17-6.457-3.358
	c-0.027-3.091-1.238-6.027-3.508-8.496c-3.113-3.387-7.84-5.409-12.646-5.409c-4.458,0-9.001,2.104-12.151,5.628
	c-2.44,2.728-3.773,5.975-3.764,9.152c-5.785,0.806-10.136,5.4-10.136,10.722c0,5.921,3.726,10.995,6.776,10.999h0.002l3.009-0.004
	l3.138-2.703l-6.149,0.004c-1.165-0.001-4.023-3.592-4.023-8.295c0-4.261,4.051-7.988,8.843-8.137h1.569l-0.206-1.525
	c-0.374-2.801,0.722-5.874,3.009-8.43c2.637-2.949,6.405-4.708,10.082-4.708c4.04,0,8,1.688,10.601,4.516
	c2.065,2.246,3.041,5.001,2.75,7.762l-0.084,1.483h1.522c0.812,0,3.639,0.497,5.865,2.702c1.779,1.758,2.667,4.148,2.643,7.104
	l-0.012,1.363l1.211-0.003l0.205,0.043c1.456,0.302,2.516,1.574,2.516,3.022c0,1.285-0.473,2.464-0.777,3.084l-5.95,0.007
	l-3.247,2.702l10.762-0.006l0.408-0.612c0.065-0.095,1.559-2.364,1.559-5.175C59.99,34.703,58.409,32.518,56.046,31.694z
	 M10.746,42.85L10.746,42.85v0.002V42.85z"/>
</svg>
