<?xml version="1.0" encoding="utf-8"?>
<!-- Generator: Adobe Illustrator 16.0.0, SVG Export Plug-In . SVG Version: 6.00 Build 0)  -->
<!DOCTYPE svg PUBLIC "-//W3C//DTD SVG 1.1//EN" "http://www.w3.org/Graphics/SVG/1.1/DTD/svg11.dtd">
<svg version="1.1" id="Layer_1" xmlns="http://www.w3.org/2000/svg" xmlns:xlink="http://www.w3.org/1999/xlink" x="0px" y="0px"
	 width="64px" height="64px" viewBox="0 0 64 64" enable-background="new 0 0 64 64" xml:space="preserve">
<g>
	<path fill="#EECF37" d="M32.041,18.499c-7.127,0-12.927,5.727-12.927,12.765c0,7.039,5.8,12.767,12.927,12.767
		c7.128,0,12.928-5.728,12.928-12.767C44.969,24.225,39.169,18.499,32.041,18.499z M32.041,41.503
		c-5.716,0-10.368-4.594-10.368-10.239s4.652-10.238,10.368-10.238c5.718,0,10.368,4.592,10.368,10.238S37.759,41.503,32.041,41.503
		z"/>
	<path fill="#EECF37" d="M33.322,7.013c0.003-0.016,0.005-0.033,0.005-0.05c0-0.7-0.573-1.271-1.279-1.271
		c-0.655,0-1.196,0.487-1.268,1.126h-0.018v7.507h2.558L33.322,7.013z"/>
	<path fill="#EECF37" d="M16.401,12.248l4.412,5.996l0.057,0.079l2.07-1.485l-4.352-5.918c-0.008-0.014-0.015-0.027-0.025-0.042
		c-0.242-0.33-0.633-0.526-1.044-0.526c-0.27,0-0.528,0.083-0.748,0.24c-0.529,0.38-0.676,1.088-0.355,1.646L16.401,12.248z"/>
	<path fill="#EECF37" d="M8.042,24.797l-0.005,0.017l7.133,2.29l0.094,0.03l0.791-2.404L9.01,22.468
		c-0.013-0.007-0.026-0.013-0.044-0.02c-0.13-0.042-0.264-0.062-0.399-0.062c-0.56,0-1.05,0.351-1.221,0.872
		C7.142,23.874,7.446,24.533,8.042,24.797z"/>
	<path fill="#EECF37" d="M15.497,35.159l-7.043,2.259c-0.015,0.003-0.029,0.005-0.049,0.011c-0.676,0.216-1.048,0.932-0.83,1.596
		c0.171,0.519,0.66,0.867,1.217,0.867c0.091,0,0.181-0.01,0.27-0.027l0.007,0.016l7.126-2.286l0.094-0.03L15.497,35.159z"/>
	<path fill="#EECF37" d="M16.52,50.11c-0.01,0.01-0.021,0.021-0.03,0.035c-0.203,0.274-0.286,0.61-0.233,0.943
		c0.052,0.336,0.233,0.63,0.51,0.827c0.219,0.157,0.476,0.239,0.745,0.239c0,0,0,0,0,0c0.371,0,0.715-0.152,0.961-0.424l0.016,0.007
		l4.4-5.981l0.059-0.078l-2.071-1.486L16.52,50.11z"/>
	<path fill="#EECF37" d="M30.657,55.36l-0.003,0.024c-0.002,0.013-0.004,0.026-0.005,0.046c0,0.701,0.573,1.271,1.279,1.271h0.001
		c0.659,0,1.2-0.493,1.268-1.137l0.018-0.003v-7.494h-2.56L30.657,55.36z M31.93,56.605L31.93,56.605L31.93,56.605L31.93,56.605z"/>
	<path fill="#EECF37" d="M47.564,50.129l-4.4-5.979l-0.058-0.078l-2.07,1.485l4.351,5.914c0.008,0.015,0.015,0.028,0.025,0.045
		c0.243,0.33,0.634,0.527,1.046,0.527c0.27,0,0.527-0.084,0.745-0.239c0.538-0.385,0.681-1.102,0.349-1.662L47.564,50.129z"/>
	<path fill="#EECF37" d="M55.922,37.593l0.002-0.018l-7.119-2.285l-0.093-0.029l-0.79,2.404l7.022,2.252l0.022,0.011
		c0.012,0.006,0.023,0.011,0.042,0.019c0.129,0.042,0.266,0.063,0.401,0.063c0.559,0,1.048-0.35,1.22-0.871
		C56.835,38.516,56.524,37.853,55.922,37.593z"/>
	<path fill="#EECF37" d="M48.479,27.234L55.5,24.98l0.071-0.014c0.675-0.217,1.048-0.932,0.831-1.594
		c-0.173-0.52-0.659-0.869-1.218-0.869c-0.094,0-0.186,0.01-0.277,0.029l-0.01-0.016l-7.21,2.314L48.479,27.234z"/>
	<path fill="#EECF37" d="M47.455,12.286c0.01-0.01,0.019-0.021,0.031-0.035c0.202-0.275,0.284-0.611,0.231-0.945
		c-0.052-0.335-0.232-0.628-0.511-0.827c-0.217-0.157-0.475-0.24-0.744-0.24c-0.37,0-0.716,0.155-0.962,0.427l-0.017-0.007
		l-4.457,6.058l2.07,1.485L47.455,12.286z"/>
</g>
</svg>
