<?xml version="1.0" encoding="utf-8"?>
<!-- Generator: Adobe Illustrator 15.1.0, SVG Export Plug-In  -->
<!DOCTYPE svg PUBLIC "-//W3C//DTD SVG 1.1//EN" "http://www.w3.org/Graphics/SVG/1.1/DTD/svg11.dtd" [
	<!ENTITY ns_flows "http://ns.adobe.com/Flows/1.0/">
]>
<svg version="1.1"
	 xmlns="http://www.w3.org/2000/svg" xmlns:xlink="http://www.w3.org/1999/xlink" xmlns:a="http://ns.adobe.com/AdobeSVGViewerExtensions/3.0/"
	 x="0px" y="0px" width="70px" height="85px" viewBox="-1.987 -1.55 70 85" enable-background="new -1.987 -1.55 70 85"
	 xml:space="preserve">
<defs>
</defs>
<circle fill="#77CC28" stroke="#77CC28" stroke-width="9" stroke-miterlimit="10" cx="32.9" cy="32.9" r="28.4"/>
<path fill="#77CC28" d="M4.5,32.9l28.8,48.8l28-48.8c0,0-3,27-28,28.4C8.3,62.7,4.5,32.9,4.5,32.9z"/>
<path fill="#FFC200" d="M31.865,30.022l-1.859-14.605l-2.945,0.341l1.902,13.991C29.885,29.87,30.853,29.964,31.865,30.022z"/>
<path fill="#FFC200" d="M26.247,29.294c0.578,0.117,1.181,0.227,1.81,0.324l-0.79-5.576L26.247,29.294z"/>
<polygon fill="#FFC200" points="31.809,22.022 32.753,30.048 34.916,19.677 35.062,17.165 32.1,17.053 "/>
<path fill="#FFC200" d="M36.812,16.449l-2.248,9.225l-0.918,4.407c0.132,0.001,0.266,0.004,0.4,0.004
	c0.892,0,1.753-0.032,2.588-0.088l3.062-12.861L36.812,16.449z"/>
<path fill="#FFC200" d="M37.703,29.91c1.038-0.098,2.023-0.232,2.95-0.392l-1.617-5.271L37.703,29.91z"/>
<path fill="#FFC200" d="M40.364,18.545l-0.917,4.069l1.98,6.746c1.05-0.192,1.641-0.324,2.521-0.555L40.364,18.545z"/>
<path fill="#FFC200" d="M44.77,25.427l-0.495,1.626l0.523,1.515l0.033-0.003c0.842-0.243,1.583-0.487,2.215-0.713l2.874-7.946
	l-2.787-1.009L44.77,25.427z"/>
<path fill="#FFC200" d="M25.386,29.109l1.476-7.587l-2.624-0.566l-1.601,7.423C23.449,28.627,24.37,28.877,25.386,29.109z"/>
<path fill="#FFC200" d="M21.626,28.072l0.868-3.908l-1.742-6.259L17.896,18.7l2.476,8.898
	C20.623,27.696,21.626,28.072,21.626,28.072z"/>
<polygon fill="#FFC200" points="44.21,24.241 44.893,16.583 41.942,16.314 41.661,19.464 43.787,25.635 "/>
<path fill="#F21D2F" d="M17.575,27.308l4.128,25.327h23.925l4.128-25.108c-0.626,0.308-6.916,3.292-15.711,3.292
	C25.252,30.818,18.202,27.614,17.575,27.308z"/>
</svg>
