<?xml version="1.0" encoding="UTF-8" standalone="no"?>
<!-- Generator: Adobe Illustrator 15.1.0, SVG Export Plug-In . SVG Version: 6.00 Build 0)  -->

<svg
   xmlns:dc="http://purl.org/dc/elements/1.1/"
   xmlns:cc="http://creativecommons.org/ns#"
   xmlns:rdf="http://www.w3.org/1999/02/22-rdf-syntax-ns#"
   xmlns:svg="http://www.w3.org/2000/svg"
   xmlns="http://www.w3.org/2000/svg"
   xmlns:sodipodi="http://sodipodi.sourceforge.net/DTD/sodipodi-0.dtd"
   xmlns:inkscape="http://www.inkscape.org/namespaces/inkscape"
   version="1.1"
   id="Layer_1"
   x="0px"
   y="0px"
   width="90"
   height="75"
   viewBox="0 0 90 75"
   enable-background="new 0 0 56.667 52.667"
   xml:space="preserve"
   inkscape:version="0.91 r13725"
   sodipodi:docname="closed.svg"><metadata
     id="metadata31"><rdf:RDF><cc:Work
         rdf:about=""><dc:format>image/svg+xml</dc:format><dc:type
           rdf:resource="http://purl.org/dc/dcmitype/StillImage" /><dc:title></dc:title></cc:Work></rdf:RDF></metadata><defs
     id="defs29" /><sodipodi:namedview
     pagecolor="#ffffff"
     bordercolor="#666666"
     borderopacity="1"
     objecttolerance="10"
     gridtolerance="10"
     guidetolerance="10"
     inkscape:pageopacity="0"
     inkscape:pageshadow="2"
     inkscape:window-width="1600"
     inkscape:window-height="878"
     id="namedview27"
     showgrid="false"
     inkscape:zoom="4.4809843"
     inkscape:cx="86.468048"
     inkscape:cy="17.40689"
     inkscape:window-x="0"
     inkscape:window-y="22"
     inkscape:window-maximized="0"
     inkscape:current-layer="g3" /><g
     id="g3"
     transform="translate(0,22.333004)"><line
       stroke-miterlimit="10"
       x1="8.0990791"
       y1="16.650259"
       x2="44.294186"
       y2="-19.544851"
       id="line5"
       style="fill:none;stroke:#e6e6e6;stroke-width:1.59787691;stroke-miterlimit:10" /><line
       stroke-miterlimit="10"
       x1="43.741322"
       y1="-20.099314"
       x2="79.620049"
       y2="15.781011"
       id="line7"
       style="fill:none;stroke:#e6e6e6;stroke-width:1.59787691;stroke-miterlimit:10" /><path
       stroke-miterlimit="10"
       d="m 84.623002,44.515632 c 0,2.647682 -2.145949,4.793631 -4.793631,4.793631 l -68.708707,0 c -2.6476816,0 -4.7936303,-2.145949 -4.7936303,-4.793631 l 0,-23.968154 c 0,-2.647682 2.1459487,-4.79363 4.7936303,-4.79363 l 68.708707,0 c 2.647682,0 4.793631,2.145948 4.793631,4.79363 l 0,23.968154 z"
       id="path9"
       inkscape:connector-curvature="0"
       style="fill:#ff6161;stroke:#d11e1e;stroke-width:3.19575381;stroke-miterlimit:10" /><g
       id="g11"
       transform="matrix(1.5978769,0,0,1.5978769,-0.33131933,-23.660982)"><path
         d="m 13.633,37.283 1.078,1.09 c -0.777,0.777 -1.809,1.264 -2.945,1.264 -2.238,0 -4.059,-1.821 -4.059,-4.059 0,-2.238 1.82,-4.059 4.059,-4.059 1.137,0 2.168,0.487 2.945,1.275 l -1.078,1.079 c -0.499,-0.499 -1.171,-0.812 -1.867,-0.812 -1.38,0 -2.505,1.125 -2.505,2.516 0,1.391 1.125,2.517 2.505,2.517 0.695,10e-4 1.368,-0.312 1.867,-0.811 z"
         id="path13"
         inkscape:connector-curvature="0"
         style="fill:#f7f7f7" /><path
         d="m 20.721,38.095 0,1.542 -4.465,0 0,-8.117 1.542,0 0,6.575 2.923,0 z"
         id="path15"
         inkscape:connector-curvature="0"
         style="fill:#f7f7f7" /><path
         d="m 22.265,34.569 c 0,-1.67 1.369,-3.05 3.039,-3.05 1.67,0 3.05,1.38 3.05,3.05 0,1.67 -1.38,3.039 -3.05,3.039 -1.67,0 -3.039,-1.369 -3.039,-3.039 z m 5.729,5.068 -5.439,0 0,-1.531 5.439,0 0,1.531 z m -4.198,-5.068 c 0,0.823 0.672,1.508 1.507,1.508 0.835,0 1.519,-0.685 1.519,-1.508 0,-0.835 -0.684,-1.519 -1.519,-1.519 -0.835,0 -1.507,0.684 -1.507,1.519 z"
         id="path17"
         inkscape:connector-curvature="0"
         style="fill:#f7f7f7" /><path
         d="m 29.933,37.109 1.542,0 c 0.023,0.661 0.511,0.985 1.044,0.985 0.557,0 1.032,-0.313 1.032,-0.87 0,-0.591 -0.557,-0.858 -1.032,-0.881 -0.069,0 -0.638,0 -1.229,-0.267 -0.869,-0.406 -1.356,-1.16 -1.356,-2.146 0,-1.461 1.252,-2.412 2.586,-2.412 1.415,0 2.551,1.044 2.574,2.528 l -1.542,0 C 33.529,33.385 33.065,33.06 32.52,33.06 c -0.568,0 -1.044,0.301 -1.044,0.87 0,0.58 0.511,0.881 1.044,0.881 0.058,0 0.626,0 1.218,0.267 0.881,0.406 1.356,1.16 1.356,2.146 0,1.473 -1.24,2.412 -2.574,2.412 -1.428,-0.033 -2.564,-1.008 -2.587,-2.527 z"
         id="path19"
         inkscape:connector-curvature="0"
         style="fill:#f7f7f7" /><path
         d="m 38.19,33.062 0,1.751 3.282,0 0,1.531 -3.282,0 0,1.751 3.943,0 0,1.542 -5.485,0 0,-8.117 5.485,0 0,1.542 -3.943,0 z"
         id="path21"
         inkscape:connector-curvature="0"
         style="fill:#f7f7f7" /><path
         d="m 49.836,35.578 c 0,4.059 -4.709,4.059 -4.709,4.059 l -1.426,0 0,-8.106 1.426,0 c 0,0 4.709,0 4.709,4.047 z m -4.709,2.517 c 0,0 0.047,0.012 0.116,0 l 0,0.116 -0.116,-0.116 z m 0.116,0 c 0.557,-0.023 3.062,-0.278 3.062,-2.517 0,-2.227 -3.062,-2.516 -3.062,-2.516 l 0,5.033 z"
         id="path23"
         inkscape:connector-curvature="0"
         style="fill:#f7f7f7" /></g><circle
       cx="44.196716"
       cy="-13.46493"
       r="2.3968153"
       id="circle25"
       style="fill:#d11e1e" /></g></svg>