<?xml version="1.0" encoding="UTF-8" standalone="no"?>
<!-- Generated by IcoMoon.io -->

<svg
   xmlns:dc="http://purl.org/dc/elements/1.1/"
   xmlns:cc="http://creativecommons.org/ns#"
   xmlns:rdf="http://www.w3.org/1999/02/22-rdf-syntax-ns#"
   xmlns:svg="http://www.w3.org/2000/svg"
   xmlns="http://www.w3.org/2000/svg"
   xmlns:sodipodi="http://sodipodi.sourceforge.net/DTD/sodipodi-0.dtd"
   xmlns:inkscape="http://www.inkscape.org/namespaces/inkscape"
   version="1.1"
   width="16"
   height="32"
   viewBox="0 0 16 32"
   id="svg2"
   inkscape:version="0.91 r13725"
   sodipodi:docname="dollar.svg">
  <metadata
     id="metadata10">
    <rdf:RDF>
      <cc:Work
         rdf:about="">
        <dc:format>image/svg+xml</dc:format>
        <dc:type
           rdf:resource="http://purl.org/dc/dcmitype/StillImage" />
        <dc:title></dc:title>
      </cc:Work>
    </rdf:RDF>
  </metadata>
  <defs
     id="defs8" />
  <sodipodi:namedview
     pagecolor="#ffffff"
     bordercolor="#666666"
     borderopacity="1"
     objecttolerance="10"
     gridtolerance="10"
     guidetolerance="10"
     inkscape:pageopacity="0"
     inkscape:pageshadow="2"
     inkscape:window-width="1600"
     inkscape:window-height="878"
     id="namedview6"
     showgrid="false"
     inkscape:zoom="14.75"
     inkscape:cx="-3.7627119"
     inkscape:cy="18.847458"
     inkscape:window-x="0"
     inkscape:window-y="22"
     inkscape:window-maximized="0"
     inkscape:current-layer="svg2" />
  <path
     d="m 7.9745762,16.525421 c -4.142,0 -7.49999993,3.358 -7.49999993,7.5 0,4.142 3.35799993,7.5 7.49999993,7.5 4.1420028,0 7.5000028,-3.358 7.5000028,-7.5 0,-4.142 -3.358,-7.5 -7.5000028,-7.5 z m 0,13.5 c -3.314,0 -6,-2.686 -6,-6 0,-3.314 2.686,-6 6,-6 3.3140028,0 6.0000028,2.686 6.0000028,6 0,3.314 -2.686,6 -6.0000028,6 z m 0.5,-6.5 0,-2 2.0000028,0 0,-1 -2.0000028,0 0,-1 -1,0 0,1 -2,0 0,4 2,0 0,2 -2,0 0,1 2,0 0,1 1,0 0,-1 2.0000028,0 0,-4 -2.0000028,0 z m -1,0 -1,0 0,-2 1,0 0,2 z m 2,3 -1,0 0,-2 1,0 0,2 z"
     id="path4"
     inkscape:connector-curvature="0"
     style="fill:#b3b3b3;fill-opacity:0.90355331" />
  <path
     d="m 8.0000002,0.60169495 c -4.142,0 -7.49999993,3.35800005 -7.49999993,7.50000005 0,4.141998 3.35799993,7.499998 7.49999993,7.499998 4.1420028,0 7.5000028,-3.358 7.5000028,-7.499998 0,-4.142 -3.358,-7.50000005 -7.5000028,-7.50000005 z m 0,13.49999805 c -3.314,0 -6,-2.686 -6,-5.999998 0,-3.314 2.686,-6 6,-6 3.3140028,0 6.0000028,2.686 6.0000028,6 0,3.313998 -2.686,5.999998 -6.0000028,5.999998 z m 0.5,-6.499998 0,-2 2.0000028,0 0,-1 -2.0000028,0 0,-1 -1,0 0,1 -2,0 0,4 2,0 0,1.999998 -2,0 0,1 2,0 0,1 1,0 0,-1 2.0000028,0 0,-3.999998 -2.0000028,0 z m -1,0 -1,0 0,-2 1,0 0,2 z m 2,2.999998 -1,0 0,-1.999998 1,0 0,1.999998 z"
     id="path4-2"
     inkscape:connector-curvature="0"
     style="fill:#444444" />
</svg>
