<?xml version="1.0" encoding="utf-8"?>
<!-- Generator: Adobe Illustrator 15.1.0, SVG Export Plug-In  -->
<!DOCTYPE svg PUBLIC "-//W3C//DTD SVG 1.1//EN" "http://www.w3.org/Graphics/SVG/1.1/DTD/svg11.dtd" [
	<!ENTITY ns_flows "http://ns.adobe.com/Flows/1.0/">
]>
<svg version="1.1"
	 xmlns="http://www.w3.org/2000/svg" xmlns:xlink="http://www.w3.org/1999/xlink" xmlns:a="http://ns.adobe.com/AdobeSVGViewerExtensions/3.0/"
	 x="0px" y="0px" width="120px" height="120px" viewBox="-0.972 -1.316 120 120" enable-background="new -0.972 -1.316 120 120"
	 xml:space="preserve">
<defs>
</defs>
<polygon fill="#333333" stroke="#333333" stroke-miterlimit="10" points="23.733,72.223 13.001,72.223 11.929,56.782 24.806,56.782 
	"/>
<polygon fill="#333333" stroke="#333333" stroke-miterlimit="10" points="23.196,117.048 13.001,117.048 14.075,96.628 
	22.123,96.628 "/>
<rect x="11.762" y="100.612" fill="#333333" stroke="#333333" stroke-miterlimit="10" width="12.691" height="1.494"/>
<rect x="11.762" y="103.103" fill="#333333" stroke="#333333" stroke-miterlimit="10" width="12.691" height="1.992"/>
<path fill="#333333" stroke="#333333" stroke-miterlimit="10" d="M28.116,75.953c0-2.591,1.096-4.904,2.819-6.45
	c-3.211-3.224-7.772-5.242-12.835-5.242c-9.721,0-17.6,7.423-17.6,16.578s7.879,16.576,17.6,16.576
	c8.444,0,15.497-5.602,17.203-13.076C31.275,83.96,28.116,80.352,28.116,75.953z"/>
<path fill="#333333" d="M57.051,98.023c-0.551,0-1.033-0.102-1.447-0.308c-0.414-0.205-0.758-0.48-1.035-0.827
	c-0.275-0.347-0.482-0.748-0.62-1.202c-0.138-0.457-0.207-0.935-0.207-1.435c0-0.327,0.062-0.717,0.185-1.172
	c0.124-0.451,0.252-0.854,0.384-1.205c0.132-0.349,0.298-0.685,0.498-1.003s0.433-0.6,0.7-0.843
	c0.269-0.242,0.568-0.436,0.899-0.578c0.332-0.143,0.701-0.214,1.106-0.214c0.331,0,0.639,0.053,0.923,0.159s0.531,0.256,0.74,0.447
	c0.21,0.193,0.375,0.425,0.493,0.697c0.119,0.271,0.178,0.576,0.178,0.913c0,0.36-0.121,0.761-0.36,1.208
	c-0.24,0.446-0.519,0.827-0.839,1.146c-0.319,0.318-0.7,0.602-1.141,0.852c-0.44,0.249-0.918,0.444-1.433,0.582
	c0.089,0.157,0.176,0.287,0.262,0.391c0.086,0.105,0.174,0.186,0.263,0.244c0.089,0.057,0.183,0.098,0.28,0.121
	c0.098,0.023,0.203,0.034,0.315,0.034c0.354,0,0.728-0.07,1.121-0.209c0.394-0.139,0.776-0.313,1.147-0.521
	c0.373-0.208,0.723-0.436,1.055-0.683c0.331-0.246,0.611-0.479,0.842-0.699l1.143,1.165c-0.519,0.556-1.071,1.046-1.656,1.473
	c-0.253,0.183-0.527,0.362-0.819,0.539c-0.292,0.178-0.6,0.335-0.922,0.473c-0.322,0.137-0.655,0.246-1.001,0.327
	C57.756,97.981,57.406,98.023,57.051,98.023z M55.869,93.792c0.213,0,0.446-0.054,0.697-0.162c0.251-0.106,0.487-0.243,0.703-0.411
	c0.216-0.169,0.429-0.394,0.636-0.677c0.208-0.284,0.311-0.519,0.311-0.704c0-0.261-0.048-0.475-0.146-0.645
	c-0.098-0.165-0.219-0.251-0.361-0.251c-0.254,0-0.472,0.047-0.653,0.139c-0.181,0.094-0.332,0.213-0.454,0.36
	c-0.121,0.148-0.219,0.317-0.293,0.505c-0.074,0.188-0.16,0.422-0.258,0.699c-0.098,0.277-0.152,0.506-0.165,0.686
	C55.875,93.512,55.869,93.664,55.869,93.792z"/>
<path fill="#333333" d="M70.06,95.821c-0.136,0.192-0.317,0.417-0.544,0.675c-0.229,0.257-0.484,0.504-0.768,0.736
	c-0.283,0.233-0.586,0.431-0.911,0.593c-0.324,0.161-0.649,0.243-0.974,0.243c-0.393,0-0.721-0.126-0.983-0.375
	c-0.262-0.248-0.489-0.611-0.679-1.086c-0.144,0.164-0.318,0.331-0.525,0.5c-0.21,0.172-0.438,0.324-0.685,0.464
	c-0.247,0.137-0.504,0.249-0.772,0.339c-0.269,0.087-0.536,0.13-0.804,0.13c-0.283,0-0.561-0.058-0.827-0.174
	c-0.27-0.117-0.507-0.284-0.714-0.502c-0.207-0.217-0.373-0.484-0.497-0.797c-0.124-0.315-0.186-0.67-0.186-1.063
	c0-0.444,0.062-0.898,0.187-1.364c0.125-0.467,0.319-0.97,0.58-1.515c0.263-0.543,0.541-1.01,0.844-1.407
	c0.298-0.394,0.626-0.739,0.983-1.035c0.355-0.296,0.732-0.529,1.127-0.703c0.396-0.176,0.798-0.262,1.208-0.262
	c0.137,0,0.245,0.027,0.32,0.08c0.077,0.054,0.142,0.116,0.191,0.187c0.051,0.067,0.1,0.135,0.147,0.2
	c0.046,0.065,0.105,0.112,0.178,0.145c0.071,0.029,0.144,0.049,0.218,0.057c0.074,0.01,0.149,0.014,0.229,0.014
	c0.064,0,0.131-0.001,0.199-0.005c0.069-0.002,0.136-0.004,0.202-0.004c0.088,0,0.172,0.009,0.249,0.026s0.146,0.058,0.206,0.117
	c0.058,0.059,0.104,0.144,0.137,0.251c0.031,0.108,0.049,0.255,0.049,0.439c0,0.283-0.029,0.598-0.089,0.944
	c-0.059,0.344-0.126,0.697-0.202,1.061c-0.077,0.362-0.164,0.773-0.262,1.237c-0.097,0.466-0.146,0.855-0.146,1.173
	c0,0.27,0.024,0.483,0.075,0.635c0.051,0.155,0.159,0.23,0.322,0.23c0.125,0,0.255-0.031,0.39-0.093
	c0.137-0.062,0.274-0.142,0.413-0.242c0.14-0.1,0.277-0.214,0.417-0.338c0.138-0.127,0.27-0.258,0.394-0.393
	c0.29-0.317,0.582-0.676,0.877-1.074L70.06,95.821z M62.459,95.124c0,0.154,0.012,0.303,0.032,0.446s0.058,0.271,0.109,0.384
	c0.054,0.114,0.126,0.205,0.215,0.276c0.089,0.07,0.2,0.104,0.336,0.104c0.219,0,0.417-0.095,0.595-0.286
	c0.177-0.189,0.332-0.42,0.461-0.688c0.131-0.268,0.235-0.545,0.315-0.831c0.081-0.287,0.132-0.527,0.155-0.717l0.662-2.889
	c-0.243,0-0.479,0.062-0.71,0.182c-0.229,0.12-0.447,0.282-0.65,0.487c-0.204,0.205-0.391,0.441-0.563,0.704
	c-0.172,0.264-0.341,0.592-0.504,0.978c-0.167,0.389-0.283,0.728-0.351,1.022C62.495,94.59,62.459,94.867,62.459,95.124z"/>
<path fill="#333333" d="M76.713,96.033c-0.564,0.331-1.072,0.623-1.515,0.87c-0.444,0.25-0.839,0.456-1.185,0.622
	c-0.347,0.165-0.654,0.291-0.924,0.372c-0.269,0.084-0.512,0.126-0.731,0.126c-0.447,0-0.841-0.138-1.181-0.409
	c-0.34-0.271-0.625-0.664-0.854-1.177c-0.229-0.512-0.401-1.132-0.515-1.86c-0.115-0.729-0.173-1.548-0.173-2.461
	c0-0.355,0.015-0.733,0.044-1.137s0.07-0.803,0.123-1.199c-0.179-0.027-0.317-0.052-0.415-0.075
	c-0.099-0.021-0.201-0.047-0.313-0.068c-0.108-0.023-0.248-0.049-0.417-0.075c-0.17-0.025-0.415-0.059-0.736-0.099
	c-0.143-0.021-0.254-0.057-0.33-0.113c-0.077-0.056-0.134-0.122-0.17-0.197c-0.035-0.076-0.055-0.155-0.063-0.238
	c-0.005-0.082-0.009-0.152-0.009-0.211c0-0.096,0.059-0.167,0.174-0.216c0.116-0.05,0.265-0.085,0.444-0.111
	c0.183-0.023,0.381-0.037,0.598-0.04s0.425-0.002,0.624,0.005c0.198,0.005,0.376,0.011,0.534,0.013
	c0.157,0.003,0.265-0.001,0.324-0.013c0.159-0.798,0.362-1.569,0.607-2.316c0.244-0.749,0.518-1.412,0.822-1.994
	c0.304-0.581,0.636-1.047,0.994-1.399c0.36-0.352,0.737-0.527,1.132-0.527c0.254,0,0.487,0.071,0.697,0.213
	c0.209,0.143,0.387,0.332,0.535,0.568s0.263,0.513,0.342,0.829c0.08,0.317,0.121,0.647,0.121,0.988c0,0.285-0.041,0.586-0.124,0.901
	c-0.084,0.316-0.195,0.638-0.338,0.966c-0.143,0.326-0.309,0.658-0.499,0.994c-0.192,0.335-0.395,0.669-0.607,1
	c0.054-0.021,0.142-0.024,0.267-0.012c0.124,0.013,0.267,0.02,0.429,0.025c0.162,0.005,0.339,0.01,0.527,0.013
	c0.188,0.006,0.373,0.012,0.549,0.018c0.178,0.007,0.344,0.011,0.496,0.018c0.154,0.006,0.281,0.013,0.382,0.018
	c0.118,0.007,0.204,0.073,0.256,0.197c0.055,0.125,0.079,0.284,0.079,0.474c0,0.223-0.058,0.403-0.176,0.543
	c-0.119,0.138-0.248,0.208-0.39,0.208h-3.406c-0.173,0.236-0.346,0.469-0.521,0.696c-0.175,0.229-0.337,0.433-0.485,0.617
	c-0.024,0.367-0.044,0.73-0.063,1.084c-0.005,0.154-0.011,0.313-0.017,0.475c-0.006,0.163-0.014,0.325-0.019,0.484
	c-0.006,0.161-0.01,0.315-0.012,0.464c-0.004,0.148-0.005,0.283-0.005,0.409c0,0.318,0.029,0.588,0.088,0.808
	c0.06,0.218,0.146,0.398,0.259,0.537s0.251,0.239,0.412,0.303c0.165,0.061,0.347,0.093,0.548,0.093c0.124,0,0.278-0.029,0.466-0.09
	c0.188-0.059,0.389-0.141,0.611-0.245c0.223-0.103,0.455-0.225,0.7-0.366c0.246-0.143,0.489-0.3,0.729-0.468
	c0.237-0.169,0.469-0.346,0.687-0.532c0.219-0.187,0.417-0.379,0.594-0.574v2.274H76.713z M73.879,84.782
	c0-0.063-0.004-0.137-0.013-0.217c-0.01-0.079-0.028-0.155-0.058-0.226c-0.03-0.07-0.076-0.131-0.138-0.177
	c-0.063-0.048-0.149-0.069-0.263-0.069c-0.153,0-0.31,0.134-0.467,0.403c-0.158,0.272-0.309,0.617-0.453,1.037
	c-0.146,0.42-0.283,0.884-0.409,1.389c-0.128,0.507-0.244,0.999-0.352,1.474c0.089,0.01,0.179,0.017,0.267,0.023
	c0.09,0.007,0.18,0.014,0.275,0.023c0.179-0.3,0.363-0.622,0.557-0.971c0.192-0.349,0.364-0.69,0.52-1.027
	c0.154-0.336,0.282-0.65,0.383-0.943C73.83,85.21,73.879,84.969,73.879,84.782z"/>
<path fill="#333333" d="M86.3,91.173c0.173,0.343,0.3,0.706,0.387,1.088c0.085,0.382,0.128,0.813,0.128,1.293
	c0,0.351-0.038,0.702-0.115,1.058c-0.077,0.354-0.188,0.699-0.332,1.031c-0.146,0.331-0.321,0.642-0.531,0.932
	s-0.449,0.541-0.718,0.755c-0.27,0.213-0.563,0.382-0.883,0.507c-0.317,0.124-0.657,0.188-1.018,0.188
	c-0.52,0-0.965-0.113-1.333-0.343c-0.369-0.229-0.672-0.527-0.908-0.893c-0.236-0.366-0.409-0.782-0.519-1.244
	s-0.163-0.931-0.163-1.404c0-0.781,0.095-1.454,0.292-2.021c0.194-0.565,0.473-1.057,0.837-1.475
	c0.362-0.417,0.808-0.745,1.334-0.986c0.524-0.238,1.115-0.359,1.771-0.359c0.562,0,1.087,0.088,1.576,0.262
	c0.489,0.176,0.95,0.41,1.378,0.703c0.429,0.293,0.827,0.66,1.194,1.105c0.37,0.445,0.714,0.869,1.034,1.271l-0.168,1.253
	c-0.16-0.213-0.375-0.443-0.647-0.693c-0.272-0.249-0.56-0.523-0.865-0.825c-0.304-0.303-0.604-0.559-0.898-0.769
	c-0.296-0.211-0.549-0.388-0.761-0.53L86.3,91.173z M83.564,96.317c0.201,0,0.396-0.103,0.584-0.307
	c0.188-0.203,0.354-0.462,0.495-0.773c0.143-0.311,0.256-0.687,0.342-1.128c0.086-0.442,0.129-0.835,0.129-1.176
	c0-0.273-0.021-0.526-0.063-0.761c-0.042-0.233-0.104-0.437-0.186-0.608c-0.084-0.172-0.19-0.309-0.319-0.409
	c-0.131-0.1-0.287-0.151-0.47-0.151c-0.242,0-0.475,0.104-0.692,0.313c-0.219,0.208-0.409,0.471-0.575,0.794s-0.296,0.679-0.39,1.07
	c-0.094,0.39-0.143,0.833-0.143,1.324c0,0.248,0.023,0.482,0.071,0.702c0.048,0.218,0.121,0.409,0.223,0.573
	c0.1,0.162,0.232,0.293,0.398,0.391C83.135,96.267,83.333,96.317,83.564,96.317z"/>
<path fill="#333333" d="M95.152,89.742c0,0.162-0.006,0.38-0.016,0.655c-0.013,0.274-0.047,0.576-0.107,0.901
	c-0.059,0.326-0.133,0.72-0.22,1.183c-0.084,0.463-0.155,0.846-0.212,1.147c-0.056,0.305-0.105,0.567-0.147,0.795
	c-0.042,0.227-0.062,0.393-0.062,0.495c0,0.167,0.001,0.319,0.006,0.459c0.006,0.14,0.021,0.263,0.047,0.366
	c0.025,0.103,0.065,0.186,0.119,0.241c0.055,0.055,0.131,0.085,0.233,0.085c0.129,0,0.288-0.033,0.474-0.099
	c0.185-0.066,0.384-0.153,0.594-0.264c0.208-0.109,0.423-0.234,0.642-0.375c0.22-0.139,0.429-0.285,0.625-0.44
	c0.199-0.154,0.379-0.309,0.54-0.459c0.163-0.153,0.295-0.294,0.395-0.425c0,0.195,0.002,0.376,0.005,0.534
	c0.003,0.161,0.005,0.314,0.005,0.46c0,0.146,0.001,0.297,0.004,0.452c0.003,0.152,0.005,0.326,0.005,0.516
	c-0.13,0.128-0.291,0.266-0.484,0.411c-0.19,0.146-0.404,0.293-0.637,0.438c-0.232,0.147-0.481,0.287-0.743,0.423
	c-0.265,0.134-0.527,0.253-0.794,0.354c-0.265,0.103-0.525,0.186-0.778,0.245c-0.255,0.062-0.489,0.093-0.706,0.093
	c-0.222,0-0.41-0.044-0.566-0.132c-0.155-0.087-0.291-0.211-0.404-0.366c-0.113-0.158-0.209-0.347-0.289-0.566
	c-0.078-0.219-0.146-0.463-0.203-0.731c-0.213,0.274-0.438,0.528-0.675,0.758c-0.236,0.232-0.478,0.431-0.722,0.601
	c-0.246,0.169-0.495,0.303-0.745,0.398c-0.253,0.098-0.496,0.145-0.734,0.145c-0.192,0-0.375-0.031-0.545-0.098
	c-0.172-0.064-0.322-0.174-0.454-0.328c-0.134-0.154-0.236-0.357-0.314-0.606c-0.077-0.254-0.115-0.565-0.115-0.938
	c0.007-0.776,0.065-1.372,0.178-1.785c0.177-0.605,0.343-1.506,0.496-2.704c0.016-0.087,0.036-0.206,0.065-0.357
	c0.028-0.153,0.069-0.316,0.125-0.495c0.057-0.177,0.126-0.358,0.208-0.541c0.084-0.185,0.182-0.35,0.293-0.498
	c0.113-0.147,0.244-0.27,0.396-0.364c0.149-0.095,0.32-0.146,0.509-0.151c0.313,0.017,0.537,0.066,0.673,0.154
	c0.136,0.086,0.204,0.193,0.204,0.32c-0.054,0.4-0.114,0.784-0.179,1.152c-0.065,0.37-0.133,0.74-0.2,1.114
	c-0.066,0.373-0.143,0.789-0.223,1.248c-0.083,0.456-0.148,0.824-0.198,1.101c-0.051,0.275-0.092,0.499-0.121,0.669
	c-0.03,0.172-0.045,0.26-0.045,0.266c0,0.11,0.011,0.215,0.031,0.316c0.021,0.101,0.053,0.191,0.094,0.271
	c0.041,0.08,0.095,0.145,0.16,0.192c0.064,0.05,0.142,0.073,0.231,0.073c0.129,0,0.264-0.034,0.4-0.104
	c0.137-0.07,0.262-0.172,0.383-0.303c0.123-0.121,0.232-0.278,0.328-0.471c0.096-0.188,0.166-0.403,0.213-0.651l0.978-4.841
	c0.028-0.143,0.143-0.263,0.346-0.361c0.203-0.097,0.433-0.146,0.688-0.146c0.29,0,0.522,0.054,0.693,0.16
	C95.065,89.441,95.152,89.578,95.152,89.742z"/>
<path fill="#333333" d="M104.454,96.033c-0.567,0.331-1.072,0.623-1.517,0.87c-0.444,0.25-0.838,0.456-1.185,0.622
	c-0.346,0.165-0.653,0.291-0.922,0.372c-0.271,0.084-0.514,0.126-0.733,0.126c-0.445,0-0.839-0.138-1.18-0.409
	c-0.34-0.271-0.626-0.664-0.854-1.177c-0.23-0.512-0.401-1.132-0.517-1.86c-0.113-0.729-0.171-1.548-0.171-2.461
	c0-0.355,0.014-0.733,0.043-1.137s0.069-0.803,0.124-1.199c-0.178-0.027-0.316-0.052-0.415-0.075
	c-0.098-0.021-0.203-0.047-0.313-0.068c-0.11-0.023-0.249-0.049-0.418-0.075c-0.17-0.025-0.417-0.059-0.737-0.099
	c-0.143-0.021-0.253-0.057-0.329-0.113c-0.076-0.056-0.135-0.122-0.17-0.197c-0.036-0.076-0.057-0.155-0.063-0.238
	c-0.006-0.082-0.009-0.152-0.009-0.211c0-0.096,0.06-0.167,0.175-0.216c0.115-0.05,0.263-0.085,0.444-0.111
	c0.181-0.023,0.38-0.037,0.597-0.04c0.216-0.003,0.424-0.002,0.624,0.005c0.198,0.005,0.376,0.011,0.533,0.013
	c0.158,0.002,0.267-0.001,0.325-0.013c0.159-0.798,0.362-1.569,0.605-2.316c0.244-0.749,0.519-1.412,0.823-1.994
	c0.304-0.581,0.635-1.047,0.994-1.399c0.362-0.352,0.737-0.527,1.134-0.527c0.253,0,0.485,0.071,0.696,0.213
	c0.209,0.143,0.388,0.332,0.535,0.568s0.262,0.513,0.342,0.829c0.079,0.317,0.12,0.647,0.12,0.988c0,0.285-0.042,0.586-0.125,0.901
	c-0.082,0.316-0.195,0.638-0.336,0.966c-0.142,0.326-0.309,0.658-0.501,0.994c-0.192,0.335-0.395,0.669-0.605,1
	c0.053-0.021,0.142-0.024,0.266-0.012c0.123,0.014,0.268,0.02,0.429,0.025c0.163,0.005,0.34,0.01,0.528,0.013
	c0.188,0.006,0.371,0.012,0.549,0.018c0.177,0.005,0.342,0.011,0.496,0.018c0.154,0.006,0.279,0.013,0.382,0.018
	c0.118,0.007,0.202,0.073,0.256,0.197c0.053,0.125,0.079,0.284,0.079,0.474c0,0.223-0.058,0.403-0.177,0.543
	c-0.118,0.138-0.248,0.208-0.392,0.208h-3.404c-0.172,0.236-0.346,0.469-0.522,0.696c-0.172,0.229-0.335,0.433-0.483,0.617
	c-0.023,0.367-0.044,0.73-0.062,1.084c-0.007,0.154-0.012,0.313-0.018,0.475c-0.006,0.163-0.013,0.325-0.019,0.484
	c-0.005,0.161-0.01,0.315-0.012,0.464c-0.003,0.148-0.005,0.283-0.005,0.409c0,0.318,0.029,0.588,0.088,0.808
	c0.061,0.218,0.146,0.398,0.259,0.537c0.112,0.139,0.25,0.239,0.413,0.303c0.165,0.061,0.346,0.093,0.547,0.093
	c0.124,0,0.279-0.029,0.467-0.09c0.187-0.059,0.389-0.141,0.61-0.245c0.223-0.103,0.455-0.225,0.701-0.366
	c0.245-0.143,0.487-0.3,0.728-0.468c0.238-0.169,0.469-0.346,0.688-0.532c0.218-0.187,0.416-0.379,0.594-0.574v2.274H104.454z
	 M101.619,84.782c0-0.063-0.005-0.137-0.012-0.217c-0.011-0.079-0.03-0.155-0.059-0.226c-0.03-0.07-0.076-0.131-0.139-0.177
	c-0.063-0.048-0.15-0.069-0.262-0.069c-0.155,0-0.312,0.134-0.467,0.403c-0.157,0.272-0.31,0.617-0.453,1.037
	c-0.146,0.42-0.283,0.884-0.41,1.389c-0.127,0.507-0.244,0.999-0.351,1.474c0.089,0.01,0.178,0.017,0.268,0.023
	c0.089,0.007,0.18,0.014,0.273,0.023c0.178-0.3,0.364-0.622,0.557-0.971s0.366-0.69,0.521-1.027c0.152-0.336,0.282-0.65,0.383-0.943
	C101.569,85.21,101.619,84.969,101.619,84.782z"/>
<path fill="#5EBF64" d="M52.55,116.315c-1.277,0.81-2.772,0.913-4.269,0.913h-7.218v-14.632h6.381c0.418,0,0.836,0,1.232,0.021
	c1.606,0.062,3.323,0.249,4.379,1.574c0.309,0.373,0.748,1.059,0.748,2.156c0,1.906-1.342,2.715-2.025,3.004
	c-0.374,0.146-0.593,0.208-1.297,0.354c0.22,0.02,0.417,0.062,0.616,0.103c1.827,0.311,2.574,1.099,2.949,1.824
	c0.132,0.249,0.352,0.788,0.352,1.513C54.398,113.788,54.179,115.299,52.55,116.315z M48.986,105.436
	c-0.199-0.063-0.441-0.104-0.881-0.104h-3.344v3.046h2.926c0.021,0,0.572-0.021,0.88-0.062c0.88-0.146,1.167-0.518,1.298-0.85
	c0.043-0.104,0.132-0.353,0.132-0.684C49.998,106.47,49.932,105.726,48.986,105.436z M49.381,111.175
	c-0.286-0.103-0.594-0.144-1.254-0.144h-3.366v3.543h2.707c1.385,0,2.068-0.145,2.574-0.642c0.176-0.187,0.418-0.52,0.418-1.12
	C50.459,111.736,49.821,111.321,49.381,111.175z"/>
<path fill="#5EBF64" d="M56.64,117.228v-14.632h11.486v2.817h-7.613v2.674h7.107v2.777h-7.107v3.48h8.317v2.882L56.64,117.228
	L56.64,117.228z"/>
<path fill="#5EBF64" d="M80.269,117.228l-3.103-5.225h-2.42v5.225H70.83v-14.632h6.997c0.44,0,0.88,0,1.32,0.021
	c0.704,0.042,3.169,0.187,4.379,2.279c0.22,0.394,0.614,1.244,0.614,2.445c0,1.638-0.681,2.509-1.208,2.985
	c-0.221,0.207-0.485,0.393-0.727,0.538c-0.286,0.145-0.616,0.29-1.255,0.518l3.586,5.845L80.269,117.228L80.269,117.228z
	 M78.025,105.31h-3.301v3.979h3.213c0.154,0,0.595,0,1.034-0.145c1.255-0.396,1.298-1.514,1.298-1.887
	C80.269,105.353,78.707,105.31,78.025,105.31z"/>
<path fill="#5EBF64" d="M86.426,117.228v-14.632H90.3v11.543h6.071v3.089H86.426z"/>
<path fill="#5EBF64" d="M98.33,117.228v-14.632h3.871v14.632H98.33z"/>
<path fill="#5EBF64" d="M114.456,117.228l-5.631-9.059l0.131,9.059h-3.739v-14.632h3.806l5.677,9.181l-0.154-9.181h3.719v14.632
	H114.456z"/>
<polygon fill="#EFE7DC" stroke="#EFE7DC" stroke-miterlimit="10" points="20.514,53.978 16.221,53.978 17.831,0.684 18.904,0.684 
	"/>
<polygon fill="#FF1526" stroke="#FF1526" stroke-miterlimit="10" points="16.451,45.326 16.221,54.292 20.514,54.292 20.284,45.326 
	"/>
<polygon fill="#FF1526" stroke="#FF1526" stroke-miterlimit="10" points="19.594,22.913 17.14,22.913 16.788,34.867 19.946,34.867 
	"/>
<polygon fill="#FF1526" stroke="#FF1526" stroke-miterlimit="10" points="17.387,12.952 19.349,12.952 19.057,0.5 17.678,0.5 "/>
<ellipse fill="#333333" stroke="#333333" stroke-width="2" stroke-miterlimit="10" cx="46.539" cy="94.148" rx="1.43" ry="1.348"/>
<ellipse fill="#333333" stroke="#333333" stroke-width="2" stroke-miterlimit="10" cx="110.391" cy="94.148" rx="1.431" ry="1.348"/>
<rect x="10.705" y="54.79" fill="#333333" stroke="#333333" stroke-miterlimit="10" width="15.335" height="1.992"/>
</svg>
