<?xml version="1.0" encoding="utf-8"?>
<!-- Generator: Adobe Illustrator 15.1.0, SVG Export Plug-In  -->
<!DOCTYPE svg PUBLIC "-//W3C//DTD SVG 1.1//EN" "http://www.w3.org/Graphics/SVG/1.1/DTD/svg11.dtd" [
	<!ENTITY ns_flows "http://ns.adobe.com/Flows/1.0/">
]>
<svg version="1.1"
	 xmlns="http://www.w3.org/2000/svg" xmlns:xlink="http://www.w3.org/1999/xlink" xmlns:a="http://ns.adobe.com/AdobeSVGViewerExtensions/3.0/"
	 x="0px" y="0px" width="116px" height="48px" viewBox="-0.82 -1.501 116 48" enable-background="new -0.82 -1.501 116 48"
	 xml:space="preserve">
<defs>
</defs>
<path fill="#FFFFFF" d="M8.222,42c-1.37,0-2.569-0.271-3.597-0.812c-1.028-0.54-1.884-1.268-2.569-2.183
	c-0.686-0.914-1.199-1.972-1.542-3.173C0.171,34.633,0,33.372,0,32.052c0-0.863,0.153-1.893,0.46-3.088
	c0.306-1.195,0.624-2.255,0.952-3.181c0.328-0.925,0.741-1.809,1.237-2.648c0.496-0.841,1.077-1.581,1.741-2.221
	c0.664-0.641,1.409-1.148,2.233-1.527c0.825-0.377,1.741-0.566,2.748-0.566c0.823,0,1.587,0.141,2.292,0.422
	c0.705,0.28,1.319,0.675,1.84,1.182c0.521,0.508,0.929,1.12,1.223,1.838c0.293,0.718,0.441,1.521,0.441,2.41
	c0,0.948-0.298,2.01-0.894,3.187c-0.596,1.176-1.291,2.185-2.085,3.024c-0.794,0.841-1.739,1.589-2.835,2.246
	s-2.283,1.169-3.563,1.535c0.221,0.413,0.438,0.757,0.652,1.032c0.213,0.274,0.431,0.488,0.651,0.642
	c0.221,0.152,0.453,0.26,0.696,0.32c0.243,0.062,0.504,0.092,0.785,0.092c0.88,0,1.809-0.184,2.785-0.55
	c0.976-0.367,1.926-0.825,2.851-1.375c0.924-0.551,1.797-1.149,2.62-1.799c0.822-0.649,1.519-1.265,2.091-1.846l2.84,3.071
	c-1.292,1.465-2.664,2.76-4.117,3.886c-0.631,0.483-1.31,0.958-2.037,1.425c-0.726,0.467-1.49,0.881-2.289,1.243
	c-0.8,0.361-1.629,0.651-2.488,0.868C9.974,41.892,9.104,42,8.222,42z M5.283,30.837c0.531,0,1.109-0.141,1.735-0.424
	c0.626-0.282,1.208-0.646,1.746-1.089c0.538-0.442,1.064-1.038,1.58-1.787c0.516-0.748,0.773-1.367,0.773-1.856
	c0-0.688-0.122-1.253-0.365-1.695c-0.243-0.443-0.541-0.665-0.895-0.665c-0.633,0-1.175,0.122-1.624,0.367
	c-0.449,0.244-0.825,0.562-1.127,0.951c-0.302,0.39-0.545,0.832-0.729,1.328c-0.185,0.497-0.398,1.112-0.641,1.846
	c-0.243,0.732-0.379,1.336-0.409,1.81C5.298,30.097,5.283,30.501,5.283,30.837z"/>
<path fill="#FFFFFF" d="M40.549,36.191c-0.338,0.506-0.789,1.099-1.354,1.778s-1.2,1.327-1.904,1.943
	c-0.704,0.616-1.46,1.138-2.268,1.564s-1.614,0.64-2.421,0.64c-0.975,0-1.788-0.328-2.439-0.986
	c-0.651-0.657-1.213-1.612-1.687-2.865c-0.355,0.434-0.792,0.874-1.31,1.322c-0.518,0.449-1.083,0.855-1.697,1.219
	c-0.614,0.363-1.254,0.66-1.92,0.893s-1.332,0.348-1.997,0.348c-0.705,0-1.391-0.153-2.058-0.461
	c-0.668-0.308-1.259-0.749-1.772-1.324s-0.924-1.276-1.233-2.104c-0.308-0.827-0.462-1.762-0.462-2.802
	c0-1.168,0.155-2.366,0.465-3.597c0.31-1.229,0.79-2.561,1.439-3.993c0.649-1.433,1.347-2.671,2.093-3.714s1.561-1.954,2.447-2.732
	c0.886-0.778,1.819-1.397,2.801-1.856c0.981-0.459,1.982-0.689,3.001-0.689c0.339,0,0.605,0.071,0.797,0.213
	c0.192,0.143,0.35,0.305,0.476,0.486c0.125,0.182,0.247,0.358,0.365,0.532c0.118,0.174,0.266,0.3,0.443,0.379
	c0.177,0.079,0.358,0.131,0.542,0.154s0.373,0.035,0.565,0.035c0.162,0,0.328-0.004,0.498-0.012s0.336-0.012,0.499-0.012
	c0.221,0,0.428,0.023,0.62,0.071c0.192,0.047,0.361,0.149,0.509,0.308c0.147,0.158,0.261,0.379,0.342,0.663
	c0.081,0.284,0.121,0.671,0.121,1.16c0,0.747-0.074,1.576-0.22,2.486c-0.147,0.91-0.315,1.844-0.504,2.799s-0.405,2.044-0.647,3.267
	c-0.242,1.224-0.363,2.253-0.363,3.091c0,0.717,0.062,1.276,0.187,1.68c0.125,0.403,0.393,0.605,0.804,0.605
	c0.308,0,0.631-0.081,0.968-0.244c0.338-0.162,0.679-0.375,1.024-0.639c0.345-0.263,0.689-0.562,1.035-0.895
	c0.345-0.333,0.671-0.678,0.979-1.034c0.719-0.836,1.446-1.781,2.18-2.834L40.549,36.191z M21.662,34.356
	c0,0.402,0.026,0.794,0.077,1.172c0.052,0.379,0.144,0.718,0.276,1.016s0.309,0.54,0.529,0.725c0.22,0.186,0.5,0.278,0.838,0.278
	c0.544,0,1.036-0.252,1.478-0.755c0.441-0.503,0.823-1.109,1.146-1.817c0.323-0.707,0.584-1.438,0.783-2.194
	c0.198-0.755,0.327-1.384,0.386-1.888l1.642-7.619c-0.602,0-1.188,0.159-1.761,0.477c-0.573,0.317-1.112,0.747-1.618,1.289
	s-0.973,1.162-1.398,1.858c-0.426,0.697-0.844,1.558-1.255,2.579c-0.411,1.023-0.701,1.921-0.87,2.695
	C21.747,32.946,21.662,33.675,21.662,34.356z"/>
<path fill="#FFFFFF" d="M57.083,36.75c-1.411,0.875-2.667,1.641-3.77,2.297c-1.103,0.656-2.083,1.203-2.943,1.641
	c-0.86,0.438-1.624,0.766-2.293,0.984C47.41,41.891,46.803,42,46.26,42c-1.11,0-2.087-0.359-2.934-1.078
	c-0.847-0.719-1.555-1.754-2.124-3.105s-0.996-2.988-1.281-4.91s-0.427-4.086-0.427-6.492c0-0.938,0.036-1.938,0.109-3
	s0.174-2.117,0.306-3.164c-0.443-0.069-0.787-0.135-1.031-0.195s-0.502-0.122-0.776-0.183c-0.273-0.062-0.62-0.126-1.042-0.196
	c-0.421-0.069-1.03-0.156-1.828-0.261c-0.354-0.052-0.628-0.151-0.82-0.3c-0.192-0.147-0.332-0.321-0.421-0.521
	c-0.088-0.2-0.14-0.409-0.155-0.626c-0.015-0.218-0.022-0.404-0.022-0.562c0-0.246,0.144-0.435,0.431-0.563
	c0.288-0.13,0.657-0.228,1.106-0.292c0.45-0.065,0.944-0.102,1.483-0.109c0.539-0.008,1.055-0.004,1.549,0.012
	s0.937,0.027,1.328,0.035c0.391,0.008,0.66-0.004,0.808-0.035c0.396-2.104,0.897-4.141,1.505-6.111
	c0.608-1.971,1.289-3.724,2.043-5.259c0.754-1.534,1.579-2.765,2.472-3.692C47.435,0.464,48.372,0,49.354,0
	c0.631,0,1.208,0.188,1.729,0.563c0.521,0.374,0.965,0.874,1.333,1.498c0.367,0.625,0.65,1.354,0.848,2.189
	c0.198,0.835,0.298,1.705,0.298,2.61c0,0.749-0.103,1.54-0.309,2.373c-0.206,0.833-0.485,1.682-0.837,2.546
	c-0.353,0.863-0.767,1.738-1.244,2.625c-0.477,0.886-0.98,1.765-1.508,2.637c0.132-0.052,0.353-0.063,0.661-0.03
	c0.309,0.031,0.665,0.054,1.068,0.066c0.403,0.012,0.84,0.024,1.31,0.037s0.925,0.026,1.365,0.042
	c0.44,0.016,0.851,0.031,1.232,0.047s0.697,0.031,0.947,0.047c0.293,0.018,0.506,0.191,0.639,0.521
	c0.132,0.331,0.198,0.748,0.198,1.252c0,0.584-0.147,1.06-0.441,1.427c-0.293,0.366-0.617,0.55-0.97,0.55H47.21
	c-0.427,0.625-0.859,1.238-1.293,1.84c-0.435,0.602-0.836,1.145-1.205,1.629c-0.059,0.969-0.11,1.922-0.154,2.859
	c-0.015,0.406-0.03,0.824-0.044,1.254s-0.029,0.855-0.044,1.277s-0.026,0.828-0.033,1.219c-0.008,0.391-0.011,0.75-0.011,1.078
	c0,0.844,0.074,1.555,0.221,2.133c0.147,0.578,0.361,1.051,0.641,1.418c0.28,0.367,0.623,0.633,1.028,0.797
	c0.405,0.164,0.858,0.246,1.359,0.246c0.308,0,0.694-0.078,1.157-0.234c0.462-0.156,0.969-0.371,1.521-0.645
	c0.551-0.273,1.131-0.598,1.741-0.973s1.212-0.785,1.807-1.23c0.595-0.445,1.165-0.914,1.708-1.406s1.036-0.996,1.477-1.512V36.75z
	 M50.039,7.07c0-0.171-0.011-0.361-0.033-0.571c-0.022-0.21-0.07-0.408-0.144-0.596c-0.074-0.187-0.188-0.342-0.343-0.467
	c-0.155-0.124-0.372-0.187-0.652-0.187c-0.383,0-0.77,0.357-1.161,1.07c-0.39,0.714-0.766,1.625-1.127,2.734
	c-0.361,1.108-0.7,2.33-1.017,3.664c-0.317,1.335-0.608,2.63-0.873,3.886c0.221,0.023,0.442,0.044,0.663,0.062
	c0.221,0.018,0.449,0.037,0.685,0.061c0.442-0.787,0.902-1.641,1.381-2.559s0.91-1.821,1.292-2.709
	c0.383-0.888,0.7-1.718,0.951-2.49C49.914,8.197,50.039,7.564,50.039,7.07z"/>
<path fill="#FFFFFF" d="M68.905,23.93c0.426,0.906,0.745,1.863,0.958,2.871c0.212,1.008,0.319,2.145,0.319,3.41
	c0,0.922-0.096,1.852-0.286,2.789s-0.466,1.844-0.825,2.719c-0.36,0.875-0.801,1.695-1.321,2.461
	c-0.521,0.766-1.116,1.43-1.783,1.992c-0.668,0.563-1.398,1.008-2.19,1.336S62.14,42,61.245,42c-1.292,0-2.396-0.301-3.313-0.902
	c-0.917-0.602-1.669-1.387-2.256-2.355s-1.017-2.063-1.288-3.281c-0.272-1.219-0.408-2.453-0.408-3.703
	c0-2.063,0.242-3.84,0.727-5.332s1.178-2.789,2.081-3.891c0.902-1.102,2.007-1.969,3.313-2.602s2.774-0.949,4.403-0.949
	c1.394,0,2.7,0.23,3.918,0.691s2.359,1.078,3.423,1.852s2.055,1.746,2.972,2.918s1.772,2.289,2.565,3.352l-0.419,3.305
	c-0.396-0.563-0.933-1.172-1.606-1.828c-0.676-0.656-1.391-1.383-2.146-2.18s-1.502-1.473-2.234-2.027
	c-0.734-0.555-1.365-1.02-1.895-1.395L68.905,23.93z M62.103,37.5c0.499,0,0.983-0.27,1.453-0.809
	c0.469-0.539,0.88-1.219,1.233-2.039c0.352-0.82,0.634-1.813,0.847-2.977s0.319-2.199,0.319-3.105c0-0.719-0.051-1.387-0.154-2.004
	c-0.103-0.617-0.257-1.152-0.462-1.605c-0.206-0.453-0.47-0.813-0.792-1.078c-0.323-0.266-0.712-0.398-1.167-0.398
	c-0.602,0-1.174,0.273-1.717,0.82s-1.02,1.246-1.431,2.098c-0.411,0.852-0.734,1.793-0.969,2.824s-0.352,2.195-0.352,3.492
	c0,0.656,0.059,1.273,0.176,1.852c0.118,0.578,0.301,1.082,0.551,1.512c0.249,0.43,0.58,0.773,0.99,1.031
	C61.039,37.371,61.531,37.5,62.103,37.5z"/>
<path fill="#FFFFFF" d="M90.898,20.156c0,0.423-0.014,0.997-0.04,1.724c-0.026,0.728-0.115,1.521-0.266,2.38
	c-0.149,0.86-0.331,1.899-0.545,3.12c-0.213,1.22-0.389,2.229-0.528,3.027c-0.14,0.799-0.262,1.497-0.366,2.096
	s-0.156,1.034-0.156,1.306c0,0.439,0.006,0.844,0.018,1.212c0.014,0.368,0.052,0.69,0.115,0.965
	c0.063,0.274,0.161,0.486,0.295,0.635c0.133,0.149,0.327,0.224,0.58,0.224c0.323,0,0.717-0.086,1.179-0.259
	c0.462-0.172,0.954-0.403,1.475-0.694c0.521-0.29,1.054-0.619,1.597-0.988c0.543-0.368,1.06-0.756,1.552-1.164
	c0.491-0.408,0.938-0.812,1.343-1.212c0.403-0.399,0.73-0.772,0.979-1.117c0,0.518,0.003,0.988,0.011,1.411
	c0.008,0.424,0.012,0.828,0.012,1.212c0,0.385,0.003,0.78,0.011,1.188c0.007,0.408,0.011,0.863,0.011,1.364
	c-0.322,0.339-0.723,0.702-1.199,1.087c-0.478,0.386-1.006,0.771-1.586,1.156c-0.58,0.386-1.195,0.756-1.849,1.11
	s-1.31,0.667-1.97,0.937c-0.661,0.271-1.307,0.486-1.937,0.647c-0.63,0.162-1.215,0.243-1.753,0.243
	c-0.549,0-1.018-0.115-1.406-0.347c-0.391-0.23-0.726-0.555-1.007-0.971s-0.52-0.912-0.714-1.49
	c-0.195-0.577-0.365-1.221-0.509-1.93c-0.528,0.725-1.087,1.392-1.675,2.001c-0.588,0.608-1.188,1.137-1.797,1.584
	s-1.227,0.798-1.852,1.052c-0.625,0.255-1.23,0.382-1.818,0.382c-0.482,0-0.936-0.086-1.359-0.258s-0.801-0.46-1.129-0.866
	c-0.329-0.406-0.589-0.941-0.779-1.605c-0.189-0.663-0.284-1.487-0.284-2.472c0.015-2.046,0.162-3.615,0.44-4.709
	c0.439-1.595,0.85-3.972,1.23-7.13c0.039-0.23,0.094-0.546,0.162-0.946c0.069-0.399,0.174-0.834,0.313-1.303s0.312-0.945,0.517-1.43
	c0.206-0.484,0.448-0.922,0.727-1.313c0.279-0.391,0.605-0.711,0.98-0.961c0.374-0.25,0.796-0.383,1.266-0.398
	c0.777,0.04,1.336,0.174,1.673,0.402s0.507,0.513,0.507,0.851c-0.133,1.054-0.281,2.066-0.445,3.038
	c-0.165,0.973-0.33,1.952-0.497,2.938c-0.166,0.986-0.352,2.084-0.556,3.291c-0.203,1.208-0.367,2.177-0.49,2.905
	s-0.223,1.318-0.299,1.768c-0.075,0.449-0.113,0.682-0.113,0.698c0,0.29,0.026,0.568,0.078,0.834
	c0.051,0.267,0.129,0.504,0.231,0.714c0.104,0.209,0.235,0.379,0.397,0.508s0.354,0.193,0.574,0.193
	c0.324,0,0.656-0.091,0.995-0.274c0.339-0.183,0.655-0.449,0.95-0.8c0.309-0.317,0.582-0.731,0.816-1.24
	c0.236-0.493,0.413-1.065,0.531-1.718l2.427-12.772c0.071-0.375,0.358-0.691,0.86-0.949c0.504-0.258,1.074-0.387,1.712-0.387
	c0.722,0,1.296,0.141,1.722,0.422C90.686,19.359,90.898,19.72,90.898,20.156z"/>
<path fill="#FFFFFF" d="M114.013,36.75c-1.41,0.875-2.667,1.641-3.77,2.297c-1.102,0.656-2.083,1.203-2.942,1.641
	c-0.86,0.438-1.624,0.766-2.293,0.984S103.733,42,103.189,42c-1.11,0-2.087-0.359-2.935-1.078c-0.847-0.719-1.555-1.754-2.123-3.105
	c-0.57-1.352-0.996-2.988-1.281-4.91s-0.427-4.086-0.427-6.492c0-0.938,0.036-1.938,0.108-3c0.073-1.063,0.175-2.117,0.307-3.164
	c-0.443-0.069-0.787-0.135-1.031-0.195s-0.502-0.122-0.775-0.183c-0.273-0.062-0.621-0.126-1.042-0.196
	c-0.421-0.069-1.03-0.156-1.828-0.261c-0.354-0.052-0.628-0.151-0.819-0.3c-0.192-0.147-0.332-0.321-0.422-0.521
	c-0.088-0.2-0.14-0.409-0.154-0.626c-0.016-0.218-0.022-0.404-0.022-0.562c0-0.246,0.144-0.435,0.431-0.563
	c0.289-0.13,0.657-0.228,1.107-0.292c0.449-0.065,0.943-0.102,1.482-0.109s1.055-0.004,1.549,0.012s0.938,0.027,1.328,0.035
	s0.66-0.004,0.808-0.035c0.396-2.104,0.897-4.141,1.505-6.111c0.608-1.971,1.289-3.724,2.044-5.259
	c0.755-1.534,1.579-2.765,2.472-3.692C104.364,0.464,105.302,0,106.284,0c0.631,0,1.207,0.188,1.729,0.563
	c0.521,0.374,0.965,0.874,1.333,1.498c0.366,0.625,0.649,1.354,0.848,2.189s0.298,1.705,0.298,2.61c0,0.749-0.104,1.54-0.309,2.373
	c-0.206,0.833-0.484,1.682-0.837,2.546c-0.353,0.863-0.767,1.738-1.244,2.625c-0.478,0.886-0.979,1.765-1.509,2.637
	c0.133-0.052,0.354-0.063,0.662-0.03c0.309,0.031,0.664,0.054,1.068,0.066c0.402,0.012,0.84,0.024,1.309,0.037
	c0.471,0.013,0.926,0.026,1.365,0.042c0.44,0.016,0.852,0.031,1.232,0.047c0.383,0.016,0.697,0.031,0.947,0.047
	c0.293,0.018,0.506,0.191,0.639,0.521c0.132,0.331,0.197,0.748,0.197,1.252c0,0.584-0.146,1.06-0.44,1.427
	c-0.294,0.366-0.617,0.55-0.97,0.55h-8.463c-0.428,0.625-0.859,1.238-1.293,1.84c-0.436,0.602-0.837,1.145-1.205,1.629
	c-0.059,0.969-0.11,1.922-0.154,2.859c-0.016,0.406-0.029,0.824-0.045,1.254c-0.014,0.43-0.029,0.855-0.043,1.277
	c-0.016,0.422-0.026,0.828-0.033,1.219c-0.008,0.391-0.012,0.75-0.012,1.078c0,0.844,0.074,1.555,0.221,2.133
	c0.148,0.578,0.361,1.051,0.642,1.418s0.622,0.633,1.028,0.797c0.404,0.164,0.857,0.246,1.359,0.246
	c0.308,0,0.693-0.078,1.156-0.234s0.969-0.371,1.521-0.645c0.551-0.273,1.132-0.598,1.741-0.973s1.211-0.785,1.807-1.23
	c0.595-0.445,1.164-0.914,1.707-1.406c0.544-0.492,1.036-0.996,1.477-1.512V36.75z M106.969,7.07c0-0.171-0.011-0.361-0.033-0.571
	s-0.069-0.408-0.144-0.596c-0.074-0.187-0.188-0.342-0.343-0.467c-0.155-0.124-0.372-0.187-0.651-0.187
	c-0.384,0-0.771,0.357-1.161,1.07c-0.39,0.714-0.767,1.625-1.127,2.734c-0.361,1.108-0.7,2.33-1.017,3.664
	c-0.316,1.335-0.607,2.63-0.873,3.886c0.221,0.023,0.441,0.044,0.663,0.062c0.221,0.018,0.449,0.037,0.685,0.061
	c0.442-0.787,0.902-1.641,1.382-2.559s0.909-1.821,1.292-2.709c0.384-0.888,0.701-1.718,0.951-2.49
	C106.843,8.197,106.969,7.564,106.969,7.07z"/>
</svg>
