<?xml version="1.0" encoding="UTF-8" standalone="no"?>
<!-- Generator: Adobe Illustrator 15.1.0, SVG Export Plug-In  -->

<svg
   xmlns:dc="http://purl.org/dc/elements/1.1/"
   xmlns:cc="http://creativecommons.org/ns#"
   xmlns:rdf="http://www.w3.org/1999/02/22-rdf-syntax-ns#"
   xmlns:svg="http://www.w3.org/2000/svg"
   xmlns="http://www.w3.org/2000/svg"
   xmlns:sodipodi="http://sodipodi.sourceforge.net/DTD/sodipodi-0.dtd"
   xmlns:inkscape="http://www.inkscape.org/namespaces/inkscape"
   version="1.1"
   x="0px"
   y="0px"
   width="150"
   height="80"
   viewBox="-2.435 -2.5 150 80"
   enable-background="new -2.435 -2.5 134 80"
   xml:space="preserve"
   id="svg2"
   inkscape:version="0.48.4 r9939"
   sodipodi:docname="erlin.svg"><metadata
     id="metadata30"><rdf:RDF><cc:Work
         rdf:about=""><dc:format>image/svg+xml</dc:format><dc:type
           rdf:resource="http://purl.org/dc/dcmitype/StillImage" /></cc:Work></rdf:RDF></metadata><sodipodi:namedview
     pagecolor="#ffffff"
     bordercolor="#666666"
     borderopacity="1"
     objecttolerance="10"
     gridtolerance="10"
     guidetolerance="10"
     inkscape:pageopacity="0"
     inkscape:pageshadow="2"
     inkscape:window-width="1535"
     inkscape:window-height="876"
     id="namedview28"
     showgrid="false"
     inkscape:zoom="17.432836"
     inkscape:cx="37.589037"
     inkscape:cy="17.740919"
     inkscape:window-x="65"
     inkscape:window-y="24"
     inkscape:window-maximized="1"
     inkscape:current-layer="svg2"
     showguides="true"
     inkscape:guide-bbox="true"><sodipodi:guide
       orientation="0,1"
       position="213.39041,33.958904"
       id="guide3009" /><sodipodi:guide
       orientation="0,1"
       position="94.534247,5.0479452"
       id="guide3011" /><sodipodi:guide
       orientation="1,0"
       position="25.583904,21.683219"
       id="guide3013" /></sodipodi:namedview><defs
     id="defs4" /><path
     d="m 19.265387,33.567486 c -0.758452,0 -1.421729,-0.126323 -1.990568,-0.378344 -0.56884,-0.252023 -1.043241,-0.591786 -1.421729,-1.018668 -0.379226,-0.427505 -0.663278,-0.920349 -0.85289,-1.481021 -0.189614,-0.56005 -0.284789,-1.148724 -0.284789,-1.764779 0,-0.402614 0.08485,-0.883634 0.254539,-1.441195 0.168954,-0.55756 0.345287,-1.052271 0.526784,-1.484753 0.181498,-0.431239 0.409476,-0.843186 0.684674,-1.235843 0.274459,-0.392035 0.5954,-0.737399 0.963559,-1.036092 0.367421,-0.298694 0.779111,-0.535781 1.235805,-0.71313 0.456695,-0.176105 0.963559,-0.264468 1.520593,-0.264468 0.455219,0 0.877975,0.06534 1.268268,0.19664 0.390293,0.130678 0.729679,0.314872 1.018156,0.55196 0.288478,0.236465 0.514243,0.522713 0.676557,0.857498 0.162315,0.334785 0.24421,0.710641 0.24421,1.125078 0,0.442439 -0.164528,0.938394 -0.494322,1.487243 -0.329794,0.548848 -0.714184,1.019912 -1.15391,1.411947 -0.439725,0.392657 -0.962083,0.741133 -1.56855,1.048538 -0.606467,0.307405 -1.263103,0.545737 -1.971386,0.716241 0.122474,0.192906 0.242734,0.352832 0.360782,0.481643 0.118046,0.128189 0.238307,0.227753 0.360781,0.298692 0.122474,0.07156 0.25085,0.121345 0.385128,0.14997 0.134279,0.02862 0.278887,0.04232 0.433823,0.04232 0.487682,0 1.000449,-0.08587 1.541253,-0.256378 0.540064,-0.171126 1.065374,-0.38519 1.577403,-0.64219 0.511291,-0.256379 0.994546,-0.535781 1.449765,-0.839453 0.454481,-0.303048 0.840347,-0.589919 1.156861,-0.861231 l 1.571501,1.433727 c -0.714922,0.68326 -1.474112,1.287492 -2.27757,1.813316 -0.349715,0.225264 -0.724513,0.447417 -1.126611,0.664593 -0.402098,0.217174 -0.824116,0.411325 -1.266792,0.580585 -0.442677,0.168636 -0.901585,0.303671 -1.376724,0.405102 -0.47514,0.101431 -0.95692,0.152458 -1.444601,0.152458 z m -1.626099,-5.209707 c 0.292905,0 0.613846,-0.06534 0.959871,-0.197262 0.346763,-0.132545 0.668442,-0.301182 0.96651,-0.5084 0.297331,-0.206596 0.58876,-0.484754 0.874286,-0.833852 0.285526,-0.34972 0.428659,-0.638457 0.428659,-0.866833 0,-0.321094 -0.06714,-0.584318 -0.201419,-0.791536 -0.135016,-0.206596 -0.299544,-0.309894 -0.49506,-0.309894 -0.350451,0 -0.649996,0.05725 -0.898632,0.171126 -0.248637,0.113876 -0.456695,0.261979 -0.623436,0.443683 -0.166742,0.181706 -0.301758,0.388924 -0.403574,0.620411 -0.101815,0.231488 -0.219862,0.51898 -0.354141,0.861232 -0.135016,0.342253 -0.210271,0.623522 -0.226503,0.84443 -0.01844,0.220909 -0.02656,0.410082 -0.02656,0.566895 z"
     id="path6"
     style="fill:#fff6d5"
     inkscape:connector-curvature="0" /><path
     d="m 37.153203,30.856846 c -0.186661,0.236465 -0.436773,0.512756 -0.748861,0.830118 -0.312824,0.317361 -0.664014,0.619166 -1.053569,0.906658 -0.389556,0.287492 -0.808622,0.531425 -1.254987,0.730554 -0.446366,0.198506 -0.893469,0.29807 -1.339835,0.29807 -0.539327,0 -0.989381,-0.15308 -1.349425,-0.459862 -0.360044,-0.306784 -0.671393,-0.752334 -0.933309,-1.337275 -0.196992,0.20224 -0.43825,0.407592 -0.724514,0.6173 -0.286265,0.209085 -0.599827,0.398879 -0.939212,0.568139 -0.339386,0.16926 -0.693526,0.30865 -1.062423,0.416926 -0.368897,0.108276 -0.737057,0.162414 -1.105216,0.162414 -0.390293,0 -0.769519,-0.07156 -1.139154,-0.215308 -0.369635,-0.143124 -0.696477,-0.34972 -0.980529,-0.617922 -0.284788,-0.268824 -0.511291,-0.596141 -0.682459,-0.981953 -0.170431,-0.386434 -0.256014,-0.822029 -0.256014,-1.308027 0,-0.545116 0.08558,-1.10392 0.25749,-1.678282 0.171906,-0.574362 0.437512,-1.195396 0.796817,-1.863721 0.359306,-0.668327 0.745172,-1.246422 1.157599,-1.733043 0.412427,-0.486621 0.863957,-0.912259 1.353852,-1.275669 0.489895,-0.36341 1.007089,-0.652147 1.550106,-0.866833 0.543016,-0.214063 1.096362,-0.321717 1.660036,-0.321717 0.1874,0 0.334958,0.03361 0.441201,0.09956 0.106243,0.06596 0.19404,0.14188 0.263392,0.22651 0.06935,0.08463 0.136492,0.168015 0.202155,0.248288 0.06493,0.0809 0.146822,0.140013 0.245687,0.176727 0.09739,0.03734 0.197728,0.06099 0.300281,0.07156 0.101816,0.0112 0.206583,0.01618 0.312088,0.01618 0.09,0 0.181497,-0.0013 0.275935,-0.0056 0.0937,-0.0038 0.185924,-0.0056 0.275934,-0.0056 0.122474,0 0.236832,0.0112 0.343075,0.03361 0.106242,0.02178 0.199942,0.0697 0.281099,0.143123 0.08115,0.07405 0.144608,0.176728 0.188876,0.309273 0.045,0.133167 0.06714,0.313627 0.06714,0.542003 0,0.349098 -0.04058,0.735532 -0.121736,1.159925 -0.08116,0.425015 -0.17412,0.86061 -0.278887,1.30616 -0.104767,0.446173 -0.224289,0.953952 -0.35783,1.52458 -0.134278,0.57125 -0.200679,1.051649 -0.200679,1.442439 0,0.334163 0.03394,0.59552 0.103291,0.78407 0.06861,0.18855 0.216911,0.282514 0.444889,0.282514 0.170431,0 0.348977,-0.03796 0.536377,-0.113877 0.186662,-0.07592 0.375537,-0.175482 0.566626,-0.298071 0.191088,-0.122589 0.382176,-0.261979 0.572528,-0.417548 0.19035,-0.155569 0.37111,-0.316739 0.542278,-0.482265 0.397671,-0.390791 0.799769,-0.831362 1.205555,-1.322962 l 0.584333,2.408836 z M 26.702351,29.999969 c 0,0.188551 0.01402,0.370878 0.04279,0.547605 0.02877,0.176727 0.07894,0.334785 0.152724,0.474175 0.07305,0.13939 0.17043,0.2514 0.292166,0.338519 0.122474,0.0865 0.276673,0.129434 0.463335,0.129434 0.301019,0 0.573266,-0.116989 0.817475,-0.35221 0.24421,-0.234598 0.455957,-0.517734 0.634503,-0.847541 0.179284,-0.330429 0.323154,-0.67206 0.433085,-1.024269 0.109931,-0.352209 0.18076,-0.646546 0.213223,-0.881145 l 0.908225,-3.556315 c -0.332746,0 -0.658113,0.07405 -0.974626,0.222152 -0.316514,0.148103 -0.614583,0.349098 -0.894945,0.601743 -0.280362,0.252644 -0.537852,0.542003 -0.773208,0.868077 -0.236094,0.324829 -0.467024,0.726198 -0.694264,1.203484 -0.227241,0.47791 -0.38808,0.896703 -0.481042,1.257623 -0.09296,0.360921 -0.139443,0.700685 -0.139443,1.018668 z"
     id="path8"
     style="fill:#fff6d5"
     inkscape:connector-curvature="0" /><path
     d="m 46.302588,31.11758 c -0.780587,0.408214 -1.475588,0.765401 -2.085744,1.072184 -0.610156,0.30616 -1.153172,0.561294 -1.62905,0.765401 -0.475876,0.204107 -0.898632,0.357187 -1.268267,0.459241 -0.369635,0.102053 -0.705331,0.15308 -1.006352,0.15308 -0.613844,0 -1.154647,-0.168015 -1.623147,-0.503422 -0.468499,-0.335408 -0.861005,-0.818295 -1.175305,-1.449285 -0.3143,-0.630989 -0.551132,-1.394523 -0.708283,-2.291847 -0.157149,-0.897324 -0.236094,-1.906659 -0.236094,-3.029869 0,-0.437461 0.01992,-0.904169 0.0605,-1.400124 0.03984,-0.495955 0.09665,-0.988177 0.168955,-1.476665 -0.245685,-0.03236 -0.435298,-0.06347 -0.570315,-0.09085 -0.135015,-0.02862 -0.278147,-0.05725 -0.429396,-0.08587 -0.151248,-0.02801 -0.343812,-0.05849 -0.576216,-0.09085 -0.233144,-0.03235 -0.570316,-0.0728 -1.011517,-0.121344 -0.196253,-0.02427 -0.347501,-0.07094 -0.453743,-0.140013 -0.106242,-0.06907 -0.183711,-0.150591 -0.233143,-0.243932 -0.0487,-0.09334 -0.07747,-0.19104 -0.08558,-0.29247 -0.0081,-0.101432 -0.01255,-0.189173 -0.01255,-0.26198 0,-0.115121 0.07968,-0.20224 0.239044,-0.263223 0.159365,-0.06098 0.362996,-0.105787 0.61237,-0.136279 0.249374,-0.03049 0.522358,-0.04729 0.820427,-0.05102 0.298069,-0.0038 0.583595,-0.0019 0.857317,0.0056 0.273721,0.0075 0.518669,0.01307 0.734842,0.01618 0.216174,0.0038 0.365209,-0.0019 0.446366,-0.01618 0.219125,-0.981331 0.496535,-1.932172 0.83297,-2.85252 0.337172,-0.919726 0.713446,-1.737399 1.131037,-2.45364 0.417592,-0.715619 0.873549,-1.290603 1.367871,-1.723708 0.494322,-0.433106 1.012253,-0.648413 1.556007,-0.648413 0.349715,0 0.668442,0.08774 0.95692,0.262601 0.288477,0.174238 0.534163,0.407591 0.737794,0.699439 0.202893,0.291226 0.359305,0.632234 0.469236,1.02178 0.109194,0.389545 0.164528,0.795893 0.164528,1.218419 0,0.34972 -0.05681,0.718731 -0.17043,1.107032 -0.11362,0.388923 -0.268557,0.785314 -0.463334,1.187928 -0.194778,0.402613 -0.424232,0.812071 -0.688362,1.225264 -0.26413,0.413814 -0.542279,0.823895 -0.834446,1.230864 0.07378,-0.02427 0.195516,-0.02862 0.365947,-0.01369 0.17043,0.01494 0.368159,0.02489 0.590972,0.03111 0.222814,0.0063 0.464811,0.01183 0.724514,0.01743 0.259704,0.0056 0.511292,0.01244 0.754764,0.01929 0.244209,0.0075 0.47145,0.01431 0.682459,0.02178 0.211009,0.0075 0.385867,0.01431 0.523834,0.02178 0.162314,0.0087 0.280362,0.08961 0.353403,0.243932 0.07305,0.153703 0.109194,0.349098 0.109194,0.583696 0,0.272558 -0.08116,0.494711 -0.24421,0.665837 -0.163052,0.170505 -0.341599,0.256379 -0.537115,0.256379 h -4.682781 c -0.236094,0.291848 -0.47514,0.578096 -0.71566,0.858742 -0.240521,0.280648 -0.462597,0.533914 -0.666966,0.760424 -0.03247,0.452395 -0.06124,0.896701 -0.08485,1.334785 -0.0081,0.189794 -0.01623,0.384567 -0.02435,0.584941 -0.0081,0.200373 -0.01623,0.399501 -0.02435,0.596141 -0.0081,0.19664 -0.01402,0.386435 -0.01771,0.568762 -0.0044,0.182327 -0.0059,0.350342 -0.0059,0.503422 0,0.393902 0.04058,0.725576 0.122473,0.995644 0.0819,0.270069 0.199943,0.490355 0.35488,0.661481 0.154936,0.171126 0.344549,0.295581 0.568839,0.372122 0.224289,0.07654 0.475139,0.115122 0.75255,0.115122 0.17043,0 0.38439,-0.03672 0.640405,-0.109522 0.256014,-0.0728 0.536376,-0.172993 0.841085,-0.300559 0.305447,-0.127567 0.626387,-0.278781 0.963559,-0.453641 0.337172,-0.17486 0.670655,-0.366521 0.999711,-0.574362 0.329057,-0.207841 0.644094,-0.426883 0.945115,-0.656502 0.301019,-0.229621 0.573266,-0.464842 0.816737,-0.705663 v 2.799626 z M 42.404084,17.265684 c 0,-0.07965 -0.0059,-0.168637 -0.01844,-0.266957 -0.01254,-0.09832 -0.03836,-0.191039 -0.07894,-0.277536 -0.04058,-0.0865 -0.104029,-0.159925 -0.189613,-0.218419 -0.08558,-0.05787 -0.205845,-0.08712 -0.360782,-0.08712 -0.211746,0 -0.426444,0.166771 -0.64188,0.499689 -0.216174,0.332918 -0.424232,0.758556 -0.624174,1.276291 -0.199943,0.517735 -0.387342,1.087741 -0.562199,1.710019 -0.175595,0.622899 -0.336434,1.227752 -0.483255,1.813316 0.122474,0.0112 0.244948,0.02054 0.366683,0.02862 0.122474,0.0087 0.248637,0.01742 0.379227,0.02863 0.244947,-0.367766 0.499486,-0.765402 0.764355,-1.194151 0.264868,-0.428127 0.503175,-0.850031 0.714922,-1.264467 0.212484,-0.413815 0.387342,-0.801494 0.526047,-1.161792 0.139443,-0.360299 0.208058,-0.655259 0.208058,-0.886123 z"
     id="path10"
     style="fill:#fff6d5"
     inkscape:connector-curvature="0" /><path
     d="m 59.483279,25.13376 c 0.235356,0.423149 0.412426,0.869322 0.529736,1.339764 0.117309,0.470441 0.177071,1.000621 0.177071,1.591785 0,0.429994 -0.05312,0.864343 -0.158627,1.301804 -0.105504,0.437462 -0.258228,0.86061 -0.456694,1.268824 -0.199205,0.408214 -0.442676,0.790915 -0.731154,1.148724 -0.288478,0.35781 -0.616796,0.667082 -0.986431,0.929683 -0.369635,0.262601 -0.773207,0.470442 -1.212196,0.623522 -0.438987,0.15308 -0.90601,0.22962 -1.40107,0.22962 -0.714922,0 -1.325816,-0.140635 -1.833418,-0.421281 -0.507603,-0.280648 -0.923718,-0.64717 -1.248348,-1.099565 -0.32463,-0.452396 -0.562199,-0.962663 -0.712709,-1.531425 -0.15051,-0.568761 -0.225765,-1.14499 -0.225765,-1.728064 0,-0.962664 0.134279,-1.792159 0.402098,-2.488488 0.267819,-0.696328 0.651472,-1.301804 1.150959,-1.815805 0.499486,-0.514002 1.110379,-0.919104 1.833418,-1.214063 0.7223,-0.295582 1.534611,-0.443062 2.436195,-0.443062 0.771733,0 1.494034,0.107654 2.168378,0.322962 0.674343,0.215308 1.305895,0.503422 1.894655,0.864344 0.58876,0.36092 1.13694,0.815183 1.644543,1.361543 0.507602,0.546359 0.981266,1.06845 1.419515,1.564405 l -0.231667,1.542626 C 63.722643,28.219012 63.42605,27.93463 63.052727,27.62847 62.679402,27.32231 62.283207,26.983168 61.864877,26.611047 61.446548,26.238924 61.034859,25.924052 60.628335,25.664562 60.221811,25.405695 59.872834,25.18852 59.580667,25.01366 l -0.09739,0.1201 z m -3.764225,6.33354 c 0.275934,0 0.543754,-0.1257 0.803457,-0.3771 0.260441,-0.251401 0.487682,-0.568762 0.68246,-0.951462 0.194777,-0.382701 0.35119,-0.845676 0.469236,-1.388924 0.11731,-0.543248 0.176333,-1.026136 0.176333,-1.449284 0,-0.335408 -0.02877,-0.647169 -0.08558,-0.935283 -0.05681,-0.288114 -0.141656,-0.537648 -0.256015,-0.749222 -0.114358,-0.211574 -0.259703,-0.378967 -0.438249,-0.503423 -0.178547,-0.124455 -0.393983,-0.18606 -0.64557,-0.18606 -0.333483,0 -0.649997,0.127566 -0.950278,0.3827 -0.300283,0.255134 -0.564413,0.58183 -0.791654,0.978843 -0.22724,0.397013 -0.405787,0.836963 -0.535638,1.317983 -0.129852,0.481021 -0.194778,1.024269 -0.194778,1.629745 0,0.306161 0.03173,0.594275 0.09739,0.864343 0.06493,0.270069 0.166742,0.50529 0.30471,0.705663 0.137967,0.200373 0.32094,0.360921 0.548181,0.48102 0.22724,0.1201 0.499487,0.180461 0.816,0.180461 z"
     id="path12"
     style="fill:#fff6d5"
     inkscape:connector-curvature="0" /><path
     d="m 71.653192,23.372715 c 0,0.197262 -0.0081,0.465463 -0.02214,0.804605 -0.0155,0.339141 -0.06346,0.709396 -0.146084,1.110765 -0.08337,0.401369 -0.184448,0.886745 -0.301757,1.456129 -0.118047,0.569384 -0.215436,1.040448 -0.292905,1.413192 -0.07673,0.372744 -0.14387,0.698817 -0.201417,0.977598 -0.05829,0.279402 -0.08706,0.482265 -0.08706,0.609209 0,0.20473 0.0037,0.393902 0.01106,0.565651 0.0066,0.171748 0.0273,0.322339 0.06271,0.449906 0.03541,0.128189 0.08928,0.227131 0.163791,0.296827 0.07378,0.06969 0.180759,0.104542 0.321678,0.104542 0.178546,0 0.396195,-0.03982 0.651472,-0.120722 0.256752,-0.08027 0.528261,-0.18855 0.816001,-0.324206 0.28774,-0.135657 0.582857,-0.289359 0.883139,-0.461108 0.300282,-0.171749 0.586546,-0.352831 0.858792,-0.543248 0.271508,-0.190417 0.519407,-0.378967 0.742959,-0.56565 0.223551,-0.186683 0.404311,-0.360299 0.54154,-0.521469 0,0.242067 0.003,0.461108 0.0066,0.658992 0.0037,0.197884 0.0066,0.386435 0.0066,0.56565 0,0.179216 0.0014,0.364033 0.0059,0.555072 0.0044,0.190417 0.0059,0.401991 0.0059,0.635967 -0.178546,0.158681 -0.399884,0.327318 -0.663276,0.507157 -0.264131,0.179838 -0.556297,0.359676 -0.8765,0.539514 -0.321677,0.180461 -0.661801,0.352831 -1.02332,0.518357 -0.361519,0.165526 -0.724513,0.311139 -1.091198,0.436839 -0.365208,0.126323 -0.7223,0.226509 -1.070538,0.302427 -0.348977,0.0753 -0.672869,0.113254 -0.969462,0.113254 -0.303971,0 -0.563675,-0.05414 -0.779111,-0.161792 -0.215436,-0.108276 -0.40136,-0.258867 -0.557034,-0.45364 -0.155674,-0.194151 -0.287739,-0.42626 -0.395458,-0.695084 -0.107717,-0.270068 -0.201417,-0.570006 -0.281099,-0.900435 -0.292167,0.337897 -0.601303,0.649035 -0.92667,0.933415 -0.325366,0.284382 -0.656636,0.531425 -0.993808,0.739266 -0.337172,0.207841 -0.678771,0.372744 -1.024796,0.490977 -0.346025,0.118233 -0.680984,0.177971 -1.006351,0.177971 -0.267082,0 -0.517931,-0.03982 -0.75255,-0.120099 -0.234619,-0.08027 -0.443414,-0.215308 -0.624912,-0.403858 -0.182235,-0.189795 -0.325367,-0.439328 -0.430134,-0.749222 -0.105504,-0.309894 -0.157887,-0.694462 -0.157887,-1.153703 0.0081,-0.955196 0.09001,-1.687616 0.243472,-2.197883 0.243471,-0.744244 0.469974,-1.853765 0.680984,-3.32794 0.02214,-0.107654 0.05238,-0.254512 0.09075,-0.441195 0.03762,-0.186683 0.09591,-0.389545 0.172643,-0.608587 0.07673,-0.219042 0.172644,-0.441195 0.286264,-0.667082 0.113621,-0.225886 0.247161,-0.429994 0.402098,-0.612321 0.154199,-0.182327 0.334958,-0.331673 0.541541,-0.448661 0.206582,-0.116989 0.440463,-0.178595 0.700904,-0.186062 0.430134,0.01867 0.738532,0.08152 0.925931,0.187928 0.186662,0.107032 0.279625,0.239577 0.279625,0.397013 -0.07305,0.492222 -0.154937,0.96453 -0.245686,1.418171 -0.09149,0.453639 -0.182973,0.910392 -0.275197,1.370877 -0.09223,0.460485 -0.194777,0.972619 -0.30766,1.536403 -0.112882,0.563783 -0.202893,1.015557 -0.271509,1.355942 -0.06861,0.340386 -0.123211,0.614811 -0.165266,0.824518 -0.04205,0.210329 -0.06271,0.318606 -0.06271,0.326073 0,0.135657 0.01476,0.26509 0.04279,0.389546 0.02877,0.123833 0.07156,0.235221 0.128377,0.332296 0.05755,0.0977 0.130589,0.176727 0.219862,0.23771 0.09001,0.05974 0.195515,0.09023 0.317989,0.09023 0.179285,0 0.362995,-0.04232 0.550395,-0.128189 0.187399,-0.08525 0.362994,-0.209707 0.525309,-0.373366 0.171169,-0.148102 0.322416,-0.34163 0.452268,-0.579341 0.13059,-0.22962 0.227978,-0.497199 0.292904,-0.801493 l 1.342786,-5.960796 c 0.0391,-0.174859 0.198466,-0.322962 0.476614,-0.443061 0.278886,-0.1201 0.594662,-0.180461 0.947328,-0.180461 0.399146,0 0.717136,0.06534 0.952492,0.19664 0.23388,0.132545 0.351928,0.299938 0.351928,0.504045 z"
     id="path14"
     style="fill:#fff6d5"
     inkscape:connector-curvature="0" /><path
     d="m 84.443589,31.11758 c -0.781323,0.408214 -1.475588,0.765401 -2.085743,1.072184 -0.610157,0.306783 -1.153173,0.561294 -1.62905,0.765401 -0.475877,0.204107 -0.897895,0.357187 -1.268268,0.459241 -0.370373,0.102053 -0.706069,0.15308 -1.006351,0.15308 -0.613845,0 -1.154648,-0.168015 -1.623147,-0.503422 -0.4685,-0.335408 -0.860267,-0.818295 -1.176044,-1.449285 -0.3143,-0.630989 -0.550394,-1.394523 -0.708281,-2.291847 -0.157889,-0.897324 -0.236095,-1.906659 -0.236095,-3.029869 0,-0.437461 0.01992,-0.904169 0.0605,-1.400124 0.03984,-0.495955 0.09665,-0.988177 0.168955,-1.476665 -0.245686,-0.03236 -0.436036,-0.06347 -0.570315,-0.09085 -0.135754,-0.02862 -0.278148,-0.05725 -0.429396,-0.08587 -0.151248,-0.02801 -0.343074,-0.05849 -0.576217,-0.09085 -0.232405,-0.03235 -0.569578,-0.0728 -1.011515,-0.121344 -0.196254,-0.02427 -0.347502,-0.07094 -0.453744,-0.140013 -0.105505,-0.06907 -0.182973,-0.150591 -0.232406,-0.243932 -0.0487,-0.09334 -0.07673,-0.19104 -0.08558,-0.29247 -0.0081,-0.101432 -0.01255,-0.189173 -0.01255,-0.26198 0,-0.115121 0.07968,-0.20224 0.238308,-0.263223 0.160101,-0.06098 0.362994,-0.105787 0.612368,-0.136279 0.249375,-0.03049 0.522359,-0.04729 0.820427,-0.05102 0.297331,-0.0038 0.583595,-0.0019 0.85658,0.0056 0.273721,0.0075 0.518669,0.01307 0.734842,0.01618 0.216174,0.0031 0.365946,-0.0019 0.446365,-0.01618 0.219126,-0.981331 0.497274,-1.932172 0.83297,-2.85252 0.337172,-0.919726 0.714184,-1.737399 1.131039,-2.45364 0.417591,-0.715619 0.873548,-1.290603 1.367869,-1.723708 0.494323,-0.433106 1.014467,-0.648413 1.557483,-0.648413 0.348977,0 0.667704,0.08774 0.95692,0.262601 0.288477,0.174238 0.534163,0.407591 0.737056,0.699439 0.202893,0.291226 0.359306,0.632234 0.469238,1.02178 0.109931,0.389545 0.165265,0.795893 0.165265,1.218419 0,0.34972 -0.05681,0.718731 -0.170431,1.107032 -0.11362,0.388923 -0.267819,0.785314 -0.463334,1.187928 -0.195516,0.402613 -0.424231,0.812071 -0.688362,1.225264 -0.26413,0.413814 -0.542279,0.823895 -0.835183,1.230864 0.07378,-0.02427 0.195516,-0.02862 0.365946,-0.01369 0.17043,0.01494 0.368159,0.02489 0.59171,0.03111 0.223553,0.0063 0.464073,0.01183 0.724515,0.01743 0.259703,0.0056 0.511291,0.01244 0.754763,0.01929 0.243472,0.0069 0.47145,0.01431 0.681722,0.02178 0.211746,0.0075 0.385866,0.01431 0.524571,0.02178 0.162315,0.0087 0.279624,0.08961 0.353403,0.243932 0.07378,0.153703 0.109194,0.349098 0.109194,0.583696 0,0.272558 -0.08116,0.494711 -0.243472,0.665837 -0.163053,0.170505 -0.341599,0.256379 -0.537851,0.256379 h -4.68278 c -0.236094,0.291848 -0.475139,0.578096 -0.71566,0.858742 -0.24052,0.280648 -0.463335,0.533914 -0.666966,0.760424 -0.03246,0.452395 -0.0605,0.896701 -0.08485,1.334785 -0.0089,0.189794 -0.01623,0.384567 -0.02435,0.584941 -0.0089,0.200373 -0.0155,0.399501 -0.02435,0.596141 -0.0081,0.19664 -0.01476,0.386435 -0.01771,0.568762 -0.0044,0.182327 -0.0066,0.350342 -0.0066,0.503422 0,0.393902 0.04132,0.725576 0.122475,0.995644 0.08116,0.270069 0.199942,0.490355 0.35414,0.661481 0.155675,0.171126 0.34455,0.295581 0.56884,0.372122 0.223552,0.07654 0.474401,0.115122 0.75255,0.115122 0.169693,0 0.383653,-0.03672 0.639667,-0.109522 0.256015,-0.0728 0.536376,-0.172993 0.841823,-0.300559 0.304709,-0.127567 0.62565,-0.278781 0.962822,-0.453641 0.337171,-0.17486 0.671392,-0.366521 0.99971,-0.574362 0.329794,-0.207841 0.644094,-0.426883 0.945114,-0.656502 0.301021,-0.229621 0.573266,-0.464842 0.816738,-0.705663 v 2.799626 z M 80.545824,17.265684 c 0,-0.07965 -0.0066,-0.168637 -0.01844,-0.266957 -0.0118,-0.09832 -0.03911,-0.191039 -0.07895,-0.277536 -0.03984,-0.0865 -0.10403,-0.159925 -0.189614,-0.218419 -0.08558,-0.05787 -0.205844,-0.08712 -0.360781,-0.08712 -0.211747,0 -0.426445,0.166771 -0.641881,0.499689 -0.216174,0.332918 -0.424231,0.758556 -0.624174,1.276291 -0.199941,0.517735 -0.386603,1.087741 -0.562936,1.710019 -0.174858,0.622899 -0.335696,1.227752 -0.482518,1.813316 0.122474,0.0112 0.244948,0.02054 0.366684,0.02862 0.121736,0.0087 0.248637,0.01742 0.379964,0.02863 0.244209,-0.367766 0.498749,-0.765402 0.763617,-1.194151 0.264868,-0.428749 0.503913,-0.850031 0.71566,-1.264467 0.212484,-0.413815 0.386604,-0.801494 0.526047,-1.161792 0.137967,-0.360299 0.207321,-0.655259 0.207321,-0.886123 z"
     id="path16"
     style="fill:#fff6d5"
     inkscape:connector-curvature="0" /><path
     d="m 0.130137,71.923479 0,-28.267958 23.056918,0 0,5.445907 -15.283644,0 0,5.164579 15.245493,0 0,5.365896 -15.245493,0 0,6.726083 15.245493,-0.05736 0,5.565493 z"
     id="path18"
     inkscape:connector-curvature="0"
     style="fill:#ffffff"
     sodipodi:nodetypes="ccccccccccccc" /><path
     d="M 51.159036,71.923479 44.930925,61.833495 H 40.072391 V 71.923479 H 32.209899 V 43.655521 h 14.046943 c 0.883629,0 1.766308,0 2.649937,0.04044 1.413236,0.08001 6.360987,0.359619 8.790729,4.404044 0.44134,0.761395 1.2367,2.40291 1.2367,4.724949 0,3.163444 -1.368628,4.844535 -2.429741,5.765091 -0.442289,0.400915 -0.971897,0.761394 -1.457845,1.041863 -0.573267,0.279608 -1.236701,0.560077 -2.51706,1.000567 l 7.200007,11.291009 H 51.159036 z M 46.653574,48.90011 h -6.625792 v 7.688795 h 6.449256 c 0.309412,0 1.193041,0 2.076669,-0.280468 2.517061,-0.761395 2.605329,-2.922551 2.605329,-3.64351 0,-3.683946 -3.135886,-3.764817 -4.505462,-3.764817 z"
     id="path20"
     inkscape:connector-curvature="0"
     style="fill:#ffffff" /><path
     d="M 67.115185,71.923479 V 43.655521 h 7.773275 v 22.30155 h 12.191418 v 5.966408 H 67.115185 z"
     id="path22"
     inkscape:connector-curvature="0"
     style="fill:#ffffff" /><path
     d="M 94.60122,71.923479 V 43.655521 h 7.77327 v 28.267958 h -7.77327 z"
     id="path24"
     inkscape:connector-curvature="0"
     style="fill:#ffffff" /><path
     d="m 130.56952,71.923479 -11.30779,-17.497451 0.2648,17.497451 h -7.50942 V 43.655521 h 7.6423 l 11.39605,17.737483 -0.30941,-17.737483 h 7.46481 v 28.267958 h -7.64134 z"
     id="path26"
     inkscape:connector-curvature="0"
     style="fill:#ffffff" /></svg>