<?xml version="1.0" encoding="UTF-8" standalone="no"?>
<svg
   xmlns:dc="http://purl.org/dc/elements/1.1/"
   xmlns:cc="http://creativecommons.org/ns#"
   xmlns:rdf="http://www.w3.org/1999/02/22-rdf-syntax-ns#"
   xmlns:svg="http://www.w3.org/2000/svg"
   xmlns="http://www.w3.org/2000/svg"
   xmlns:sodipodi="http://sodipodi.sourceforge.net/DTD/sodipodi-0.dtd"
   xmlns:inkscape="http://www.inkscape.org/namespaces/inkscape"
   height="16"
   version="1.1"
   viewBox="0 0 16 16"
   width="16"
   xml:space="preserve"
   id="svg2"
   inkscape:version="0.48.4 r9939"
   sodipodi:docname="eye.svg"><metadata
     id="metadata16"><rdf:RDF><cc:Work
         rdf:about=""><dc:format>image/svg+xml</dc:format><dc:type
           rdf:resource="http://purl.org/dc/dcmitype/StillImage" /></cc:Work></rdf:RDF></metadata><defs
     id="defs14" /><sodipodi:namedview
     pagecolor="#ffffff"
     bordercolor="#666666"
     borderopacity="1"
     objecttolerance="10"
     gridtolerance="10"
     guidetolerance="10"
     inkscape:pageopacity="0"
     inkscape:pageshadow="2"
     inkscape:window-width="1600"
     inkscape:window-height="852"
     id="namedview12"
     showgrid="false"
     inkscape:zoom="9.8333333"
     inkscape:cx="-1.8983051"
     inkscape:cy="12"
     inkscape:window-x="0"
     inkscape:window-y="24"
     inkscape:window-maximized="0"
     inkscape:current-layer="eye" /><g
     id="Layer_1"
     transform="translate(0,-8)" /><g
     id="eye"
     transform="translate(0,-8)"><g
       id="g6"
       style="fill:#333333;fill-opacity:1"
       transform="matrix(0.47457627,0,0,0.47457627,0.37288134,10.372882)"><path
         d="M 16,0 C 7.164,0 0,11.844 0,11.844 0,11.844 7.164,24 16,24 24.836,24 32,11.844 32,11.844 32,11.844 24.836,0 16,0 z m 0,20 c -4.418,0 -8,-3.582 -8,-8 0,-4.418 3.582,-8 8,-8 4.418,0 8,3.582 8,8 0,4.418 -3.582,8 -8,8 z"
         style="fill:#333333;fill-opacity:1"
         id="path8"
         inkscape:connector-curvature="0" /><circle
         cx="16"
         cy="12.016"
         r="4"
         style="fill:#333333;fill-opacity:1"
         id="circle10"
         d="m 20,12.016 c 0,2.209139 -1.790861,4 -4,4 -2.209139,0 -4,-1.790861 -4,-4 0,-2.2091392 1.790861,-4.0000002 4,-4.0000002 2.209139,0 4,1.790861 4,4.0000002 z"
         sodipodi:cx="16"
         sodipodi:cy="12.016"
         sodipodi:rx="4"
         sodipodi:ry="4" /></g></g></svg>