<?xml version="1.0" encoding="UTF-8" standalone="no"?>
<!-- Generated by IcoMoon.io -->

<svg
   xmlns:dc="http://purl.org/dc/elements/1.1/"
   xmlns:cc="http://creativecommons.org/ns#"
   xmlns:rdf="http://www.w3.org/1999/02/22-rdf-syntax-ns#"
   xmlns:svg="http://www.w3.org/2000/svg"
   xmlns="http://www.w3.org/2000/svg"
   xmlns:sodipodi="http://sodipodi.sourceforge.net/DTD/sodipodi-0.dtd"
   xmlns:inkscape="http://www.inkscape.org/namespaces/inkscape"
   version="1.1"
   width="16"
   height="16"
   viewBox="0 0 16 16"
   id="svg3408"
   inkscape:version="0.91 r13725"
   sodipodi:docname="foodtype.svg">
  <metadata
     id="metadata3416">
    <rdf:RDF>
      <cc:Work
         rdf:about="">
        <dc:format>image/svg+xml</dc:format>
        <dc:type
           rdf:resource="http://purl.org/dc/dcmitype/StillImage" />
        <dc:title></dc:title>
      </cc:Work>
    </rdf:RDF>
  </metadata>
  <defs
     id="defs3414" />
  <sodipodi:namedview
     pagecolor="#ffffff"
     bordercolor="#666666"
     borderopacity="1"
     objecttolerance="10"
     gridtolerance="10"
     guidetolerance="10"
     inkscape:pageopacity="0"
     inkscape:pageshadow="2"
     inkscape:window-width="1600"
     inkscape:window-height="878"
     id="namedview3412"
     showgrid="false"
     showguides="false"
     inkscape:zoom="14.75"
     inkscape:cx="-3.6949153"
     inkscape:cy="4.8193124"
     inkscape:window-x="0"
     inkscape:window-y="22"
     inkscape:window-maximized="0"
     inkscape:current-layer="svg3408" />
  <g
     transform="matrix(0.27410804,0,0,0.27410804,-1.1762263,7.9698155)"
     id="g2990"
     style="fill:#000000">
    <path
       style="fill:#000000"
       inkscape:connector-curvature="0"
       id="path9"
       d="m 23.426,28 c -0.878,0 -1.6,-0.72 -1.6,-1.604 L 21.825,-2.455 c 0,-0.88 0.721,-1.6 1.601,-1.6 l 0.564,0 c 0.881,0 1.601,0.72 1.601,1.6 l 0,28.852 c 0,0.884 -0.72,1.604 -1.601,1.604 l -0.564,0 z" />
    <path
       style="fill:#000000"
       inkscape:connector-curvature="0"
       id="path11"
       d="m 29.086,-27.061 0,11.165 -0.02,-0.091 c 0,0 0.19,2.872 -2.104,2.872 0,0 -2.098,0.389 -2.216,-2.581 l 0,-11.312 -2.26,0 0,10.937 -0.014,-0.01 c 0.058,3.399 -2.226,2.965 -2.226,2.965 -1.718,0 -2.043,-1.607 -2.1,-2.417 l 0,-11.528 -1.877,0 0.001,13.351 c -0.001,3.361 3.295,6.092 7.344,6.092 4.052,0 7.345,-2.734 7.345,-6.092 l 0,-13.351 -1.873,0 z" />
    <path
       style="fill:#000000"
       inkscape:connector-curvature="0"
       id="path13"
       d="m 46.609,28 c 0.881,0 1.602,-0.72 1.602,-1.604 l 0,-18.046 c 0,-0.883 0,-2.322 0,-3.205 l 0,-23.894 c 0,-0.88 0,-2.322 0,-3.201 l 0,-4.183 c 0,-0.881 -0.708,-1.473 -1.577,-1.314 l -1.317,0.24 c -0.867,0.157 -1.653,1.003 -1.75,1.877 L 40.52,2.708 c -0.095,0.877 0.521,1.794 1.365,2.037 l 1.02,0.292 c 0.848,0.247 1.541,1.169 1.541,2.049 l -0.002,19.311 c 0,0.885 0.722,1.604 1.604,1.604 L 46.609,28 l 0,0 z" />
  </g>
</svg>
