<?xml version="1.0" encoding="utf-8"?>
<!-- Generator: Adobe Illustrator 15.1.0, SVG Export Plug-In . SVG Version: 6.00 Build 0)  -->
<!DOCTYPE svg PUBLIC "-//W3C//DTD SVG 1.1//EN" "http://www.w3.org/Graphics/SVG/1.1/DTD/svg11.dtd">
<svg version="1.1" id="Layer_1" xmlns="http://www.w3.org/2000/svg" xmlns:xlink="http://www.w3.org/1999/xlink" x="0px" y="0px"
	 width="240px" height="240px" viewBox="0 0 240 240" enable-background="new 0 0 240 240" xml:space="preserve">
<path fill="none" d="M37.476,128.502c0,46.902,38.218,84.926,85.362,84.926c47.146,0,85.365-38.023,85.365-84.926"/>
<g enable-background="new    ">
	<path fill="#333333" d="M59.447,201.298c-2.201-0.188-3.86-1.805-5.345-3.295l-6.867-6.899l17.974-17.671l7.623,7.656
		c0.428,0.429,2.338,2.604,2.145,5.092c-0.164,2.061-1.614,3.387-2.072,3.837c-1.375,1.353-2.365,1.825-3.277,1.971
		c-1.823,0.295-3.513-0.745-3.891-0.973c0.452,0.655,0.903,1.312,1.152,2.067c0.795,2.318-0.556,4.046-2.135,5.599
		C63.276,200.133,61.673,201.459,59.447,201.298z M60.714,192.652c1.043-1.027,1.047-1.682-0.009-2.743l-1.156-1.16l-3.972,3.904
		l1.107,1.112c1.081,1.085,1.688,1.188,2.809,0.087L60.714,192.652z M67.845,185.393c0.993-0.978,0.845-1.58-0.086-2.516
		l-1.107-1.111l-3.717,3.653l1.107,1.111c0.955,0.961,1.638,0.989,2.657-0.011L67.845,185.393z"/>
</g>
<g enable-background="new    ">
	<path fill="#333333" d="M73.424,212.964l11.244-22.505l12.366,6.101l-2.182,4.366l-5.991-2.954l-2.276,4.56l5.542,2.732
		l-2.15,4.305l-5.542-2.734l-2.468,4.939l5.99,2.955l-2.166,4.337L73.424,212.964z"/>
</g>
<g enable-background="new    ">
	<path fill="#333333" d="M113.054,225.538l-2.099-10.621l-0.638-0.08l-1.274,10.207l-7.134-0.88l3.112-24.935l9.122,1.126
		c3.408,0.418,5.037,0.943,6.203,1.983c0.875,0.788,1.475,2.046,1.499,3.304c0.01,0.79-0.053,1.573-0.188,2.667
		c-0.309,2.473-0.588,3.55-1.217,4.549c-0.589,0.966-1.418,1.547-2.695,1.962l2.693,11.629L113.054,225.538z M114.822,207.037
		c0.141-1.131-0.232-1.607-1.402-1.75l-1.882-0.233l-0.612,4.91l1.811,0.223c1.349,0.167,1.712-0.147,1.91-1.736L114.822,207.037z"
		/>
</g>
<g enable-background="new    ">
	<path fill="#333333" d="M136.837,225.198l-5.152-24.599l6.897-1.428l4.176,19.931l6.408-1.326l0.978,4.67L136.837,225.198z"/>
</g>
<g enable-background="new    ">
	<path fill="#333333" d="M164.572,216.805l-11.613-22.32l6.354-3.265l11.612,22.32L164.572,216.805z"/>
</g>
<g enable-background="new    ">
	<path fill="#333333" d="M192.945,196.655l-13.861-7.122l10.393,10.51l-4.235,4.136l-17.722-17.922l4.668-4.559l14.216,7.225
		l-10.644-10.715l4.235-4.136l17.722,17.924L192.945,196.655z"/>
</g>
<path fill="none" stroke="#333333" stroke-width="3" stroke-miterlimit="10" d="M132.918,24.481
	c54.175,5.475,96.453,50.992,96.453,106.333c0,59.03-48.102,106.885-107.437,106.885c-59.334,0-107.434-47.854-107.434-106.885
	c0-55.341,42.276-100.858,96.451-106.333"/>
<path fill="#333333" stroke="#333333" stroke-width="2" stroke-miterlimit="10" d="M35.585,130.236c0,1.28-1.042,2.317-2.327,2.317
	c-1.285,0-2.326-1.039-2.326-2.317c0-1.276,1.041-2.313,2.326-2.313C34.544,127.924,35.585,128.96,35.585,130.236z"/>
<path fill="#333333" stroke="#333333" stroke-width="2" stroke-miterlimit="10" d="M204.897,132.253
	c0,1.296-1.057,2.343-2.354,2.343c-1.301,0-2.354-1.049-2.354-2.343c0-1.292,1.054-2.341,2.354-2.341
	C203.842,129.912,204.897,130.961,204.897,132.253z"/>
<path fill="#333333" stroke="#333333" stroke-miterlimit="10" d="M146.314,115.085c0-6.204,2.618-11.749,6.73-15.452
	c-7.663-7.723-18.552-12.556-30.635-12.556c-23.2,0-42.007,17.779-42.007,39.709c0,21.93,18.807,39.707,42.007,39.707
	c20.154,0,36.984-13.42,41.056-31.323C153.854,134.262,146.314,125.623,146.314,115.085z"/>
<polygon fill="#333333" stroke="#333333" stroke-miterlimit="10" points="130.546,186.607 113.969,186.607 115.714,151.416 
	128.801,151.416 "/>
<polygon fill="#F7F1E7" stroke="#F7F1E7" stroke-miterlimit="10" points="126.184,85.922 119.203,85.922 121.82,2.832 
	123.565,2.832 "/>
<polygon fill="#FF1526" stroke="#FF1526" stroke-miterlimit="10" points="119.578,73.214 119.203,85.922 126.184,85.922 
	125.81,73.214 "/>
<polygon fill="#FF1526" stroke="#FF1526" stroke-miterlimit="10" points="124.69,37.046 120.698,37.046 120.126,56.596 
	125.263,56.596 "/>
<polygon fill="#FF1526" stroke="#FF1526" stroke-miterlimit="10" points="121.1,20.428 124.289,20.428 123.813,2.832 121.572,2.832 
	"/>
<path fill="none" d="M33.841,154.108c0-46.903,38.218-84.925,85.362-84.925c47.145,0,85.36,38.021,85.36,84.925"/>
<g enable-background="new    ">
	<path fill="#333333" d="M71.93,84.967c-0.894,0.659-1.799,1.073-2.716,1.239c-0.917,0.167-1.808,0.135-2.67-0.093
		c-0.865-0.228-1.682-0.625-2.453-1.191c-0.771-0.567-1.458-1.252-2.06-2.057c-0.394-0.526-0.763-1.227-1.108-2.104
		c-0.345-0.876-0.622-1.675-0.829-2.398c-0.208-0.722-0.342-1.459-0.401-2.212c-0.06-0.75-0.019-1.481,0.123-2.192
		c0.141-0.71,0.395-1.378,0.761-2.007c0.366-0.628,0.877-1.185,1.533-1.67c0.537-0.396,1.1-0.679,1.688-0.847
		c0.588-0.169,1.168-0.225,1.739-0.167c0.571,0.059,1.117,0.235,1.635,0.531c0.52,0.297,0.982,0.715,1.387,1.258
		c0.432,0.577,0.723,1.367,0.87,2.372c0.147,1.004,0.154,1.954,0.02,2.849c-0.136,0.896-0.411,1.807-0.826,2.735
		c-0.415,0.929-0.956,1.813-1.623,2.653c0.333,0.145,0.631,0.25,0.896,0.314s0.504,0.089,0.718,0.077
		c0.213-0.014,0.414-0.06,0.6-0.14c0.186-0.079,0.371-0.188,0.553-0.323c0.575-0.425,1.097-0.983,1.566-1.677
		c0.469-0.694,0.88-1.431,1.232-2.212c0.353-0.781,0.648-1.567,0.889-2.36c0.24-0.792,0.415-1.502,0.522-2.133l3.253,0.504
		c-0.174,1.515-0.479,2.964-0.913,4.353c-0.191,0.599-0.417,1.215-0.678,1.85c-0.261,0.635-0.571,1.255-0.927,1.862
		c-0.357,0.605-0.765,1.182-1.227,1.728C73.022,84.056,72.504,84.542,71.93,84.967z M64.922,79.578
		c0.346-0.255,0.659-0.619,0.938-1.093c0.279-0.475,0.494-0.976,0.642-1.505c0.149-0.529,0.22-1.146,0.216-1.851
		c-0.005-0.706-0.119-1.207-0.342-1.505c-0.314-0.419-0.651-0.705-1.012-0.857c-0.361-0.153-0.656-0.145-0.887,0.026
		c-0.414,0.306-0.71,0.641-0.892,1.006c-0.182,0.365-0.283,0.738-0.302,1.123c-0.02,0.382,0.024,0.77,0.131,1.162
		c0.106,0.392,0.246,0.87,0.422,1.434c0.176,0.563,0.362,0.997,0.559,1.3C64.594,79.121,64.769,79.374,64.922,79.578z"/>
</g>
<g enable-background="new    ">
	<path fill="#333333" d="M92.018,68.81c-0.07,0.466-0.191,1.033-0.366,1.699c-0.174,0.667-0.411,1.337-0.707,2.013
		c-0.299,0.675-0.667,1.305-1.103,1.888c-0.437,0.584-0.949,1.023-1.534,1.318c-0.706,0.357-1.409,0.431-2.108,0.225
		c-0.699-0.208-1.437-0.649-2.214-1.324c-0.107,0.423-0.27,0.88-0.491,1.375c-0.22,0.493-0.49,0.975-0.809,1.445
		c-0.32,0.471-0.68,0.907-1.083,1.306c-0.402,0.401-0.845,0.724-1.327,0.967c-0.51,0.258-1.061,0.404-1.651,0.44
		c-0.591,0.036-1.171-0.046-1.742-0.248c-0.572-0.202-1.113-0.526-1.622-0.974c-0.51-0.449-0.944-1.024-1.304-1.728
		c-0.405-0.792-0.707-1.659-0.908-2.606c-0.201-0.946-0.313-2.023-0.338-3.23c-0.025-1.208,0.052-2.302,0.232-3.281
		c0.179-0.979,0.456-1.894,0.828-2.745c0.373-0.851,0.835-1.613,1.389-2.282c0.552-0.67,1.198-1.192,1.937-1.564
		c0.246-0.124,0.462-0.174,0.651-0.147c0.188,0.025,0.36,0.077,0.514,0.154c0.154,0.078,0.303,0.154,0.449,0.228
		c0.146,0.075,0.296,0.106,0.453,0.094c0.155-0.011,0.304-0.042,0.446-0.094c0.141-0.052,0.283-0.112,0.422-0.182
		c0.117-0.059,0.236-0.123,0.356-0.191c0.121-0.066,0.24-0.13,0.358-0.189c0.16-0.082,0.319-0.141,0.474-0.18
		c0.155-0.037,0.313-0.029,0.475,0.022c0.162,0.054,0.321,0.163,0.478,0.325c0.156,0.163,0.319,0.41,0.489,0.741
		c0.259,0.507,0.492,1.094,0.7,1.765c0.209,0.669,0.411,1.364,0.604,2.079c0.192,0.716,0.412,1.533,0.66,2.451
		c0.248,0.916,0.517,1.659,0.807,2.226c0.248,0.485,0.486,0.84,0.716,1.069s0.495,0.266,0.792,0.115
		c0.225-0.113,0.43-0.285,0.618-0.52c0.189-0.232,0.362-0.502,0.521-0.806c0.159-0.305,0.306-0.633,0.44-0.984
		c0.135-0.352,0.252-0.706,0.352-1.06c0.232-0.829,0.431-1.734,0.6-2.716L92.018,68.81z M77.694,74.473
		c0.139,0.272,0.292,0.528,0.461,0.766c0.169,0.237,0.353,0.433,0.551,0.586c0.2,0.153,0.41,0.252,0.635,0.297
		c0.224,0.044,0.458,0.005,0.704-0.117c0.394-0.2,0.664-0.55,0.809-1.052s0.214-1.053,0.203-1.65
		c-0.011-0.597-0.075-1.188-0.192-1.771c-0.117-0.584-0.241-1.058-0.374-1.42l-1.447-5.761c-0.436,0.221-0.806,0.542-1.111,0.967
		c-0.304,0.426-0.546,0.914-0.726,1.465c-0.18,0.552-0.304,1.143-0.37,1.77c-0.068,0.628-0.074,1.364-0.018,2.206
		s0.156,1.557,0.303,2.143C77.268,73.487,77.458,74.012,77.694,74.473z"/>
</g>
<g enable-background="new    ">
	<path fill="#333333" d="M105.133,66.073c-0.898,0.971-1.701,1.826-2.41,2.564c-0.708,0.738-1.347,1.371-1.916,1.892
		c-0.569,0.523-1.089,0.942-1.56,1.26c-0.469,0.319-0.916,0.542-1.338,0.671c-0.862,0.264-1.703,0.235-2.521-0.084
		c-0.819-0.32-1.603-0.902-2.35-1.748c-0.747-0.846-1.447-1.931-2.101-3.26c-0.654-1.327-1.251-2.863-1.793-4.61
		c-0.212-0.68-0.409-1.415-0.592-2.204c-0.183-0.787-0.342-1.579-0.476-2.37c-0.359,0.056-0.641,0.09-0.844,0.104
		c-0.204,0.013-0.418,0.03-0.644,0.052c-0.226,0.021-0.51,0.056-0.853,0.105c-0.343,0.05-0.836,0.132-1.479,0.247
		c-0.287,0.047-0.521,0.039-0.704-0.022c-0.183-0.063-0.33-0.155-0.446-0.279c-0.114-0.124-0.201-0.264-0.262-0.417
		c-0.06-0.155-0.107-0.288-0.143-0.402c-0.056-0.18,0.015-0.351,0.207-0.513c0.195-0.163,0.459-0.319,0.795-0.475
		c0.334-0.155,0.709-0.299,1.126-0.432c0.417-0.134,0.819-0.254,1.206-0.361c0.387-0.106,0.734-0.204,1.04-0.291
		c0.305-0.086,0.512-0.16,0.62-0.217c-0.167-1.621-0.237-3.219-0.208-4.795c0.029-1.574,0.164-3.009,0.403-4.303
		c0.241-1.293,0.603-2.383,1.089-3.269c0.485-0.885,1.109-1.445,1.871-1.679c0.491-0.15,0.981-0.152,1.471-0.003
		c0.488,0.147,0.946,0.404,1.373,0.77c0.425,0.367,0.81,0.828,1.151,1.387c0.342,0.559,0.615,1.167,0.818,1.824
		c0.169,0.544,0.268,1.142,0.295,1.795c0.028,0.655,0.003,1.337-0.076,2.046c-0.079,0.712-0.204,1.446-0.375,2.204
		c-0.171,0.756-0.363,1.514-0.578,2.272c0.091-0.07,0.26-0.128,0.507-0.179c0.246-0.052,0.528-0.119,0.844-0.208
		c0.316-0.087,0.657-0.182,1.025-0.284c0.367-0.103,0.725-0.201,1.069-0.295c0.345-0.093,0.668-0.179,0.968-0.258
		c0.3-0.079,0.549-0.144,0.746-0.192c0.232-0.057,0.437,0.019,0.614,0.228c0.176,0.207,0.322,0.495,0.436,0.861
		c0.131,0.423,0.125,0.804-0.021,1.14c-0.145,0.336-0.355,0.546-0.629,0.63l-6.573,2.015c-0.191,0.556-0.388,1.103-0.591,1.643
		c-0.202,0.54-0.392,1.03-0.569,1.469c0.172,0.717,0.349,1.421,0.524,2.112c0.081,0.3,0.163,0.605,0.249,0.921
		c0.085,0.315,0.169,0.628,0.253,0.938c0.083,0.309,0.167,0.607,0.249,0.893c0.083,0.286,0.16,0.547,0.234,0.786
		c0.191,0.611,0.408,1.11,0.652,1.495c0.246,0.385,0.518,0.677,0.817,0.876c0.302,0.199,0.627,0.311,0.979,0.334
		c0.352,0.022,0.723-0.027,1.112-0.146c0.239-0.073,0.521-0.221,0.845-0.445c0.325-0.223,0.67-0.5,1.036-0.83
		c0.367-0.329,0.745-0.703,1.133-1.12c0.389-0.417,0.764-0.858,1.127-1.323c0.361-0.464,0.697-0.941,1.008-1.427
		c0.312-0.486,0.581-0.97,0.807-1.449L105.133,66.073z M92.977,46.208c-0.038-0.124-0.09-0.26-0.155-0.408
		c-0.063-0.147-0.145-0.28-0.245-0.396c-0.1-0.118-0.224-0.205-0.371-0.259c-0.147-0.053-0.332-0.047-0.548,0.02
		c-0.298,0.091-0.518,0.443-0.661,1.053c-0.143,0.611-0.23,1.362-0.26,2.253c-0.03,0.891-0.018,1.858,0.036,2.901
		c0.054,1.044,0.121,2.054,0.197,3.028c0.177-0.035,0.354-0.073,0.528-0.112c0.176-0.04,0.357-0.08,0.547-0.119
		c0.165-0.677,0.331-1.405,0.496-2.187c0.166-0.781,0.297-1.539,0.395-2.273c0.098-0.737,0.157-1.415,0.177-2.034
		C93.133,47.055,93.088,46.566,92.977,46.208z"/>
</g>
<text transform="matrix(0.9903 -0.1697 0.1709 0.9853 102.1406 71.2422)" fill="#333333" font-family="'Pacifico'" font-size="36.4666"> </text>
<text transform="matrix(1.0031 -0.0636 0.0641 0.9979 111.1484 69.6685)" fill="#333333" font-family="'Pacifico'" font-size="36.4606"> </text>
<text transform="matrix(1.0043 0.0417 -0.0421 0.9991 120.2827 69.0576)" fill="#333333" font-family="'Pacifico'" font-size="36.4581"> </text>
<text transform="matrix(0.9939 0.1479 -0.149 0.9888 129.4424 69.4067)" fill="#333333" font-family="'Pacifico'" font-size="36.4646"> </text>
<g enable-background="new    ">
	<path fill="#333333" d="M155.007,61.059c0.134,0.757,0.177,1.528,0.123,2.311c-0.052,0.783-0.216,1.636-0.49,2.556
		c-0.2,0.673-0.476,1.328-0.827,1.967c-0.351,0.64-0.764,1.237-1.232,1.791c-0.471,0.555-0.991,1.052-1.563,1.491
		c-0.573,0.438-1.18,0.785-1.821,1.042c-0.645,0.257-1.309,0.415-1.997,0.472c-0.69,0.058-1.383-0.016-2.08-0.221
		c-1.007-0.296-1.804-0.768-2.388-1.416c-0.584-0.649-1.002-1.392-1.248-2.233c-0.247-0.84-0.346-1.736-0.293-2.685
		c0.053-0.95,0.214-1.88,0.485-2.792c0.447-1.502,1.021-2.741,1.722-3.717c0.702-0.976,1.523-1.761,2.465-2.358
		c0.942-0.596,1.991-0.974,3.147-1.137c1.155-0.161,2.367-0.055,3.636,0.318c1.088,0.32,2.057,0.787,2.905,1.401
		c0.851,0.616,1.604,1.327,2.268,2.133c0.661,0.808,1.223,1.743,1.685,2.807c0.46,1.063,0.884,2.074,1.272,3.029l-1.042,2.312
		c-0.188-0.5-0.475-1.067-0.857-1.7c-0.384-0.633-0.785-1.325-1.201-2.079c-0.417-0.753-0.851-1.416-1.301-1.989
		c-0.452-0.572-0.843-1.054-1.175-1.45L155.007,61.059z M146.763,69.385c0.39,0.114,0.825,0.028,1.307-0.256
		c0.483-0.286,0.954-0.687,1.404-1.203c0.453-0.517,0.887-1.175,1.306-1.974c0.418-0.799,0.725-1.529,0.922-2.189
		c0.156-0.523,0.262-1.021,0.313-1.495c0.055-0.474,0.05-0.899-0.013-1.276c-0.06-0.376-0.188-0.699-0.382-0.967
		c-0.195-0.267-0.468-0.454-0.824-0.558c-0.47-0.138-0.975-0.069-1.519,0.205c-0.539,0.273-1.062,0.673-1.567,1.2
		c-0.505,0.526-0.961,1.137-1.368,1.835c-0.405,0.697-0.748,1.519-1.031,2.463c-0.141,0.478-0.23,0.941-0.263,1.389
		c-0.033,0.448-0.001,0.856,0.101,1.227c0.102,0.37,0.283,0.696,0.548,0.978C145.961,69.047,146.317,69.253,146.763,69.385z"/>
</g>
<g enable-background="new    ">
	<path fill="#333333" d="M173.852,66.65c-0.146,0.286-0.354,0.67-0.624,1.153c-0.271,0.483-0.608,0.988-1.014,1.516
		s-0.898,1.166-1.473,1.915c-0.577,0.75-1.052,1.369-1.432,1.858c-0.376,0.49-0.705,0.919-0.987,1.286
		c-0.283,0.367-0.472,0.644-0.563,0.828c-0.152,0.298-0.289,0.574-0.407,0.828c-0.118,0.254-0.201,0.487-0.25,0.695
		c-0.049,0.21-0.051,0.389-0.004,0.539c0.043,0.149,0.159,0.271,0.343,0.363c0.234,0.118,0.548,0.204,0.942,0.255
		c0.396,0.051,0.832,0.075,1.311,0.068c0.478-0.007,0.978-0.035,1.499-0.087s1.03-0.126,1.528-0.222
		c0.495-0.098,0.961-0.208,1.391-0.332c0.431-0.124,0.796-0.256,1.097-0.4c-0.18,0.351-0.341,0.671-0.479,0.961
		c-0.142,0.29-0.279,0.565-0.411,0.826c-0.133,0.261-0.269,0.529-0.403,0.809s-0.289,0.589-0.462,0.929
		c-0.354,0.111-0.768,0.211-1.247,0.297c-0.478,0.088-0.995,0.156-1.547,0.206c-0.556,0.049-1.13,0.075-1.726,0.077
		c-0.596,0.002-1.179-0.026-1.752-0.084c-0.572-0.058-1.116-0.147-1.627-0.268c-0.514-0.12-0.966-0.279-1.355-0.475
		c-0.396-0.2-0.697-0.449-0.901-0.749c-0.201-0.298-0.333-0.64-0.394-1.024c-0.06-0.385-0.061-0.809-0.003-1.271
		c0.059-0.463,0.157-0.96,0.298-1.493c-0.634,0.298-1.269,0.546-1.905,0.744s-1.253,0.337-1.85,0.417
		c-0.597,0.081-1.165,0.093-1.706,0.037c-0.542-0.055-1.023-0.191-1.45-0.405c-0.349-0.176-0.65-0.399-0.898-0.671
		c-0.248-0.271-0.42-0.604-0.518-1c-0.099-0.395-0.103-0.852-0.011-1.372c0.091-0.519,0.307-1.112,0.646-1.778
		c0.718-1.381,1.367-2.392,1.946-3.03c0.868-0.92,1.988-2.381,3.354-4.382c0.108-0.143,0.257-0.335,0.445-0.582
		c0.188-0.247,0.412-0.502,0.677-0.769c0.263-0.266,0.553-0.526,0.869-0.779s0.644-0.461,0.98-0.625
		c0.336-0.162,0.685-0.261,1.043-0.293c0.355-0.033,0.708,0.031,1.056,0.192c0.549,0.311,0.907,0.605,1.073,0.884
		c0.164,0.278,0.189,0.532,0.072,0.761c-0.459,0.666-0.917,1.297-1.373,1.896c-0.454,0.6-0.912,1.203-1.375,1.81
		c-0.459,0.608-0.974,1.283-1.538,2.027c-0.566,0.744-1.017,1.341-1.358,1.79c-0.343,0.449-0.617,0.811-0.827,1.088
		s-0.317,0.42-0.323,0.432c-0.101,0.196-0.179,0.394-0.231,0.594c-0.055,0.199-0.081,0.389-0.079,0.568
		c0.003,0.18,0.04,0.344,0.113,0.49c0.071,0.146,0.188,0.26,0.35,0.341c0.233,0.118,0.508,0.177,0.815,0.176
		c0.309,0,0.63-0.065,0.964-0.194c0.335-0.102,0.675-0.284,1.022-0.542c0.341-0.249,0.667-0.572,0.979-0.97l6.17-7.769
		c0.182-0.229,0.5-0.339,0.953-0.329c0.454,0.008,0.912,0.129,1.375,0.362c0.523,0.264,0.89,0.569,1.102,0.915
		C173.973,66.033,174.003,66.354,173.852,66.65z"/>
</g>
<g enable-background="new    ">
	<path fill="#333333" d="M183.05,88.789c-1.32-0.146-2.488-0.283-3.506-0.413c-1.019-0.13-1.909-0.269-2.67-0.416
		c-0.759-0.146-1.407-0.315-1.946-0.503c-0.534-0.188-0.98-0.414-1.334-0.675c-0.725-0.534-1.199-1.224-1.426-2.069
		c-0.227-0.846-0.217-1.818,0.027-2.917c0.244-1.098,0.71-2.302,1.401-3.612c0.688-1.309,1.58-2.697,2.675-4.166
		c0.429-0.572,0.905-1.164,1.438-1.777c0.531-0.613,1.078-1.208,1.64-1.784c-0.258-0.255-0.453-0.46-0.583-0.615
		c-0.132-0.154-0.273-0.316-0.425-0.485c-0.151-0.168-0.347-0.375-0.589-0.62c-0.245-0.246-0.604-0.592-1.074-1.039
		c-0.209-0.202-0.342-0.396-0.4-0.577c-0.058-0.184-0.069-0.356-0.039-0.521c0.035-0.165,0.098-0.317,0.186-0.457
		c0.091-0.14,0.169-0.258,0.24-0.353c0.113-0.151,0.293-0.195,0.538-0.137c0.247,0.06,0.533,0.178,0.856,0.355
		s0.662,0.393,1.016,0.647c0.357,0.254,0.692,0.506,1.008,0.752c0.315,0.247,0.6,0.468,0.852,0.66
		c0.251,0.193,0.433,0.316,0.541,0.368c1.218-1.093,2.473-2.095,3.767-3.004c1.294-0.91,2.537-1.651,3.729-2.225
		c1.191-0.573,2.289-0.927,3.295-1.063c1.006-0.136,1.829,0.033,2.47,0.506c0.413,0.304,0.704,0.695,0.873,1.175
		c0.17,0.479,0.233,0.998,0.188,1.556c-0.046,0.557-0.193,1.138-0.442,1.743c-0.25,0.605-0.583,1.183-0.995,1.735
		c-0.342,0.458-0.769,0.891-1.282,1.3c-0.513,0.409-1.082,0.792-1.705,1.149c-0.624,0.357-1.294,0.691-2.008,1.002
		c-0.714,0.312-1.443,0.606-2.186,0.883c0.111,0.032,0.259,0.132,0.445,0.3s0.409,0.352,0.668,0.556
		c0.258,0.2,0.536,0.418,0.838,0.651c0.302,0.234,0.592,0.462,0.871,0.683c0.282,0.222,0.542,0.429,0.784,0.622
		c0.242,0.193,0.44,0.354,0.597,0.484c0.184,0.152,0.243,0.361,0.179,0.626c-0.063,0.264-0.211,0.551-0.44,0.859
		c-0.267,0.356-0.577,0.576-0.937,0.658c-0.359,0.083-0.653,0.039-0.884-0.131l-5.524-4.073c-0.563,0.176-1.125,0.343-1.684,0.5
		c-0.557,0.158-1.065,0.295-1.528,0.414c-0.479,0.563-0.946,1.12-1.401,1.67c-0.196,0.241-0.395,0.489-0.6,0.744
		c-0.207,0.256-0.409,0.507-0.612,0.758c-0.199,0.251-0.391,0.493-0.574,0.728c-0.184,0.235-0.349,0.452-0.499,0.653
		c-0.384,0.515-0.659,0.984-0.826,1.408s-0.24,0.815-0.227,1.174c0.016,0.358,0.116,0.685,0.307,0.98
		c0.189,0.296,0.448,0.563,0.775,0.804c0.201,0.149,0.488,0.287,0.863,0.414c0.372,0.128,0.802,0.24,1.286,0.338
		c0.483,0.099,1.009,0.18,1.58,0.245c0.566,0.064,1.146,0.104,1.739,0.119c0.59,0.015,1.176,0.003,1.754-0.036
		c0.58-0.039,1.13-0.109,1.65-0.211L183.05,88.789z M191.964,67.292c0.078-0.104,0.157-0.225,0.238-0.365
		c0.08-0.139,0.142-0.282,0.179-0.432c0.035-0.15,0.032-0.299-0.012-0.45c-0.045-0.15-0.158-0.293-0.341-0.427
		c-0.251-0.185-0.665-0.152-1.245,0.095c-0.58,0.247-1.239,0.622-1.981,1.125c-0.739,0.503-1.518,1.086-2.332,1.747
		c-0.813,0.661-1.595,1.312-2.339,1.951c0.135,0.12,0.27,0.239,0.404,0.356c0.137,0.117,0.277,0.24,0.42,0.366
		c0.646-0.267,1.337-0.565,2.068-0.896c0.729-0.33,1.422-0.673,2.077-1.031c0.653-0.357,1.238-0.71,1.753-1.062
		C191.369,67.919,191.739,67.594,191.964,67.292z"/>
</g>
</svg>
