<?xml version="1.0" encoding="UTF-8" standalone="no"?>
<!-- Generator: Adobe Illustrator 15.1.0, SVG Export Plug-In  -->

<svg
   xmlns:dc="http://purl.org/dc/elements/1.1/"
   xmlns:cc="http://creativecommons.org/ns#"
   xmlns:rdf="http://www.w3.org/1999/02/22-rdf-syntax-ns#"
   xmlns:svg="http://www.w3.org/2000/svg"
   xmlns="http://www.w3.org/2000/svg"
   xmlns:sodipodi="http://sodipodi.sourceforge.net/DTD/sodipodi-0.dtd"
   xmlns:inkscape="http://www.inkscape.org/namespaces/inkscape"
   version="1.1"
   x="0px"
   y="0px"
   width="20"
   height="20"
   viewBox="1 84.624 20 20"
   enable-background="new 1 84.624 60 60"
   xml:space="preserve"
   id="svg2"
   inkscape:version="0.48.4 r9939"
   sodipodi:docname="love.svg"><sodipodi:namedview
     pagecolor="#ffffff"
     bordercolor="#666666"
     borderopacity="1"
     objecttolerance="10"
     gridtolerance="10"
     guidetolerance="10"
     inkscape:pageopacity="0"
     inkscape:pageshadow="2"
     inkscape:window-width="1535"
     inkscape:window-height="876"
     id="namedview18"
     showgrid="false"
     inkscape:zoom="22.250293"
     inkscape:cx="10.461779"
     inkscape:cy="10.595752"
     inkscape:window-x="65"
     inkscape:window-y="24"
     inkscape:window-maximized="1"
     inkscape:current-layer="svg2" /><metadata
     id="metadata20"><rdf:RDF><cc:Work
         rdf:about=""><dc:format>image/svg+xml</dc:format><dc:type
           rdf:resource="http://purl.org/dc/dcmitype/StillImage" /><dc:title></dc:title></cc:Work></rdf:RDF></metadata><defs
     id="defs4" /><text
     id="text8"
     font-size="75"
     transform="scale(0.96917491,1.0318055)"
     style="font-size:72.68811798px;fill:#ffffff;font-family:Pacifico"
     x="26.639051"
     y="24.835152">eatout</text>
<path
     id="path3008"
     title="16*(sin(t)*sin(t)*sin(t)) 13*cos(t)-5*cos(2*t)-2*cos(3*t)-cos(4*t)  "
     d="m 10.997287,90.384826 c 0,-4.54e-4 0.01243,-0.493751 0.330622,-1.213615 0.318193,-0.719864 0.956739,-1.629358 1.907292,-2.235659 0.950553,-0.6063 2.204353,-0.880981 3.428685,-0.636548 1.224332,0.244432 2.39444,0.99762 3.131653,2.03573 0.737212,1.038115 1.022551,2.334375 0.76112,3.606544 -0.261432,1.272164 -1.0663,2.515546 -2.141985,3.66169 -1.075685,1.146149 -2.400164,2.212198 -3.571189,3.222751 -1.171026,1.010548 -2.168306,1.972391 -2.804927,2.787151 -0.63662,0.81476 -0.912692,1.46717 -0.998205,1.79937 -0.08551,0.3322 -9.49e-4,0.33157 -0.08613,0 -0.08518,-0.33158 -0.362249,-0.98492 -0.9982062,-1.79937 C 9.320059,100.79843 8.3218227,99.836147 7.1510897,98.825719 5.9803562,97.815288 4.6560848,96.748953 3.5799,95.602968 2.5037158,94.456982 1.7003774,93.213426 1.4379155,91.941278 c -0.262462,-1.272148 0.024745,-2.567897 0.7611203,-3.606544 0.7363732,-1.038643 1.9074116,-1.790338 3.1316525,-2.03573 1.2242407,-0.245393 2.4775683,0.03081 3.4286846,0.636548 0.9511168,0.605716 1.5885221,1.515415 1.9072921,2.235659 0.31877,0.720244 0.330622,1.213161 0.330622,1.213615"
     style="fill:#ff2a2a;fill-opacity:1;stroke:none"
     inkscape:connector-curvature="0" /></svg>