<?xml version="1.0" encoding="UTF-8" standalone="no"?>
<!-- Generator: Adobe Illustrator 15.1.0, SVG Export Plug-In  -->

<svg
   xmlns:dc="http://purl.org/dc/elements/1.1/"
   xmlns:cc="http://creativecommons.org/ns#"
   xmlns:rdf="http://www.w3.org/1999/02/22-rdf-syntax-ns#"
   xmlns:svg="http://www.w3.org/2000/svg"
   xmlns="http://www.w3.org/2000/svg"
   xmlns:sodipodi="http://sodipodi.sourceforge.net/DTD/sodipodi-0.dtd"
   xmlns:inkscape="http://www.inkscape.org/namespaces/inkscape"
   version="1.1"
   x="0px"
   y="0px"
   width="60px"
   height="60px"
   viewBox="1 1 60 60"
   enable-background="new 1 1 60 60"
   xml:space="preserve"
   id="svg2"
   inkscape:version="0.48.4 r9939"
   sodipodi:docname="menu.svg"><metadata
     id="metadata12"><rdf:RDF><cc:Work
         rdf:about=""><dc:format>image/svg+xml</dc:format><dc:type
           rdf:resource="http://purl.org/dc/dcmitype/StillImage" /></cc:Work></rdf:RDF></metadata><sodipodi:namedview
     pagecolor="#ffffff"
     bordercolor="#666666"
     borderopacity="1"
     objecttolerance="10"
     gridtolerance="10"
     guidetolerance="10"
     inkscape:pageopacity="0"
     inkscape:pageshadow="2"
     inkscape:window-width="640"
     inkscape:window-height="480"
     id="namedview10"
     showgrid="false"
     showguides="true"
     inkscape:guide-bbox="true"
     inkscape:zoom="5.4236979"
     inkscape:cx="30"
     inkscape:cy="30"
     inkscape:window-x="65"
     inkscape:window-y="24"
     inkscape:window-maximized="0"
     inkscape:current-layer="svg2"><sodipodi:guide
       orientation="0,1"
       position="67.850387,44.619004"
       id="guide2989" /><sodipodi:guide
       orientation="0,1"
       position="67.481634,15.118836"
       id="guide2991" /></sodipodi:namedview><defs
     id="defs4" /><rect
     x="0.5"
     y="0.5"
     fill="#333333"
     stroke="#333333"
     stroke-miterlimit="10"
     width="61"
     height="61"
     id="rect6" /><path
     d="m 41.45435,44.058001 c -2.205716,1.610391 -4.78967,1.817239 -7.376076,1.817239 H 21.610264 V 16.70976 h 11.024492 c 0.722168,0 1.444336,0 2.128108,0.04084 2.775116,0.124286 5.740578,0.496256 7.565602,3.139996 0.531006,0.74394 1.292386,2.106646 1.292386,4.295856 0,3.800487 -2.318452,5.411766 -3.497284,5.990584 -0.646192,0.289408 -1.026882,0.413694 -2.243294,0.702215 0.38069,0.04172 0.722984,0.124286 1.065278,0.206847 3.15499,0.618767 4.447376,2.189209 5.09357,3.634478 0.227924,0.496256 0.608614,1.57133 0.608614,3.01571 0,1.281033 -0.38069,4.296744 -3.193386,6.321717 z m -6.158848,-21.68879 c -0.342294,-0.124286 -0.76138,-0.206847 -1.521126,-0.206847 h -5.77734 v 6.073145 h 5.055172 c 0.0384,0 0.989304,-0.04084 1.521127,-0.124286 1.521127,-0.289409 2.015371,-1.033349 2.242477,-1.693841 0.07679,-0.206846 0.227924,-0.702215 0.227924,-1.362706 0,-0.619654 -0.11437,-2.106648 -1.748234,-2.685465 z m 0.68459,11.444075 c -0.494244,-0.206848 -1.026884,-0.289408 -2.16732,-0.289408 h -5.815736 v 7.063882 h 4.676116 c 2.395244,0 3.573259,-0.28941 4.447376,-1.281034 0.303898,-0.371082 0.722168,-1.032462 0.722168,-2.230934 -8.18e-4,-2.148372 -1.102858,-2.974872 -1.862604,-3.262506 z"
     id="path8"
     inkscape:connector-curvature="0"
     style="fill:#ffffff" /></svg>