<?xml version="1.0" encoding="utf-8"?>
<!-- Generator: Adobe Illustrator 15.1.0, SVG Export Plug-In  -->
<!DOCTYPE svg PUBLIC "-//W3C//DTD SVG 1.1//EN" "http://www.w3.org/Graphics/SVG/1.1/DTD/svg11.dtd" [
	<!ENTITY ns_flows "http://ns.adobe.com/Flows/1.0/">
]>
<svg version="1.1"
	 xmlns="http://www.w3.org/2000/svg" xmlns:xlink="http://www.w3.org/1999/xlink" xmlns:a="http://ns.adobe.com/AdobeSVGViewerExtensions/3.0/"
	 x="0px" y="0px" width="70px" height="85px" viewBox="-1.986 -1.55 70 85" enable-background="new -1.986 -1.55 70 85"
	 xml:space="preserve">
<defs>
</defs>
<circle fill="#BAF0F4" stroke="#BAF0F4" stroke-width="9" stroke-miterlimit="10" cx="32.9" cy="32.9" r="28.4"/>
<path fill="#BAF0F4" d="M4.5,32.9l28.801,48.8l28-48.8c0,0-3,27-28,28.4S4.5,32.9,4.5,32.9z"/>
<path fill="#F21D2F" d="M39.254,39.896c-4.16-0.936-13.869,0.154-13.869,0.154c-2.801,0.585-5.168-0.688-7.127-0.967l6.145,13.176
	c0.48,0.86,2.391,1.563,4.243,1.563h9.093c1.854,0,3.764-0.703,4.244-1.563l6.463-13.147C43.918,39.628,39.254,39.896,39.254,39.896
	z M27.355,52.592c-0.063,0.015-0.127,0.024-0.188,0.024c-0.251,0-0.482-0.125-0.565-0.32l-4.062-9.679
	c-0.103-0.246,0.067-0.51,0.379-0.592c0.311-0.083,0.647,0.053,0.75,0.296L27.73,52C27.836,52.245,27.668,52.51,27.355,52.592z
	 M30.541,52.606c-0.037,0.006-0.07,0.009-0.103,0.009c-0.284,0-0.536-0.161-0.587-0.387l-2.279-10.302
	c-0.055-0.254,0.161-0.497,0.484-0.541c0.33-0.055,0.631,0.128,0.688,0.381l2.278,10.3C31.08,52.32,30.863,52.564,30.541,52.606z
	 M33.73,52.616c-0.01,0-0.016,0-0.023,0c-0.318,0-0.581-0.199-0.592-0.451l-0.498-10.769c-0.01-0.26,0.246-0.476,0.574-0.485
	c0.317,0.024,0.604,0.191,0.615,0.452l0.494,10.767C34.313,52.388,34.058,52.605,33.73,52.616z M37.068,52.229
	c-0.051,0.227-0.301,0.387-0.586,0.387c-0.031,0-0.066-0.003-0.103-0.009c-0.323-0.042-0.538-0.287-0.483-0.54l2.279-10.3
	c0.057-0.253,0.36-0.434,0.688-0.381c0.322,0.044,0.541,0.287,0.482,0.541L37.068,52.229z M40.316,52.296
	c-0.081,0.195-0.314,0.32-0.563,0.32c-0.063,0-0.127-0.009-0.188-0.024c-0.313-0.082-0.48-0.347-0.378-0.592l4.062-9.678
	c0.104-0.243,0.439-0.379,0.752-0.296c0.312,0.082,0.481,0.346,0.377,0.592L40.316,52.296z"/>
<path fill="#FFC200" d="M47.363,24.109c-0.468-10.768-10.299-6.087-10.299-6.087C26.764,10.532,20.68,21.77,20.68,21.77
	c-9.711,0.809-5.62,12.483-2.768,14.265c0.891,0.551,2.072,1.082,3.552,1.346c1.542,0.276,3.407,0.268,5.614-0.319
	c0,0,7.645-1.094,10.922-0.156c0,0,3.674,0.374,7.24-0.14c1.676-0.243,3.326-0.682,4.563-1.452
	C57.167,28.57,47.363,24.109,47.363,24.109z M21.834,31.523c-3.006-2.795,1.107-3.122,2.027-3.109
	c0.919,0.018,1.547,1.959,1.547,1.959S24.836,34.319,21.834,31.523z M27.545,24.576c-2.964-0.78-0.623-2.651,0.155-3.119
	c0.782-0.471,1.717,0.78,1.717,0.78S30.51,25.359,27.545,24.576z M33.229,30.879c-3.339-3.219,1.239-3.764,2.444-3.779
	c1.205-0.016,1.778,1.419,1.778,1.419S36.566,34.093,33.229,30.879z M38.536,24.337c-2.967-2.861,2.174-3.362,2.174-3.362
	s1.581,0.795,1.511,2.021C42.147,24.222,41.504,27.191,38.536,24.337z M43.885,31.806c-2.135-0.56,0.112-2.247,0.112-2.247
	s0.948-0.534,1.237,0.562C45.523,31.215,46.021,32.368,43.885,31.806z"/>
</svg>
