<?xml version="1.0" encoding="UTF-8" standalone="no"?>
<!-- Created with Inkscape (http://www.inkscape.org/) -->

<svg
   xmlns:dc="http://purl.org/dc/elements/1.1/"
   xmlns:cc="http://creativecommons.org/ns#"
   xmlns:rdf="http://www.w3.org/1999/02/22-rdf-syntax-ns#"
   xmlns:svg="http://www.w3.org/2000/svg"
   xmlns="http://www.w3.org/2000/svg"
   xmlns:sodipodi="http://sodipodi.sourceforge.net/DTD/sodipodi-0.dtd"
   xmlns:inkscape="http://www.inkscape.org/namespaces/inkscape"
   width="16"
   height="16"
   id="svg5989"
   version="1.1"
   inkscape:version="0.48.4 r9939"
   sodipodi:docname="place.svg">
  <defs
     id="defs5991" />
  <sodipodi:namedview
     id="base"
     pagecolor="#ffffff"
     bordercolor="#666666"
     borderopacity="1.0"
     inkscape:pageopacity="0.0"
     inkscape:pageshadow="2"
     inkscape:zoom="11.585503"
     inkscape:cx="7.7895871"
     inkscape:cy="3.7139302"
     inkscape:document-units="px"
     inkscape:current-layer="g3772"
     showgrid="false"
     fit-margin-top="0"
     fit-margin-left="0"
     fit-margin-right="0"
     fit-margin-bottom="0"
     inkscape:window-width="796"
     inkscape:window-height="848"
     inkscape:window-x="0"
     inkscape:window-y="24"
     inkscape:window-maximized="0"
     showborder="true" />
  <metadata
     id="metadata5994">
    <rdf:RDF>
      <cc:Work
         rdf:about="">
        <dc:format>image/svg+xml</dc:format>
        <dc:type
           rdf:resource="http://purl.org/dc/dcmitype/StillImage" />
        <dc:title></dc:title>
      </cc:Work>
    </rdf:RDF>
  </metadata>
  <g
     inkscape:label="Layer 1"
     inkscape:groupmode="layer"
     id="layer1"
     transform="translate(-366.50625,-538.90346)">
    <g
       transform="matrix(0.28760724,0,0,0.28760724,365.2809,546.94961)"
       id="g3772"
       style="fill:#f9f9f9">
      <path
         style="fill:#f9f9f9"
         inkscape:connector-curvature="0"
         id="path11"
         d="m 32,-26.333 c -10.673,0 -19.325,8.652 -19.325,19.325 0,10.673 8.652,19.325 19.325,19.325 10.674,0 19.326,-8.652 19.326,-19.325 0,-10.673 -8.652,-19.325 -19.326,-19.325 z M 32,7.9 c -9.046,0 -16.38,-6.675 -16.38,-14.908 0,-8.233 7.333,-14.908 16.38,-14.908 9.047,0 16.381,6.675 16.381,14.908 C 48.381,1.226 41.047,7.9 32,7.9 z"
         enable-background="new    " />
      <path
         style="fill:#f9f9f9"
         inkscape:connector-curvature="0"
         id="path13"
         d="m 32,-24.333 c -9.568,0 -17.325,7.757 -17.325,17.325 0,9.569 7.757,17.325 17.325,17.325 9.569,0 17.326,-7.756 17.326,-17.325 0,-9.568 -7.757,-17.325 -17.326,-17.325 z m 0,30.69 c -8.11,0 -14.685,-5.984 -14.685,-13.365 0,-7.381 6.574,-13.365 14.685,-13.365 8.111,0 14.686,5.984 14.686,13.365 C 46.686,0.374 40.11,6.357 32,6.357 z"
         enable-background="new    " />
      <path
         style="fill:#f9f9f9"
         inkscape:connector-curvature="0"
         id="path15"
         d="M 12.675,-8.008 32.272,25.199 51.326,-8.008 c 0,0 -2.042,18.373 -19.054,19.325 C 15.261,12.271 12.675,-8.008 12.675,-8.008 z" />
    </g>
  </g>
</svg>
