<svg xmlns="http://www.w3.org/2000/svg" width="400" height="400" viewBox="0 0 400 400"><path fill="#FD7700" d="M377.43 399.807c12.16 0 22.018-9.857 22.018-22.016V22.928c0-12.16-9.857-22.016-22.017-22.016H22.57C10.406.91.552 10.767.552 22.928V377.79c0 12.16 9.854 22.017 22.016 22.017h354.86z"/><g fill="#fff"><path d="M191.952 330.89c-.018-33.953-13.682-64.425-35.914-86.71-22.282-22.23-52.757-35.907-86.723-35.914v-56.202c49.3-.014 94.193 20.06 126.457 52.375 32.31 32.27 52.396 77.157 52.38 126.45h-56.2zM275.855 330.895c-.008-57.17-23.086-108.667-60.527-146.154-37.493-37.458-88.997-60.523-146.172-60.544V68c145.214.014 262.885 117.68 262.908 262.89h-56.21v.005zM146.44 292.17c0-21.38-17.334-38.706-38.715-38.706C86.34 253.464 69 270.79 69 292.17c0 21.395 17.34 38.725 38.726 38.725 21.38 0 38.715-17.33 38.715-38.726z"/></g></svg>