<?xml version="1.0" encoding="UTF-8" standalone="no"?>
<!-- Created with Inkscape (http://www.inkscape.org/) -->

<svg
   xmlns:dc="http://purl.org/dc/elements/1.1/"
   xmlns:cc="http://creativecommons.org/ns#"
   xmlns:rdf="http://www.w3.org/1999/02/22-rdf-syntax-ns#"
   xmlns:svg="http://www.w3.org/2000/svg"
   xmlns="http://www.w3.org/2000/svg"
   version="1.1"
   width="66.9375"
   height="235"
   viewBox="0 0 66.937498 235"
   id="Layer_1"
   xml:space="preserve"><metadata
     id="metadata59"><rdf:RDF><cc:Work
         rdf:about=""><dc:format>image/svg+xml</dc:format><dc:type
           rdf:resource="http://purl.org/dc/dcmitype/StillImage" /><dc:title></dc:title></cc:Work></rdf:RDF></metadata><defs
     id="defs57" /><polygon
     points="24.114,115.5 48.467,115.5 46.438,146.5 26.143,146.5 "
     transform="translate(-1.995252,-2)"
     id="polygon3"
     style="fill:#333333;stroke:#333333;stroke-miterlimit:10" /><rect
     width="29"
     height="4"
     x="19.804747"
     y="109.5"
     id="rect5"
     style="fill:#333333;stroke:#333333;stroke-miterlimit:10" /><polygon
     points="28.173,195.5 43.394,195.5 45.423,236.5 26.143,236.5 "
     transform="translate(-1.995252,-2)"
     id="polygon7"
     style="fill:#333333;stroke:#333333;stroke-miterlimit:10" /><rect
     width="24"
     height="3"
     x="21.804747"
     y="201.5"
     id="rect9"
     style="fill:#333333;stroke:#333333;stroke-miterlimit:10" /><rect
     width="24"
     height="4"
     x="21.804747"
     y="206.5"
     id="rect11"
     style="fill:#333333;stroke:#333333;stroke-miterlimit:10" /><path
     d="m 52.730748,151.989 c 0,-5.199 2.074,-9.847 5.332,-12.95 -6.072,-6.473 -14.698,-10.523 -24.274,-10.523 -18.382,0 -33.28300002,14.901 -33.28300002,33.283 0,18.383 14.90100002,33.282 33.28300002,33.282 15.97,0 29.307,-11.249 32.533,-26.254 -7.617,-0.763 -13.591,-8.005 -13.591,-16.838 z"
     id="path13"
     style="fill:#333333;stroke:#333333;stroke-miterlimit:10" /><g
     transform="translate(-1.995252,-2)"
     id="g15"><path
       d="m 109.447,198.301 c -1.043,0 -1.956,-0.205 -2.738,-0.617 -0.782,-0.412 -1.434,-0.965 -1.956,-1.661 -0.522,-0.696 -0.913,-1.501 -1.173,-2.415 -0.26,-0.914 -0.391,-1.873 -0.391,-2.878 0,-0.657 0.117,-1.44 0.35,-2.35 0.233,-0.91 0.475,-1.717 0.725,-2.421 0.25,-0.704 0.563,-1.376 0.941,-2.016 0.377,-0.64 0.819,-1.203 1.325,-1.69 0.506,-0.487 1.072,-0.874 1.7,-1.161 0.628,-0.288 1.325,-0.432 2.091,-0.432 0.626,0 1.208,0.106 1.745,0.32 0.537,0.214 1.003,0.514 1.4,0.9 0.397,0.385 0.708,0.852 0.931,1.398 0.224,0.546 0.335,1.158 0.335,1.834 0,0.721 -0.227,1.529 -0.68,2.425 -0.453,0.896 -0.982,1.663 -1.586,2.302 -0.604,0.64 -1.324,1.209 -2.158,1.709 -0.834,0.5 -1.738,0.891 -2.711,1.169 0.168,0.314 0.333,0.576 0.496,0.785 0.162,0.21 0.328,0.372 0.496,0.488 0.168,0.116 0.345,0.198 0.529,0.244 0.185,0.047 0.384,0.069 0.597,0.069 0.67,0 1.376,-0.139 2.12,-0.418 0.743,-0.279 1.466,-0.628 2.169,-1.047 0.704,-0.418 1.368,-0.875 1.994,-1.369 0.625,-0.494 1.156,-0.962 1.592,-1.404 l 2.161,2.338 c -0.983,1.114 -2.027,2.1 -3.133,2.957 -0.48,0.367 -0.997,0.729 -1.55,1.084 -0.553,0.355 -1.134,0.671 -1.742,0.946 -0.609,0.275 -1.24,0.496 -1.894,0.661 -0.652,0.168 -1.314,0.25 -1.985,0.25 z m -2.237,-8.496 c 0.404,0 0.844,-0.107 1.32,-0.322 0.476,-0.215 0.919,-0.491 1.329,-0.828 0.409,-0.338 0.81,-0.791 1.203,-1.36 0.392,-0.569 0.588,-1.041 0.588,-1.413 0,-0.523 -0.092,-0.953 -0.277,-1.291 -0.185,-0.337 -0.412,-0.506 -0.681,-0.506 -0.482,0 -0.894,0.094 -1.236,0.279 -0.342,0.187 -0.627,0.428 -0.857,0.725 -0.23,0.297 -0.415,0.633 -0.555,1.012 -0.14,0.377 -0.303,0.846 -0.488,1.403 -0.185,0.557 -0.289,1.018 -0.311,1.378 -0.022,0.36 -0.035,0.667 -0.035,0.923 z"
       id="path17"
       style="fill:#333333" /><path
       d="m 134.049,193.881 c -0.257,0.385 -0.6,0.836 -1.03,1.353 -0.43,0.517 -0.913,1.011 -1.449,1.479 -0.536,0.468 -1.111,0.865 -1.726,1.189 -0.614,0.325 -1.229,0.488 -1.843,0.488 -0.742,0 -1.36,-0.25 -1.856,-0.751 -0.496,-0.5 -0.924,-1.228 -1.283,-2.181 -0.271,0.33 -0.604,0.665 -0.996,1.006 -0.395,0.342 -0.826,0.65 -1.293,0.928 -0.467,0.275 -0.954,0.502 -1.461,0.68 -0.506,0.176 -1.013,0.264 -1.52,0.264 -0.536,0 -1.059,-0.116 -1.567,-0.351 -0.508,-0.233 -0.958,-0.569 -1.349,-1.007 -0.391,-0.438 -0.704,-0.973 -0.938,-1.602 -0.235,-0.631 -0.352,-1.342 -0.352,-2.133 0,-0.889 0.118,-1.801 0.354,-2.737 0.236,-0.937 0.601,-1.949 1.096,-3.04 0.494,-1.09 1.025,-2.031 1.593,-2.826 0.567,-0.793 1.188,-1.486 1.862,-2.079 0.674,-0.593 1.385,-1.063 2.132,-1.413 0.747,-0.35 1.509,-0.524 2.284,-0.524 0.258,0 0.461,0.054 0.606,0.162 0.145,0.108 0.267,0.231 0.362,0.37 0.096,0.138 0.188,0.273 0.278,0.405 0.089,0.132 0.202,0.228 0.337,0.288 0.135,0.06 0.272,0.1 0.413,0.117 0.14,0.018 0.284,0.027 0.43,0.027 0.124,0 0.249,-0.003 0.379,-0.01 0.13,-0.006 0.256,-0.008 0.38,-0.008 0.168,0 0.326,0.018 0.472,0.053 0.146,0.037 0.274,0.115 0.388,0.234 0.111,0.121 0.198,0.289 0.26,0.506 0.061,0.216 0.092,0.51 0.092,0.883 0,0.568 -0.056,1.199 -0.168,1.892 -0.111,0.692 -0.239,1.403 -0.383,2.13 -0.145,0.727 -0.309,1.556 -0.493,2.486 -0.185,0.932 -0.276,1.715 -0.276,2.353 0,0.545 0.047,0.972 0.143,1.278 0.094,0.307 0.299,0.461 0.611,0.461 0.234,0 0.48,-0.063 0.736,-0.186 0.258,-0.124 0.518,-0.286 0.779,-0.486 0.263,-0.2 0.525,-0.428 0.788,-0.681 0.263,-0.254 0.511,-0.517 0.745,-0.787 0.547,-0.637 1.101,-1.356 1.659,-2.157 l 0.804,3.927 z m -14.374,-1.398 c 0,0.307 0.02,0.604 0.059,0.893 0.04,0.288 0.109,0.546 0.21,0.772 0.101,0.226 0.235,0.41 0.403,0.552 0.168,0.142 0.38,0.212 0.638,0.212 0.414,0 0.789,-0.191 1.125,-0.575 0.335,-0.383 0.626,-0.844 0.872,-1.382 0.246,-0.539 0.444,-1.096 0.596,-1.671 0.152,-0.575 0.249,-1.054 0.294,-1.437 l 1.25,-5.799 c -0.459,0 -0.905,0.121 -1.341,0.363 -0.436,0.241 -0.847,0.568 -1.231,0.98 -0.384,0.412 -0.74,0.885 -1.064,1.414 -0.324,0.531 -0.643,1.186 -0.955,1.963 -0.312,0.779 -0.533,1.463 -0.661,2.052 -0.128,0.589 -0.195,1.145 -0.195,1.663 z"
       id="path19"
       style="fill:#333333" /><path
       d="m 146.633,194.305 c -1.073,0.666 -2.029,1.249 -2.868,1.748 -0.839,0.5 -1.586,0.916 -2.239,1.249 -0.655,0.333 -1.236,0.583 -1.746,0.749 -0.508,0.167 -0.97,0.25 -1.383,0.25 -0.846,0 -1.59,-0.273 -2.234,-0.82 -0.644,-0.547 -1.183,-1.335 -1.615,-2.363 -0.434,-1.029 -0.759,-2.274 -0.976,-3.737 -0.216,-1.462 -0.325,-3.109 -0.325,-4.94 0,-0.714 0.027,-1.475 0.084,-2.283 0.055,-0.809 0.133,-1.611 0.232,-2.408 -0.338,-0.053 -0.6,-0.103 -0.785,-0.148 -0.186,-0.047 -0.382,-0.094 -0.59,-0.14 -0.208,-0.046 -0.473,-0.096 -0.793,-0.149 -0.32,-0.053 -0.784,-0.119 -1.391,-0.198 -0.27,-0.04 -0.479,-0.115 -0.625,-0.228 -0.146,-0.113 -0.252,-0.245 -0.32,-0.397 -0.066,-0.152 -0.106,-0.312 -0.117,-0.477 -0.012,-0.165 -0.018,-0.308 -0.018,-0.427 0,-0.188 0.109,-0.331 0.328,-0.43 0.219,-0.099 0.5,-0.172 0.842,-0.223 0.344,-0.049 0.719,-0.076 1.129,-0.082 0.41,-0.006 0.803,-0.003 1.18,0.009 0.375,0.012 0.713,0.021 1.01,0.026 0.298,0.006 0.502,-0.002 0.615,-0.026 0.301,-1.601 0.683,-3.151 1.146,-4.651 0.462,-1.5 0.981,-2.834 1.556,-4.002 0.575,-1.168 1.201,-2.104 1.881,-2.811 0.68,-0.705 1.395,-1.059 2.141,-1.059 0.48,0 0.92,0.143 1.316,0.428 0.396,0.285 0.734,0.666 1.015,1.141 0.279,0.476 0.495,1.031 0.646,1.666 0.15,0.637 0.227,1.299 0.227,1.987 0,0.57 -0.078,1.173 -0.235,1.806 -0.156,0.635 -0.368,1.28 -0.637,1.938 -0.269,0.658 -0.584,1.323 -0.946,1.998 -0.363,0.674 -0.746,1.344 -1.148,2.006 0.101,-0.039 0.269,-0.047 0.504,-0.022 0.234,0.024 0.505,0.041 0.813,0.051 0.307,0.009 0.639,0.019 0.996,0.028 0.357,0.009 0.704,0.021 1.039,0.032 0.336,0.012 0.648,0.024 0.938,0.036 0.29,0.012 0.53,0.023 0.72,0.035 0.225,0.014 0.387,0.146 0.486,0.396 0.101,0.252 0.15,0.57 0.15,0.953 0,0.444 -0.111,0.807 -0.335,1.086 -0.224,0.279 -0.47,0.418 -0.737,0.418 h -6.441 c -0.326,0.477 -0.654,0.943 -0.984,1.4 -0.331,0.458 -0.637,0.871 -0.918,1.24 -0.044,0.736 -0.083,1.463 -0.117,2.176 -0.011,0.309 -0.021,0.627 -0.033,0.954 -0.012,0.327 -0.022,0.651 -0.033,0.972 -0.012,0.322 -0.02,0.631 -0.025,0.928 -0.006,0.298 -0.008,0.571 -0.008,0.82 0,0.643 0.056,1.184 0.168,1.623 0.111,0.441 0.274,0.801 0.488,1.08 0.213,0.279 0.473,0.481 0.781,0.606 0.309,0.124 0.653,0.187 1.035,0.187 0.234,0 0.527,-0.059 0.88,-0.178 0.353,-0.119 0.737,-0.282 1.157,-0.49 0.42,-0.209 0.861,-0.455 1.324,-0.74 0.465,-0.285 0.923,-0.598 1.376,-0.938 0.452,-0.338 0.886,-0.695 1.3,-1.069 0.414,-0.375 0.788,-0.759 1.123,-1.151 v 4.565 z m -5.362,-22.588 c 0,-0.129 -0.008,-0.274 -0.025,-0.435 -0.016,-0.159 -0.053,-0.311 -0.108,-0.452 -0.056,-0.143 -0.144,-0.262 -0.261,-0.355 -0.118,-0.096 -0.283,-0.143 -0.496,-0.143 -0.292,0 -0.586,0.271 -0.883,0.814 -0.298,0.543 -0.584,1.236 -0.858,2.08 -0.274,0.845 -0.532,1.774 -0.774,2.79 -0.24,1.015 -0.462,2.001 -0.664,2.957 0.168,0.018 0.337,0.033 0.505,0.046 0.168,0.014 0.342,0.029 0.521,0.047 0.337,-0.6 0.687,-1.248 1.052,-1.947 0.363,-0.699 0.691,-1.387 0.983,-2.063 0.292,-0.675 0.532,-1.307 0.724,-1.895 0.189,-0.586 0.284,-1.067 0.284,-1.444 z"
       id="path21"
       style="fill:#333333" /><path
       d="m 164.762,184.549 c 0.324,0.689 0.566,1.418 0.729,2.185 0.163,0.767 0.244,1.632 0.244,2.595 0,0.702 -0.073,1.41 -0.219,2.123 -0.145,0.713 -0.354,1.403 -0.628,2.069 -0.274,0.666 -0.608,1.29 -1.005,1.873 -0.397,0.583 -0.85,1.088 -1.357,1.517 -0.509,0.428 -1.064,0.766 -1.668,1.016 -0.603,0.25 -1.245,0.375 -1.926,0.375 -0.983,0 -1.824,-0.229 -2.521,-0.687 -0.699,-0.458 -1.271,-1.056 -1.718,-1.793 -0.447,-0.737 -0.773,-1.569 -0.979,-2.497 -0.207,-0.928 -0.311,-1.867 -0.311,-2.818 0,-1.57 0.184,-2.922 0.553,-4.059 0.369,-1.135 0.896,-2.122 1.584,-2.961 0.687,-0.838 1.527,-1.498 2.521,-1.979 0.994,-0.481 2.111,-0.722 3.351,-0.722 1.062,0 2.055,0.176 2.982,0.525 0.927,0.352 1.795,0.82 2.604,1.41 0.811,0.588 1.564,1.328 2.262,2.221 0.699,0.891 1.35,1.742 1.953,2.55 l -0.318,2.515 c -0.303,-0.428 -0.71,-0.891 -1.224,-1.391 -0.514,-0.5 -1.058,-1.053 -1.634,-1.658 -0.575,-0.607 -1.143,-1.121 -1.7,-1.543 -0.559,-0.423 -1.039,-0.776 -1.44,-1.063 l -0.135,0.197 z m -5.177,10.327 c 0.38,0 0.748,-0.205 1.105,-0.615 0.357,-0.41 0.671,-0.928 0.938,-1.552 0.268,-0.625 0.482,-1.379 0.645,-2.266 0.162,-0.886 0.243,-1.674 0.243,-2.363 0,-0.547 -0.039,-1.055 -0.117,-1.525 -0.078,-0.469 -0.195,-0.877 -0.352,-1.222 -0.157,-0.345 -0.358,-0.618 -0.604,-0.82 -0.246,-0.202 -0.542,-0.304 -0.888,-0.304 -0.458,0 -0.895,0.209 -1.307,0.625 -0.414,0.416 -0.777,0.948 -1.09,1.596 -0.313,0.648 -0.559,1.365 -0.736,2.15 -0.18,0.784 -0.269,1.67 -0.269,2.657 0,0.499 0.044,0.97 0.134,1.409 0.09,0.439 0.229,0.823 0.42,1.15 0.189,0.327 0.44,0.589 0.754,0.785 0.314,0.196 0.687,0.295 1.124,0.295 z"
       id="path23"
       style="fill:#333333" /><path
       d="m 181.5,181.677 c 0,0.321 -0.011,0.759 -0.03,1.312 -0.021,0.553 -0.087,1.157 -0.202,1.812 -0.114,0.654 -0.252,1.445 -0.414,2.374 -0.162,0.929 -0.297,1.697 -0.403,2.305 -0.106,0.608 -0.199,1.139 -0.278,1.595 -0.08,0.455 -0.119,0.786 -0.119,0.993 0,0.335 0.004,0.643 0.014,0.922 0.01,0.281 0.039,0.525 0.087,0.734 0.048,0.209 0.123,0.371 0.225,0.484 0.102,0.113 0.249,0.17 0.442,0.17 0.246,0 0.545,-0.066 0.896,-0.197 0.351,-0.131 0.726,-0.307 1.123,-0.528 0.396,-0.221 0.801,-0.472 1.214,-0.752 0.413,-0.28 0.808,-0.575 1.182,-0.886 0.374,-0.311 0.714,-0.618 1.022,-0.923 0.307,-0.304 0.555,-0.588 0.745,-0.851 0,0.395 0.003,0.752 0.009,1.074 0.005,0.322 0.008,0.631 0.008,0.922 0,0.293 0.002,0.595 0.008,0.905 0.006,0.31 0.009,0.656 0.009,1.038 -0.245,0.258 -0.55,0.534 -0.913,0.827 -0.363,0.294 -0.766,0.587 -1.206,0.88 -0.441,0.294 -0.911,0.575 -1.407,0.846 -0.498,0.27 -0.997,0.507 -1.5,0.713 -0.502,0.205 -0.994,0.369 -1.473,0.492 -0.48,0.123 -0.925,0.186 -1.334,0.186 -0.418,0 -0.775,-0.088 -1.071,-0.264 -0.296,-0.176 -0.552,-0.423 -0.766,-0.739 -0.214,-0.317 -0.396,-0.694 -0.544,-1.135 -0.148,-0.439 -0.277,-0.929 -0.387,-1.468 -0.402,0.551 -0.828,1.059 -1.275,1.521 -0.447,0.464 -0.902,0.865 -1.367,1.206 -0.464,0.341 -0.934,0.607 -1.408,0.801 -0.477,0.194 -0.938,0.29 -1.385,0.29 -0.367,0 -0.712,-0.064 -1.034,-0.195 -0.323,-0.131 -0.609,-0.351 -0.859,-0.66 -0.251,-0.309 -0.448,-0.716 -0.593,-1.221 -0.145,-0.506 -0.217,-1.133 -0.217,-1.881 0.012,-1.558 0.123,-2.752 0.336,-3.584 0.334,-1.215 0.646,-3.023 0.936,-5.427 0.03,-0.176 0.072,-0.415 0.125,-0.72 0.052,-0.305 0.131,-0.635 0.237,-0.992 0.106,-0.356 0.237,-0.719 0.394,-1.088 0.157,-0.369 0.341,-0.701 0.553,-0.999 0.213,-0.297 0.461,-0.541 0.746,-0.731 0.285,-0.189 0.605,-0.291 0.963,-0.303 0.592,0.03 1.017,0.133 1.273,0.307 0.256,0.174 0.386,0.389 0.386,0.646 -0.101,0.803 -0.214,1.572 -0.339,2.313 -0.125,0.741 -0.252,1.485 -0.378,2.236 -0.127,0.75 -0.269,1.586 -0.423,2.505 -0.155,0.919 -0.279,1.655 -0.373,2.21 -0.094,0.555 -0.17,1.004 -0.228,1.346 -0.058,0.342 -0.086,0.52 -0.086,0.531 0,0.221 0.02,0.434 0.059,0.635 0.04,0.203 0.099,0.385 0.177,0.543 0.078,0.16 0.18,0.289 0.303,0.387 0.123,0.099 0.269,0.147 0.438,0.147 0.246,0 0.498,-0.069 0.756,-0.208 0.258,-0.141 0.499,-0.343 0.724,-0.609 0.235,-0.242 0.442,-0.557 0.622,-0.943 0.18,-0.375 0.313,-0.812 0.403,-1.309 l 1.847,-9.72 c 0.055,-0.286 0.273,-0.526 0.656,-0.723 0.382,-0.196 0.816,-0.294 1.302,-0.294 0.55,0 0.987,0.107 1.31,0.321 0.32,0.214 0.482,0.488 0.482,0.821 z"
       id="path25"
       style="fill:#333333" /><path
       d="m 199.092,194.305 c -1.074,0.666 -2.03,1.249 -2.869,1.748 -0.84,0.5 -1.586,0.916 -2.24,1.249 -0.654,0.333 -1.236,0.583 -1.744,0.749 -0.51,0.167 -0.971,0.25 -1.385,0.25 -0.844,0 -1.588,-0.273 -2.232,-0.82 -0.644,-0.547 -1.184,-1.335 -1.617,-2.363 -0.434,-1.029 -0.758,-2.274 -0.975,-3.737 -0.217,-1.462 -0.324,-3.109 -0.324,-4.94 0,-0.714 0.027,-1.475 0.082,-2.283 0.056,-0.809 0.133,-1.611 0.232,-2.408 -0.337,-0.053 -0.599,-0.103 -0.783,-0.148 -0.186,-0.047 -0.383,-0.094 -0.591,-0.14 -0.208,-0.046 -0.472,-0.096 -0.793,-0.149 -0.32,-0.053 -0.784,-0.119 -1.392,-0.198 -0.27,-0.04 -0.478,-0.115 -0.623,-0.228 -0.146,-0.113 -0.254,-0.245 -0.321,-0.397 -0.067,-0.152 -0.106,-0.312 -0.118,-0.477 -0.011,-0.165 -0.017,-0.308 -0.017,-0.427 0,-0.188 0.11,-0.331 0.329,-0.43 0.219,-0.099 0.499,-0.172 0.842,-0.223 0.342,-0.049 0.719,-0.076 1.128,-0.082 0.41,-0.006 0.804,-0.003 1.179,0.009 0.377,0.012 0.713,0.021 1.011,0.026 0.298,0.005 0.503,-0.002 0.614,-0.026 0.302,-1.601 0.684,-3.151 1.146,-4.651 0.462,-1.5 0.98,-2.834 1.555,-4.002 0.575,-1.168 1.202,-2.104 1.883,-2.811 0.68,-0.705 1.393,-1.059 2.141,-1.059 0.48,0 0.919,0.143 1.315,0.428 0.397,0.285 0.735,0.666 1.015,1.141 0.279,0.476 0.494,1.031 0.645,1.666 0.151,0.637 0.227,1.299 0.227,1.987 0,0.57 -0.078,1.173 -0.234,1.806 -0.156,0.635 -0.369,1.28 -0.637,1.938 -0.268,0.658 -0.584,1.323 -0.947,1.998 -0.363,0.674 -0.746,1.344 -1.147,2.006 0.101,-0.039 0.269,-0.047 0.503,-0.022 0.234,0.025 0.506,0.041 0.813,0.051 0.308,0.009 0.641,0.019 0.998,0.028 0.357,0.009 0.703,0.021 1.038,0.032 0.335,0.011 0.647,0.024 0.938,0.036 0.291,0.012 0.53,0.023 0.721,0.035 0.223,0.014 0.385,0.146 0.486,0.396 0.1,0.252 0.15,0.57 0.15,0.953 0,0.444 -0.112,0.807 -0.336,1.086 -0.224,0.279 -0.47,0.418 -0.738,0.418 h -6.44 c -0.325,0.477 -0.653,0.943 -0.985,1.4 -0.33,0.458 -0.636,0.871 -0.916,1.24 -0.045,0.736 -0.084,1.463 -0.117,2.176 -0.012,0.309 -0.023,0.627 -0.033,0.954 -0.012,0.327 -0.023,0.651 -0.034,0.972 -0.011,0.322 -0.02,0.631 -0.025,0.928 -0.005,0.298 -0.009,0.571 -0.009,0.82 0,0.643 0.057,1.184 0.168,1.623 0.113,0.441 0.275,0.801 0.488,1.08 0.213,0.279 0.475,0.481 0.782,0.606 0.309,0.124 0.653,0.187 1.034,0.187 0.235,0 0.529,-0.059 0.881,-0.178 0.352,-0.119 0.738,-0.282 1.157,-0.49 0.419,-0.209 0.86,-0.455 1.325,-0.74 0.463,-0.285 0.922,-0.598 1.375,-0.938 0.453,-0.338 0.887,-0.695 1.3,-1.069 0.413,-0.375 0.788,-0.759 1.124,-1.151 v 4.565 z m -5.362,-22.588 c 0,-0.129 -0.01,-0.274 -0.025,-0.435 -0.018,-0.159 -0.054,-0.311 -0.109,-0.452 -0.057,-0.143 -0.143,-0.262 -0.261,-0.355 -0.118,-0.096 -0.284,-0.143 -0.496,-0.143 -0.292,0 -0.587,0.271 -0.884,0.814 -0.297,0.543 -0.582,1.236 -0.857,2.08 -0.275,0.845 -0.533,1.774 -0.773,2.79 -0.241,1.015 -0.463,2.001 -0.664,2.957 0.168,0.018 0.336,0.033 0.504,0.046 0.168,0.014 0.342,0.029 0.521,0.047 0.336,-0.6 0.688,-1.248 1.051,-1.947 0.365,-0.699 0.692,-1.387 0.984,-2.063 0.291,-0.675 0.533,-1.307 0.723,-1.895 0.191,-0.586 0.286,-1.067 0.286,-1.444 z"
       id="path27"
       style="fill:#333333" /></g><g
     transform="translate(-1.995252,-2)"
     id="g29"><path
       d="m 100.935,235.028 c -2.414,1.623 -5.243,1.831 -8.072,1.831 H 79.214 v -29.377 h 12.067 c 0.791,0 1.582,0 2.331,0.041 3.038,0.125 6.283,0.5 8.28,3.163 0.583,0.749 1.415,2.122 1.415,4.327 0,3.828 -2.539,5.451 -3.829,6.033 -0.707,0.292 -1.123,0.417 -2.455,0.708 0.417,0.041 0.791,0.125 1.166,0.208 3.454,0.624 4.868,2.205 5.576,3.661 0.25,0.5 0.666,1.582 0.666,3.038 -10e-4,1.291 -0.417,4.328 -3.496,6.367 z m -6.741,-21.845 c -0.375,-0.125 -0.833,-0.208 -1.665,-0.208 h -6.325 v 6.117 h 5.534 c 0.042,0 1.082,-0.042 1.664,-0.125 1.665,-0.291 2.206,-1.04 2.455,-1.706 0.083,-0.208 0.25,-0.707 0.25,-1.373 0.001,-0.624 -0.124,-2.122 -1.913,-2.705 z m 0.749,11.526 c -0.541,-0.208 -1.124,-0.291 -2.372,-0.291 h -6.366 v 7.115 h 5.118 c 2.621,0 3.911,-0.291 4.868,-1.29 0.333,-0.374 0.791,-1.04 0.791,-2.247 0,-2.163 -1.207,-2.996 -2.039,-3.287 z"
       id="path31"
       style="fill:#5ebf64" /><path
       d="m 108.67,236.859 v -29.377 h 21.721 v 5.659 h -14.397 v 5.367 h 13.44 v 5.576 h -13.44 v 6.99 h 15.729 v 5.784 H 108.67 z"
       id="path33"
       style="fill:#5ebf64" /><path
       d="m 153.355,236.859 -5.867,-10.486 h -4.577 v 10.486 h -7.407 v -29.377 h 13.232 c 0.832,0 1.664,0 2.496,0.041 1.332,0.084 5.992,0.375 8.281,4.577 0.416,0.791 1.165,2.497 1.165,4.91 0,3.287 -1.29,5.035 -2.288,5.992 -0.416,0.416 -0.916,0.791 -1.373,1.082 -0.541,0.291 -1.166,0.582 -2.373,1.04 l 6.783,11.734 h -8.072 z m -4.244,-23.925 h -6.242 v 7.989 h 6.075 c 0.292,0 1.124,0 1.956,-0.292 2.371,-0.79 2.455,-3.037 2.455,-3.786 0,-3.828 -2.955,-3.911 -4.244,-3.911 z"
       id="path35"
       style="fill:#5ebf64" /><path
       d="m 165.002,236.859 v -29.377 h 7.322 v 23.177 h 11.485 v 6.2 h -18.807 z"
       id="path37"
       style="fill:#5ebf64" /><path
       d="m 187.51,236.859 v -29.377 h 7.322 v 29.377 h -7.322 z"
       id="path39"
       style="fill:#5ebf64" /><path
       d="m 218.008,236.859 -10.652,-18.184 0.249,18.184 h -7.073 v -29.377 h 7.198 l 10.735,18.434 -0.291,-18.434 h 7.032 v 29.377 h -7.198 z"
       id="path41"
       style="fill:#5ebf64" /></g><polygon
     points="35.276,2.5 37.305,2.5 40.35,109.5 32.231,109.5 "
     transform="translate(-1.995252,-2)"
     id="polygon43"
     style="fill:#efe7dc;stroke:#efe7dc;stroke-miterlimit:10" /><polygon
     points="40.35,110.5 39.915,92.5 32.667,92.5 32.231,110.5 "
     transform="translate(-1.995252,-2)"
     id="polygon45"
     style="fill:#ff1526;stroke:#ff1526;stroke-miterlimit:10" /><polygon
     points="33.304,71.5 39.277,71.5 38.61,47.5 33.971,47.5 "
     transform="translate(-1.995252,-2)"
     id="polygon47"
     style="fill:#ff1526;stroke:#ff1526;stroke-miterlimit:10" /><polygon
     points="37.595,2.5 34.986,2.5 34.436,27.5 38.146,27.5 "
     transform="translate(-1.995252,-2)"
     id="polygon49"
     style="fill:#ff1526;stroke:#ff1526;stroke-miterlimit:10" /><circle
     cx="89.565002"
     cy="190.521"
     r="2.7049999"
     transform="translate(-1.995252,-2)"
     id="circle51"
     style="fill:#333333;stroke:#333333;stroke-width:2;stroke-miterlimit:10" /><circle
     cx="210.31799"
     cy="190.521"
     r="2.7049999"
     transform="translate(-1.995252,-2)"
     id="circle53"
     style="fill:#333333;stroke:#333333;stroke-width:2;stroke-miterlimit:10" /></svg>