<?xml version="1.0" encoding="UTF-8" standalone="no"?>
<!-- Generator: Adobe Illustrator 16.0.4, SVG Export Plug-In . SVG Version: 6.00 Build 0)  -->

<svg
   xmlns:dc="http://purl.org/dc/elements/1.1/"
   xmlns:cc="http://creativecommons.org/ns#"
   xmlns:rdf="http://www.w3.org/1999/02/22-rdf-syntax-ns#"
   xmlns:svg="http://www.w3.org/2000/svg"
   xmlns="http://www.w3.org/2000/svg"
   xmlns:sodipodi="http://sodipodi.sourceforge.net/DTD/sodipodi-0.dtd"
   xmlns:inkscape="http://www.inkscape.org/namespaces/inkscape"
   version="1.1"
   id="Capa_1"
   x="0px"
   y="0px"
   width="16"
   height="16"
   viewBox="0 0 16 16"
   enable-background="new 0 0 246 470.641"
   xml:space="preserve"
   inkscape:version="0.48.4 r9939"
   sodipodi:docname="walking.svg"><metadata
     id="metadata11"><rdf:RDF><cc:Work
         rdf:about=""><dc:format>image/svg+xml</dc:format><dc:type
           rdf:resource="http://purl.org/dc/dcmitype/StillImage" /></cc:Work></rdf:RDF></metadata><defs
     id="defs9" /><sodipodi:namedview
     pagecolor="#ffffff"
     bordercolor="#666666"
     borderopacity="1"
     objecttolerance="10"
     gridtolerance="10"
     guidetolerance="10"
     inkscape:pageopacity="0"
     inkscape:pageshadow="2"
     inkscape:window-width="1600"
     inkscape:window-height="852"
     id="namedview7"
     showgrid="false"
     inkscape:zoom="45.38551"
     inkscape:cx="15.332687"
     inkscape:cy="10.689955"
     inkscape:window-x="0"
     inkscape:window-y="24"
     inkscape:window-maximized="0"
     inkscape:current-layer="Capa_1" /><path
     d="M 7.748888,4.4716017 C 8.3070874,4.4535815 8.7752923,4.2375239 9.153446,3.823344 9.5315927,3.4091642 9.7116455,2.9229675 9.6936606,2.3647611 9.6756406,1.8064555 9.4685506,1.3292831 9.0724121,0.93319382 8.6762734,0.53705532 8.1990444,0.34797842 7.640838,0.36597022 7.0826385,0.38399032 6.6144336,0.60004092 6.2362799,1.0142278 5.8581332,1.4284077 5.6690563,1.9146044 5.6690563,2.4728039 c 0,0.5582065 0.2070616,1.0354355 0.6212486,1.4315741 0.4141799,0.3961386 0.9003766,0.5852155 1.4585831,0.5672237 z"
     id="path3"
     inkscape:connector-curvature="0"
     style="fill:#f9f9f9" /><path
     d="M 11.874192,7.5257835 10.081449,6.5786781 8.5593101,4.7521088 C 8.2616868,4.3949633 7.854703,4.4263362 7.4768967,4.4138577 7.1407149,4.4027545 6.7908434,4.4320267 6.4959643,4.6506341 l -1.961871,1.454485 C 4.4664456,6.1953329 4.4213576,6.2968075 4.3987916,6.4095495 l -0.2367763,2.6045459 0,0.06765 c 0,0.15783 -0.011229,0.293132 0.1014746,0.405905 0.112742,0.112704 0.045107,0.101475 0.2029557,0.101475 0.1578614,0 0.2875168,0.01123 0.3889915,-0.101475 0.1014747,-0.112773 0.1634761,-0.236776 0.1860359,-0.372078 L 5.2782556,6.8831022 6.0900593,6.2065938 5.7518083,12.295156 4.5002726,14.696753 c -0.045107,0.135302 -0.067654,0.259065 -0.067654,0.372147 0,0.247703 0.016907,0.388992 0.1860422,0.558114 0.1691223,0.169129 0.087173,0.103128 0.2875105,0.152215 0.3382573,0 0.5186469,-0.0229 0.6765083,-0.338251 L 7.003344,12.802567 c 0,-0.02265 0.011229,-0.06208 0.033814,-0.118388 0.022585,-0.05646 0.04517,-0.107228 0.067648,-0.152215 0.022585,-0.04517 0.033814,-0.09032 0.033814,-0.135302 l 0.1691291,-1.522171 1.4544851,4.465013 c 0.1578614,0.405898 0.439732,0.529901 0.845637,0.507379 0.2255089,0 0.1522088,-0.01691 0.3213373,-0.186042 0.1691295,-0.169128 0.1183885,-0.378065 0.1183885,-0.625768 0,-0.0229 -0.0057,-0.05072 -0.01691,-0.08456 -0.01129,-0.03381 -0.01691,-0.06208 -0.01691,-0.08463 L 8.1195654,8.4728954 8.6269451,6.2065938 9.2019788,7.1198785 c 0.045107,0.067654 0.1014747,0.1240407 0.1691223,0.1691287 l 1.9280449,1.0485862 c 0.135301,0.04511 0.225515,0.06765 0.270603,0.06765 0.157862,0 0.293163,0.0733 0.405905,-0.05072 0.112742,-0.124072 0.169129,-0.1973409 0.169129,-0.3551708 0,-0.2029493 -0.09021,-0.3608107 -0.270604,-0.4735527 z"
     id="path5"
     inkscape:connector-curvature="0"
     sodipodi:nodetypes="ccsascccscsccccccsscccccccccsssccccccscsc"
     style="fill:#f9f9f9" /></svg>