<?xml version="1.0" encoding="UTF-8" standalone="no"?>
<!-- Generator: Adobe Illustrator 16.0.0, SVG Export Plug-In . SVG Version: 6.00 Build 0)  -->

<svg
   xmlns:dc="http://purl.org/dc/elements/1.1/"
   xmlns:cc="http://creativecommons.org/ns#"
   xmlns:rdf="http://www.w3.org/1999/02/22-rdf-syntax-ns#"
   xmlns:svg="http://www.w3.org/2000/svg"
   xmlns="http://www.w3.org/2000/svg"
   xmlns:sodipodi="http://sodipodi.sourceforge.net/DTD/sodipodi-0.dtd"
   xmlns:inkscape="http://www.inkscape.org/namespaces/inkscape"
   version="1.1"
   id="Layer_1"
   x="0px"
   y="0px"
   width="64px"
   height="64px"
   viewBox="0 0 64 64"
   enable-background="new 0 0 64 64"
   xml:space="preserve"
   inkscape:version="0.48.4 r9939"
   sodipodi:docname="fair.svg"><metadata
     id="metadata25"><rdf:RDF><cc:Work
         rdf:about=""><dc:format>image/svg+xml</dc:format><dc:type
           rdf:resource="http://purl.org/dc/dcmitype/StillImage" /></cc:Work></rdf:RDF></metadata><defs
     id="defs23" /><sodipodi:namedview
     pagecolor="#ffffff"
     bordercolor="#666666"
     borderopacity="1"
     objecttolerance="10"
     gridtolerance="10"
     guidetolerance="10"
     inkscape:pageopacity="0"
     inkscape:pageshadow="2"
     inkscape:window-width="1127"
     inkscape:window-height="598"
     id="namedview21"
     showgrid="false"
     inkscape:zoom="6.453125"
     inkscape:cx="4.7263923"
     inkscape:cy="32"
     inkscape:window-x="234"
     inkscape:window-y="149"
     inkscape:window-maximized="0"
     inkscape:current-layer="Layer_1" /><path
     fill="#FFFFFF"
     d="M57.074,44.991c-0.18-2.595-1.135-4.757-2.842-6.433c-1.901-1.863-4.196-2.529-5.182-2.738  c-0.072-2.481-1.076-4.832-2.916-6.814c-2.58-2.783-6.498-4.446-10.477-4.446c-3.696,0-7.463,1.729-10.075,4.625  c-1.968,2.186-3.07,4.777-3.122,7.333c-4.721,0.75-8.244,4.515-8.244,8.863c0,5.051,3.155,9.119,5.768,9.122h0.002l38.587-0.015  l0.406-0.606c0.054-0.081,1.31-1.972,1.31-4.312C60.29,47.545,59.007,45.732,57.074,44.991z M25.27,37.553  c-0.295-2.186,0.574-4.591,2.385-6.6c2.094-2.324,5.086-3.711,8.002-3.711c3.212,0,6.364,1.33,8.43,3.559  c1.63,1.76,2.399,3.912,2.171,6.08l-0.083,1.46h1.511c0.635,0,2.838,0.388,4.588,2.104c1.396,1.371,2.094,3.24,2.072,5.553  l-0.011,1.354h1.228l0.131,0.025c1.066,0.221,1.84,1.143,1.84,2.193c0,0.894-0.305,1.729-0.536,2.236l-37.01,0.014  c-0.706,0-3.015-2.746-3.015-6.439c0-3.304,3.177-6.193,6.938-6.312h1.565L25.27,37.553z"
     id="path3"
     style="fill:#1f2022;fill-opacity:1" /><g
     id="g5"
     style="fill:#1f2022;fill-opacity:1"><path
       fill="#EECF37"
       d="M29.869,21.203c-1.726-1.446-3.929-2.242-6.203-2.242c-5.255,0-9.53,4.16-9.53,9.273   c0,2.615,1.15,5.122,3.167,6.889l0.911,0.714l2.56-0.946l-1.277-1.213L19.22,33.43l0.005-0.005l-0.203-0.178   c-1.462-1.283-2.301-3.109-2.301-5.012c0-3.728,3.116-6.76,6.947-6.76c1.656,0,3.26,0.58,4.518,1.633l0.202,0.163V23.27l0.712,0.59   l2.552-1.044l-1.375-1.27L29.869,21.203z"
       id="path7"
       style="fill:#1f2022;fill-opacity:1" /><path
       fill="#EECF37"
       d="M19.005,16.762l-2.436-5.055l-0.025-0.065c-0.279-0.578-1.036-0.848-1.627-0.578   c-0.497,0.227-0.764,0.736-0.688,1.243l-0.054,0.029l2.618,5.435L19.005,16.762z M16.241,11.809L16.241,11.809L16.241,11.809   L16.241,11.809z"
       id="path9"
       style="fill:#1f2022;fill-opacity:1" /><path
       fill="#EECF37"
       d="M6.227,20.548l5.427,2.912l1.181-2.08l-5.024-2.697l-0.06-0.039c-0.574-0.309-1.35-0.09-1.666,0.465   c-0.261,0.46-0.175,1.012,0.177,1.38L6.227,20.548z"
       id="path11"
       style="fill:#1f2022;fill-opacity:1" /><path
       fill="#EECF37"
       d="M10.591,28.531l-5.694,0.693l-0.005,0.335l0,0l0,0l0,0l-0.067-0.332c-0.671,0.081-1.15,0.677-1.067,1.325   c0.067,0.525,0.484,0.936,1.007,1.023l0.013,0.058l6.115-0.741L10.591,28.531z"
       id="path13"
       style="fill:#1f2022;fill-opacity:1" /><path
       fill="#EECF37"
       d="M9.078,39.395c-0.494,0.448-0.522,1.207-0.061,1.688c0.229,0.234,0.553,0.37,0.887,0.37   c0.192,0,0.379-0.042,0.548-0.124l0.044,0.038l4.496-4.099l-1.671-1.732L9.078,39.395z"
       id="path15"
       style="fill:#1f2022;fill-opacity:1" /><path
       fill="#EECF37"
       d="M37.254,15.372c-0.363-0.378-0.982-0.478-1.449-0.244l-0.043-0.034l-4.485,4.085l1.668,1.736l4.178-3.807   l-0.18-0.287l0.248,0.236C37.686,16.606,37.714,15.851,37.254,15.372z"
       id="path17"
       style="fill:#1f2022;fill-opacity:1" /><path
       fill="#EECF37"
       d="M27.754,11.034l-0.323-0.114l0,0l0.344,0.044c0.062-0.314-0.005-0.632-0.189-0.897   c-0.182-0.263-0.459-0.44-0.777-0.5c-0.557-0.103-1.09,0.177-1.325,0.642h-0.053l-1.157,5.856l2.399,0.448L27.754,11.034z"
       id="path19"
       style="fill:#1f2022;fill-opacity:1" /></g></svg>