<?xml version="1.0" encoding="UTF-8" standalone="no"?>
<!-- Generator: Adobe Illustrator 16.0.0, SVG Export Plug-In . SVG Version: 6.00 Build 0)  -->

<svg
   xmlns:dc="http://purl.org/dc/elements/1.1/"
   xmlns:cc="http://creativecommons.org/ns#"
   xmlns:rdf="http://www.w3.org/1999/02/22-rdf-syntax-ns#"
   xmlns:svg="http://www.w3.org/2000/svg"
   xmlns="http://www.w3.org/2000/svg"
   xmlns:sodipodi="http://sodipodi.sourceforge.net/DTD/sodipodi-0.dtd"
   xmlns:inkscape="http://www.inkscape.org/namespaces/inkscape"
   version="1.1"
   id="Layer_1"
   x="0px"
   y="0px"
   width="64px"
   height="64px"
   viewBox="0 0 64 64"
   enable-background="new 0 0 64 64"
   xml:space="preserve"
   inkscape:version="0.48.4 r9939"
   sodipodi:docname="fair-n.svg"><metadata
     id="metadata15"><rdf:RDF><cc:Work
         rdf:about=""><dc:format>image/svg+xml</dc:format><dc:type
           rdf:resource="http://purl.org/dc/dcmitype/StillImage" /></cc:Work></rdf:RDF></metadata><defs
     id="defs13" /><sodipodi:namedview
     pagecolor="#ffffff"
     bordercolor="#666666"
     borderopacity="1"
     objecttolerance="10"
     gridtolerance="10"
     guidetolerance="10"
     inkscape:pageopacity="0"
     inkscape:pageshadow="2"
     inkscape:window-width="1600"
     inkscape:window-height="852"
     id="namedview11"
     showgrid="false"
     inkscape:zoom="3.6875"
     inkscape:cx="-15.728814"
     inkscape:cy="32"
     inkscape:window-x="0"
     inkscape:window-y="24"
     inkscape:window-maximized="0"
     inkscape:current-layer="Layer_1" /><g
     id="g3"
     style="fill:#1f2022;fill-opacity:1"><path
       fill="#FFFFFF"
       d="M59.669,41.163c-0.287-0.39-0.78-0.595-1.271-0.515c-1.157,0.188-2.324,0.285-3.473,0.285   c-11.576,0-20.996-9.264-20.996-20.652c0-3.374,0.805-6.595,2.394-9.576c0.229-0.433,0.192-0.952-0.101-1.348   c-0.298-0.407-0.81-0.613-1.273-0.513c-9.785,2.143-16.401,7.83-18.63,16.012c-0.249,0.912-0.411,1.467-0.519,1.833l-0.099,0.341   l0.183-0.062c1.34-0.45,2.11-0.584,2.625-0.668l0.114-0.009l0.081-0.223l-0.02,0.003c0.028-0.099,0.075-0.267,0.156-0.55   c1.766-6.471,6.491-11.036,14.049-13.571c-1.042,2.674-1.572,5.476-1.572,8.331c0,12.804,10.591,23.222,23.609,23.222   c0.398,0,0.805-0.011,1.208-0.032c-3.917,5.594-10.36,8.926-17.282,8.926c-2.174,0-4.314-0.326-6.359-0.967l-0.026-0.006   c-0.105-0.004-0.289-0.007-0.532-0.007c-1.223,0-4.027,0.049-5.112,0.099l-0.335,0.017l0.288,0.168   c1.213,0.71,2.494,1.319,3.809,1.8c2.641,0.973,5.423,1.466,8.27,1.466c8.806,0,16.821-4.774,20.916-12.454   C60,42.078,59.96,41.559,59.669,41.163z"
       id="path5"
       style="fill:#1f2022;fill-opacity:1" /><g
       id="g7"
       style="fill:#1f2022;fill-opacity:1"><path
         fill="#FFFFFF"
         d="M11.794,49.912H8.507c-2.195,0-4.351-3.329-4.351-6.719c0-3.133,2.456-5.823,5.69-6.481    c0.113-1.757,0.892-3.534,2.23-5.036c1.868-2.096,4.566-3.346,7.221-3.346c2.844,0,5.645,1.204,7.49,3.218    c1.255,1.368,1.975,3.004,2.091,4.701c1.049,0.263,2.362,0.833,3.471,1.935c1.176,1.166,1.874,2.701,2.043,4.483    c1.336,0.615,2.236,1.953,2.236,3.442c0,1.701-0.865,3.055-0.965,3.203l-0.393,0.592L11.794,49.912z M11.206,39.172    c-2.378,0.073-4.396,1.915-4.396,4.021c0,2.336,1.321,3.977,1.777,4.119l3.207-0.011l21.942-0.011    c0.125-0.316,0.244-0.739,0.244-1.184c0-0.561-0.406-1.047-0.969-1.164l-0.049-0.01h-1.188l0.012-1.318    c0.013-1.506-0.431-2.719-1.318-3.598c-1.021-1.015-2.411-1.354-2.889-1.354h-1.473l0.113-1.437    c0.146-1.392-0.352-2.789-1.401-3.935c-1.351-1.474-3.416-2.354-5.521-2.354c-1.901,0-3.855,0.919-5.226,2.457    c-1.177,1.318-1.741,2.885-1.552,4.301l0.196,1.476L11.206,39.172L11.206,39.172z"
         id="path9"
         style="fill:#1f2022;fill-opacity:1" /></g></g></svg>