<?xml version="1.0" encoding="UTF-8" standalone="no"?>
<!-- Generator: Adobe Illustrator 16.0.0, SVG Export Plug-In . SVG Version: 6.00 Build 0)  -->

<svg
   xmlns:dc="http://purl.org/dc/elements/1.1/"
   xmlns:cc="http://creativecommons.org/ns#"
   xmlns:rdf="http://www.w3.org/1999/02/22-rdf-syntax-ns#"
   xmlns:svg="http://www.w3.org/2000/svg"
   xmlns="http://www.w3.org/2000/svg"
   xmlns:sodipodi="http://sodipodi.sourceforge.net/DTD/sodipodi-0.dtd"
   xmlns:inkscape="http://www.inkscape.org/namespaces/inkscape"
   version="1.1"
   id="Layer_1"
   x="0px"
   y="0px"
   width="64px"
   height="64px"
   viewBox="0 0 64 64"
   enable-background="new 0 0 64 64"
   xml:space="preserve"
   inkscape:version="0.48.4 r9939"
   sodipodi:docname="hurricane.svg"><metadata
     id="metadata13"><rdf:RDF><cc:Work
         rdf:about=""><dc:format>image/svg+xml</dc:format><dc:type
           rdf:resource="http://purl.org/dc/dcmitype/StillImage" /></cc:Work></rdf:RDF></metadata><defs
     id="defs11" /><sodipodi:namedview
     pagecolor="#ffffff"
     bordercolor="#666666"
     borderopacity="1"
     objecttolerance="10"
     gridtolerance="10"
     guidetolerance="10"
     inkscape:pageopacity="0"
     inkscape:pageshadow="2"
     inkscape:window-width="956"
     inkscape:window-height="848"
     id="namedview9"
     showgrid="false"
     inkscape:zoom="3.6875"
     inkscape:cx="32"
     inkscape:cy="32"
     inkscape:window-x="0"
     inkscape:window-y="24"
     inkscape:window-maximized="0"
     inkscape:current-layer="Layer_1" /><g
     id="g3"
     style="fill:#1f2022;fill-opacity:1"><path
       fill="#FFFFFF"
       d="M56.48,15.443c-0.697-0.544-1.438-1.06-2.196-1.533c-3.938-2.46-8.454-3.828-13.06-3.956   c-0.238-0.007-0.476-0.01-0.713-0.01c-7.418,0-14.298,3.174-18.874,8.708c-2.257,2.729-3.798,5.832-4.605,9.224   c-0.656,2.052-0.861,4.23-0.546,6.421c0.562,3.926,2.667,7.401,5.926,9.786c2.674,1.963,5.857,3.001,9.207,3.001h0.001   c2.077,0,4.071-0.417,5.914-1.164c-3.924,3.539-9.102,5.514-14.672,5.514c-4.114,0-8.186-1.11-11.773-3.213   c-0.263-0.156-0.809-0.566-0.814-0.57l-0.091-0.067l-1.199,0.515c-1.001,0.426-1.47,0.564-1.474,0.565l-0.364,0.104l0.303,0.225   c0.713,0.525,1.468,1.019,2.242,1.471c4.009,2.352,8.563,3.594,13.17,3.594c7.702,0,14.746-3.369,19.322-9.238   c2.007-2.573,3.402-5.449,4.162-8.562c0.554-1.92,0.713-3.945,0.43-5.98c-0.549-3.955-2.654-7.454-5.928-9.853   c-2.676-1.962-5.859-2.999-9.208-2.999c-2.333,0-4.57,0.509-6.594,1.445c4.007-4.023,9.537-6.303,15.464-6.303   c4.338,0,8.594,1.226,12.311,3.546c0.26,0.161,0.791,0.588,0.798,0.592l0.09,0.071l1.213-0.479   c1.011-0.401,1.483-0.526,1.489-0.527l0.367-0.096L56.48,15.443z M31.641,20.107c2.743,0,5.352,0.85,7.543,2.458   c2.682,1.965,4.406,4.831,4.856,8.069c0.445,3.199-0.412,6.375-2.413,8.942c-2.389,3.066-6.037,4.825-10.009,4.825   c-2.746,0-5.355-0.85-7.546-2.458c-2.67-1.957-4.394-4.804-4.854-8.017c-0.46-3.211,0.397-6.406,2.414-8.994   C24.023,21.866,27.671,20.107,31.641,20.107z"
       id="path5"
       style="fill:#1f2022;fill-opacity:1" /><path
       fill="#FFFFFF"
       d="M30.899,36.134c0.26,0.058,0.527,0.087,0.793,0.087c1.691,0,3.187-1.162,3.554-2.768   c0.212-0.921,0.042-1.867-0.479-2.663c-0.522-0.798-1.334-1.349-2.284-1.554c-0.261-0.058-0.528-0.086-0.796-0.086   c-1.692,0-3.187,1.163-3.554,2.765C27.696,33.816,28.935,35.71,30.899,36.134z M30.584,32.443c0.114-0.498,0.579-0.861,1.104-0.861   c0.083,0,0.167,0.009,0.251,0.027c0.61,0.132,0.997,0.722,0.86,1.314c-0.132,0.579-0.749,0.968-1.354,0.837   C30.833,33.627,30.447,33.037,30.584,32.443z"
       id="path7"
       style="fill:#1f2022;fill-opacity:1" /></g></svg>