<?xml version="1.0" encoding="UTF-8" standalone="no"?>
<!-- Generator: Adobe Illustrator 16.0.0, SVG Export Plug-In . SVG Version: 6.00 Build 0)  -->

<svg
   xmlns:dc="http://purl.org/dc/elements/1.1/"
   xmlns:cc="http://creativecommons.org/ns#"
   xmlns:rdf="http://www.w3.org/1999/02/22-rdf-syntax-ns#"
   xmlns:svg="http://www.w3.org/2000/svg"
   xmlns="http://www.w3.org/2000/svg"
   xmlns:sodipodi="http://sodipodi.sourceforge.net/DTD/sodipodi-0.dtd"
   xmlns:inkscape="http://www.inkscape.org/namespaces/inkscape"
   version="1.1"
   id="Layer_1"
   x="0px"
   y="0px"
   width="64px"
   height="64px"
   viewBox="0 0 64 64"
   enable-background="new 0 0 64 64"
   xml:space="preserve"
   inkscape:version="0.48.4 r9939"
   sodipodi:docname="tornado.svg"><metadata
     id="metadata9"><rdf:RDF><cc:Work
         rdf:about=""><dc:format>image/svg+xml</dc:format><dc:type
           rdf:resource="http://purl.org/dc/dcmitype/StillImage" /></cc:Work></rdf:RDF></metadata><defs
     id="defs7" /><sodipodi:namedview
     pagecolor="#ffffff"
     bordercolor="#666666"
     borderopacity="1"
     objecttolerance="10"
     gridtolerance="10"
     guidetolerance="10"
     inkscape:pageopacity="0"
     inkscape:pageshadow="2"
     inkscape:window-width="956"
     inkscape:window-height="848"
     id="namedview5"
     showgrid="false"
     inkscape:zoom="3.6875"
     inkscape:cx="-15.728814"
     inkscape:cy="32"
     inkscape:window-x="0"
     inkscape:window-y="24"
     inkscape:window-maximized="0"
     inkscape:current-layer="Layer_1" /><path
     fill="#FFFFFF"
     d="M49.355,13.02c-1.9-2.625-8.963-4.487-14.436-5.283c-2.647-0.385-5.281-0.589-7.618-0.589  c-5.595,0-8.623,1.047-8.999,3.112c-0.031,0.171-0.036,0.388-0.013,0.622c-0.34,1.618-0.962,3.057-1.636,4.554  c-1.161,2.585-2.477,5.516-2.456,9.947c0.039,8.221,5.978,11.678,11.541,14.273c5.007,2.338,7.881,8.492,6.543,14.012  c-0.387,1.602-0.116,2.654,0.808,3.128c0.191,0.099,0.457,0.188,0.786,0.188c0.587,0,1.376-0.289,2.299-1.338  c2.538-2.881,4.84-9.902,0.206-16.478c-2.711-3.846-3.731-7.237-3.034-10.079c0.657-2.687,2.894-5.04,6.644-6.992  c1.146-0.597,2.065-1.068,2.821-1.454c3.543-1.813,3.651-1.888,5.91-4.023l0.289-0.273c0.051-0.044,0.098-0.089,0.144-0.135  l0.026-0.025l-0.001-0.001c0.357-0.364,0.587-0.777,0.673-1.247C49.936,14.491,49.915,13.794,49.355,13.02z M34.545,10.291  c7.489,1.09,11.977,3.181,12.676,4.185l-0.009,0.008c-0.476,0.341-2.221,0.987-6.358,0.987c-2.213,0-4.717-0.194-7.244-0.562  c-7.415-1.08-11.882-3.139-12.648-4.155c0.003-0.019,0.008-0.037,0.011-0.056c0.506-0.345,2.256-0.97,6.33-0.97  C29.516,9.729,32.019,9.923,34.545,10.291z M41.621,18.348c-0.76,0.389-1.686,0.862-2.839,1.463  c-4.442,2.312-7.119,5.228-7.963,8.669c-0.88,3.595,0.275,7.69,3.432,12.17c2.655,3.77,2.438,7.347,1.789,9.685  c-0.257,0.926-0.595,1.707-0.938,2.333c0.75-6.219-2.659-12.734-8.258-15.35c-5.275-2.461-10.014-5.227-10.046-11.947  c-0.019-3.875,1.125-6.421,2.231-8.882c0.432-0.961,0.866-1.942,1.233-2.991c2.894,1.931,8.469,3.31,12.973,3.965  c2.646,0.385,5.281,0.589,7.619,0.589c0.486,0,0.947-0.011,1.395-0.027C42.053,18.127,41.846,18.233,41.621,18.348z"
     id="path3"
     style="fill:#1f2022;fill-opacity:1" /></svg>