<?xml version="1.0" encoding="utf-8"?>
<!-- Generator: Adobe Illustrator 16.0.0, SVG Export Plug-In . SVG Version: 6.00 Build 0)  -->
<!DOCTYPE svg PUBLIC "-//W3C//DTD SVG 1.1//EN" "http://www.w3.org/Graphics/SVG/1.1/DTD/svg11.dtd">
<svg version="1.1" id="Layer_1" xmlns="http://www.w3.org/2000/svg" xmlns:xlink="http://www.w3.org/1999/xlink" x="0px" y="0px"
	 width="64px" height="64px" viewBox="0 0 64 64" enable-background="new 0 0 64 64" xml:space="preserve">
<g>
	<path fill="#FFFFFF" d="M40.43,19.408c0-4.904-4.076-8.894-9.086-8.894c-5.008,0-9.083,3.99-9.083,8.894
		c0,0.752,0.096,1.5,0.286,2.225l0.149,0.566l2.282-2.3l-0.007-0.142c-0.009-0.206-0.016-0.294-0.026-0.35h0.001
		c0-3.454,2.869-6.265,6.397-6.265c3.53,0,6.399,2.811,6.399,6.265c0,3.453-2.869,6.263-6.396,6.263l-19.504,0.019l-2.63,2.629
		l22.132-0.017C36.354,28.301,40.43,24.311,40.43,19.408z"/>
	<path fill="#FFFFFF" d="M51.098,15.608c-5.007,0-9.082,3.991-9.082,8.894c0,0.753,0.098,1.502,0.286,2.224l0.149,0.568l2.281-2.3
		l-0.006-0.142c-0.01-0.213-0.018-0.299-0.026-0.35h0.002c0-3.453,2.87-6.264,6.396-6.264c3.529,0,6.398,2.811,6.398,6.264
		s-2.87,6.264-6.396,6.264L6.582,30.784l-2.63,2.63l47.146-0.018c5.01,0,9.086-3.989,9.086-8.895
		C60.184,19.598,56.107,15.608,51.098,15.608z"/>
	<path fill="#FFFFFF" d="M29.498,35.842l-4.109-0.003v-0.013h-2.257v0.011L8.028,35.826l-2.742,2.629l17.846,0.012v0.002h2.257
		v-0.001l4.111,0.003c3.525,0,6.396,2.811,6.396,6.264c0,3.455-2.871,6.266-6.398,6.266c-3.52,0-6.386-2.799-6.397-6.281
		c0.011-0.074,0.014-0.154,0.019-0.238l0.039-0.84l-0.611,0.594c0,0-1.554,1.508-1.921,1.879l-0.123,0.126l0.034,0.169
		c0.852,4.184,4.62,7.222,8.96,7.222c5.009,0,9.085-3.987,9.085-8.894C38.583,39.833,34.507,35.842,29.498,35.842z"/>
</g>
</svg>
