<?xml version="1.0" encoding="utf-8"?>
<!-- Generator: Adobe Illustrator 16.0.0, SVG Export Plug-In . SVG Version: 6.00 Build 0)  -->
<!DOCTYPE svg PUBLIC "-//W3C//DTD SVG 1.1//EN" "http://www.w3.org/Graphics/SVG/1.1/DTD/svg11.dtd">
<svg version="1.1" id="Layer_1" xmlns="http://www.w3.org/2000/svg" xmlns:xlink="http://www.w3.org/1999/xlink" x="0px" y="0px"
	 width="64px" height="64px" viewBox="0 0 64 64" enable-background="new 0 0 64 64" xml:space="preserve">
<g>
	<path fill="#9ECEF8" d="M33.641,40.048l-7.256,6.662c-0.917,0.772-1.504,1.901-1.504,3.168c0,2.341,1.961,4.235,4.381,4.235
		c2.418,0,4.378-1.896,4.378-4.235C33.641,49.861,33.641,40.048,33.641,40.048z"/>
</g>
<path fill="#FFFFFF" d="M55.943,34.843c-0.176-3.173-1.324-5.813-3.406-7.847c-2.447-2.388-5.451-3.119-6.443-3.303
	c-0.025-3.04-1.234-5.929-3.5-8.358c-3.107-3.332-7.824-5.322-12.62-5.322c-4.448,0-8.979,2.07-12.124,5.537
	c-2.433,2.683-3.765,5.877-3.755,9.004C8.323,25.346,3.982,29.865,3.982,35.104c0,5.822,3.718,10.815,6.761,10.817h0.002
	l8.097-0.004l4.048-2.657l-12.145,0.002C9.58,43.26,6.73,39.727,6.73,35.102c0-4.193,4.042-7.859,8.822-8.005h1.564l-0.203-1.501
	c-0.374-2.754,0.719-5.777,3-8.293c2.631-2.9,6.392-4.632,10.059-4.632c4.028,0,7.983,1.662,10.577,4.444
	c2.059,2.21,3.033,4.92,2.742,7.637l-0.082,1.459h1.52c0.812,0,3.629,0.488,5.853,2.658c1.778,1.731,2.664,4.082,2.637,6.989
	l-0.012,1.342l1.207-0.004l0.207,0.043c1.453,0.297,2.508,1.549,2.508,2.977c0,1.266-0.47,2.422-0.771,3.033l-14.201,0.006
	l-3.238,2.66l19-0.01l0.404-0.603c0.064-0.096,1.555-2.327,1.555-5.09C59.877,37.803,58.298,35.654,55.943,34.843z M10.745,45.818
	L10.745,45.818L10.745,45.818L10.745,45.818z"/>
</svg>
