<?xml version="1.0" encoding="utf-8"?>
<!-- Generator: Adobe Illustrator 16.0.0, SVG Export Plug-In . SVG Version: 6.00 Build 0)  -->
<!DOCTYPE svg PUBLIC "-//W3C//DTD SVG 1.1//EN" "http://www.w3.org/Graphics/SVG/1.1/DTD/svg11.dtd">
<svg version="1.1" id="Layer_1" xmlns="http://www.w3.org/2000/svg" xmlns:xlink="http://www.w3.org/1999/xlink" x="0px" y="0px"
	 width="64px" height="64px" viewBox="0 0 64 64" enable-background="new 0 0 64 64" xml:space="preserve">
<polygon fill="#FFFFFF" points="37.662,30.578 39.008,31.324 33.238,41.357 31.894,40.613 "/>
<path fill="#FFFFFF" d="M15.624,56.359c-0.099,0-0.205-0.02-0.314-0.061c-0.749-0.293-0.64-0.921-0.279-2.994
	c0.45-2.599,1.389-7.996-0.542-9.507c-0.815-0.637-2.195-0.569-4.102,0.21l-0.593-1.402c2.465-1.004,4.37-1.002,5.659,0.008
	c2.439,1.906,1.807,6.779,1.243,10.131c1.147-1.826,3.384-5.561,10.235-17.069l1.335,0.763c-9.959,16.731-10.194,17.076-11.49,18.99
	l-0.092,0.137C16.498,55.838,16.145,56.359,15.624,56.359z"/>
<path fill="#FFFFFF" d="M34.16,52.514c-0.16,0-0.321-0.059-0.484-0.19c-0.494-0.409-0.208-0.987-0.088-1.23
	c1.28-2.575,10.553-18.796,10.945-19.486l1.349,0.743c-0.08,0.142-6.8,11.899-9.715,17.194c0.306-0.188,0.646-0.396,1.017-0.614
	c1.6-0.927,2.815-1.156,3.715-0.697c0.932,0.472,1.031,1.445,1.039,1.556l-1.541,0.116l0,0c-0.002,0-0.035-0.241-0.219-0.331
	c-0.281-0.136-1.01-0.031-2.203,0.661c-1.349,0.785-2.217,1.396-2.733,1.763C34.84,52.271,34.497,52.514,34.16,52.514z"/>
<path fill="#FFFFFF" d="M8.966,45.96c0,1.351-1.114,2.444-2.489,2.444c-1.376,0-2.49-1.096-2.49-2.444
	c0-1.347,1.115-2.438,2.49-2.438S8.966,44.613,8.966,45.96z"/>
<ellipse fill="#FFFFFF" cx="30.087" cy="45.824" rx="2.49" ry="2.445"/>
<path fill="#FFFFFF" d="M46.15,54.021c0,1.35-1.115,2.443-2.489,2.443c-1.375,0-2.489-1.095-2.489-2.443
	c0-1.347,1.114-2.44,2.489-2.44C45.035,51.58,46.15,52.676,46.15,54.021z"/>
<path fill="#FFFFFF" d="M56.365,30.533c-0.178-2.943-1.236-5.391-3.143-7.28c-2.197-2.175-4.88-2.881-5.867-3.077
	c-0.043-2.817-1.158-5.49-3.227-7.74c-2.859-3.112-7.203-4.969-11.615-4.969c-4.096,0-8.27,1.932-11.166,5.169
	c-2.221,2.484-3.445,5.438-3.458,8.334c-5.288,0.774-9.253,4.989-9.253,9.87c0,5.451,3.454,10.131,6.283,10.133l3.56-0.002
	l3.086-2.658l-6.644,0.006c-0.864-0.002-3.576-3.105-3.576-7.479c0-3.841,3.655-7.199,7.975-7.333h1.544l-0.201-1.5
	c-0.338-2.529,0.653-5.305,2.723-7.619c2.39-2.671,5.8-4.266,9.128-4.266c3.661,0,7.252,1.53,9.606,4.091
	c1.864,2.032,2.749,4.52,2.483,7.018l-0.082,1.454h1.49c0.733,0,3.278,0.447,5.287,2.437c1.605,1.587,2.405,3.746,2.385,6.419
	l-0.013,1.338l1.185-0.005l0.187,0.039c1.287,0.268,2.22,1.391,2.22,2.67c0,1.116-0.402,2.146-0.674,2.718l-7.727,0.009
	l-3.189,2.656l12.456-0.006l0.401-0.604c0.059-0.086,1.438-2.181,1.438-4.771C59.969,33.33,58.527,31.315,56.365,30.533z"/>
</svg>
