<?xml version="1.0" encoding="utf-8"?>
<!-- Generator: Adobe Illustrator 16.0.0, SVG Export Plug-In . SVG Version: 6.00 Build 0)  -->
<!DOCTYPE svg PUBLIC "-//W3C//DTD SVG 1.1//EN" "http://www.w3.org/Graphics/SVG/1.1/DTD/svg11.dtd">
<svg version="1.1" id="Layer_1" xmlns="http://www.w3.org/2000/svg" xmlns:xlink="http://www.w3.org/1999/xlink" x="0px" y="0px"
	 width="64px" height="64px" viewBox="0 0 64 64" enable-background="new 0 0 64 64" xml:space="preserve">
<g>
	<path fill="#9ECEF8" d="M36.369,31.222l-6.582,6.108c-0.832,0.712-1.364,1.743-1.364,2.906c0,2.145,1.779,3.887,3.971,3.887
		c2.195,0,3.975-1.742,3.975-3.887C36.369,40.221,36.369,31.222,36.369,31.222z"/>
</g>
<g>
	<path fill="#9ECEF8" d="M36.369,46.736l-6.582,6.107c-0.832,0.713-1.364,1.743-1.364,2.907c0,2.146,1.779,3.886,3.971,3.886
		c2.195,0,3.975-1.74,3.975-3.886C36.369,55.736,36.369,46.736,36.369,46.736z"/>
</g>
<g>
	<path fill="#9ECEF8" d="M47.137,36.391l-6.582,6.104c-0.83,0.714-1.365,1.745-1.365,2.907c0,2.146,1.779,3.887,3.973,3.887
		s3.977-1.74,3.977-3.887C47.137,45.389,47.137,36.391,47.137,36.391z"/>
</g>
<g>
	<path fill="#9ECEF8" d="M26.005,26.495l-6.583,6.106c-0.831,0.711-1.364,1.744-1.364,2.905c0,2.147,1.778,3.888,3.973,3.888
		c2.195,0,3.974-1.74,3.974-3.888C26.005,35.493,26.005,26.495,26.005,26.495z"/>
</g>
<g>
	<path fill="#9ECEF8" d="M25.158,42.838l-6.581,6.107c-0.831,0.712-1.365,1.744-1.365,2.906c0,2.145,1.779,3.888,3.974,3.888
		c2.193,0,3.972-1.743,3.972-3.888C25.158,51.837,25.158,42.838,25.158,42.838z"/>
</g>
<path fill="#FFFFFF" d="M56.074,29.737c-0.182-3.214-1.326-5.885-3.413-7.94c-2.448-2.417-5.453-3.157-6.448-3.343
	c-0.027-3.078-1.236-6.001-3.503-8.459c-3.11-3.372-7.832-5.386-12.631-5.386c-4.451,0-8.988,2.095-12.135,5.604
	c-2.435,2.715-3.767,5.948-3.758,9.114C8.408,20.127,4.063,24.701,4.063,30c0,5.896,3.721,10.948,6.767,10.95h0.002l2.464-0.005
	l3.135-2.689l-5.6,0.005C9.666,38.259,6.812,34.684,6.812,30c0-4.243,4.046-7.953,8.832-8.101h1.567l-0.204-1.52
	c-0.375-2.787,0.72-5.847,3.004-8.393c2.633-2.936,6.397-4.688,10.068-4.688c4.032,0,7.991,1.681,10.589,4.496
	c2.061,2.237,3.037,4.98,2.744,7.729l-0.082,1.478h1.52c0.812,0,3.633,0.493,5.86,2.688c1.776,1.753,2.664,4.133,2.64,7.077
	l-0.014,1.353l1.207-0.002l0.208,0.045c1.453,0.3,2.511,1.566,2.511,3.01c0,1.277-0.472,2.449-0.773,3.07l-2.309,0.006l-3.242,2.691
	l7.11-0.008l0.406-0.609c0.063-0.094,1.558-2.355,1.558-5.15C60.012,32.734,58.432,30.559,56.074,29.737z"/>
</svg>
